<svg width="24" height="24" viewBox="0 0 24 24" fill="none" xmlns="http://www.w3.org/2000/svg">
<g clip-path="url(#clip0)">
<path d="M23.2735 0.504196H0.726511C0.610126 0.504196 0.515778 0.596427 0.515778 0.710199V23.2898C0.515778 23.4036 0.610126 23.4958 0.726511 23.4958H23.2735C23.3899 23.4958 23.4842 23.4036 23.4842 23.2898V0.710199C23.4842 0.596427 23.3899 0.504196 23.2735 0.504196Z" stroke="#192A3E" stroke-width="2" stroke-miterlimit="10"/>
<path d="M12.2181 20.9027C13.2786 20.9027 14.1383 20.0623 14.1383 19.0257C14.1383 17.989 13.2786 17.1486 12.2181 17.1486C11.1576 17.1486 10.2979 17.989 10.2979 19.0257C10.2979 20.0623 11.1576 20.9027 12.2181 20.9027Z" fill="#192A3E"/>
<path d="M11.4739 15.5136H12.9682L14.2002 4.60984C14.2002 4.60984 14.0764 3.03961 12.0943 3.03961C11.6486 3.05748 11.2222 3.22245 10.8848 3.50761C10.5473 3.79278 10.3186 4.18131 10.236 4.60984L11.4739 15.5136Z" fill="#192A3E"/>
</g>
<defs>
<clipPath id="clip0">
<rect width="24" height="24" fill="white"/>
</clipPath>
</defs>
</svg>
