<svg width="17" height="17" viewBox="0 0 17 17" fill="none" xmlns="http://www.w3.org/2000/svg">
<circle cx="8.5" cy="8.5" r="8.5" fill="#C2CFE0"/>
<path d="M13.1913 9.93634H12.8642C12.8561 9.93634 12.8481 9.93236 12.84 9.92439L12.7915 9.91245C12.4442 9.86466 12.1474 9.71335 11.9011 9.4585C11.6548 9.20365 11.5236 8.90898 11.5074 8.57449C11.4751 8.20017 11.5579 7.86967 11.7557 7.58296C11.9536 7.29625 12.2302 7.10113 12.5856 6.9976C12.5937 6.98964 12.6058 6.98366 12.6219 6.97968C12.6381 6.9757 12.6522 6.97172 12.6643 6.96774C12.6764 6.96375 12.6886 6.96176 12.7007 6.96176C12.7128 6.96176 12.7269 6.95977 12.7431 6.95579C12.7592 6.95181 12.7734 6.94782 12.7855 6.94384C12.7976 6.93986 12.8117 6.93588 12.8279 6.9319C12.844 6.92791 12.8561 6.92592 12.8642 6.92592H13.1913L13.2216 6.9319L13.264 6.94982C13.579 6.9976 13.8515 7.12702 14.0817 7.33806C14.3119 7.54911 14.4593 7.80993 14.5239 8.12053C14.532 8.14443 14.54 8.17628 14.5481 8.2161C14.5562 8.23999 14.5602 8.25592 14.5602 8.26389V8.61032C14.5521 8.63422 14.5441 8.65014 14.536 8.65811C14.4875 8.96871 14.3583 9.23351 14.1483 9.45252C13.9384 9.67154 13.6799 9.81688 13.373 9.88856C13.3488 9.89652 13.3165 9.90648 13.2761 9.91842C13.2357 9.93037 13.2075 9.93634 13.1913 9.93634ZM3.88748 6.92592H4.21456L4.24485 6.9319L4.28725 6.94982C4.63453 6.9976 4.93133 7.15091 5.17766 7.40974C5.42398 7.66857 5.55522 7.96523 5.57137 8.29972C5.58752 8.54661 5.5532 8.77757 5.4684 8.9926C5.3836 9.20763 5.2564 9.3908 5.0868 9.54212C4.9172 9.69344 4.71529 9.80493 4.48108 9.87661C4.45685 9.87661 4.36801 9.89652 4.21456 9.93634H3.88748C3.8794 9.93634 3.86729 9.93236 3.85113 9.92439L3.81479 9.91245C3.19292 9.80095 2.78103 9.44257 2.57913 8.8373C2.57105 8.80544 2.55894 8.75965 2.54278 8.69992C2.52663 8.64019 2.51855 8.60634 2.51855 8.59838V8.26389L2.53067 8.25194C2.53875 8.22805 2.54278 8.21212 2.54278 8.20416C2.59124 7.89356 2.72046 7.62676 2.93044 7.40377C3.14042 7.18077 3.4029 7.03344 3.71788 6.96176C3.75018 6.9538 3.80268 6.94185 3.87536 6.92592H3.88748ZM8.36979 6.92592H8.70899L8.73927 6.93787L8.78168 6.94982C9.12895 7.00556 9.42576 7.16285 9.67208 7.42169C9.91841 7.68052 10.0496 7.97718 10.0658 8.31167C10.0819 8.69395 9.98503 9.03043 9.77505 9.32112C9.56507 9.6118 9.2824 9.80095 8.92705 9.88856C8.87859 9.89652 8.8059 9.91245 8.70899 9.93634H8.36979L8.3395 9.92439L8.2971 9.91245C7.94982 9.86466 7.65302 9.70936 7.4067 9.44655C7.16037 9.18374 7.02913 8.88508 7.01298 8.55059C6.99683 8.16832 7.09374 7.83184 7.30372 7.54115C7.51371 7.25046 7.79637 7.06131 8.15173 6.97371C8.20019 6.96574 8.27287 6.94982 8.36979 6.92592Z" fill="white"/>
</svg>
