<svg width="392" height="248" viewBox="0 0 392 248" fill="none" xmlns="http://www.w3.org/2000/svg">
<path d="M293.612 111.128C294.717 111.128 295.615 110.233 295.592 109.128C295.281 93.5352 291.325 78.2211 284.031 64.4148C276.425 50.0186 265.419 37.6973 251.969 28.5214C238.519 19.3455 223.032 13.5925 206.854 11.7622C191.338 10.0069 175.636 11.9104 161.004 17.3081C159.967 17.6904 159.461 18.8528 159.864 19.8813L176.644 62.7116C177.047 63.74 178.206 64.2431 179.25 63.8816C186.296 61.4413 193.807 60.6052 201.233 61.4453C209.322 62.3604 217.066 65.2369 223.791 69.8249C230.516 74.4129 236.019 80.5735 239.822 87.7716C243.313 94.3795 245.274 101.678 245.572 109.129C245.617 110.233 246.508 111.128 247.612 111.128H293.612Z" fill="#2489C7" stroke="white"/>
<path d="M159.134 18.0191C140.963 25.1384 125.271 37.4195 113.995 53.3485C102.718 69.2775 96.3489 88.1581 95.6726 107.663L145.643 109.396C145.981 99.6432 149.165 90.2029 154.804 82.2384C160.442 74.2739 168.288 68.1334 177.373 64.5737L159.134 18.0191Z" fill="#7FB9A8" stroke="white"/>
<path d="M95.6726 107.663C95.0575 125.402 99.175 142.985 107.602 158.606C116.029 174.228 128.462 187.325 143.625 196.552L169.619 153.84C162.038 149.227 155.821 142.678 151.607 134.867C147.394 127.057 145.335 118.265 145.643 109.396L95.6726 107.663Z" fill="#04304B" stroke="white"/>
<path d="M143.625 196.552C162.779 208.21 185.296 213.091 207.558 210.412C229.82 207.734 250.536 197.651 266.379 181.783L230.996 146.456C223.074 154.39 212.716 159.431 201.585 160.77C190.454 162.11 179.196 159.669 169.619 153.84L143.625 196.552Z" fill="#109CF1" stroke="white"/>
<path d="M266.379 181.783C285.098 163.034 295.612 137.623 295.612 111.128H245.612C245.612 124.376 240.355 137.081 230.996 146.456L266.379 181.783Z" fill="#8C7AB9" stroke="white"/>
<path d="M251.969 28.5214L263.241 12" stroke="black"/>
<path d="M272.434 3.07812L268.901 11H267.764L271.285 3.35938H266.668V2.46875H272.434V3.07812ZM274.162 6.72266L274.596 2.46875H278.967V3.4707H275.516L275.258 5.79688C275.676 5.55078 276.151 5.42773 276.682 5.42773C277.459 5.42773 278.076 5.68555 278.533 6.20117C278.99 6.71289 279.219 7.40625 279.219 8.28125C279.219 9.16016 278.981 9.85352 278.504 10.3613C278.031 10.8652 277.369 11.1172 276.518 11.1172C275.764 11.1172 275.149 10.9082 274.672 10.4902C274.196 10.0723 273.924 9.49414 273.858 8.75586H274.883C274.949 9.24414 275.123 9.61328 275.405 9.86328C275.686 10.1094 276.057 10.2324 276.518 10.2324C277.022 10.2324 277.416 10.0605 277.701 9.7168C277.99 9.37305 278.135 8.89844 278.135 8.29297C278.135 7.72266 277.979 7.26562 277.666 6.92188C277.358 6.57422 276.946 6.40039 276.43 6.40039C275.957 6.40039 275.586 6.50391 275.317 6.71094L275.03 6.94531L274.162 6.72266ZM285.746 7.81836H282.887V6.93359H285.746V7.81836ZM293.082 7.54883H291.078V11H289.948V2.46875H292.772C293.733 2.46875 294.471 2.6875 294.987 3.125C295.506 3.5625 295.766 4.19922 295.766 5.03516C295.766 5.56641 295.621 6.0293 295.332 6.42383C295.047 6.81836 294.649 7.11328 294.137 7.30859L296.141 10.9297V11H294.934L293.082 7.54883ZM291.078 6.62891H292.807C293.365 6.62891 293.809 6.48438 294.137 6.19531C294.469 5.90625 294.635 5.51953 294.635 5.03516C294.635 4.50781 294.477 4.10352 294.16 3.82227C293.848 3.54102 293.395 3.39844 292.801 3.39453H291.078V6.62891ZM302.774 3.39453H300.031V11H298.912V3.39453H296.176V2.46875H302.774V3.39453ZM306.957 9.50586L309.395 2.46875H310.625L307.461 11H306.465L303.307 2.46875H304.531L306.957 9.50586Z" fill="black"/>
<path d="M113.995 53.3485L97.671 41.7925" stroke="black"/>
<path d="M34.0851 36.5151L34.5187 32.2612H38.8898V33.2632H35.4386L35.1808 35.5894C35.5988 35.3433 36.0734 35.2202 36.6046 35.2202C37.382 35.2202 37.9991 35.478 38.4562 35.9937C38.9132 36.5054 39.1417 37.1987 39.1417 38.0737C39.1417 38.9526 38.9034 39.646 38.4269 40.1538C37.9542 40.6577 37.2921 40.9097 36.4406 40.9097C35.6866 40.9097 35.0714 40.7007 34.5948 40.2827C34.1183 39.8647 33.8468 39.2866 33.7804 38.5483H34.8058C34.8722 39.0366 35.046 39.4058 35.3273 39.6558C35.6085 39.9019 35.9796 40.0249 36.4406 40.0249C36.9445 40.0249 37.339 39.853 37.6241 39.5093C37.9132 39.1655 38.0577 38.6909 38.0577 38.0854C38.0577 37.5151 37.9015 37.0581 37.589 36.7144C37.2804 36.3667 36.8683 36.1929 36.3527 36.1929C35.88 36.1929 35.5089 36.2964 35.2394 36.5034L34.9523 36.7378L34.0851 36.5151ZM45.6749 37.1538C45.6749 38.4233 45.4581 39.3667 45.0245 39.9839C44.5909 40.6011 43.9132 40.9097 42.9913 40.9097C42.0812 40.9097 41.4073 40.6089 40.9698 40.0073C40.5323 39.4019 40.3058 38.4995 40.2902 37.3003V35.853C40.2902 34.5991 40.507 33.6675 40.9406 33.0581C41.3741 32.4487 42.0538 32.144 42.9796 32.144C43.8976 32.144 44.5734 32.439 45.007 33.0288C45.4406 33.6147 45.6632 34.521 45.6749 35.7476V37.1538ZM44.5909 35.6714C44.5909 34.7534 44.462 34.0854 44.2042 33.6675C43.9464 33.2456 43.5382 33.0347 42.9796 33.0347C42.4249 33.0347 42.0206 33.2437 41.7667 33.6616C41.5128 34.0796 41.382 34.7222 41.3741 35.5894V37.3237C41.3741 38.2456 41.507 38.9272 41.7726 39.3687C42.0421 39.8062 42.4484 40.0249 42.9913 40.0249C43.5265 40.0249 43.923 39.8179 44.1808 39.4038C44.4425 38.9897 44.5792 38.3374 44.5909 37.4468V35.6714ZM52.4073 37.6108H49.548V36.7261H52.4073V37.6108ZM58.0675 32.2612L60.8566 39.2222L63.6456 32.2612H65.1046V40.7925H63.9796V37.4702L64.0851 33.8843L61.2843 40.7925H60.423L57.6281 33.9019L57.7394 37.4702V40.7925H56.6144V32.2612H58.0675ZM68.0988 40.7925H67.0148V34.4526H68.0988V40.7925ZM66.9269 32.771C66.9269 32.5952 66.9796 32.4468 67.0851 32.3257C67.1945 32.2046 67.3546 32.144 67.5656 32.144C67.7765 32.144 67.9366 32.2046 68.046 32.3257C68.1554 32.4468 68.2101 32.5952 68.2101 32.771C68.2101 32.9468 68.1554 33.0933 68.046 33.2104C67.9366 33.3276 67.7765 33.3862 67.5656 33.3862C67.3546 33.3862 67.1945 33.3276 67.0851 33.2104C66.9796 33.0933 66.9269 32.9468 66.9269 32.771ZM73.5304 39.1108C73.5304 38.8179 73.4191 38.5913 73.1964 38.4312C72.9777 38.2671 72.5929 38.1265 72.0421 38.0093C71.4952 37.8921 71.0597 37.7515 70.7355 37.5874C70.4152 37.4233 70.1769 37.228 70.0206 37.0015C69.8683 36.7749 69.7921 36.5054 69.7921 36.1929C69.7921 35.6733 70.0109 35.2339 70.4484 34.8745C70.8898 34.5151 71.4523 34.3354 72.1359 34.3354C72.8546 34.3354 73.4366 34.521 73.882 34.8921C74.3312 35.2632 74.5558 35.7378 74.5558 36.3159H73.4659C73.4659 36.019 73.339 35.7632 73.0851 35.5483C72.8351 35.3335 72.5187 35.2261 72.1359 35.2261C71.7413 35.2261 71.4327 35.312 71.2101 35.4839C70.9874 35.6558 70.8761 35.8804 70.8761 36.1577C70.8761 36.4194 70.9796 36.6167 71.1866 36.7495C71.3937 36.8823 71.7667 37.0093 72.3058 37.1304C72.8488 37.2515 73.2882 37.396 73.6241 37.564C73.9601 37.7319 74.2081 37.9351 74.3683 38.1733C74.5323 38.4077 74.6144 38.6948 74.6144 39.0347C74.6144 39.6011 74.3878 40.0562 73.9347 40.3999C73.4816 40.7397 72.8937 40.9097 72.171 40.9097C71.6632 40.9097 71.214 40.8198 70.8234 40.6401C70.4327 40.4604 70.1261 40.2104 69.9034 39.8901C69.6847 39.5659 69.5753 39.2163 69.5753 38.8413H70.6593C70.6788 39.2046 70.8234 39.4937 71.0929 39.7085C71.3663 39.9194 71.7257 40.0249 72.171 40.0249C72.5812 40.0249 72.9093 39.9429 73.1554 39.7788C73.4054 39.6108 73.5304 39.3882 73.5304 39.1108ZM79.7179 39.1108C79.7179 38.8179 79.6066 38.5913 79.3839 38.4312C79.1652 38.2671 78.7804 38.1265 78.2296 38.0093C77.6827 37.8921 77.2472 37.7515 76.923 37.5874C76.6027 37.4233 76.3644 37.228 76.2081 37.0015C76.0558 36.7749 75.9796 36.5054 75.9796 36.1929C75.9796 35.6733 76.1984 35.2339 76.6359 34.8745C77.0773 34.5151 77.6398 34.3354 78.3234 34.3354C79.0421 34.3354 79.6241 34.521 80.0695 34.8921C80.5187 35.2632 80.7433 35.7378 80.7433 36.3159H79.6534C79.6534 36.019 79.5265 35.7632 79.2726 35.5483C79.0226 35.3335 78.7062 35.2261 78.3234 35.2261C77.9288 35.2261 77.6202 35.312 77.3976 35.4839C77.1749 35.6558 77.0636 35.8804 77.0636 36.1577C77.0636 36.4194 77.1671 36.6167 77.3741 36.7495C77.5812 36.8823 77.9542 37.0093 78.4933 37.1304C79.0363 37.2515 79.4757 37.396 79.8116 37.564C80.1476 37.7319 80.3956 37.9351 80.5558 38.1733C80.7198 38.4077 80.8019 38.6948 80.8019 39.0347C80.8019 39.6011 80.5753 40.0562 80.1222 40.3999C79.6691 40.7397 79.0812 40.9097 78.3585 40.9097C77.8507 40.9097 77.4015 40.8198 77.0109 40.6401C76.6202 40.4604 76.3136 40.2104 76.0909 39.8901C75.8722 39.5659 75.7628 39.2163 75.7628 38.8413H76.8468C76.8663 39.2046 77.0109 39.4937 77.2804 39.7085C77.5538 39.9194 77.9132 40.0249 78.3585 40.0249C78.7687 40.0249 79.0968 39.9429 79.3429 39.7788C79.5929 39.6108 79.7179 39.3882 79.7179 39.1108ZM83.3917 40.7925H82.3077V34.4526H83.3917V40.7925ZM82.2198 32.771C82.2198 32.5952 82.2726 32.4468 82.3781 32.3257C82.4874 32.2046 82.6476 32.144 82.8585 32.144C83.0695 32.144 83.2296 32.2046 83.339 32.3257C83.4484 32.4468 83.5031 32.5952 83.5031 32.771C83.5031 32.9468 83.4484 33.0933 83.339 33.2104C83.2296 33.3276 83.0695 33.3862 82.8585 33.3862C82.6476 33.3862 82.4874 33.3276 82.3781 33.2104C82.2726 33.0933 82.2198 32.9468 82.2198 32.771ZM86.1573 34.4526L86.1925 35.2495C86.6769 34.6401 87.3097 34.3354 88.0909 34.3354C89.4308 34.3354 90.1066 35.0913 90.1183 36.603V40.7925H89.0343V36.5972C89.0304 36.1401 88.9249 35.8022 88.7179 35.5835C88.5148 35.3647 88.1964 35.2554 87.7628 35.2554C87.4113 35.2554 87.1027 35.3491 86.837 35.5366C86.5714 35.7241 86.3644 35.9702 86.2159 36.2749V40.7925H85.132V34.4526H86.1573ZM91.4952 37.5698C91.4952 36.5815 91.7238 35.7964 92.1808 35.2144C92.6378 34.6284 93.2433 34.3354 93.9972 34.3354C94.7706 34.3354 95.3741 34.6089 95.8077 35.1558L95.8605 34.4526H96.8507V40.6401C96.8507 41.4604 96.6066 42.1069 96.1183 42.5796C95.6339 43.0522 94.9816 43.2886 94.1613 43.2886C93.7042 43.2886 93.257 43.1909 92.8195 42.9956C92.382 42.8003 92.048 42.5327 91.8175 42.1929L92.38 41.5425C92.8448 42.1167 93.4132 42.4038 94.0851 42.4038C94.6124 42.4038 95.0226 42.2554 95.3156 41.9585C95.6124 41.6616 95.7609 41.2437 95.7609 40.7046V40.1597C95.3273 40.6597 94.7355 40.9097 93.9855 40.9097C93.2433 40.9097 92.6417 40.6108 92.1808 40.0132C91.7238 39.4155 91.4952 38.6011 91.4952 37.5698ZM92.5851 37.6929C92.5851 38.4077 92.7316 38.9702 93.0245 39.3804C93.3175 39.7866 93.7277 39.9897 94.255 39.9897C94.9386 39.9897 95.4406 39.6792 95.7609 39.0581V36.1636C95.4288 35.5581 94.9308 35.2554 94.2667 35.2554C93.7394 35.2554 93.3273 35.4604 93.0304 35.8706C92.7335 36.2808 92.5851 36.8882 92.5851 37.6929Z" fill="black"/>
<path d="M107.602 158.606L90 168.102" stroke="black"/>
<path d="M1.875 177.723L2.30859 173.469H6.67969V174.471H3.22852L2.9707 176.797C3.38867 176.551 3.86328 176.428 4.39453 176.428C5.17188 176.428 5.78906 176.686 6.24609 177.201C6.70312 177.713 6.93164 178.406 6.93164 179.281C6.93164 180.16 6.69336 180.854 6.2168 181.361C5.74414 181.865 5.08203 182.117 4.23047 182.117C3.47656 182.117 2.86133 181.908 2.38477 181.49C1.9082 181.072 1.63672 180.494 1.57031 179.756H2.5957C2.66211 180.244 2.83594 180.613 3.11719 180.863C3.39844 181.109 3.76953 181.232 4.23047 181.232C4.73438 181.232 5.12891 181.061 5.41406 180.717C5.70312 180.373 5.84766 179.898 5.84766 179.293C5.84766 178.723 5.69141 178.266 5.37891 177.922C5.07031 177.574 4.6582 177.4 4.14258 177.4C3.66992 177.4 3.29883 177.504 3.0293 177.711L2.74219 177.945L1.875 177.723ZM13.4648 178.361C13.4648 179.631 13.248 180.574 12.8145 181.191C12.3809 181.809 11.7031 182.117 10.7812 182.117C9.87109 182.117 9.19727 181.816 8.75977 181.215C8.32227 180.609 8.0957 179.707 8.08008 178.508V177.061C8.08008 175.807 8.29688 174.875 8.73047 174.266C9.16406 173.656 9.84375 173.352 10.7695 173.352C11.6875 173.352 12.3633 173.646 12.7969 174.236C13.2305 174.822 13.4531 175.729 13.4648 176.955V178.361ZM12.3809 176.879C12.3809 175.961 12.252 175.293 11.9941 174.875C11.7363 174.453 11.3281 174.242 10.7695 174.242C10.2148 174.242 9.81055 174.451 9.55664 174.869C9.30273 175.287 9.17188 175.93 9.16406 176.797V178.531C9.16406 179.453 9.29688 180.135 9.5625 180.576C9.83203 181.014 10.2383 181.232 10.7812 181.232C11.3164 181.232 11.7129 181.025 11.9707 180.611C12.2324 180.197 12.3691 179.545 12.3809 178.654V176.879ZM20.1973 178.818H17.3379V177.934H20.1973V178.818ZM22.5527 178.66V182H21.4277V173.469H24.5742C25.5078 173.469 26.2383 173.707 26.7656 174.184C27.2969 174.66 27.5625 175.291 27.5625 176.076C27.5625 176.904 27.3027 177.543 26.7832 177.992C26.2676 178.438 25.5273 178.66 24.5625 178.66H22.5527ZM22.5527 177.74H24.5742C25.1758 177.74 25.6367 177.6 25.957 177.318C26.2773 177.033 26.4375 176.623 26.4375 176.088C26.4375 175.58 26.2773 175.174 25.957 174.869C25.6367 174.564 25.1973 174.406 24.6387 174.395H22.5527V177.74ZM31.377 182.117C30.5176 182.117 29.8184 181.836 29.2793 181.273C28.7402 180.707 28.4707 179.951 28.4707 179.006V178.807C28.4707 178.178 28.5898 177.617 28.8281 177.125C29.0703 176.629 29.4062 176.242 29.8359 175.965C30.2695 175.684 30.7383 175.543 31.2422 175.543C32.0664 175.543 32.707 175.814 33.1641 176.357C33.6211 176.9 33.8496 177.678 33.8496 178.689V179.141H29.5547C29.5703 179.766 29.752 180.271 30.0996 180.658C30.4512 181.041 30.8965 181.232 31.4355 181.232C31.8184 181.232 32.1426 181.154 32.4082 180.998C32.6738 180.842 32.9062 180.635 33.1055 180.377L33.7676 180.893C33.2363 181.709 32.4395 182.117 31.377 182.117ZM31.2422 176.434C30.8047 176.434 30.4375 176.594 30.1406 176.914C29.8438 177.23 29.6602 177.676 29.5898 178.25H32.7656V178.168C32.7344 177.617 32.5859 177.191 32.3203 176.891C32.0547 176.586 31.6953 176.434 31.2422 176.434ZM36.1348 175.66L36.1699 176.457C36.6543 175.848 37.2871 175.543 38.0684 175.543C39.4082 175.543 40.084 176.299 40.0957 177.811V182H39.0117V177.805C39.0078 177.348 38.9023 177.01 38.6953 176.791C38.4922 176.572 38.1738 176.463 37.7402 176.463C37.3887 176.463 37.0801 176.557 36.8145 176.744C36.5488 176.932 36.3418 177.178 36.1934 177.482V182H35.1094V175.66H36.1348ZM41.4668 178.777C41.4668 177.805 41.6973 177.023 42.1582 176.434C42.6191 175.84 43.2227 175.543 43.9688 175.543C44.7109 175.543 45.2988 175.797 45.7324 176.305V173H46.8164V182H45.8203L45.7676 181.32C45.334 181.852 44.7305 182.117 43.957 182.117C43.2227 182.117 42.623 181.816 42.1582 181.215C41.6973 180.613 41.4668 179.828 41.4668 178.859V178.777ZM42.5508 178.9C42.5508 179.619 42.6992 180.182 42.9961 180.588C43.293 180.994 43.7031 181.197 44.2266 181.197C44.9141 181.197 45.416 180.889 45.7324 180.271V177.359C45.4082 176.762 44.9102 176.463 44.2383 176.463C43.707 176.463 43.293 176.668 42.9961 177.078C42.6992 177.488 42.5508 178.096 42.5508 178.9ZM49.6816 182H48.5977V175.66H49.6816V182ZM48.5098 173.979C48.5098 173.803 48.5625 173.654 48.668 173.533C48.7773 173.412 48.9375 173.352 49.1484 173.352C49.3594 173.352 49.5195 173.412 49.6289 173.533C49.7383 173.654 49.793 173.803 49.793 173.979C49.793 174.154 49.7383 174.301 49.6289 174.418C49.5195 174.535 49.3594 174.594 49.1484 174.594C48.9375 174.594 48.7773 174.535 48.668 174.418C48.5625 174.301 48.5098 174.154 48.5098 173.979ZM52.4473 175.66L52.4824 176.457C52.9668 175.848 53.5996 175.543 54.3809 175.543C55.7207 175.543 56.3965 176.299 56.4082 177.811V182H55.3242V177.805C55.3203 177.348 55.2148 177.01 55.0078 176.791C54.8047 176.572 54.4863 176.463 54.0527 176.463C53.7012 176.463 53.3926 176.557 53.127 176.744C52.8613 176.932 52.6543 177.178 52.5059 177.482V182H51.4219V175.66H52.4473ZM57.7852 178.777C57.7852 177.789 58.0137 177.004 58.4707 176.422C58.9277 175.836 59.5332 175.543 60.2871 175.543C61.0605 175.543 61.6641 175.816 62.0977 176.363L62.1504 175.66H63.1406V181.848C63.1406 182.668 62.8965 183.314 62.4082 183.787C61.9238 184.26 61.2715 184.496 60.4512 184.496C59.9941 184.496 59.5469 184.398 59.1094 184.203C58.6719 184.008 58.3379 183.74 58.1074 183.4L58.6699 182.75C59.1348 183.324 59.7031 183.611 60.375 183.611C60.9023 183.611 61.3125 183.463 61.6055 183.166C61.9023 182.869 62.0508 182.451 62.0508 181.912V181.367C61.6172 181.867 61.0254 182.117 60.2754 182.117C59.5332 182.117 58.9316 181.818 58.4707 181.221C58.0137 180.623 57.7852 179.809 57.7852 178.777ZM58.875 178.9C58.875 179.615 59.0215 180.178 59.3145 180.588C59.6074 180.994 60.0176 181.197 60.5449 181.197C61.2285 181.197 61.7305 180.887 62.0508 180.266V177.371C61.7188 176.766 61.2207 176.463 60.5566 176.463C60.0293 176.463 59.6172 176.668 59.3203 177.078C59.0234 177.488 58.875 178.096 58.875 178.9ZM67.9277 182V173.469H70.3359C71.0781 173.469 71.7344 173.633 72.3047 173.961C72.875 174.289 73.3145 174.756 73.623 175.361C73.9355 175.967 74.0938 176.662 74.0977 177.447V177.992C74.0977 178.797 73.9414 179.502 73.6289 180.107C73.3203 180.713 72.877 181.178 72.2988 181.502C71.7246 181.826 71.0547 181.992 70.2891 182H67.9277ZM69.0527 174.395V181.08H70.2363C71.1035 181.08 71.7773 180.811 72.2578 180.271C72.7422 179.732 72.9844 178.965 72.9844 177.969V177.471C72.9844 176.502 72.7559 175.75 72.2988 175.215C71.8457 174.676 71.2012 174.402 70.3652 174.395H69.0527ZM76.8105 182H75.7266V175.66H76.8105V182ZM75.6387 173.979C75.6387 173.803 75.6914 173.654 75.7969 173.533C75.9062 173.412 76.0664 173.352 76.2773 173.352C76.4883 173.352 76.6484 173.412 76.7578 173.533C76.8672 173.654 76.9219 173.803 76.9219 173.979C76.9219 174.154 76.8672 174.301 76.7578 174.418C76.6484 174.535 76.4883 174.594 76.2773 174.594C76.0664 174.594 75.9062 174.535 75.7969 174.418C75.6914 174.301 75.6387 174.154 75.6387 173.979ZM82.2422 180.318C82.2422 180.025 82.1309 179.799 81.9082 179.639C81.6895 179.475 81.3047 179.334 80.7539 179.217C80.207 179.1 79.7715 178.959 79.4473 178.795C79.127 178.631 78.8887 178.436 78.7324 178.209C78.5801 177.982 78.5039 177.713 78.5039 177.4C78.5039 176.881 78.7227 176.441 79.1602 176.082C79.6016 175.723 80.1641 175.543 80.8477 175.543C81.5664 175.543 82.1484 175.729 82.5938 176.1C83.043 176.471 83.2676 176.945 83.2676 177.523H82.1777C82.1777 177.227 82.0508 176.971 81.7969 176.756C81.5469 176.541 81.2305 176.434 80.8477 176.434C80.4531 176.434 80.1445 176.52 79.9219 176.691C79.6992 176.863 79.5879 177.088 79.5879 177.365C79.5879 177.627 79.6914 177.824 79.8984 177.957C80.1055 178.09 80.4785 178.217 81.0176 178.338C81.5605 178.459 82 178.604 82.3359 178.771C82.6719 178.939 82.9199 179.143 83.0801 179.381C83.2441 179.615 83.3262 179.902 83.3262 180.242C83.3262 180.809 83.0996 181.264 82.6465 181.607C82.1934 181.947 81.6055 182.117 80.8828 182.117C80.375 182.117 79.9258 182.027 79.5352 181.848C79.1445 181.668 78.8379 181.418 78.6152 181.098C78.3965 180.773 78.2871 180.424 78.2871 180.049H79.3711C79.3906 180.412 79.5352 180.701 79.8047 180.916C80.0781 181.127 80.4375 181.232 80.8828 181.232C81.293 181.232 81.6211 181.15 81.8672 180.986C82.1172 180.818 82.2422 180.596 82.2422 180.318ZM90.0938 178.9C90.0938 179.865 89.873 180.643 89.4316 181.232C88.9902 181.822 88.3926 182.117 87.6387 182.117C86.8691 182.117 86.2637 181.873 85.8223 181.385V184.438H84.7383V175.66H85.7285L85.7812 176.363C86.2227 175.816 86.8359 175.543 87.6211 175.543C88.3828 175.543 88.9844 175.83 89.4258 176.404C89.8711 176.979 90.0938 177.777 90.0938 178.801V178.9ZM89.0098 178.777C89.0098 178.062 88.8574 177.498 88.5527 177.084C88.248 176.67 87.8301 176.463 87.2988 176.463C86.6426 176.463 86.1504 176.754 85.8223 177.336V180.365C86.1465 180.943 86.6426 181.232 87.3105 181.232C87.8301 181.232 88.2422 181.027 88.5469 180.617C88.8555 180.203 89.0098 179.59 89.0098 178.777ZM95.3906 182C95.3281 181.875 95.2773 181.652 95.2383 181.332C94.7344 181.855 94.1328 182.117 93.4336 182.117C92.8086 182.117 92.2949 181.941 91.8926 181.59C91.4941 181.234 91.2949 180.785 91.2949 180.242C91.2949 179.582 91.5449 179.07 92.0449 178.707C92.5488 178.34 93.2559 178.156 94.166 178.156H95.2207V177.658C95.2207 177.279 95.1074 176.979 94.8809 176.756C94.6543 176.529 94.3203 176.416 93.8789 176.416C93.4922 176.416 93.168 176.514 92.9062 176.709C92.6445 176.904 92.5137 177.141 92.5137 177.418H91.4238C91.4238 177.102 91.5352 176.797 91.7578 176.504C91.9844 176.207 92.2891 175.973 92.6719 175.801C93.0586 175.629 93.4824 175.543 93.9434 175.543C94.6738 175.543 95.2461 175.727 95.6602 176.094C96.0742 176.457 96.2891 176.959 96.3047 177.6V180.518C96.3047 181.1 96.3789 181.562 96.5273 181.906V182H95.3906ZM93.5918 181.174C93.9316 181.174 94.2539 181.086 94.5586 180.91C94.8633 180.734 95.084 180.506 95.2207 180.225V178.924H94.3711C93.043 178.924 92.3789 179.312 92.3789 180.09C92.3789 180.43 92.4922 180.695 92.7188 180.887C92.9453 181.078 93.2363 181.174 93.5918 181.174ZM99.4746 174.125V175.66H100.658V176.498H99.4746V180.43C99.4746 180.684 99.5273 180.875 99.6328 181.004C99.7383 181.129 99.918 181.191 100.172 181.191C100.297 181.191 100.469 181.168 100.688 181.121V182C100.402 182.078 100.125 182.117 99.8555 182.117C99.3711 182.117 99.0059 181.971 98.7598 181.678C98.5137 181.385 98.3906 180.969 98.3906 180.43V176.498H97.2363V175.66H98.3906V174.125H99.4746ZM104.473 181.232C104.859 181.232 105.197 181.115 105.486 180.881C105.775 180.646 105.936 180.354 105.967 180.002H106.992C106.973 180.365 106.848 180.711 106.617 181.039C106.387 181.367 106.078 181.629 105.691 181.824C105.309 182.02 104.902 182.117 104.473 182.117C103.609 182.117 102.922 181.83 102.41 181.256C101.902 180.678 101.648 179.889 101.648 178.889V178.707C101.648 178.09 101.762 177.541 101.988 177.061C102.215 176.58 102.539 176.207 102.961 175.941C103.387 175.676 103.889 175.543 104.467 175.543C105.178 175.543 105.768 175.756 106.236 176.182C106.709 176.607 106.961 177.16 106.992 177.84H105.967C105.936 177.43 105.779 177.094 105.498 176.832C105.221 176.566 104.877 176.434 104.467 176.434C103.916 176.434 103.488 176.633 103.184 177.031C102.883 177.426 102.732 177.998 102.732 178.748V178.953C102.732 179.684 102.883 180.246 103.184 180.641C103.484 181.035 103.914 181.232 104.473 181.232ZM109.295 176.428C109.775 175.838 110.4 175.543 111.17 175.543C112.51 175.543 113.186 176.299 113.197 177.811V182H112.113V177.805C112.109 177.348 112.004 177.01 111.797 176.791C111.594 176.572 111.275 176.463 110.842 176.463C110.49 176.463 110.182 176.557 109.916 176.744C109.65 176.932 109.443 177.178 109.295 177.482V182H108.211V173H109.295V176.428Z" fill="black"/>
<path d="M207.558 210.412L209.947 230.269" stroke="black"/>
<path d="M211.154 240.723L211.588 236.469H215.959V237.471H212.508L212.25 239.797C212.668 239.551 213.142 239.428 213.674 239.428C214.451 239.428 215.068 239.686 215.525 240.201C215.982 240.713 216.211 241.406 216.211 242.281C216.211 243.16 215.972 243.854 215.496 244.361C215.023 244.865 214.361 245.117 213.51 245.117C212.756 245.117 212.14 244.908 211.664 244.49C211.187 244.072 210.916 243.494 210.849 242.756H211.875C211.941 243.244 212.115 243.613 212.396 243.863C212.677 244.109 213.049 244.232 213.51 244.232C214.013 244.232 214.408 244.061 214.693 243.717C214.982 243.373 215.127 242.898 215.127 242.293C215.127 241.723 214.97 241.266 214.658 240.922C214.349 240.574 213.937 240.4 213.422 240.4C212.949 240.4 212.578 240.504 212.308 240.711L212.021 240.945L211.154 240.723ZM222.744 241.361C222.744 242.631 222.527 243.574 222.094 244.191C221.66 244.809 220.982 245.117 220.06 245.117C219.15 245.117 218.476 244.816 218.039 244.215C217.601 243.609 217.375 242.707 217.359 241.508V240.061C217.359 238.807 217.576 237.875 218.01 237.266C218.443 236.656 219.123 236.352 220.049 236.352C220.967 236.352 221.642 236.646 222.076 237.236C222.51 237.822 222.732 238.729 222.744 239.955V241.361ZM221.66 239.879C221.66 238.961 221.531 238.293 221.273 237.875C221.015 237.453 220.607 237.242 220.049 237.242C219.494 237.242 219.09 237.451 218.836 237.869C218.582 238.287 218.451 238.93 218.443 239.797V241.531C218.443 242.453 218.576 243.135 218.842 243.576C219.111 244.014 219.517 244.232 220.06 244.232C220.595 244.232 220.992 244.025 221.25 243.611C221.511 243.197 221.648 242.545 221.66 241.654V239.879ZM229.476 241.818H226.617V240.934H229.476V241.818ZM234.808 241.66V245H233.683V236.469H236.83C237.763 236.469 238.494 236.707 239.021 237.184C239.552 237.66 239.818 238.291 239.818 239.076C239.818 239.904 239.558 240.543 239.039 240.992C238.523 241.438 237.783 241.66 236.818 241.66H234.808ZM234.808 240.74H236.83C237.431 240.74 237.892 240.6 238.213 240.318C238.533 240.033 238.693 239.623 238.693 239.088C238.693 238.58 238.533 238.174 238.213 237.869C237.892 237.564 237.453 237.406 236.894 237.395H234.808V240.74ZM243.633 245.117C242.773 245.117 242.074 244.836 241.535 244.273C240.996 243.707 240.726 242.951 240.726 242.006V241.807C240.726 241.178 240.845 240.617 241.084 240.125C241.326 239.629 241.662 239.242 242.092 238.965C242.525 238.684 242.994 238.543 243.498 238.543C244.322 238.543 244.963 238.814 245.42 239.357C245.877 239.9 246.105 240.678 246.105 241.689V242.141H241.81C241.826 242.766 242.008 243.271 242.355 243.658C242.707 244.041 243.152 244.232 243.691 244.232C244.074 244.232 244.398 244.154 244.664 243.998C244.929 243.842 245.162 243.635 245.361 243.377L246.023 243.893C245.492 244.709 244.695 245.117 243.633 245.117ZM243.498 239.434C243.06 239.434 242.693 239.594 242.396 239.914C242.099 240.23 241.916 240.676 241.845 241.25H245.021V241.168C244.99 240.617 244.842 240.191 244.576 239.891C244.31 239.586 243.951 239.434 243.498 239.434ZM248.39 238.66L248.426 239.457C248.91 238.848 249.543 238.543 250.324 238.543C251.664 238.543 252.34 239.299 252.351 240.811V245H251.267V240.805C251.263 240.348 251.158 240.01 250.951 239.791C250.748 239.572 250.429 239.463 249.996 239.463C249.644 239.463 249.336 239.557 249.07 239.744C248.804 239.932 248.597 240.178 248.449 240.482V245H247.365V238.66H248.39ZM253.722 241.777C253.722 240.805 253.953 240.023 254.414 239.434C254.875 238.84 255.478 238.543 256.224 238.543C256.967 238.543 257.554 238.797 257.988 239.305V236H259.072V245H258.076L258.023 244.32C257.59 244.852 256.986 245.117 256.213 245.117C255.478 245.117 254.879 244.816 254.414 244.215C253.953 243.613 253.722 242.828 253.722 241.859V241.777ZM254.806 241.9C254.806 242.619 254.955 243.182 255.252 243.588C255.549 243.994 255.959 244.197 256.482 244.197C257.17 244.197 257.672 243.889 257.988 243.271V240.359C257.664 239.762 257.166 239.463 256.494 239.463C255.963 239.463 255.549 239.668 255.252 240.078C254.955 240.488 254.806 241.096 254.806 241.9ZM261.937 245H260.853V238.66H261.937V245ZM260.765 236.979C260.765 236.803 260.818 236.654 260.924 236.533C261.033 236.412 261.193 236.352 261.404 236.352C261.615 236.352 261.775 236.412 261.885 236.533C261.994 236.654 262.049 236.803 262.049 236.979C262.049 237.154 261.994 237.301 261.885 237.418C261.775 237.535 261.615 237.594 261.404 237.594C261.193 237.594 261.033 237.535 260.924 237.418C260.818 237.301 260.765 237.154 260.765 236.979ZM264.703 238.66L264.738 239.457C265.222 238.848 265.855 238.543 266.636 238.543C267.976 238.543 268.652 239.299 268.664 240.811V245H267.58V240.805C267.576 240.348 267.47 240.01 267.263 239.791C267.06 239.572 266.742 239.463 266.308 239.463C265.957 239.463 265.648 239.557 265.383 239.744C265.117 239.932 264.91 240.178 264.761 240.482V245H263.677V238.66H264.703ZM270.041 241.777C270.041 240.789 270.269 240.004 270.726 239.422C271.183 238.836 271.789 238.543 272.543 238.543C273.316 238.543 273.92 238.816 274.353 239.363L274.406 238.66H275.396V244.848C275.396 245.668 275.152 246.314 274.664 246.787C274.179 247.26 273.527 247.496 272.707 247.496C272.25 247.496 271.802 247.398 271.365 247.203C270.927 247.008 270.594 246.74 270.363 246.4L270.926 245.75C271.39 246.324 271.959 246.611 272.631 246.611C273.158 246.611 273.568 246.463 273.861 246.166C274.158 245.869 274.306 245.451 274.306 244.912V244.367C273.873 244.867 273.281 245.117 272.531 245.117C271.789 245.117 271.187 244.818 270.726 244.221C270.269 243.623 270.041 242.809 270.041 241.777ZM271.131 241.9C271.131 242.615 271.277 243.178 271.57 243.588C271.863 243.994 272.273 244.197 272.801 244.197C273.484 244.197 273.986 243.887 274.306 243.266V240.371C273.974 239.766 273.476 239.463 272.812 239.463C272.285 239.463 271.873 239.668 271.576 240.078C271.279 240.488 271.131 241.096 271.131 241.9ZM281.39 245H280.265V236.469H281.39V245ZM284.308 238.66L284.344 239.457C284.828 238.848 285.461 238.543 286.242 238.543C287.582 238.543 288.258 239.299 288.269 240.811V245H287.185V240.805C287.181 240.348 287.076 240.01 286.869 239.791C286.666 239.572 286.347 239.463 285.914 239.463C285.562 239.463 285.254 239.557 284.988 239.744C284.722 239.932 284.515 240.178 284.367 240.482V245H283.283V238.66H284.308ZM295.517 243.506L296.736 238.66H297.82L295.974 245H295.095L293.554 240.195L292.054 245H291.176L289.336 238.66H290.414L291.662 243.406L293.138 238.66H294.011L295.517 243.506ZM302.842 245C302.779 244.875 302.728 244.652 302.689 244.332C302.185 244.855 301.584 245.117 300.885 245.117C300.26 245.117 299.746 244.941 299.344 244.59C298.945 244.234 298.746 243.785 298.746 243.242C298.746 242.582 298.996 242.07 299.496 241.707C300 241.34 300.707 241.156 301.617 241.156H302.672V240.658C302.672 240.279 302.558 239.979 302.332 239.756C302.105 239.529 301.771 239.416 301.33 239.416C300.943 239.416 300.619 239.514 300.357 239.709C300.095 239.904 299.965 240.141 299.965 240.418H298.875C298.875 240.102 298.986 239.797 299.209 239.504C299.435 239.207 299.74 238.973 300.123 238.801C300.51 238.629 300.933 238.543 301.394 238.543C302.125 238.543 302.697 238.727 303.111 239.094C303.525 239.457 303.74 239.959 303.756 240.6V243.518C303.756 244.1 303.83 244.562 303.978 244.906V245H302.842ZM301.043 244.174C301.383 244.174 301.705 244.086 302.01 243.91C302.314 243.734 302.535 243.506 302.672 243.225V241.924H301.822C300.494 241.924 299.83 242.312 299.83 243.09C299.83 243.43 299.943 243.695 300.17 243.887C300.396 244.078 300.687 244.174 301.043 244.174ZM308.519 239.633C308.355 239.605 308.177 239.592 307.986 239.592C307.275 239.592 306.793 239.895 306.539 240.5V245H305.455V238.66H306.51L306.527 239.393C306.883 238.826 307.386 238.543 308.039 238.543C308.25 238.543 308.41 238.57 308.519 238.625V239.633ZM309.14 241.777C309.14 240.805 309.371 240.023 309.832 239.434C310.293 238.84 310.896 238.543 311.642 238.543C312.385 238.543 312.972 238.797 313.406 239.305V236H314.49V245H313.494L313.441 244.32C313.008 244.852 312.404 245.117 311.631 245.117C310.896 245.117 310.297 244.816 309.832 244.215C309.371 243.613 309.14 242.828 309.14 241.859V241.777ZM310.224 241.9C310.224 242.619 310.373 243.182 310.67 243.588C310.967 243.994 311.377 244.197 311.9 244.197C312.588 244.197 313.09 243.889 313.406 243.271V240.359C313.082 239.762 312.584 239.463 311.912 239.463C311.381 239.463 310.967 239.668 310.67 240.078C310.373 240.488 310.224 241.096 310.224 241.9Z" fill="black"/>
<path d="M288.016 149.36L306.496 157.007" stroke="black"/>
<path d="M315.299 163H309.709V162.221L312.662 158.939C313.1 158.443 313.4 158.041 313.564 157.732C313.732 157.42 313.816 157.098 313.816 156.766C313.816 156.32 313.682 155.955 313.412 155.67C313.143 155.385 312.783 155.242 312.334 155.242C311.795 155.242 311.375 155.396 311.074 155.705C310.777 156.01 310.629 156.436 310.629 156.982H309.545C309.545 156.197 309.797 155.562 310.301 155.078C310.809 154.594 311.486 154.352 312.334 154.352C313.127 154.352 313.754 154.561 314.215 154.979C314.676 155.393 314.906 155.945 314.906 156.637C314.906 157.477 314.371 158.477 313.301 159.637L311.016 162.115H315.299V163ZM316.945 158.723L317.379 154.469H321.75V155.471H318.299L318.041 157.797C318.459 157.551 318.934 157.428 319.465 157.428C320.242 157.428 320.859 157.686 321.316 158.201C321.773 158.713 322.002 159.406 322.002 160.281C322.002 161.16 321.764 161.854 321.287 162.361C320.814 162.865 320.152 163.117 319.301 163.117C318.547 163.117 317.932 162.908 317.455 162.49C316.979 162.072 316.707 161.494 316.641 160.756H317.666C317.732 161.244 317.906 161.613 318.188 161.863C318.469 162.109 318.84 162.232 319.301 162.232C319.805 162.232 320.199 162.061 320.484 161.717C320.773 161.373 320.918 160.898 320.918 160.293C320.918 159.723 320.762 159.266 320.449 158.922C320.141 158.574 319.729 158.4 319.213 158.4C318.74 158.4 318.369 158.504 318.1 158.711L317.812 158.945L316.945 158.723ZM328.529 159.818H325.67V158.934H328.529V159.818ZM333.867 162.08H337.91V163H332.736V154.469H333.867V162.08ZM340.201 163H339.117V156.66H340.201V163ZM339.029 154.979C339.029 154.803 339.082 154.654 339.188 154.533C339.297 154.412 339.457 154.352 339.668 154.352C339.879 154.352 340.039 154.412 340.148 154.533C340.258 154.654 340.312 154.803 340.312 154.979C340.312 155.154 340.258 155.301 340.148 155.418C340.039 155.535 339.879 155.594 339.668 155.594C339.457 155.594 339.297 155.535 339.188 155.418C339.082 155.301 339.029 155.154 339.029 154.979ZM341.678 159.777C341.678 158.781 341.906 157.994 342.363 157.416C342.82 156.834 343.434 156.543 344.203 156.543C344.953 156.543 345.545 156.795 345.979 157.299L346.025 156.66H347.021V165.438H345.938V162.414C345.5 162.883 344.918 163.117 344.191 163.117C343.426 163.117 342.814 162.82 342.357 162.227C341.904 161.629 341.678 160.838 341.678 159.854V159.777ZM342.762 159.9C342.762 160.627 342.914 161.197 343.219 161.611C343.527 162.025 343.941 162.232 344.461 162.232C345.105 162.232 345.598 161.947 345.938 161.377V158.271C345.594 157.713 345.105 157.434 344.473 157.434C343.949 157.434 343.533 157.643 343.225 158.061C342.916 158.475 342.762 159.088 342.762 159.9ZM352.676 162.373C352.254 162.869 351.635 163.117 350.818 163.117C350.143 163.117 349.627 162.922 349.271 162.531C348.92 162.137 348.742 161.555 348.738 160.785V156.66H349.822V160.756C349.822 161.717 350.213 162.197 350.994 162.197C351.822 162.197 352.373 161.889 352.646 161.271V156.66H353.73V163H352.699L352.676 162.373ZM356.561 163H355.477V156.66H356.561V163ZM355.389 154.979C355.389 154.803 355.441 154.654 355.547 154.533C355.656 154.412 355.816 154.352 356.027 154.352C356.238 154.352 356.398 154.412 356.508 154.533C356.617 154.654 356.672 154.803 356.672 154.979C356.672 155.154 356.617 155.301 356.508 155.418C356.398 155.535 356.238 155.594 356.027 155.594C355.816 155.594 355.656 155.535 355.547 155.418C355.441 155.301 355.389 155.154 355.389 154.979ZM358.037 159.777C358.037 158.805 358.268 158.023 358.729 157.434C359.189 156.84 359.793 156.543 360.539 156.543C361.281 156.543 361.869 156.797 362.303 157.305V154H363.387V163H362.391L362.338 162.32C361.904 162.852 361.301 163.117 360.527 163.117C359.793 163.117 359.193 162.816 358.729 162.215C358.268 161.613 358.037 160.828 358.037 159.859V159.777ZM359.121 159.9C359.121 160.619 359.27 161.182 359.566 161.588C359.863 161.994 360.273 162.197 360.797 162.197C361.484 162.197 361.986 161.889 362.303 161.271V158.359C361.979 157.762 361.48 157.463 360.809 157.463C360.277 157.463 359.863 157.668 359.566 158.078C359.27 158.488 359.121 159.096 359.121 159.9ZM368.988 163C368.926 162.875 368.875 162.652 368.836 162.332C368.332 162.855 367.73 163.117 367.031 163.117C366.406 163.117 365.893 162.941 365.49 162.59C365.092 162.234 364.893 161.785 364.893 161.242C364.893 160.582 365.143 160.07 365.643 159.707C366.146 159.34 366.854 159.156 367.764 159.156H368.818V158.658C368.818 158.279 368.705 157.979 368.479 157.756C368.252 157.529 367.918 157.416 367.477 157.416C367.09 157.416 366.766 157.514 366.504 157.709C366.242 157.904 366.111 158.141 366.111 158.418H365.021C365.021 158.102 365.133 157.797 365.355 157.504C365.582 157.207 365.887 156.973 366.27 156.801C366.656 156.629 367.08 156.543 367.541 156.543C368.271 156.543 368.844 156.727 369.258 157.094C369.672 157.457 369.887 157.959 369.902 158.6V161.518C369.902 162.1 369.977 162.562 370.125 162.906V163H368.988ZM367.189 162.174C367.529 162.174 367.852 162.086 368.156 161.91C368.461 161.734 368.682 161.506 368.818 161.225V159.924H367.969C366.641 159.924 365.977 160.312 365.977 161.09C365.977 161.43 366.09 161.695 366.316 161.887C366.543 162.078 366.834 162.174 367.189 162.174ZM373.072 155.125V156.66H374.256V157.498H373.072V161.43C373.072 161.684 373.125 161.875 373.23 162.004C373.336 162.129 373.516 162.191 373.77 162.191C373.895 162.191 374.066 162.168 374.285 162.121V163C374 163.078 373.723 163.117 373.453 163.117C372.969 163.117 372.604 162.971 372.357 162.678C372.111 162.385 371.988 161.969 371.988 161.43V157.498H370.834V156.66H371.988V155.125H373.072ZM376.705 163H375.621V156.66H376.705V163ZM375.533 154.979C375.533 154.803 375.586 154.654 375.691 154.533C375.801 154.412 375.961 154.352 376.172 154.352C376.383 154.352 376.543 154.412 376.652 154.533C376.762 154.654 376.816 154.803 376.816 154.979C376.816 155.154 376.762 155.301 376.652 155.418C376.543 155.535 376.383 155.594 376.172 155.594C375.961 155.594 375.801 155.535 375.691 155.418C375.586 155.301 375.533 155.154 375.533 154.979ZM378.158 159.771C378.158 159.15 378.279 158.592 378.521 158.096C378.768 157.6 379.107 157.217 379.541 156.947C379.979 156.678 380.477 156.543 381.035 156.543C381.898 156.543 382.596 156.842 383.127 157.439C383.662 158.037 383.93 158.832 383.93 159.824V159.9C383.93 160.518 383.811 161.072 383.572 161.564C383.338 162.053 383 162.434 382.559 162.707C382.121 162.98 381.617 163.117 381.047 163.117C380.188 163.117 379.49 162.818 378.955 162.221C378.424 161.623 378.158 160.832 378.158 159.848V159.771ZM379.248 159.9C379.248 160.604 379.41 161.168 379.734 161.594C380.062 162.02 380.5 162.232 381.047 162.232C381.598 162.232 382.035 162.018 382.359 161.588C382.684 161.154 382.846 160.549 382.846 159.771C382.846 159.076 382.68 158.514 382.348 158.084C382.02 157.65 381.582 157.434 381.035 157.434C380.5 157.434 380.068 157.646 379.74 158.072C379.412 158.498 379.248 159.107 379.248 159.9ZM386.314 156.66L386.35 157.457C386.834 156.848 387.467 156.543 388.248 156.543C389.588 156.543 390.264 157.299 390.275 158.811V163H389.191V158.805C389.188 158.348 389.082 158.01 388.875 157.791C388.672 157.572 388.354 157.463 387.92 157.463C387.568 157.463 387.26 157.557 386.994 157.744C386.729 157.932 386.521 158.178 386.373 158.482V163H385.289V156.66H386.314Z" fill="black"/>
</svg>
