<svg width="24" height="24" viewBox="0 0 24 24" fill="none" xmlns="http://www.w3.org/2000/svg">
<mask id="path-2-inside-1" fill="white">
<path d="M9.27942 23.3407C9.27942 23.7048 9.57481 24 9.93871 24H14.061C14.4252 24 14.7203 23.7048 14.7203 23.3407V22.0624C15.5872 21.8291 16.4159 21.4855 17.1947 21.0368L18.0971 21.9393C18.2207 22.0629 18.3884 22.1325 18.5635 22.1325C18.7381 22.1325 18.906 22.0629 19.0296 21.939L21.9433 19.023C22.2006 18.7655 22.2006 18.348 21.9433 18.0907L21.042 17.1892C21.4906 16.4104 21.8341 15.5816 22.0675 14.7146H23.3407C23.7049 14.7146 24 14.4195 24 14.0553V9.93261C24 9.56842 23.7049 9.27327 23.3407 9.27327H22.0672C21.8339 8.40659 21.4906 7.57778 21.042 6.79894L21.9384 5.90239C22.0621 5.77876 22.1316 5.61083 22.1316 5.43596C22.1313 5.26108 22.0618 5.09315 21.9382 4.96952L19.0221 2.05555C18.7649 1.79825 18.3474 1.79825 18.0899 2.0558L17.1947 2.95132C16.4159 2.50266 15.5872 2.15908 14.7203 1.92574V0.659341C14.7203 0.295158 14.4252 0 14.061 0H9.93871C9.57481 0 9.27942 0.295158 9.27942 0.659341V1.926C8.41283 2.15908 7.58408 2.50266 6.80531 2.95132L5.90986 2.0558C5.65259 1.79851 5.23513 1.79825 4.9776 2.05555L2.06181 4.96978C1.93794 5.09341 1.8684 5.26108 1.8684 5.43596C1.8684 5.61083 1.93794 5.77876 2.06155 5.90239L2.95802 6.79894C2.5094 7.57778 2.16585 8.40634 1.93253 9.27327H0.661603C0.297451 9.27327 0.00231851 9.56842 0.00231851 9.93235L7.12737e-07 14.055C-0.000256804 14.2299 0.069277 14.3978 0.192893 14.5215C0.316509 14.6451 0.484162 14.7146 0.659285 14.7146H1.93253C2.16585 15.5816 2.5094 16.4104 2.95802 17.1892L2.05666 18.0907C1.79938 18.348 1.79913 18.7655 2.05666 19.023L4.97038 21.939C5.094 22.0627 5.26165 22.1325 5.43652 22.1325H5.43678C5.61164 22.1325 5.77929 22.0629 5.90291 21.9393L6.80505 21.0368C7.58408 21.4855 8.41283 21.8291 9.27942 22.0624V23.3407ZM7.06361 19.6502C6.80273 19.4815 6.45944 19.518 6.23951 19.7377L5.43678 20.5405L3.45506 18.5571L4.25702 17.7548C4.47669 17.5351 4.51326 17.1918 4.34458 16.9309C3.74685 16.0058 3.32655 14.9918 3.0958 13.9167C3.03039 13.6131 2.76204 13.3959 2.4512 13.3959H1.31883L1.32037 10.5919H2.4512C2.76204 10.5919 3.03039 10.3751 3.0958 10.0712C3.32655 8.9964 3.74685 7.9824 4.34458 7.05726C4.51326 6.79636 4.47669 6.45304 4.25702 6.23335L3.46021 5.43621L5.44347 3.45433L6.23951 4.25069C6.45944 4.47038 6.80247 4.5067 7.06361 4.33826C7.98841 3.74047 9.00232 3.32014 10.0773 3.08937C10.3809 3.02395 10.598 2.75532 10.598 2.44471V1.31868H13.4018V2.44445C13.4018 2.75532 13.6186 3.02395 13.9225 3.08911C14.9972 3.32014 16.0113 3.74021 16.9361 4.338C17.197 4.5067 17.5403 4.47038 17.76 4.25043L18.5563 3.45433L20.5395 5.43621L19.7427 6.23309C19.5228 6.45304 19.4865 6.79636 19.6552 7.05726C20.2529 7.9824 20.6729 8.9964 20.9039 10.0712C20.9691 10.3751 21.2377 10.5919 21.5485 10.5919H22.6814V13.3959H21.5485C21.2377 13.3959 20.9694 13.6131 20.9039 13.9167C20.6732 14.9915 20.2529 16.0058 19.6552 16.9306C19.4865 17.1918 19.5231 17.5351 19.7427 17.7548L20.5447 18.5568L18.563 20.5403L17.7602 19.7377C17.5403 19.5178 17.197 19.4815 16.9361 19.6502C16.0111 20.2479 14.9972 20.668 13.9225 20.899C13.6186 20.9645 13.4018 21.2328 13.4018 21.5437V22.6813H10.598V21.5437C10.598 21.2331 10.3809 20.9645 10.0773 20.899C9.00258 20.6683 7.98867 20.2479 7.06361 19.6502Z"/>
</mask>
<path d="M9.27942 23.3407C9.27942 23.7048 9.57481 24 9.93871 24H14.061C14.4252 24 14.7203 23.7048 14.7203 23.3407V22.0624C15.5872 21.8291 16.4159 21.4855 17.1947 21.0368L18.0971 21.9393C18.2207 22.0629 18.3884 22.1325 18.5635 22.1325C18.7381 22.1325 18.906 22.0629 19.0296 21.939L21.9433 19.023C22.2006 18.7655 22.2006 18.348 21.9433 18.0907L21.042 17.1892C21.4906 16.4104 21.8341 15.5816 22.0675 14.7146H23.3407C23.7049 14.7146 24 14.4195 24 14.0553V9.93261C24 9.56842 23.7049 9.27327 23.3407 9.27327H22.0672C21.8339 8.40659 21.4906 7.57778 21.042 6.79894L21.9384 5.90239C22.0621 5.77876 22.1316 5.61083 22.1316 5.43596C22.1313 5.26108 22.0618 5.09315 21.9382 4.96952L19.0221 2.05555C18.7649 1.79825 18.3474 1.79825 18.0899 2.0558L17.1947 2.95132C16.4159 2.50266 15.5872 2.15908 14.7203 1.92574V0.659341C14.7203 0.295158 14.4252 0 14.061 0H9.93871C9.57481 0 9.27942 0.295158 9.27942 0.659341V1.926C8.41283 2.15908 7.58408 2.50266 6.80531 2.95132L5.90986 2.0558C5.65259 1.79851 5.23513 1.79825 4.9776 2.05555L2.06181 4.96978C1.93794 5.09341 1.8684 5.26108 1.8684 5.43596C1.8684 5.61083 1.93794 5.77876 2.06155 5.90239L2.95802 6.79894C2.5094 7.57778 2.16585 8.40634 1.93253 9.27327H0.661603C0.297451 9.27327 0.00231851 9.56842 0.00231851 9.93235L7.12737e-07 14.055C-0.000256804 14.2299 0.069277 14.3978 0.192893 14.5215C0.316509 14.6451 0.484162 14.7146 0.659285 14.7146H1.93253C2.16585 15.5816 2.5094 16.4104 2.95802 17.1892L2.05666 18.0907C1.79938 18.348 1.79913 18.7655 2.05666 19.023L4.97038 21.939C5.094 22.0627 5.26165 22.1325 5.43652 22.1325H5.43678C5.61164 22.1325 5.77929 22.0629 5.90291 21.9393L6.80505 21.0368C7.58408 21.4855 8.41283 21.8291 9.27942 22.0624V23.3407ZM7.06361 19.6502C6.80273 19.4815 6.45944 19.518 6.23951 19.7377L5.43678 20.5405L3.45506 18.5571L4.25702 17.7548C4.47669 17.5351 4.51326 17.1918 4.34458 16.9309C3.74685 16.0058 3.32655 14.9918 3.0958 13.9167C3.03039 13.6131 2.76204 13.3959 2.4512 13.3959H1.31883L1.32037 10.5919H2.4512C2.76204 10.5919 3.03039 10.3751 3.0958 10.0712C3.32655 8.9964 3.74685 7.9824 4.34458 7.05726C4.51326 6.79636 4.47669 6.45304 4.25702 6.23335L3.46021 5.43621L5.44347 3.45433L6.23951 4.25069C6.45944 4.47038 6.80247 4.5067 7.06361 4.33826C7.98841 3.74047 9.00232 3.32014 10.0773 3.08937C10.3809 3.02395 10.598 2.75532 10.598 2.44471V1.31868H13.4018V2.44445C13.4018 2.75532 13.6186 3.02395 13.9225 3.08911C14.9972 3.32014 16.0113 3.74021 16.9361 4.338C17.197 4.5067 17.5403 4.47038 17.76 4.25043L18.5563 3.45433L20.5395 5.43621L19.7427 6.23309C19.5228 6.45304 19.4865 6.79636 19.6552 7.05726C20.2529 7.9824 20.6729 8.9964 20.9039 10.0712C20.9691 10.3751 21.2377 10.5919 21.5485 10.5919H22.6814V13.3959H21.5485C21.2377 13.3959 20.9694 13.6131 20.9039 13.9167C20.6732 14.9915 20.2529 16.0058 19.6552 16.9306C19.4865 17.1918 19.5231 17.5351 19.7427 17.7548L20.5447 18.5568L18.563 20.5403L17.7602 19.7377C17.5403 19.5178 17.197 19.4815 16.9361 19.6502C16.0111 20.2479 14.9972 20.668 13.9225 20.899C13.6186 20.9645 13.4018 21.2328 13.4018 21.5437V22.6813H10.598V21.5437C10.598 21.2331 10.3809 20.9645 10.0773 20.899C9.00258 20.6683 7.98867 20.2479 7.06361 19.6502Z" fill="#192A3E" stroke="#192A3E" stroke-width="2.66667" mask="url(#path-2-inside-1)"/>
<circle cx="12.1333" cy="12" r="4" stroke="#192A3E" stroke-width="1.33333"/>
</svg>
