<svg width="20" height="20" viewBox="0 0 20 20" fill="none" xmlns="http://www.w3.org/2000/svg">
<path fill-rule="evenodd" clip-rule="evenodd" d="M0.951964 0.972404L0.965387 15.9664L15.0815 15.9772L15.0829 0.970771L0.951964 0.972404ZM0.750413 0.0139214C0.335868 0.0139693 0.000315573 0.352482 0.000689603 0.770258L0.0144743 16.1672C0.0148486 16.5853 0.351442 16.9244 0.766265 16.9248L15.2822 16.9358C15.6967 16.9362 16.0325 16.598 16.0325 16.1803L16.034 0.770537C16.0341 0.351929 15.6969 0.0121942 15.2816 0.0122422L0.750413 0.0139214Z" fill="#192A3E"/>
<path d="M6.16706 0.490037C6.16702 0.481314 6.17406 0.474219 6.18279 0.474189L11.0385 0.457506C11.0472 0.457476 11.0543 0.464523 11.0543 0.473245L11.0798 6.12905C11.0817 6.54476 10.5855 6.76066 10.2821 6.47615L8.7317 5.02237C8.67672 4.97081 8.59112 4.97106 8.53655 5.02292L6.99297 6.48971C6.69198 6.77573 6.19443 6.56313 6.19256 6.1477L6.16706 0.490037Z" fill="#192A3E"/>
<path d="M20.0002 15.2075C20.0002 17.8543 17.8711 20 15.2447 20C12.6184 20 10.4893 17.8543 10.4893 15.2075C10.4893 12.5606 12.6184 10.4149 15.2447 10.4149C17.8711 10.4149 20.0002 12.5606 20.0002 15.2075Z" fill="white"/>
<path fill-rule="evenodd" clip-rule="evenodd" d="M15.2447 19.0415C17.3458 19.0415 19.0491 17.3249 19.0491 15.2075C19.0491 13.09 17.3458 11.3734 15.2447 11.3734C13.1436 11.3734 11.4404 13.09 11.4404 15.2075C11.4404 17.3249 13.1436 19.0415 15.2447 19.0415ZM15.2447 20C17.8711 20 20.0002 17.8543 20.0002 15.2075C20.0002 12.5606 17.8711 10.4149 15.2447 10.4149C12.6184 10.4149 10.4893 12.5606 10.4893 15.2075C10.4893 17.8543 12.6184 20 15.2447 20Z" fill="#192A3E"/>
<path d="M16.0005 12.8657H15.5383C15.2368 12.8657 14.9924 13.1197 14.9924 13.4329C14.9924 13.7463 15.2368 14.0003 15.5383 14.0003H16.0005C16.3818 14.0003 16.6919 14.3226 16.6919 14.7188C16.6919 15.1151 16.3818 15.4374 16.0005 15.4374H14.9827L15.088 15.3376C15.3107 15.1263 15.3266 14.7676 15.1234 14.5361C14.9201 14.3046 14.5749 14.2881 14.3521 14.4993L13.2063 15.5855C13.0929 15.693 13.0283 15.8453 13.0283 16.0048C13.0283 16.1641 13.0929 16.3164 13.2063 16.4239L14.3521 17.51C14.457 17.6093 14.5887 17.6583 14.7199 17.6583C14.868 17.6583 15.0157 17.596 15.1234 17.4733C15.3266 17.2418 15.3107 16.883 15.088 16.6718L14.9827 16.572H16.0005C16.9837 16.572 17.7838 15.7407 17.7838 14.7188C17.7838 13.697 16.9837 12.8657 16.0005 12.8657Z" fill="#192A3E"/>
</svg>
