<svg width="608" height="195" viewBox="0 0 608 195" fill="none" xmlns="http://www.w3.org/2000/svg">
<g filter="url(#filter0_d)">
<rect x="4" y="4" width="600" height="187" rx="8" fill="white"/>
</g>
<g filter="url(#filter1_d)">
<path d="M4 12C4 7.58172 7.58172 4 12 4H214V191H12C7.58172 191 4 187.418 4 183V12Z" fill="#0357D0"/>
</g>
<path d="M240.508 28V16.5781H242.375V26.3984H247.211V28H240.508ZM250.82 28H248.984V19.3594H250.82V28ZM248.875 17.0703C248.875 16.7422 248.964 16.4896 249.141 16.3125C249.323 16.1354 249.581 16.0469 249.914 16.0469C250.237 16.0469 250.487 16.1354 250.664 16.3125C250.846 16.4896 250.938 16.7422 250.938 17.0703C250.938 17.3828 250.846 17.6302 250.664 17.8125C250.487 17.9896 250.237 18.0781 249.914 18.0781C249.581 18.0781 249.323 17.9896 249.141 17.8125C248.964 17.6302 248.875 17.3828 248.875 17.0703ZM256.875 26.6875C257.646 26.6875 258.198 26.4661 258.531 26.0234C258.87 25.5755 259.039 24.901 259.039 24V23.7109C259.039 22.6432 258.865 21.875 258.516 21.4062C258.172 20.9375 257.615 20.7031 256.844 20.7031C256.188 20.7031 255.688 20.9635 255.344 21.4844C255 22.0052 254.828 22.7526 254.828 23.7266C254.828 25.7005 255.51 26.6875 256.875 26.6875ZM256.352 28.1562C255.284 28.1562 254.448 27.7656 253.844 26.9844C253.24 26.1979 252.938 25.1016 252.938 23.6953C252.938 22.2891 253.245 21.1901 253.859 20.3984C254.474 19.6016 255.32 19.2031 256.398 19.2031C256.94 19.2031 257.424 19.3047 257.852 19.5078C258.284 19.7057 258.669 20.0339 259.008 20.4922H259.07L259.273 19.3594H260.797V31.8438H258.953V28.1797C258.953 27.9505 258.964 27.7083 258.984 27.4531C259.005 27.1979 259.023 27.0026 259.039 26.8672H258.938C258.396 27.7266 257.534 28.1562 256.352 28.1562ZM269.516 28L269.258 26.8672H269.164C268.909 27.2682 268.544 27.5833 268.07 27.8125C267.602 28.0417 267.065 28.1562 266.461 28.1562C265.414 28.1562 264.633 27.8958 264.117 27.375C263.602 26.8542 263.344 26.0651 263.344 25.0078V19.3594H265.195V24.6875C265.195 25.349 265.331 25.8464 265.602 26.1797C265.872 26.5078 266.297 26.6719 266.875 26.6719C267.646 26.6719 268.211 26.4427 268.57 25.9844C268.935 25.5208 269.117 24.7474 269.117 23.6641V19.3594H270.961V28H269.516ZM275.414 28H273.578V19.3594H275.414V28ZM273.469 17.0703C273.469 16.7422 273.557 16.4896 273.734 16.3125C273.917 16.1354 274.174 16.0469 274.508 16.0469C274.831 16.0469 275.081 16.1354 275.258 16.3125C275.44 16.4896 275.531 16.7422 275.531 17.0703C275.531 17.3828 275.44 17.6302 275.258 17.8125C275.081 17.9896 274.831 18.0781 274.508 18.0781C274.174 18.0781 273.917 17.9896 273.734 17.8125C273.557 17.6302 273.469 17.3828 273.469 17.0703ZM280.961 28.1562C279.883 28.1562 279.042 27.7656 278.438 26.9844C277.833 26.2031 277.531 25.1068 277.531 23.6953C277.531 22.2786 277.836 21.1771 278.445 20.3906C279.06 19.599 279.909 19.2031 280.992 19.2031C282.128 19.2031 282.992 19.6224 283.586 20.4609H283.68C283.591 19.8411 283.547 19.3516 283.547 18.9922V15.8438H285.391V28H283.953L283.633 26.8672H283.547C282.958 27.7266 282.096 28.1562 280.961 28.1562ZM281.453 26.6719C282.208 26.6719 282.758 26.4609 283.102 26.0391C283.445 25.612 283.622 24.9219 283.633 23.9688V23.7109C283.633 22.6224 283.456 21.849 283.102 21.3906C282.747 20.9323 282.193 20.7031 281.438 20.7031C280.792 20.7031 280.294 20.9661 279.945 21.4922C279.596 22.013 279.422 22.7578 279.422 23.7266C279.422 24.6849 279.591 25.4167 279.93 25.9219C280.268 26.4219 280.776 26.6719 281.453 26.6719ZM293.422 28L293.055 26.7969H292.992C292.576 27.3229 292.156 27.6823 291.734 27.875C291.312 28.0625 290.771 28.1562 290.109 28.1562C289.26 28.1562 288.596 27.9271 288.117 27.4688C287.643 27.0104 287.406 26.362 287.406 25.5234C287.406 24.6328 287.737 23.9609 288.398 23.5078C289.06 23.0547 290.068 22.8073 291.422 22.7656L292.914 22.7188V22.2578C292.914 21.7057 292.784 21.2943 292.523 21.0234C292.268 20.7474 291.87 20.6094 291.328 20.6094C290.885 20.6094 290.461 20.6745 290.055 20.8047C289.648 20.9349 289.258 21.0885 288.883 21.2656L288.289 19.9531C288.758 19.7083 289.271 19.5234 289.828 19.3984C290.385 19.2682 290.911 19.2031 291.406 19.2031C292.505 19.2031 293.333 19.4427 293.891 19.9219C294.453 20.401 294.734 21.1536 294.734 22.1797V28H293.422ZM290.688 26.75C291.354 26.75 291.888 26.5651 292.289 26.1953C292.695 25.8203 292.898 25.2969 292.898 24.625V23.875L291.789 23.9219C290.924 23.9531 290.294 24.099 289.898 24.3594C289.508 24.6146 289.312 25.0078 289.312 25.5391C289.312 25.9245 289.427 26.224 289.656 26.4375C289.885 26.6458 290.229 26.75 290.688 26.75ZM300.516 26.6719C300.964 26.6719 301.411 26.6016 301.859 26.4609V27.8438C301.656 27.9323 301.393 28.0052 301.07 28.0625C300.753 28.125 300.422 28.1562 300.078 28.1562C298.339 28.1562 297.469 27.2396 297.469 25.4062V20.75H296.289V19.9375L297.555 19.2656L298.18 17.4375H299.312V19.3594H301.773V20.75H299.312V25.375C299.312 25.8177 299.422 26.1458 299.641 26.3594C299.865 26.5677 300.156 26.6719 300.516 26.6719ZM305.43 28H303.594V19.3594H305.43V28ZM303.484 17.0703C303.484 16.7422 303.573 16.4896 303.75 16.3125C303.932 16.1354 304.19 16.0469 304.523 16.0469C304.846 16.0469 305.096 16.1354 305.273 16.3125C305.456 16.4896 305.547 16.7422 305.547 17.0703C305.547 17.3828 305.456 17.6302 305.273 17.8125C305.096 17.9896 304.846 18.0781 304.523 18.0781C304.19 18.0781 303.932 17.9896 303.75 17.8125C303.573 17.6302 303.484 17.3828 303.484 17.0703ZM315.727 23.6641C315.727 25.0755 315.365 26.1771 314.641 26.9688C313.917 27.7604 312.909 28.1562 311.617 28.1562C310.81 28.1562 310.096 27.974 309.477 27.6094C308.857 27.2448 308.38 26.7214 308.047 26.0391C307.714 25.3568 307.547 24.5651 307.547 23.6641C307.547 22.263 307.906 21.1693 308.625 20.3828C309.344 19.5964 310.357 19.2031 311.664 19.2031C312.914 19.2031 313.904 19.6068 314.633 20.4141C315.362 21.2161 315.727 22.2995 315.727 23.6641ZM309.438 23.6641C309.438 25.6589 310.174 26.6562 311.648 26.6562C313.107 26.6562 313.836 25.6589 313.836 23.6641C313.836 21.6901 313.102 20.7031 311.633 20.7031C310.862 20.7031 310.302 20.9583 309.953 21.4688C309.609 21.9792 309.438 22.7109 309.438 23.6641ZM325.445 28H323.602V22.6875C323.602 22.0208 323.466 21.5234 323.195 21.1953C322.93 20.8672 322.505 20.7031 321.922 20.7031C321.146 20.7031 320.578 20.9323 320.219 21.3906C319.859 21.849 319.68 22.6172 319.68 23.6953V28H317.844V19.3594H319.281L319.539 20.4922H319.633C319.893 20.0807 320.263 19.763 320.742 19.5391C321.221 19.3151 321.753 19.2031 322.336 19.2031C324.409 19.2031 325.445 20.2578 325.445 22.3672V28ZM336.297 28H334.43V18.1797H331.07V16.5781H339.656V18.1797H336.297V28ZM345.602 19.2031C345.971 19.2031 346.276 19.2292 346.516 19.2812L346.336 20.9922C346.076 20.9297 345.805 20.8984 345.523 20.8984C344.789 20.8984 344.193 21.138 343.734 21.6172C343.281 22.0964 343.055 22.7188 343.055 23.4844V28H341.219V19.3594H342.656L342.898 20.8828H342.992C343.279 20.3672 343.651 19.9583 344.109 19.6562C344.573 19.3542 345.07 19.2031 345.602 19.2031ZM349.961 28H348.125V19.3594H349.961V28ZM348.016 17.0703C348.016 16.7422 348.104 16.4896 348.281 16.3125C348.464 16.1354 348.721 16.0469 349.055 16.0469C349.378 16.0469 349.628 16.1354 349.805 16.3125C349.987 16.4896 350.078 16.7422 350.078 17.0703C350.078 17.3828 349.987 17.6302 349.805 17.8125C349.628 17.9896 349.378 18.0781 349.055 18.0781C348.721 18.0781 348.464 17.9896 348.281 17.8125C348.104 17.6302 348.016 17.3828 348.016 17.0703ZM358 28L357.633 26.7969H357.57C357.154 27.3229 356.734 27.6823 356.312 27.875C355.891 28.0625 355.349 28.1562 354.688 28.1562C353.839 28.1562 353.174 27.9271 352.695 27.4688C352.221 27.0104 351.984 26.362 351.984 25.5234C351.984 24.6328 352.315 23.9609 352.977 23.5078C353.638 23.0547 354.646 22.8073 356 22.7656L357.492 22.7188V22.2578C357.492 21.7057 357.362 21.2943 357.102 21.0234C356.846 20.7474 356.448 20.6094 355.906 20.6094C355.464 20.6094 355.039 20.6745 354.633 20.8047C354.227 20.9349 353.836 21.0885 353.461 21.2656L352.867 19.9531C353.336 19.7083 353.849 19.5234 354.406 19.3984C354.964 19.2682 355.49 19.2031 355.984 19.2031C357.083 19.2031 357.911 19.4427 358.469 19.9219C359.031 20.401 359.312 21.1536 359.312 22.1797V28H358ZM355.266 26.75C355.932 26.75 356.466 26.5651 356.867 26.1953C357.273 25.8203 357.477 25.2969 357.477 24.625V23.875L356.367 23.9219C355.503 23.9531 354.872 24.099 354.477 24.3594C354.086 24.6146 353.891 25.0078 353.891 25.5391C353.891 25.9245 354.005 26.224 354.234 26.4375C354.464 26.6458 354.807 26.75 355.266 26.75ZM369.172 19.3594V20.3672L367.695 20.6406C367.831 20.8229 367.943 21.0469 368.031 21.3125C368.12 21.5781 368.164 21.8594 368.164 22.1562C368.164 23.0469 367.857 23.7474 367.242 24.2578C366.628 24.7682 365.781 25.0234 364.703 25.0234C364.427 25.0234 364.177 25.0026 363.953 24.9609C363.557 25.2057 363.359 25.4922 363.359 25.8203C363.359 26.0182 363.451 26.1667 363.633 26.2656C363.82 26.3646 364.161 26.4141 364.656 26.4141H366.164C367.117 26.4141 367.841 26.6172 368.336 27.0234C368.831 27.4297 369.078 28.0156 369.078 28.7812C369.078 29.7604 368.674 30.5156 367.867 31.0469C367.06 31.5781 365.893 31.8438 364.367 31.8438C363.19 31.8438 362.292 31.6354 361.672 31.2188C361.052 30.8021 360.742 30.2083 360.742 29.4375C360.742 28.9062 360.909 28.4583 361.242 28.0938C361.581 27.7344 362.052 27.4844 362.656 27.3438C362.411 27.2396 362.208 27.0729 362.047 26.8438C361.891 26.6094 361.812 26.3646 361.812 26.1094C361.812 25.7865 361.904 25.513 362.086 25.2891C362.268 25.0651 362.539 24.8438 362.898 24.625C362.451 24.4323 362.086 24.1198 361.805 23.6875C361.529 23.25 361.391 22.7396 361.391 22.1562C361.391 21.2188 361.685 20.4922 362.273 19.9766C362.867 19.4609 363.711 19.2031 364.805 19.2031C365.049 19.2031 365.305 19.2214 365.57 19.2578C365.841 19.2891 366.044 19.3229 366.18 19.3594H369.172ZM362.383 29.3438C362.383 29.7396 362.56 30.0443 362.914 30.2578C363.273 30.4714 363.776 30.5781 364.422 30.5781C365.422 30.5781 366.167 30.4349 366.656 30.1484C367.146 29.862 367.391 29.4818 367.391 29.0078C367.391 28.6328 367.255 28.3646 366.984 28.2031C366.719 28.0469 366.221 27.9688 365.492 27.9688H364.102C363.576 27.9688 363.156 28.0911 362.844 28.3359C362.536 28.5859 362.383 28.9219 362.383 29.3438ZM363.172 22.1562C363.172 22.6979 363.31 23.1146 363.586 23.4062C363.867 23.6979 364.268 23.8438 364.789 23.8438C365.852 23.8438 366.383 23.276 366.383 22.1406C366.383 21.5781 366.25 21.1458 365.984 20.8438C365.724 20.5365 365.326 20.3828 364.789 20.3828C364.258 20.3828 363.854 20.5339 363.578 20.8359C363.307 21.138 363.172 21.5781 363.172 22.1562ZM374.555 28.1562C373.211 28.1562 372.159 27.7656 371.398 26.9844C370.643 26.1979 370.266 25.1172 370.266 23.7422C370.266 22.3307 370.617 21.2214 371.32 20.4141C372.023 19.6068 372.99 19.2031 374.219 19.2031C375.359 19.2031 376.26 19.5495 376.922 20.2422C377.583 20.9349 377.914 21.888 377.914 23.1016V24.0938H372.156C372.182 24.9323 372.409 25.5781 372.836 26.0312C373.263 26.4792 373.865 26.7031 374.641 26.7031C375.151 26.7031 375.625 26.6562 376.062 26.5625C376.505 26.4635 376.979 26.3021 377.484 26.0781V27.5703C377.036 27.7839 376.583 27.9349 376.125 28.0234C375.667 28.112 375.143 28.1562 374.555 28.1562ZM374.219 20.5938C373.635 20.5938 373.167 20.7786 372.812 21.1484C372.464 21.5182 372.255 22.0573 372.188 22.7656H376.109C376.099 22.0521 375.927 21.513 375.594 21.1484C375.26 20.7786 374.802 20.5938 374.219 20.5938Z" fill="black"/>
<path d="M460.098 165.635C460.098 167.049 459.705 168.131 458.92 168.881C458.135 169.627 457.004 170 455.527 170H453.131V161.434H455.779C457.143 161.434 458.203 161.801 458.961 162.535C459.719 163.27 460.098 164.303 460.098 165.635ZM458.621 165.682C458.621 163.631 457.662 162.605 455.744 162.605H454.531V168.822H455.527C457.59 168.822 458.621 167.775 458.621 165.682ZM467.545 166.748C467.545 167.807 467.273 168.633 466.73 169.227C466.188 169.82 465.432 170.117 464.463 170.117C463.857 170.117 463.322 169.98 462.857 169.707C462.393 169.434 462.035 169.041 461.785 168.529C461.535 168.018 461.41 167.424 461.41 166.748C461.41 165.697 461.68 164.877 462.219 164.287C462.758 163.697 463.518 163.402 464.498 163.402C465.436 163.402 466.178 163.705 466.725 164.311C467.271 164.912 467.545 165.725 467.545 166.748ZM462.828 166.748C462.828 168.244 463.381 168.992 464.486 168.992C465.58 168.992 466.127 168.244 466.127 166.748C466.127 165.268 465.576 164.527 464.475 164.527C463.896 164.527 463.477 164.719 463.215 165.102C462.957 165.484 462.828 166.033 462.828 166.748ZM474.447 170L473.609 166.977C473.508 166.656 473.324 165.912 473.059 164.744H473.006C472.779 165.799 472.6 166.547 472.467 166.988L471.605 170H470.082L468.266 163.52H469.672L470.498 166.713C470.686 167.502 470.818 168.178 470.896 168.74H470.932C470.971 168.455 471.029 168.129 471.107 167.762C471.189 167.391 471.26 167.113 471.318 166.93L472.303 163.52H473.814L474.77 166.93C474.828 167.121 474.9 167.414 474.986 167.809C475.076 168.203 475.129 168.51 475.145 168.729H475.191C475.25 168.248 475.387 167.576 475.602 166.713L476.439 163.52H477.822L475.994 170H474.447ZM484.643 170H483.26V166.016C483.26 165.516 483.158 165.143 482.955 164.896C482.756 164.65 482.438 164.527 482 164.527C481.418 164.527 480.992 164.699 480.723 165.043C480.453 165.387 480.318 165.963 480.318 166.771V170H478.941V163.52H480.02L480.213 164.369H480.283C480.479 164.061 480.756 163.822 481.115 163.654C481.475 163.486 481.873 163.402 482.311 163.402C483.865 163.402 484.643 164.193 484.643 165.775V170ZM487.936 170H486.559V160.883H487.936V170ZM495.658 166.748C495.658 167.807 495.387 168.633 494.844 169.227C494.301 169.82 493.545 170.117 492.576 170.117C491.971 170.117 491.436 169.98 490.971 169.707C490.506 169.434 490.148 169.041 489.898 168.529C489.648 168.018 489.523 167.424 489.523 166.748C489.523 165.697 489.793 164.877 490.332 164.287C490.871 163.697 491.631 163.402 492.611 163.402C493.549 163.402 494.291 163.705 494.838 164.311C495.385 164.912 495.658 165.725 495.658 166.748ZM490.941 166.748C490.941 168.244 491.494 168.992 492.6 168.992C493.693 168.992 494.24 168.244 494.24 166.748C494.24 165.268 493.689 164.527 492.588 164.527C492.01 164.527 491.59 164.719 491.328 165.102C491.07 165.484 490.941 166.033 490.941 166.748ZM501.301 170L501.025 169.098H500.979C500.666 169.492 500.352 169.762 500.035 169.906C499.719 170.047 499.312 170.117 498.816 170.117C498.18 170.117 497.682 169.945 497.322 169.602C496.967 169.258 496.789 168.771 496.789 168.143C496.789 167.475 497.037 166.971 497.533 166.631C498.029 166.291 498.785 166.105 499.801 166.074L500.92 166.039V165.693C500.92 165.279 500.822 164.971 500.627 164.768C500.436 164.561 500.137 164.457 499.73 164.457C499.398 164.457 499.08 164.506 498.775 164.604C498.471 164.701 498.178 164.816 497.896 164.949L497.451 163.965C497.803 163.781 498.188 163.643 498.605 163.549C499.023 163.451 499.418 163.402 499.789 163.402C500.613 163.402 501.234 163.582 501.652 163.941C502.074 164.301 502.285 164.865 502.285 165.635V170H501.301ZM499.25 169.062C499.75 169.062 500.15 168.924 500.451 168.646C500.756 168.365 500.908 167.973 500.908 167.469V166.906L500.076 166.941C499.428 166.965 498.955 167.074 498.658 167.27C498.365 167.461 498.219 167.756 498.219 168.154C498.219 168.443 498.305 168.668 498.477 168.828C498.648 168.984 498.906 169.062 499.25 169.062ZM506.393 170.117C505.584 170.117 504.953 169.824 504.5 169.238C504.047 168.652 503.82 167.83 503.82 166.771C503.82 165.709 504.049 164.883 504.506 164.293C504.967 163.699 505.604 163.402 506.416 163.402C507.268 163.402 507.916 163.717 508.361 164.346H508.432C508.365 163.881 508.332 163.514 508.332 163.244V160.883H509.715V170H508.637L508.396 169.15H508.332C507.891 169.795 507.244 170.117 506.393 170.117ZM506.762 169.004C507.328 169.004 507.74 168.846 507.998 168.529C508.256 168.209 508.389 167.691 508.396 166.977V166.783C508.396 165.967 508.264 165.387 507.998 165.043C507.732 164.699 507.316 164.527 506.75 164.527C506.266 164.527 505.893 164.725 505.631 165.119C505.369 165.51 505.238 166.068 505.238 166.795C505.238 167.514 505.365 168.062 505.619 168.441C505.873 168.816 506.254 169.004 506.762 169.004ZM519.887 167.674C519.887 168.436 519.611 169.033 519.061 169.467C518.51 169.9 517.75 170.117 516.781 170.117C515.812 170.117 515.02 169.967 514.402 169.666V168.342C514.793 168.525 515.207 168.67 515.645 168.775C516.086 168.881 516.496 168.934 516.875 168.934C517.43 168.934 517.838 168.828 518.1 168.617C518.365 168.406 518.498 168.123 518.498 167.768C518.498 167.447 518.377 167.176 518.135 166.953C517.893 166.73 517.393 166.467 516.635 166.162C515.854 165.846 515.303 165.484 514.982 165.078C514.662 164.672 514.502 164.184 514.502 163.613C514.502 162.898 514.756 162.336 515.264 161.926C515.771 161.516 516.453 161.311 517.309 161.311C518.129 161.311 518.945 161.49 519.758 161.85L519.312 162.992C518.551 162.672 517.871 162.512 517.273 162.512C516.82 162.512 516.477 162.611 516.242 162.811C516.008 163.006 515.891 163.266 515.891 163.59C515.891 163.812 515.938 164.004 516.031 164.164C516.125 164.32 516.279 164.469 516.494 164.609C516.709 164.75 517.096 164.936 517.654 165.166C518.283 165.428 518.744 165.672 519.037 165.898C519.33 166.125 519.545 166.381 519.682 166.666C519.818 166.951 519.887 167.287 519.887 167.674ZM525.453 170L525.178 169.098H525.131C524.818 169.492 524.504 169.762 524.188 169.906C523.871 170.047 523.465 170.117 522.969 170.117C522.332 170.117 521.834 169.945 521.475 169.602C521.119 169.258 520.941 168.771 520.941 168.143C520.941 167.475 521.189 166.971 521.686 166.631C522.182 166.291 522.938 166.105 523.953 166.074L525.072 166.039V165.693C525.072 165.279 524.975 164.971 524.779 164.768C524.588 164.561 524.289 164.457 523.883 164.457C523.551 164.457 523.232 164.506 522.928 164.604C522.623 164.701 522.33 164.816 522.049 164.949L521.604 163.965C521.955 163.781 522.34 163.643 522.758 163.549C523.176 163.451 523.57 163.402 523.941 163.402C524.766 163.402 525.387 163.582 525.805 163.941C526.227 164.301 526.438 164.865 526.438 165.635V170H525.453ZM523.402 169.062C523.902 169.062 524.303 168.924 524.604 168.646C524.908 168.365 525.061 167.973 525.061 167.469V166.906L524.229 166.941C523.58 166.965 523.107 167.074 522.811 167.27C522.518 167.461 522.371 167.756 522.371 168.154C522.371 168.443 522.457 168.668 522.629 168.828C522.801 168.984 523.059 169.062 523.402 169.062ZM533.82 170H532.438V166.004C532.438 165.508 532.344 165.139 532.156 164.896C531.969 164.65 531.676 164.527 531.277 164.527C530.746 164.527 530.355 164.701 530.105 165.049C529.859 165.393 529.736 165.967 529.736 166.771V170H528.359V163.52H529.438L529.631 164.369H529.701C529.881 164.061 530.141 163.822 530.48 163.654C530.824 163.486 531.201 163.402 531.611 163.402C532.607 163.402 533.268 163.742 533.592 164.422H533.686C533.877 164.102 534.146 163.852 534.494 163.672C534.842 163.492 535.24 163.402 535.689 163.402C536.463 163.402 537.025 163.598 537.377 163.988C537.732 164.379 537.91 164.975 537.91 165.775V170H536.533V166.004C536.533 165.508 536.438 165.139 536.246 164.896C536.059 164.65 535.766 164.527 535.367 164.527C534.832 164.527 534.439 164.695 534.189 165.031C533.943 165.363 533.82 165.875 533.82 166.566V170ZM543.119 170.117C542.299 170.117 541.662 169.822 541.209 169.232H541.127C541.182 169.779 541.209 170.111 541.209 170.229V172.883H539.832V163.52H540.945C540.977 163.641 541.041 163.93 541.139 164.387H541.209C541.639 163.73 542.283 163.402 543.143 163.402C543.951 163.402 544.58 163.695 545.029 164.281C545.482 164.867 545.709 165.689 545.709 166.748C545.709 167.807 545.479 168.633 545.018 169.227C544.561 169.82 543.928 170.117 543.119 170.117ZM542.785 164.527C542.238 164.527 541.838 164.688 541.584 165.008C541.334 165.328 541.209 165.84 541.209 166.543V166.748C541.209 167.537 541.334 168.109 541.584 168.465C541.834 168.816 542.242 168.992 542.809 168.992C543.285 168.992 543.652 168.797 543.91 168.406C544.168 168.016 544.297 167.459 544.297 166.736C544.297 166.01 544.168 165.461 543.91 165.09C543.656 164.715 543.281 164.527 542.785 164.527ZM548.686 170H547.309V160.883H548.686V170ZM553.49 170.117C552.482 170.117 551.693 169.824 551.123 169.238C550.557 168.648 550.273 167.838 550.273 166.807C550.273 165.748 550.537 164.916 551.064 164.311C551.592 163.705 552.316 163.402 553.238 163.402C554.094 163.402 554.77 163.662 555.266 164.182C555.762 164.701 556.01 165.416 556.01 166.326V167.07H551.691C551.711 167.699 551.881 168.184 552.201 168.523C552.521 168.859 552.973 169.027 553.555 169.027C553.938 169.027 554.293 168.992 554.621 168.922C554.953 168.848 555.309 168.727 555.688 168.559V169.678C555.352 169.838 555.012 169.951 554.668 170.018C554.324 170.084 553.932 170.117 553.49 170.117ZM553.238 164.445C552.801 164.445 552.449 164.584 552.184 164.861C551.922 165.139 551.766 165.543 551.715 166.074H554.656C554.648 165.539 554.52 165.135 554.27 164.861C554.02 164.584 553.676 164.445 553.238 164.445ZM562.227 170H560.838V161.434H565.672V162.617H562.227V165.295H565.455V166.484H562.227V170ZM568.455 170H567.078V163.52H568.455V170ZM566.996 161.803C566.996 161.557 567.062 161.367 567.195 161.234C567.332 161.102 567.525 161.035 567.775 161.035C568.018 161.035 568.205 161.102 568.338 161.234C568.475 161.367 568.543 161.557 568.543 161.803C568.543 162.037 568.475 162.223 568.338 162.359C568.205 162.492 568.018 162.559 567.775 162.559C567.525 162.559 567.332 162.492 567.195 162.359C567.062 162.223 566.996 162.037 566.996 161.803ZM571.807 170H570.43V160.883H571.807V170ZM576.611 170.117C575.604 170.117 574.814 169.824 574.244 169.238C573.678 168.648 573.395 167.838 573.395 166.807C573.395 165.748 573.658 164.916 574.186 164.311C574.713 163.705 575.438 163.402 576.359 163.402C577.215 163.402 577.891 163.662 578.387 164.182C578.883 164.701 579.131 165.416 579.131 166.326V167.07H574.812C574.832 167.699 575.002 168.184 575.322 168.523C575.643 168.859 576.094 169.027 576.676 169.027C577.059 169.027 577.414 168.992 577.742 168.922C578.074 168.848 578.43 168.727 578.809 168.559V169.678C578.473 169.838 578.133 169.951 577.789 170.018C577.445 170.084 577.053 170.117 576.611 170.117ZM576.359 164.445C575.922 164.445 575.57 164.584 575.305 164.861C575.043 165.139 574.887 165.543 574.836 166.074H577.777C577.77 165.539 577.641 165.135 577.391 164.861C577.141 164.584 576.797 164.445 576.359 164.445Z" fill="#0357D0" fill-opacity="0.9"/>
<path d="M105.375 116.75H104.875V116.25V112.084C104.875 111.677 104.741 111.376 104.544 111.179C104.347 110.981 104.046 110.848 103.639 110.848C103.232 110.848 102.931 110.981 102.734 111.179C102.536 111.376 102.403 111.677 102.403 112.084V117.987C102.403 118.394 102.536 118.694 102.734 118.892C102.931 119.089 103.232 119.223 103.639 119.223H128.813C129.084 119.223 129.397 119.082 129.653 118.827C129.908 118.571 130.049 118.258 130.049 117.987V112.084C130.049 111.677 129.915 111.376 129.718 111.179C129.52 110.981 129.22 110.848 128.813 110.848C128.405 110.848 128.105 110.981 127.907 111.179C127.71 111.376 127.576 111.677 127.576 112.084V116.25V116.75H127.076H105.375Z" fill="white" stroke="white"/>
<path d="M105.375 93.6596H104.875V93.1596V88.9929C104.875 88.5857 104.741 88.2852 104.544 88.0878C104.347 87.8904 104.046 87.7568 103.639 87.7568C103.232 87.7568 102.931 87.8904 102.734 88.0878C102.536 88.2852 102.403 88.5857 102.403 88.9929V94.8957C102.403 95.3029 102.536 95.6034 102.734 95.8008C102.931 95.9983 103.232 96.1318 103.639 96.1318H128.813C129.22 96.1318 129.52 95.9983 129.718 95.8008C129.915 95.6034 130.049 95.3029 130.049 94.8957V88.9929C130.049 88.5857 129.915 88.2852 129.718 88.0878C129.52 87.8904 129.22 87.7568 128.813 87.7568C128.405 87.7568 128.105 87.8904 127.907 88.0878C127.71 88.2852 127.576 88.5857 127.576 88.9929V93.1596V93.6596H127.076H105.375Z" fill="white" stroke="white"/>
<path d="M123.951 73.1738H108.5C107.766 73.1738 107.264 73.785 107.264 74.4099C107.264 74.8172 107.397 75.1176 107.595 75.3151C107.792 75.5125 108.093 75.6461 108.5 75.6461H123.951C124.359 75.6461 124.659 75.5125 124.857 75.3151C125.054 75.1176 125.188 74.8172 125.188 74.4099C125.188 74.0027 125.054 73.7022 124.857 73.5048C124.659 73.3074 124.359 73.1738 123.951 73.1738Z" fill="white" stroke="white"/>
<path d="M63.382 42.9927V42.9861C63.382 42.2525 62.7708 41.75 62.1458 41.75H47.9097C47.3102 41.75 46.6514 42.2371 46.5005 43.0276C46.5092 43.4138 46.6403 43.7006 46.831 43.8912C47.0284 44.0887 47.3289 44.2222 47.7361 44.2222H60.4097H60.9022L60.9097 44.7146L61.0833 56.173L61.091 56.6806H60.5833H54.1597C53.7525 56.6806 53.452 56.8141 53.2546 57.0115C53.0572 57.209 52.9236 57.5095 52.9236 57.9167C52.9236 58.3239 53.0572 58.6244 53.2546 58.8218C53.452 59.0192 53.7525 59.1528 54.1597 59.1528H61.1042H61.5991L61.6041 59.6476L62.2986 127.356V127.361V127.362V127.363V127.364V127.365V127.366V127.367V127.368V127.369V127.37V127.371V127.372V127.373V127.374V127.375V127.376V127.377V127.378V127.379V127.38V127.381V127.382V127.383V127.383V127.384V127.385V127.386V127.387V127.388V127.389V127.39V127.391V127.392V127.393V127.394V127.394V127.395V127.396V127.397V127.398V127.399V127.4V127.401V127.401V127.402V127.403V127.404V127.405V127.406V127.406V127.407V127.408V127.409V127.41V127.411V127.411V127.412V127.413V127.414V127.415V127.416V127.416V127.417V127.418V127.419V127.42V127.42V127.421V127.422V127.423V127.423V127.424V127.425V127.426V127.427V127.427V127.428V127.429V127.43V127.43V127.431V127.432V127.433V127.433V127.434V127.435V127.436V127.436V127.437V127.438V127.438V127.439V127.44V127.441V127.441V127.442V127.443V127.443V127.444V127.445V127.446V127.446V127.447V127.448V127.448V127.449V127.45V127.45V127.451V127.452V127.452V127.453V127.454V127.454V127.455V127.456V127.456V127.457V127.458V127.458V127.459V127.46V127.46V127.461V127.462V127.462V127.463V127.464V127.464V127.465V127.465V127.466V127.467V127.467V127.468V127.469V127.469V127.47V127.47V127.471V127.472V127.472V127.473V127.474V127.474V127.475V127.475V127.476V127.477V127.477V127.478V127.478V127.479V127.48V127.48V127.481V127.481V127.482V127.482V127.483V127.484V127.484V127.485V127.485V127.486V127.486V127.487V127.488V127.488V127.489V127.489V127.49V127.49V127.491V127.492V127.492V127.493V127.493V127.494V127.494V127.495V127.495V127.496V127.497V127.497V127.498V127.498V127.499V127.499V127.5V127.5V127.501V127.501V127.502V127.503V127.503V127.504V127.504V127.505V127.505V127.506V127.506V127.507V127.507V127.508V127.508V127.509V127.509V127.51V127.511V127.511V127.512V127.512V127.513V127.513V127.514V127.514V127.515V127.515V127.516V127.516V127.517V127.517V127.518V127.518V127.519V127.519V127.52V127.52V127.521V127.521V127.522V127.522V127.523V127.524V127.524V127.525V127.525V127.526V127.526V127.527V127.527V127.528V127.528V127.529V127.529V127.53V127.53V127.531V127.531V127.532V127.532V127.533V127.533V127.534V127.534V127.535V127.535V127.536V127.536V127.537V127.537V127.538V127.538V127.539V127.539V127.54V127.54V127.541V127.541V127.542V127.542V127.543V127.543V127.544V127.544V127.545V127.545V127.546V127.546V127.547V127.547V127.548V127.549V127.549V127.55V127.55V127.551V127.551V127.552V127.552V127.553V127.553V127.554V127.554V127.555V127.555V127.556V127.556V127.557V127.557V127.558V127.558V127.559V127.559V127.56V127.56V127.561V127.562V127.562V127.563V127.563V127.564V127.564V127.565V127.565V127.566V127.566V127.567V127.567V127.568V127.568V127.569V127.57V127.57V127.571V127.571V127.572V127.572V127.573V127.573V127.574V127.575V127.575V127.576V127.576V127.577V127.577V127.578V127.578V127.579V127.58V127.58V127.581V127.581V127.582V127.582V127.583V127.584V127.584V127.585V127.585V127.586V127.586V127.587V127.588V127.588V127.589V127.589V127.59V127.591V127.591V127.592V127.592V127.593V127.594V127.594V127.595V127.595V127.596V127.597V127.597V127.598V127.598V127.599V127.6V127.6V127.601V127.601V127.602V127.603V127.603V127.604V127.605V127.605V127.606V127.607V127.607V127.608V127.608V127.609V127.61V127.61V127.611V127.612V127.612V127.613V127.614V127.614V127.615V127.616V127.616V127.617V127.618V127.618V127.619V127.62V127.62V127.621V127.622V127.622V127.623V127.624V127.625V127.625V127.626V127.627V127.627V127.628V127.629V127.63V127.63V127.631V127.632V127.632V127.633V127.634V127.635V127.635V127.636V127.637V127.638V127.638V127.639V127.64V127.641V127.641V127.642V127.643V127.644V127.644V127.645V127.646V127.647V127.648V127.648V127.649V127.65V127.651V127.651V127.652V127.653V127.654V127.655V127.656V127.656V127.657V127.658V127.659V127.66V127.66V127.661V127.662V127.663V127.664V127.665V127.665V127.666V127.667V127.668V127.669V127.67V127.671V127.672V127.672V127.673V127.674V127.675V127.676V127.677V127.678V127.679V127.68V127.68V127.681V127.682V127.683V127.684V127.685V127.686V127.687V127.688V127.689V127.69V127.691V127.692V127.693V127.694V127.694V127.695V127.696V127.697V127.698V127.699V127.7V127.701V127.702V127.703V127.704V127.705V127.706V127.707V127.708V127.709V127.71V127.711V127.712V127.713V127.714V127.715V127.716V127.717V127.718V127.72V127.721V127.722V127.723V127.724V127.725V127.726V127.727V127.728V127.729V127.73V127.731V127.732V127.733V127.734V127.735V127.736V127.737V127.738V127.739V127.74V127.741V127.742V127.743V127.744V127.745V127.746V127.747V127.748V127.749V127.75V127.751V127.752V127.753V127.754V127.755V127.756V127.757V127.758V127.759V127.76V127.761V127.762V127.763V127.764V127.765V127.766V127.767V127.768V127.769V127.77V127.771V127.772V127.773V127.774V127.775V127.776V127.777V127.778V127.779V127.78V127.781V127.782V127.783V127.784V127.785V127.786V127.787V127.788V127.789V127.79V127.791V127.792V127.793V127.794V127.795V127.796V127.797V127.798V127.799V127.8V127.801V127.802V127.803V127.804V127.805V127.806V127.807V127.808V127.809V127.81V127.811V127.812V127.813V127.814V127.815V127.816V127.817V127.818V127.819V127.819V127.82V127.821V127.822V127.823V127.824V127.825V127.826V127.827V127.828V127.829V127.83V127.831V127.832V127.833V127.834V127.835V127.836V127.837V127.838V127.839V127.84V127.841V127.842V127.842V127.843V127.844V127.845V127.846V127.847V127.848V127.849V127.85V127.851V127.852V127.853V127.854V127.855V127.856V127.857V127.857V127.858V127.859V127.86V127.861V127.862V127.863V127.864V127.865V127.866V127.867V127.868V127.869V127.869V127.87V127.871V127.872V127.873V127.874V127.875V127.876V127.877V127.878V127.879V127.879V127.88V127.881V127.882V127.883V127.884V127.885V127.886V127.887V127.887V127.888V127.889V127.89V127.891V127.892V127.893V127.894V127.894V127.895V127.896V127.897V127.898V127.899V127.9V127.901V127.901V127.902V127.903V127.904V127.905V127.906V127.907V127.907V127.908V127.909V127.91V127.911V127.912V127.913V127.913V127.914V127.915V127.916V127.917V127.918V127.918V127.919V127.92V127.921V127.922V127.922V127.923V127.924V127.925V127.926V127.927V127.927V127.928V127.929V127.93V127.931V127.931V127.932V127.933V127.934V127.935V127.935V127.936V127.937V127.938V127.939V127.939C62.3224 127.967 62.3496 128.002 62.3738 128.042C62.3941 128.076 62.4117 128.112 62.4261 128.15L62.4948 128.218L62.4955 128.219L62.4956 128.219L62.5011 128.224C62.5088 128.23 62.5197 128.239 62.5317 128.247C62.5332 128.248 62.5347 128.249 62.536 128.25H62.9931V128.543L63.0099 128.56C63.0109 128.56 63.012 128.561 63.0133 128.561C63.0289 128.568 63.0558 128.576 63.0961 128.582C63.1801 128.596 63.2714 128.597 63.3611 128.597H74.125H74.625V129.097V131.181C74.625 131.257 74.6402 131.31 74.6807 131.391C74.704 131.437 74.7317 131.485 74.7719 131.555L74.7778 131.565C74.819 131.637 74.8688 131.724 74.9194 131.825L75.2342 132.454L74.5362 132.545C69.3945 133.208 65.4236 137.517 65.4236 142.812C65.4236 148.613 70.0609 153.25 75.8611 153.25C81.6614 153.25 86.2986 148.613 86.2986 142.812C86.2986 137.517 82.3278 133.208 77.186 132.545L76.1772 132.414L76.8964 131.695C76.9304 131.661 76.9843 131.587 77.0292 131.483C77.0731 131.38 77.0972 131.274 77.0972 131.181V129.097V128.597H77.5972H79.8542H152.597H154.854H155.354V129.097V131.181C155.354 131.257 155.369 131.31 155.41 131.391C155.433 131.438 155.461 131.485 155.501 131.555L155.507 131.565C155.548 131.637 155.598 131.724 155.649 131.825L155.963 132.454L155.265 132.545C150.124 133.208 146.153 137.517 146.153 142.812C146.153 148.613 150.79 153.25 156.59 153.25C162.391 153.25 167.028 148.613 167.028 142.812C167.028 137.517 163.057 133.208 157.915 132.545L156.906 132.414L157.626 131.695C157.66 131.661 157.713 131.587 157.758 131.483C157.802 131.38 157.826 131.274 157.826 131.181V128.924V128.424H158.326H169.264C169.671 128.424 169.972 128.29 170.169 128.093C170.366 127.895 170.5 127.595 170.5 127.188V114.861C170.5 114.454 170.366 114.153 170.169 113.956C169.972 113.759 169.671 113.625 169.264 113.625C168.857 113.625 168.556 113.759 168.359 113.956C168.161 114.153 168.028 114.454 168.028 114.861V125.451V125.951H167.528H154.333H153.833V125.451V102.535C153.833 102.128 153.7 101.827 153.502 101.63C153.305 101.432 153.004 101.299 152.597 101.299H146.521H146.021V100.799V81.3542C146.021 80.947 145.887 80.6465 145.69 80.449C145.492 80.2516 145.192 80.1181 144.785 80.1181H141.486H140.986V79.6181V67.4653C140.986 67.0581 140.853 66.7576 140.655 66.5602C140.458 66.3627 140.157 66.2292 139.75 66.2292H92.5278C92.1206 66.2292 91.8201 66.3627 91.6227 66.5602C91.4252 66.7576 91.2917 67.0581 91.2917 67.4653V79.6181V80.1181H90.7917H87.4931C87.0858 80.1181 86.7854 80.2516 86.5879 80.449C86.3905 80.6465 86.257 80.947 86.257 81.3542V100.799V101.299H85.757H79.6806C79.2733 101.299 78.9729 101.432 78.7754 101.63C78.578 101.827 78.4445 102.128 78.4445 102.535V125.625V126.125H77.9445H64.75H64.2552L64.25 125.63L63.5556 59.658L63.5503 59.1528H64.0556H70.4792C70.8864 59.1528 71.1869 59.0192 71.3843 58.8218C71.5817 58.6244 71.7153 58.3239 71.7153 57.9167C71.7153 57.5095 71.5817 57.209 71.3843 57.0115C71.1869 56.8141 70.8864 56.6806 70.4792 56.6806H64.0556H63.5621L63.5556 56.1871L63.382 42.9927ZM138.014 68.7014H138.514V69.2014V79.6181V80.1181H138.014H94.2639H93.7639V79.6181V69.2014V68.7014H94.2639H138.014ZM143.049 82.5903H143.549V83.0903V100.625V101.125H143.049H89.2292H88.7292V100.625V83.0903V82.5903H89.2292H92.5278H139.75H143.049ZM81.5903 126.125H81.0903V125.625V104.271V103.771H81.5903H150.861H151.361V104.271V125.625V126.125H150.861H81.5903ZM156.764 150.778C152.321 150.778 148.799 147.255 148.799 142.812C148.799 138.551 152.314 134.847 156.764 134.847C161.207 134.847 164.729 138.37 164.729 142.812C164.729 147.255 161.207 150.778 156.764 150.778ZM75.6875 150.778C71.2447 150.778 67.7222 147.255 67.7222 142.812C67.7222 138.543 71.4183 134.847 75.6875 134.847C80.1303 134.847 83.6528 138.37 83.6528 142.812C83.6528 147.255 80.1303 150.778 75.6875 150.778Z" fill="white" stroke="white"/>
<defs>
<filter id="filter0_d" x="0" y="0" width="608" height="195" filterUnits="userSpaceOnUse" color-interpolation-filters="sRGB">
<feFlood flood-opacity="0" result="BackgroundImageFix"/>
<feColorMatrix in="SourceAlpha" type="matrix" values="0 0 0 0 0 0 0 0 0 0 0 0 0 0 0 0 0 0 127 0"/>
<feOffset/>
<feGaussianBlur stdDeviation="2"/>
<feColorMatrix type="matrix" values="0 0 0 0 0 0 0 0 0 0 0 0 0 0 0 0 0 0 0.25 0"/>
<feBlend mode="normal" in2="BackgroundImageFix" result="effect1_dropShadow"/>
<feBlend mode="normal" in="SourceGraphic" in2="effect1_dropShadow" result="shape"/>
</filter>
<filter id="filter1_d" x="0" y="0" width="218" height="195" filterUnits="userSpaceOnUse" color-interpolation-filters="sRGB">
<feFlood flood-opacity="0" result="BackgroundImageFix"/>
<feColorMatrix in="SourceAlpha" type="matrix" values="0 0 0 0 0 0 0 0 0 0 0 0 0 0 0 0 0 0 127 0"/>
<feOffset/>
<feGaussianBlur stdDeviation="2"/>
<feColorMatrix type="matrix" values="0 0 0 0 0 0 0 0 0 0 0 0 0 0 0 0 0 0 0.25 0"/>
<feBlend mode="normal" in2="BackgroundImageFix" result="effect1_dropShadow"/>
<feBlend mode="normal" in="SourceGraphic" in2="effect1_dropShadow" result="shape"/>
</filter>
</defs>
</svg>
