<?xml version="1.0" encoding="UTF-8"?>
<svg xmlns="http://www.w3.org/2000/svg" xmlns:xlink="http://www.w3.org/1999/xlink" width="108px" height="108px" viewBox="0 0 108 108" version="1.1">
<g id="surface1">
<path style=" stroke:none;fill-rule:nonzero;fill:rgb(0%,0%,0%);fill-opacity:1;" d="M 12.152344 76.683594 C 12.152344 76.011719 12.152344 75.550781 12.152344 75.078125 C 12.152344 50.957031 12.152344 26.832031 12.152344 2.695312 C 12.152344 0.460938 12.589844 0.0117188 14.804688 0.0117188 C 36.292969 0.0117188 57.78125 0.0273438 79.285156 0 C 80.394531 0 81.199219 0.328125 81.976562 1.117188 C 86.265625 5.457031 90.605469 9.734375 94.878906 14.085938 C 95.378906 14.601562 95.773438 15.453125 95.773438 16.164062 C 95.828125 28.464844 95.816406 40.761719 95.816406 53.058594 C 95.816406 53.335938 95.816406 53.625 95.816406 53.953125 C 94.640625 53.953125 93.570312 53.953125 92.371094 53.953125 C 92.371094 41.828125 92.371094 29.699219 92.371094 17.441406 C 91.871094 17.441406 91.488281 17.441406 91.09375 17.441406 C 87.648438 17.441406 84.191406 17.441406 80.75 17.441406 C 78.957031 17.441406 78.386719 16.886719 78.386719 15.125 C 78.386719 11.640625 78.386719 8.15625 78.386719 4.683594 C 78.386719 4.328125 78.386719 3.972656 78.386719 3.578125 C 57.453125 3.578125 36.636719 3.578125 15.726562 3.578125 C 15.726562 27.898438 15.726562 52.21875 15.726562 76.667969 C 16.953125 76.667969 18.167969 76.667969 19.394531 76.667969 C 21.675781 76.667969 23.972656 76.695312 26.253906 76.644531 C 26.730469 76.628906 27.324219 76.417969 27.667969 76.089844 C 29.328125 74.527344 30.9375 72.894531 32.519531 71.25 C 32.824219 70.933594 33.046875 70.382812 33.0625 69.949219 C 33.113281 67.449219 33.089844 64.9375 33.089844 62.4375 C 33.089844 59.503906 33.351562 59.253906 36.332031 59.253906 C 38.273438 59.253906 39.972656 59.859375 41.371094 61.203125 C 42.8125 62.570312 43.523438 64.277344 43.535156 66.265625 C 43.550781 69.34375 43.535156 72.433594 43.535156 75.511719 C 43.535156 75.867188 43.535156 76.222656 43.535156 76.683594 C 44.023438 76.683594 44.421875 76.683594 44.800781 76.683594 C 49.417969 76.683594 54.023438 76.683594 58.640625 76.683594 C 60.367188 76.683594 60.960938 77.25 60.960938 78.933594 C 60.960938 86.808594 60.976562 94.675781 60.960938 102.554688 C 60.960938 105.816406 58.746094 108.027344 55.488281 108.027344 C 48.773438 108.039062 42.058594 108.039062 35.34375 108.011719 C 34.75 108.011719 34.066406 107.894531 33.589844 107.578125 C 29.554688 104.910156 25.132812 104.277344 20.359375 104.476562 C 14.011719 104.738281 7.65625 104.539062 1.296875 104.539062 C 0.902344 104.539062 0.503906 104.539062 0.0429688 104.539062 C 0.0429688 103.371094 0.0429688 102.277344 0.0429688 101.09375 C 6.957031 101.09375 13.839844 101.09375 20.808594 101.09375 C 20.808594 94.109375 20.808594 87.203125 20.808594 80.179688 C 13.90625 80.179688 6.996094 80.179688 0.03125 80.179688 C 0.03125 78.984375 0.03125 77.917969 0.03125 76.722656 C 4.015625 76.683594 8.011719 76.683594 12.152344 76.683594 Z M 57.414062 80.128906 C 56.9375 80.128906 56.554688 80.128906 56.160156 80.128906 C 51.582031 80.128906 47.019531 80.128906 42.441406 80.128906 C 40.59375 80.128906 40.039062 79.589844 40.039062 77.734375 C 40.039062 73.921875 40.054688 70.117188 40.027344 66.304688 C 40.015625 64.199219 38.523438 62.714844 36.542969 62.832031 C 36.542969 65.542969 36.597656 68.265625 36.503906 70.972656 C 36.480469 71.632812 36.1875 72.421875 35.738281 72.894531 C 33.640625 75.105469 31.480469 77.261719 29.277344 79.351562 C 28.828125 79.773438 28.089844 80.011719 27.457031 80.089844 C 26.464844 80.207031 25.449219 80.117188 24.410156 80.117188 C 24.410156 87.125 24.410156 94.03125 24.410156 101.121094 C 27.21875 100.503906 29.59375 101.476562 31.886719 102.816406 C 32.164062 102.988281 32.480469 103.09375 32.757812 103.265625 C 34.339844 104.277344 36.042969 104.554688 37.917969 104.527344 C 43.679688 104.4375 49.460938 104.5 55.222656 104.488281 C 56.859375 104.488281 57.441406 103.882812 57.453125 102.253906 C 57.453125 101.871094 57.453125 101.476562 57.453125 100.976562 C 52.742188 100.976562 48.152344 100.976562 43.601562 100.976562 C 43.601562 99.753906 43.601562 98.660156 43.601562 97.476562 C 48.246094 97.476562 52.808594 97.476562 57.375 97.476562 C 57.375 96.292969 57.375 95.203125 57.375 93.980469 C 52.71875 93.980469 48.125 93.980469 43.574219 93.980469 C 43.574219 92.78125 43.574219 91.714844 43.574219 90.519531 C 48.21875 90.519531 52.808594 90.519531 57.402344 90.519531 C 57.402344 89.324219 57.402344 88.257812 57.402344 87.058594 C 52.769531 87.058594 48.179688 87.058594 43.589844 87.058594 C 43.589844 85.835938 43.589844 84.746094 43.589844 83.5625 C 48.230469 83.5625 52.785156 83.5625 57.402344 83.5625 C 57.414062 82.429688 57.414062 81.363281 57.414062 80.128906 Z M 89.496094 13.914062 C 86.949219 11.363281 84.429688 8.851562 81.921875 6.339844 C 81.921875 8.785156 81.921875 11.324219 81.921875 13.902344 C 84.507812 13.914062 87.027344 13.914062 89.496094 13.914062 Z M 89.496094 13.914062 "/>
<path style=" stroke:none;fill-rule:nonzero;fill:rgb(0%,0%,0%);fill-opacity:1;" d="M 69.664062 101.027344 C 69.226562 101.027344 68.910156 101.027344 68.59375 101.027344 C 66.679688 101.015625 66.179688 100.503906 66.179688 98.554688 C 66.179688 97.648438 66.167969 96.742188 66.179688 95.832031 C 66.234375 92.847656 68.449219 90.636719 71.445312 90.585938 C 71.972656 90.570312 72.511719 90.585938 73.171875 90.585938 C 72.972656 88.191406 73.316406 86.074219 75.335938 84.585938 C 77.300781 83.140625 79.597656 83.796875 81.796875 83.5625 C 82.117188 78.234375 81.402344 73.132812 79.171875 68.277344 C 77.667969 64.988281 78.277344 61.109375 80.730469 58.503906 C 83.183594 55.902344 86.890625 55.058594 90.214844 56.335938 C 93.605469 57.648438 95.714844 60.792969 95.808594 64.527344 C 95.835938 65.871094 95.585938 67.066406 95.003906 68.289062 C 92.75 73.078125 92.046875 78.179688 92.367188 83.601562 C 93.300781 83.601562 94.265625 83.601562 95.226562 83.601562 C 98.921875 83.601562 101.003906 85.691406 101.019531 89.414062 C 101.019531 89.742188 101.019531 90.070312 101.019531 90.570312 C 101.613281 90.570312 102.167969 90.558594 102.734375 90.570312 C 105.714844 90.625 107.929688 92.847656 107.984375 95.832031 C 107.996094 96.804688 107.996094 97.792969 107.984375 98.765625 C 107.972656 100.410156 107.390625 101.003906 105.769531 101.015625 C 105.371094 101.015625 104.988281 101.015625 104.488281 101.015625 C 104.488281 102.660156 104.488281 104.210938 104.488281 105.761719 C 104.476562 107.382812 103.882812 107.972656 102.246094 107.972656 C 92.128906 107.972656 81.996094 107.972656 71.878906 107.972656 C 70.242188 107.972656 69.648438 107.382812 69.648438 105.75 C 69.664062 104.238281 69.664062 102.726562 69.664062 101.027344 Z M 88.84375 83.5625 C 88.84375 83.035156 88.855469 82.613281 88.84375 82.179688 C 88.683594 76.628906 89.699219 71.316406 92.074219 66.265625 C 92.339844 65.710938 92.324219 65.003906 92.3125 64.371094 C 92.273438 62.214844 90.96875 60.359375 88.976562 59.597656 C 86.96875 58.820312 84.78125 59.320312 83.289062 60.898438 C 81.824219 62.4375 81.429688 64.832031 82.300781 66.738281 C 83.871094 70.160156 84.910156 73.722656 85.148438 77.484375 C 85.28125 79.496094 85.175781 81.507812 85.175781 83.574219 C 86.546875 83.5625 87.617188 83.5625 88.84375 83.5625 Z M 104.460938 97.503906 C 104.699219 94.492188 104.316406 94.058594 101.453125 94.058594 C 97.390625 94.058594 93.328125 94.058594 89.265625 94.058594 C 83.460938 94.058594 77.65625 94.058594 71.851562 94.058594 C 70.558594 94.058594 69.820312 94.558594 69.703125 95.570312 C 69.621094 96.203125 69.6875 96.847656 69.6875 97.503906 C 81.335938 97.503906 92.867188 97.503906 104.460938 97.503906 Z M 100.953125 104.488281 C 100.953125 103.355469 100.953125 102.226562 100.953125 101.09375 C 91.679688 101.09375 82.457031 101.09375 73.25 101.09375 C 73.25 102.265625 73.25 103.371094 73.25 104.488281 C 82.5 104.488281 91.679688 104.488281 100.953125 104.488281 Z M 97.550781 90.519531 C 97.550781 89.941406 97.574219 89.402344 97.550781 88.875 C 97.484375 87.796875 96.835938 87.113281 95.742188 87.113281 C 89.976562 87.085938 84.214844 87.085938 78.449219 87.113281 C 77.351562 87.113281 76.707031 87.796875 76.640625 88.875 C 76.613281 89.402344 76.640625 89.941406 76.640625 90.53125 C 83.644531 90.519531 90.542969 90.519531 97.550781 90.519531 Z M 97.550781 90.519531 "/>
<path style=" stroke:none;fill-rule:nonzero;fill:rgb(0%,0%,0%);fill-opacity:1;" d="M 60.988281 66.203125 C 50.40625 66.21875 41.78125 57.613281 41.78125 47.054688 C 41.78125 36.476562 50.382812 27.875 60.960938 27.890625 C 71.488281 27.890625 80.089844 36.464844 80.117188 46.972656 C 80.140625 57.550781 71.554688 66.191406 60.988281 66.203125 Z M 45.261719 47.011719 C 45.25 55.628906 52.269531 62.679688 60.871094 62.707031 C 69.535156 62.730469 76.621094 55.707031 76.632812 47.054688 C 76.644531 38.4375 69.628906 31.386719 61.027344 31.363281 C 52.347656 31.347656 45.277344 38.371094 45.261719 47.011719 Z M 45.261719 47.011719 "/>
<path style=" stroke:none;fill-rule:nonzero;fill:rgb(0%,0%,0%);fill-opacity:1;" d="M 19.164062 10.390625 C 19.164062 9.234375 19.164062 8.152344 19.164062 7.035156 C 37.710938 7.035156 56.207031 7.035156 74.792969 7.035156 C 74.792969 8.113281 74.792969 9.21875 74.792969 10.390625 C 56.300781 10.390625 37.765625 10.390625 19.164062 10.390625 Z M 19.164062 10.390625 "/>
<path style=" stroke:none;fill-rule:nonzero;fill:rgb(0%,0%,0%);fill-opacity:1;" d="M 19.164062 17.367188 C 19.164062 16.222656 19.164062 15.160156 19.164062 14.027344 C 37.738281 14.027344 56.261719 14.027344 74.832031 14.027344 C 74.832031 15.144531 74.832031 16.222656 74.832031 17.367188 C 56.300781 17.367188 37.777344 17.367188 19.164062 17.367188 Z M 19.164062 17.367188 "/>
<path style=" stroke:none;fill-rule:nonzero;fill:rgb(0%,0%,0%);fill-opacity:1;" d="M 19.164062 24.328125 C 19.164062 23.183594 19.164062 22.105469 19.164062 20.972656 C 37.738281 20.972656 56.261719 20.972656 74.832031 20.972656 C 74.832031 22.089844 74.832031 23.167969 74.832031 24.328125 C 56.300781 24.328125 37.777344 24.328125 19.164062 24.328125 Z M 19.164062 24.328125 "/>
<path style=" stroke:none;fill-rule:nonzero;fill:rgb(0%,0%,0%);fill-opacity:1;" d="M 52.75 50.0625 C 53.632812 49.234375 54.410156 48.496094 55.308594 47.65625 C 56.851562 49.273438 58.460938 50.96875 60.242188 52.835938 C 62.339844 47.589844 64.304688 42.710938 66.308594 37.699219 C 67.378906 38.117188 68.40625 38.511719 69.488281 38.933594 C 69.371094 39.300781 69.292969 39.617188 69.171875 39.90625 C 67.0625 45.183594 64.953125 50.457031 62.839844 55.730469 C 61.996094 57.820312 60.796875 58.058594 59.1875 56.441406 C 57.050781 54.335938 54.914062 52.21875 52.75 50.0625 Z M 52.75 50.0625 "/>
</g>
</svg>
