<svg width="608" height="195" viewBox="0 0 608 195" fill="none" xmlns="http://www.w3.org/2000/svg">
<g filter="url(#filter0_d)">
<rect x="4" y="4" width="600" height="187" rx="8" fill="white"/>
</g>
<g filter="url(#filter1_d)">
<path d="M4 12C4 7.58172 7.58172 4 12 4H214V191H12C7.58172 191 4 187.418 4 183V12Z" fill="#0357D0"/>
</g>
<path d="M167.667 73.992H157.053C156.299 71.7067 155.381 69.479 154.307 67.3252L161.8 59.832C161.801 59.8315 161.801 59.831 161.801 59.8305C163.884 57.7473 163.883 54.3705 161.8 52.288L146.712 37.2C144.602 35.1858 141.281 35.1858 139.171 37.2L131.667 44.6987C129.513 43.6248 127.285 42.7067 125 41.952V31.3333C125 28.3878 122.612 26 119.667 26H98.3335C95.3877 26 93 28.3878 93 31.3333V41.952C90.7122 42.7045 88.4815 43.6208 86.3252 44.6933L78.832 37.2C76.7218 35.1827 73.3983 35.1827 71.288 37.2L56.2 52.288C54.118 54.3708 54.118 57.7467 56.2 59.8293L63.6987 67.3332C62.6248 69.4867 61.7067 71.7147 60.952 74H50.3333C47.3878 74 45 76.3877 45 79.3332V90H50.3333V79.3332H62.9172C64.1057 79.3335 65.1507 78.5472 65.48 77.4053C66.405 74.174 67.6875 71.056 69.304 68.1092C69.8793 67.069 69.6965 65.7738 68.856 64.9333L59.9733 56.0585L75.0585 40.9733L83.9437 49.856C84.7837 50.6953 86.0775 50.8778 87.117 50.304C90.0615 48.6885 93.1768 47.406 96.405 46.48C97.547 46.1507 98.3333 45.1057 98.333 43.9172V31.3333H119.666V43.9172C119.666 45.1057 120.452 46.1507 121.594 46.48C124.826 47.4052 127.945 48.6878 130.893 50.304C131.932 50.8778 133.226 50.6953 134.066 49.856L142.941 40.9733L158.026 56.0585L149.144 64.9412C148.303 65.7817 148.12 67.077 148.696 68.1172C150.312 71.0615 151.594 74.1768 152.52 77.4053C152.849 78.5472 153.894 79.3335 155.082 79.3332H167.666V90H173V79.3252C173 76.3797 170.612 73.992 167.667 73.992Z" fill="white"/>
<path d="M109 60.667C94.2725 60.667 82.3333 72.606 82.3333 87.3337V90.0002H87.6665V87.3335C87.6668 75.5515 97.218 66.0002 109 66.0002C120.782 66.0002 130.333 75.5515 130.333 87.3335V90.0002H135.666V87.3335C135.667 72.606 123.727 60.667 109 60.667Z" fill="white"/>
<path d="M111.666 36.667H106.333V42.0002H111.666V36.667Z" fill="white"/>
<path d="M77.0007 52.668H71.6675V58.0012H77.0007V52.668Z" fill="white"/>
<path d="M61 84.668H55.6667V90.0012H61V84.668Z" fill="white"/>
<path d="M162.333 84.668H157V90.0012H162.333V84.668Z" fill="white"/>
<path d="M146.333 52.668H141V58.0012H146.333V52.668Z" fill="white"/>
<path d="M77 127.333H50.3333C47.3878 127.333 45 129.721 45 132.667V148.667C45 151.612 47.3878 154 50.3333 154H77C79.9455 154 82.3332 151.612 82.3332 148.667V132.667C82.3332 129.721 79.9455 127.333 77 127.333ZM77 148.667H50.3333V132.667H77V148.667Z" fill="white"/>
<path d="M167.667 127.333H141C138.054 127.333 135.667 129.721 135.667 132.666V148.666C135.667 151.612 138.054 154 141 154H167.667C170.612 154 173 151.612 173 148.666V132.666C173 129.721 170.612 127.333 167.667 127.333ZM167.667 148.667H141V132.667H167.667V148.667Z" fill="white"/>
<path d="M122.333 127.333H95.6667C92.7212 127.333 90.3335 129.721 90.3335 132.666V148.666C90.3335 151.612 92.7212 154 95.6667 154H122.333C125.279 154 127.667 151.612 127.667 148.666V132.666C127.667 129.721 125.279 127.333 122.333 127.333ZM122.333 148.667H122.333H95.6667V132.667H122.333V148.667Z" fill="white"/>
<path d="M154.333 106H63.6667C62.194 106 61 107.194 61 108.667V122H66.3333V111.333H151.666V122H157V108.667C157 107.194 155.806 106 154.333 106Z" fill="white"/>
<path d="M111.666 87.332H106.333V122H111.666V87.332Z" fill="white"/>
<path d="M61 138H55.6667V143.333H61V138Z" fill="white"/>
<path d="M71.6658 138H66.3325V143.333H71.6658V138Z" fill="white"/>
<path d="M106.333 138H101V143.333H106.333V138Z" fill="white"/>
<path d="M117.001 138H111.667V143.333H117.001V138Z" fill="white"/>
<path d="M151.666 138H146.333V143.333H151.666V138Z" fill="white"/>
<path d="M162.333 138H157V143.333H162.333V138Z" fill="white"/>
<path d="M109 74C101.636 74 95.6667 79.9695 95.6667 87.3332V90H101V87.3332C101 82.915 104.582 79.3332 109 79.3332C113.418 79.3332 117 82.915 117 87.3332V90H122.333V87.3332C122.333 79.9695 116.364 74 109 74Z" fill="white"/>
<path d="M250.338 23.0391C250.338 24.5299 249.85 25.6725 248.873 26.4668C247.896 27.2611 246.507 27.6582 244.703 27.6582H243.219V33H240.885V18.7227H244.996C246.78 18.7227 248.115 19.0872 249 19.8164C249.892 20.5456 250.338 21.6198 250.338 23.0391ZM243.219 25.6953H244.459C245.657 25.6953 246.536 25.487 247.096 25.0703C247.656 24.6536 247.936 24.0026 247.936 23.1172C247.936 22.2969 247.685 21.6849 247.184 21.2812C246.682 20.8776 245.901 20.6758 244.84 20.6758H243.219V25.6953ZM258.424 22.0039C258.886 22.0039 259.267 22.0365 259.566 22.1016L259.342 24.2402C259.016 24.1621 258.678 24.123 258.326 24.123C257.408 24.123 256.663 24.4225 256.09 25.0215C255.523 25.6204 255.24 26.3984 255.24 27.3555V33H252.945V22.1992H254.742L255.045 24.1035H255.162C255.52 23.459 255.986 22.9479 256.559 22.5703C257.138 22.1927 257.76 22.0039 258.424 22.0039ZM271.158 27.5801C271.158 29.3444 270.706 30.7214 269.801 31.7109C268.896 32.7005 267.636 33.1953 266.021 33.1953C265.012 33.1953 264.12 32.9674 263.346 32.5117C262.571 32.056 261.975 31.4017 261.559 30.5488C261.142 29.696 260.934 28.7064 260.934 27.5801C260.934 25.8288 261.383 24.4616 262.281 23.4785C263.18 22.4954 264.446 22.0039 266.08 22.0039C267.643 22.0039 268.88 22.5085 269.791 23.5176C270.702 24.5202 271.158 25.8743 271.158 27.5801ZM263.297 27.5801C263.297 30.0736 264.218 31.3203 266.061 31.3203C267.883 31.3203 268.795 30.0736 268.795 27.5801C268.795 25.1126 267.877 23.8789 266.041 23.8789C265.077 23.8789 264.378 24.1979 263.941 24.8359C263.512 25.474 263.297 26.3887 263.297 27.5801ZM278.16 33.1953C276.526 33.1953 275.283 32.7201 274.43 31.7695C273.583 30.8125 273.16 29.4421 273.16 27.6582C273.16 25.8418 273.603 24.4453 274.488 23.4688C275.38 22.4922 276.666 22.0039 278.346 22.0039C279.485 22.0039 280.51 22.2155 281.422 22.6387L280.729 24.4844C279.758 24.1068 278.958 23.918 278.326 23.918C276.458 23.918 275.523 25.1582 275.523 27.6387C275.523 28.8496 275.755 29.7611 276.217 30.373C276.686 30.9785 277.369 31.2812 278.268 31.2812C279.29 31.2812 280.257 31.0273 281.168 30.5195V32.5215C280.758 32.7624 280.318 32.9349 279.85 33.0391C279.387 33.1432 278.824 33.1953 278.16 33.1953ZM288.424 33.1953C286.744 33.1953 285.429 32.707 284.479 31.7305C283.535 30.7474 283.062 29.3965 283.062 27.6777C283.062 25.9134 283.502 24.5267 284.381 23.5176C285.26 22.5085 286.467 22.0039 288.004 22.0039C289.43 22.0039 290.556 22.4368 291.383 23.3027C292.21 24.1686 292.623 25.36 292.623 26.877V28.1172H285.426C285.458 29.1654 285.742 29.9727 286.275 30.5391C286.809 31.099 287.561 31.3789 288.531 31.3789C289.169 31.3789 289.762 31.3203 290.309 31.2031C290.862 31.0794 291.454 30.8776 292.086 30.5977V32.4629C291.526 32.7298 290.96 32.9186 290.387 33.0293C289.814 33.14 289.16 33.1953 288.424 33.1953ZM288.004 23.7422C287.275 23.7422 286.689 23.9733 286.246 24.4355C285.81 24.8978 285.549 25.5716 285.465 26.457H290.367C290.354 25.5651 290.139 24.8913 289.723 24.4355C289.306 23.9733 288.733 23.7422 288.004 23.7422ZM302.486 29.9238C302.486 30.9785 302.102 31.7891 301.334 32.3555C300.566 32.9154 299.465 33.1953 298.033 33.1953C296.594 33.1953 295.439 32.9772 294.566 32.541V30.5586C295.836 31.1445 297.018 31.4375 298.111 31.4375C299.524 31.4375 300.23 31.0111 300.23 30.1582C300.23 29.8848 300.152 29.6569 299.996 29.4746C299.84 29.2923 299.583 29.1035 299.225 28.9082C298.867 28.7129 298.368 28.4915 297.73 28.2441C296.487 27.7624 295.644 27.2806 295.201 26.7988C294.765 26.3171 294.547 25.6921 294.547 24.9238C294.547 23.9993 294.918 23.2832 295.66 22.7754C296.409 22.2611 297.424 22.0039 298.707 22.0039C299.977 22.0039 301.178 22.2611 302.311 22.7754L301.568 24.5039C300.403 24.0221 299.423 23.7812 298.629 23.7812C297.418 23.7812 296.812 24.1263 296.812 24.8164C296.812 25.1549 296.969 25.4414 297.281 25.6758C297.6 25.9102 298.29 26.2324 299.352 26.6426C300.243 26.9876 300.891 27.3034 301.295 27.5898C301.699 27.8763 301.998 28.2083 302.193 28.5859C302.389 28.957 302.486 29.403 302.486 29.9238ZM312.232 29.9238C312.232 30.9785 311.848 31.7891 311.08 32.3555C310.312 32.9154 309.212 33.1953 307.779 33.1953C306.34 33.1953 305.185 32.9772 304.312 32.541V30.5586C305.582 31.1445 306.764 31.4375 307.857 31.4375C309.27 31.4375 309.977 31.0111 309.977 30.1582C309.977 29.8848 309.898 29.6569 309.742 29.4746C309.586 29.2923 309.329 29.1035 308.971 28.9082C308.613 28.7129 308.115 28.4915 307.477 28.2441C306.233 27.7624 305.39 27.2806 304.947 26.7988C304.511 26.3171 304.293 25.6921 304.293 24.9238C304.293 23.9993 304.664 23.2832 305.406 22.7754C306.155 22.2611 307.171 22.0039 308.453 22.0039C309.723 22.0039 310.924 22.2611 312.057 22.7754L311.314 24.5039C310.149 24.0221 309.169 23.7812 308.375 23.7812C307.164 23.7812 306.559 24.1263 306.559 24.8164C306.559 25.1549 306.715 25.4414 307.027 25.6758C307.346 25.9102 308.036 26.2324 309.098 26.6426C309.99 26.9876 310.637 27.3034 311.041 27.5898C311.445 27.8763 311.744 28.2083 311.939 28.5859C312.135 28.957 312.232 29.403 312.232 29.9238ZM325.094 33H322.76V20.7246H318.561V18.7227H329.293V20.7246H325.094V33ZM336.725 22.0039C337.187 22.0039 337.568 22.0365 337.867 22.1016L337.643 24.2402C337.317 24.1621 336.979 24.123 336.627 24.123C335.709 24.123 334.964 24.4225 334.391 25.0215C333.824 25.6204 333.541 26.3984 333.541 27.3555V33H331.246V22.1992H333.043L333.346 24.1035H333.463C333.821 23.459 334.286 22.9479 334.859 22.5703C335.439 22.1927 336.061 22.0039 336.725 22.0039ZM342.174 33H339.879V22.1992H342.174V33ZM339.742 19.3379C339.742 18.9277 339.853 18.612 340.074 18.3906C340.302 18.1693 340.624 18.0586 341.041 18.0586C341.445 18.0586 341.757 18.1693 341.979 18.3906C342.206 18.612 342.32 18.9277 342.32 19.3379C342.32 19.7285 342.206 20.0378 341.979 20.2656C341.757 20.487 341.445 20.5977 341.041 20.5977C340.624 20.5977 340.302 20.487 340.074 20.2656C339.853 20.0378 339.742 19.7285 339.742 19.3379ZM352.223 33L351.764 31.4961H351.686C351.165 32.1536 350.641 32.6029 350.113 32.8438C349.586 33.0781 348.909 33.1953 348.082 33.1953C347.021 33.1953 346.191 32.9089 345.592 32.3359C344.999 31.763 344.703 30.9525 344.703 29.9043C344.703 28.791 345.117 27.9512 345.943 27.3848C346.77 26.8184 348.03 26.5091 349.723 26.457L351.588 26.3984V25.8223C351.588 25.1322 351.425 24.6178 351.1 24.2793C350.781 23.9342 350.283 23.7617 349.605 23.7617C349.052 23.7617 348.521 23.8431 348.014 24.0059C347.506 24.1686 347.018 24.3607 346.549 24.582L345.807 22.9414C346.393 22.6354 347.034 22.4043 347.73 22.248C348.427 22.0853 349.085 22.0039 349.703 22.0039C351.077 22.0039 352.112 22.3034 352.809 22.9023C353.512 23.5013 353.863 24.4421 353.863 25.7246V33H352.223ZM348.805 31.4375C349.638 31.4375 350.305 31.2064 350.807 30.7441C351.314 30.2754 351.568 29.6211 351.568 28.7812V27.8438L350.182 27.9023C349.101 27.9414 348.313 28.1237 347.818 28.4492C347.33 28.7682 347.086 29.2598 347.086 29.9238C347.086 30.4056 347.229 30.7799 347.516 31.0469C347.802 31.3073 348.232 31.4375 348.805 31.4375ZM366.188 22.1992V23.459L364.342 23.8008C364.511 24.0286 364.651 24.3086 364.762 24.6406C364.872 24.9727 364.928 25.3242 364.928 25.6953C364.928 26.8086 364.544 27.6842 363.775 28.3223C363.007 28.9603 361.949 29.2793 360.602 29.2793C360.257 29.2793 359.944 29.2533 359.664 29.2012C359.169 29.5072 358.922 29.8652 358.922 30.2754C358.922 30.5228 359.036 30.7083 359.264 30.832C359.498 30.9557 359.924 31.0176 360.543 31.0176H362.428C363.619 31.0176 364.524 31.2715 365.143 31.7793C365.761 32.2871 366.07 33.0195 366.07 33.9766C366.07 35.2005 365.566 36.1445 364.557 36.8086C363.548 37.4727 362.089 37.8047 360.182 37.8047C358.71 37.8047 357.587 37.5443 356.812 37.0234C356.038 36.5026 355.65 35.7604 355.65 34.7969C355.65 34.1328 355.859 33.5729 356.275 33.1172C356.699 32.668 357.288 32.3555 358.043 32.1797C357.737 32.0495 357.483 31.8411 357.281 31.5547C357.086 31.2617 356.988 30.9557 356.988 30.6367C356.988 30.2331 357.102 29.8913 357.33 29.6113C357.558 29.3314 357.896 29.0547 358.346 28.7812C357.786 28.5404 357.33 28.1497 356.979 27.6094C356.633 27.0625 356.461 26.4245 356.461 25.6953C356.461 24.5234 356.829 23.6152 357.564 22.9707C358.307 22.3262 359.361 22.0039 360.729 22.0039C361.035 22.0039 361.354 22.0267 361.686 22.0723C362.024 22.1113 362.278 22.1536 362.447 22.1992H366.188ZM357.701 34.6797C357.701 35.1745 357.923 35.5553 358.365 35.8223C358.814 36.0892 359.443 36.2227 360.25 36.2227C361.5 36.2227 362.431 36.0436 363.043 35.6855C363.655 35.3275 363.961 34.8522 363.961 34.2598C363.961 33.791 363.792 33.4557 363.453 33.2539C363.121 33.0586 362.499 32.9609 361.588 32.9609H359.85C359.192 32.9609 358.668 33.1139 358.277 33.4199C357.893 33.7324 357.701 34.1523 357.701 34.6797ZM358.688 25.6953C358.688 26.3724 358.86 26.8932 359.205 27.2578C359.557 27.6224 360.058 27.8047 360.709 27.8047C362.037 27.8047 362.701 27.0951 362.701 25.6758C362.701 24.9727 362.535 24.4323 362.203 24.0547C361.878 23.6706 361.38 23.4785 360.709 23.4785C360.045 23.4785 359.54 23.6673 359.195 24.0449C358.857 24.4225 358.688 24.9727 358.688 25.6953ZM372.916 33.1953C371.236 33.1953 369.921 32.707 368.971 31.7305C368.027 30.7474 367.555 29.3965 367.555 27.6777C367.555 25.9134 367.994 24.5267 368.873 23.5176C369.752 22.5085 370.96 22.0039 372.496 22.0039C373.922 22.0039 375.048 22.4368 375.875 23.3027C376.702 24.1686 377.115 25.36 377.115 26.877V28.1172H369.918C369.951 29.1654 370.234 29.9727 370.768 30.5391C371.301 31.099 372.053 31.3789 373.023 31.3789C373.661 31.3789 374.254 31.3203 374.801 31.2031C375.354 31.0794 375.947 30.8776 376.578 30.5977V32.4629C376.018 32.7298 375.452 32.9186 374.879 33.0293C374.306 33.14 373.652 33.1953 372.916 33.1953ZM372.496 23.7422C371.767 23.7422 371.181 23.9733 370.738 24.4355C370.302 24.8978 370.042 25.5716 369.957 26.457H374.859C374.846 25.5651 374.632 24.8913 374.215 24.4355C373.798 23.9733 373.225 23.7422 372.496 23.7422Z" fill="black"/>
<path d="M460.098 165.635C460.098 167.049 459.705 168.131 458.92 168.881C458.135 169.627 457.004 170 455.527 170H453.131V161.434H455.779C457.143 161.434 458.203 161.801 458.961 162.535C459.719 163.27 460.098 164.303 460.098 165.635ZM458.621 165.682C458.621 163.631 457.662 162.605 455.744 162.605H454.531V168.822H455.527C457.59 168.822 458.621 167.775 458.621 165.682ZM467.545 166.748C467.545 167.807 467.273 168.633 466.73 169.227C466.188 169.82 465.432 170.117 464.463 170.117C463.857 170.117 463.322 169.98 462.857 169.707C462.393 169.434 462.035 169.041 461.785 168.529C461.535 168.018 461.41 167.424 461.41 166.748C461.41 165.697 461.68 164.877 462.219 164.287C462.758 163.697 463.518 163.402 464.498 163.402C465.436 163.402 466.178 163.705 466.725 164.311C467.271 164.912 467.545 165.725 467.545 166.748ZM462.828 166.748C462.828 168.244 463.381 168.992 464.486 168.992C465.58 168.992 466.127 168.244 466.127 166.748C466.127 165.268 465.576 164.527 464.475 164.527C463.896 164.527 463.477 164.719 463.215 165.102C462.957 165.484 462.828 166.033 462.828 166.748ZM474.447 170L473.609 166.977C473.508 166.656 473.324 165.912 473.059 164.744H473.006C472.779 165.799 472.6 166.547 472.467 166.988L471.605 170H470.082L468.266 163.52H469.672L470.498 166.713C470.686 167.502 470.818 168.178 470.896 168.74H470.932C470.971 168.455 471.029 168.129 471.107 167.762C471.189 167.391 471.26 167.113 471.318 166.93L472.303 163.52H473.814L474.77 166.93C474.828 167.121 474.9 167.414 474.986 167.809C475.076 168.203 475.129 168.51 475.145 168.729H475.191C475.25 168.248 475.387 167.576 475.602 166.713L476.439 163.52H477.822L475.994 170H474.447ZM484.643 170H483.26V166.016C483.26 165.516 483.158 165.143 482.955 164.896C482.756 164.65 482.438 164.527 482 164.527C481.418 164.527 480.992 164.699 480.723 165.043C480.453 165.387 480.318 165.963 480.318 166.771V170H478.941V163.52H480.02L480.213 164.369H480.283C480.479 164.061 480.756 163.822 481.115 163.654C481.475 163.486 481.873 163.402 482.311 163.402C483.865 163.402 484.643 164.193 484.643 165.775V170ZM487.936 170H486.559V160.883H487.936V170ZM495.658 166.748C495.658 167.807 495.387 168.633 494.844 169.227C494.301 169.82 493.545 170.117 492.576 170.117C491.971 170.117 491.436 169.98 490.971 169.707C490.506 169.434 490.148 169.041 489.898 168.529C489.648 168.018 489.523 167.424 489.523 166.748C489.523 165.697 489.793 164.877 490.332 164.287C490.871 163.697 491.631 163.402 492.611 163.402C493.549 163.402 494.291 163.705 494.838 164.311C495.385 164.912 495.658 165.725 495.658 166.748ZM490.941 166.748C490.941 168.244 491.494 168.992 492.6 168.992C493.693 168.992 494.24 168.244 494.24 166.748C494.24 165.268 493.689 164.527 492.588 164.527C492.01 164.527 491.59 164.719 491.328 165.102C491.07 165.484 490.941 166.033 490.941 166.748ZM501.301 170L501.025 169.098H500.979C500.666 169.492 500.352 169.762 500.035 169.906C499.719 170.047 499.312 170.117 498.816 170.117C498.18 170.117 497.682 169.945 497.322 169.602C496.967 169.258 496.789 168.771 496.789 168.143C496.789 167.475 497.037 166.971 497.533 166.631C498.029 166.291 498.785 166.105 499.801 166.074L500.92 166.039V165.693C500.92 165.279 500.822 164.971 500.627 164.768C500.436 164.561 500.137 164.457 499.73 164.457C499.398 164.457 499.08 164.506 498.775 164.604C498.471 164.701 498.178 164.816 497.896 164.949L497.451 163.965C497.803 163.781 498.188 163.643 498.605 163.549C499.023 163.451 499.418 163.402 499.789 163.402C500.613 163.402 501.234 163.582 501.652 163.941C502.074 164.301 502.285 164.865 502.285 165.635V170H501.301ZM499.25 169.062C499.75 169.062 500.15 168.924 500.451 168.646C500.756 168.365 500.908 167.973 500.908 167.469V166.906L500.076 166.941C499.428 166.965 498.955 167.074 498.658 167.27C498.365 167.461 498.219 167.756 498.219 168.154C498.219 168.443 498.305 168.668 498.477 168.828C498.648 168.984 498.906 169.062 499.25 169.062ZM506.393 170.117C505.584 170.117 504.953 169.824 504.5 169.238C504.047 168.652 503.82 167.83 503.82 166.771C503.82 165.709 504.049 164.883 504.506 164.293C504.967 163.699 505.604 163.402 506.416 163.402C507.268 163.402 507.916 163.717 508.361 164.346H508.432C508.365 163.881 508.332 163.514 508.332 163.244V160.883H509.715V170H508.637L508.396 169.15H508.332C507.891 169.795 507.244 170.117 506.393 170.117ZM506.762 169.004C507.328 169.004 507.74 168.846 507.998 168.529C508.256 168.209 508.389 167.691 508.396 166.977V166.783C508.396 165.967 508.264 165.387 507.998 165.043C507.732 164.699 507.316 164.527 506.75 164.527C506.266 164.527 505.893 164.725 505.631 165.119C505.369 165.51 505.238 166.068 505.238 166.795C505.238 167.514 505.365 168.062 505.619 168.441C505.873 168.816 506.254 169.004 506.762 169.004ZM519.887 167.674C519.887 168.436 519.611 169.033 519.061 169.467C518.51 169.9 517.75 170.117 516.781 170.117C515.812 170.117 515.02 169.967 514.402 169.666V168.342C514.793 168.525 515.207 168.67 515.645 168.775C516.086 168.881 516.496 168.934 516.875 168.934C517.43 168.934 517.838 168.828 518.1 168.617C518.365 168.406 518.498 168.123 518.498 167.768C518.498 167.447 518.377 167.176 518.135 166.953C517.893 166.73 517.393 166.467 516.635 166.162C515.854 165.846 515.303 165.484 514.982 165.078C514.662 164.672 514.502 164.184 514.502 163.613C514.502 162.898 514.756 162.336 515.264 161.926C515.771 161.516 516.453 161.311 517.309 161.311C518.129 161.311 518.945 161.49 519.758 161.85L519.312 162.992C518.551 162.672 517.871 162.512 517.273 162.512C516.82 162.512 516.477 162.611 516.242 162.811C516.008 163.006 515.891 163.266 515.891 163.59C515.891 163.812 515.938 164.004 516.031 164.164C516.125 164.32 516.279 164.469 516.494 164.609C516.709 164.75 517.096 164.936 517.654 165.166C518.283 165.428 518.744 165.672 519.037 165.898C519.33 166.125 519.545 166.381 519.682 166.666C519.818 166.951 519.887 167.287 519.887 167.674ZM525.453 170L525.178 169.098H525.131C524.818 169.492 524.504 169.762 524.188 169.906C523.871 170.047 523.465 170.117 522.969 170.117C522.332 170.117 521.834 169.945 521.475 169.602C521.119 169.258 520.941 168.771 520.941 168.143C520.941 167.475 521.189 166.971 521.686 166.631C522.182 166.291 522.938 166.105 523.953 166.074L525.072 166.039V165.693C525.072 165.279 524.975 164.971 524.779 164.768C524.588 164.561 524.289 164.457 523.883 164.457C523.551 164.457 523.232 164.506 522.928 164.604C522.623 164.701 522.33 164.816 522.049 164.949L521.604 163.965C521.955 163.781 522.34 163.643 522.758 163.549C523.176 163.451 523.57 163.402 523.941 163.402C524.766 163.402 525.387 163.582 525.805 163.941C526.227 164.301 526.438 164.865 526.438 165.635V170H525.453ZM523.402 169.062C523.902 169.062 524.303 168.924 524.604 168.646C524.908 168.365 525.061 167.973 525.061 167.469V166.906L524.229 166.941C523.58 166.965 523.107 167.074 522.811 167.27C522.518 167.461 522.371 167.756 522.371 168.154C522.371 168.443 522.457 168.668 522.629 168.828C522.801 168.984 523.059 169.062 523.402 169.062ZM533.82 170H532.438V166.004C532.438 165.508 532.344 165.139 532.156 164.896C531.969 164.65 531.676 164.527 531.277 164.527C530.746 164.527 530.355 164.701 530.105 165.049C529.859 165.393 529.736 165.967 529.736 166.771V170H528.359V163.52H529.438L529.631 164.369H529.701C529.881 164.061 530.141 163.822 530.48 163.654C530.824 163.486 531.201 163.402 531.611 163.402C532.607 163.402 533.268 163.742 533.592 164.422H533.686C533.877 164.102 534.146 163.852 534.494 163.672C534.842 163.492 535.24 163.402 535.689 163.402C536.463 163.402 537.025 163.598 537.377 163.988C537.732 164.379 537.91 164.975 537.91 165.775V170H536.533V166.004C536.533 165.508 536.438 165.139 536.246 164.896C536.059 164.65 535.766 164.527 535.367 164.527C534.832 164.527 534.439 164.695 534.189 165.031C533.943 165.363 533.82 165.875 533.82 166.566V170ZM543.119 170.117C542.299 170.117 541.662 169.822 541.209 169.232H541.127C541.182 169.779 541.209 170.111 541.209 170.229V172.883H539.832V163.52H540.945C540.977 163.641 541.041 163.93 541.139 164.387H541.209C541.639 163.73 542.283 163.402 543.143 163.402C543.951 163.402 544.58 163.695 545.029 164.281C545.482 164.867 545.709 165.689 545.709 166.748C545.709 167.807 545.479 168.633 545.018 169.227C544.561 169.82 543.928 170.117 543.119 170.117ZM542.785 164.527C542.238 164.527 541.838 164.688 541.584 165.008C541.334 165.328 541.209 165.84 541.209 166.543V166.748C541.209 167.537 541.334 168.109 541.584 168.465C541.834 168.816 542.242 168.992 542.809 168.992C543.285 168.992 543.652 168.797 543.91 168.406C544.168 168.016 544.297 167.459 544.297 166.736C544.297 166.01 544.168 165.461 543.91 165.09C543.656 164.715 543.281 164.527 542.785 164.527ZM548.686 170H547.309V160.883H548.686V170ZM553.49 170.117C552.482 170.117 551.693 169.824 551.123 169.238C550.557 168.648 550.273 167.838 550.273 166.807C550.273 165.748 550.537 164.916 551.064 164.311C551.592 163.705 552.316 163.402 553.238 163.402C554.094 163.402 554.77 163.662 555.266 164.182C555.762 164.701 556.01 165.416 556.01 166.326V167.07H551.691C551.711 167.699 551.881 168.184 552.201 168.523C552.521 168.859 552.973 169.027 553.555 169.027C553.938 169.027 554.293 168.992 554.621 168.922C554.953 168.848 555.309 168.727 555.688 168.559V169.678C555.352 169.838 555.012 169.951 554.668 170.018C554.324 170.084 553.932 170.117 553.49 170.117ZM553.238 164.445C552.801 164.445 552.449 164.584 552.184 164.861C551.922 165.139 551.766 165.543 551.715 166.074H554.656C554.648 165.539 554.52 165.135 554.27 164.861C554.02 164.584 553.676 164.445 553.238 164.445ZM562.227 170H560.838V161.434H565.672V162.617H562.227V165.295H565.455V166.484H562.227V170ZM568.455 170H567.078V163.52H568.455V170ZM566.996 161.803C566.996 161.557 567.062 161.367 567.195 161.234C567.332 161.102 567.525 161.035 567.775 161.035C568.018 161.035 568.205 161.102 568.338 161.234C568.475 161.367 568.543 161.557 568.543 161.803C568.543 162.037 568.475 162.223 568.338 162.359C568.205 162.492 568.018 162.559 567.775 162.559C567.525 162.559 567.332 162.492 567.195 162.359C567.062 162.223 566.996 162.037 566.996 161.803ZM571.807 170H570.43V160.883H571.807V170ZM576.611 170.117C575.604 170.117 574.814 169.824 574.244 169.238C573.678 168.648 573.395 167.838 573.395 166.807C573.395 165.748 573.658 164.916 574.186 164.311C574.713 163.705 575.438 163.402 576.359 163.402C577.215 163.402 577.891 163.662 578.387 164.182C578.883 164.701 579.131 165.416 579.131 166.326V167.07H574.812C574.832 167.699 575.002 168.184 575.322 168.523C575.643 168.859 576.094 169.027 576.676 169.027C577.059 169.027 577.414 168.992 577.742 168.922C578.074 168.848 578.43 168.727 578.809 168.559V169.678C578.473 169.838 578.133 169.951 577.789 170.018C577.445 170.084 577.053 170.117 576.611 170.117ZM576.359 164.445C575.922 164.445 575.57 164.584 575.305 164.861C575.043 165.139 574.887 165.543 574.836 166.074H577.777C577.77 165.539 577.641 165.135 577.391 164.861C577.141 164.584 576.797 164.445 576.359 164.445Z" fill="#0357D0" fill-opacity="0.9"/>
<defs>
<filter id="filter0_d" x="0" y="0" width="608" height="195" filterUnits="userSpaceOnUse" color-interpolation-filters="sRGB">
<feFlood flood-opacity="0" result="BackgroundImageFix"/>
<feColorMatrix in="SourceAlpha" type="matrix" values="0 0 0 0 0 0 0 0 0 0 0 0 0 0 0 0 0 0 127 0"/>
<feOffset/>
<feGaussianBlur stdDeviation="2"/>
<feColorMatrix type="matrix" values="0 0 0 0 0 0 0 0 0 0 0 0 0 0 0 0 0 0 0.25 0"/>
<feBlend mode="normal" in2="BackgroundImageFix" result="effect1_dropShadow"/>
<feBlend mode="normal" in="SourceGraphic" in2="effect1_dropShadow" result="shape"/>
</filter>
<filter id="filter1_d" x="0" y="0" width="218" height="195" filterUnits="userSpaceOnUse" color-interpolation-filters="sRGB">
<feFlood flood-opacity="0" result="BackgroundImageFix"/>
<feColorMatrix in="SourceAlpha" type="matrix" values="0 0 0 0 0 0 0 0 0 0 0 0 0 0 0 0 0 0 127 0"/>
<feOffset/>
<feGaussianBlur stdDeviation="2"/>
<feColorMatrix type="matrix" values="0 0 0 0 0 0 0 0 0 0 0 0 0 0 0 0 0 0 0.25 0"/>
<feBlend mode="normal" in2="BackgroundImageFix" result="effect1_dropShadow"/>
<feBlend mode="normal" in="SourceGraphic" in2="effect1_dropShadow" result="shape"/>
</filter>
</defs>
</svg>
