<svg width="402" height="47" viewBox="0 0 402 47" fill="none" xmlns="http://www.w3.org/2000/svg">
<path d="M85.6113 6.95703C85.6113 7.76562 85.4824 8.4668 85.2246 9.06055C84.9707 9.65039 84.6133 10.1191 84.1523 10.4668L85.6172 11.6094L84.6562 12.4766L82.8398 11.041C82.6016 11.0918 82.3457 11.1172 82.0723 11.1172C81.3848 11.1172 80.7695 10.9492 80.2266 10.6133C79.6875 10.2734 79.2695 9.79102 78.9727 9.16602C78.6797 8.54102 78.5312 7.82031 78.5273 7.00391V6.52344C78.5273 5.69141 78.6738 4.95703 78.9668 4.32031C79.2637 3.68359 79.6797 3.19727 80.2148 2.86133C80.7539 2.52148 81.3691 2.35156 82.0605 2.35156C82.7637 2.35156 83.3828 2.51953 83.918 2.85547C84.457 3.1875 84.873 3.66797 85.166 4.29688C85.459 4.92188 85.6074 5.65039 85.6113 6.48242V6.95703ZM84.123 6.51172C84.123 5.55078 83.9434 4.82227 83.584 4.32617C83.2246 3.83008 82.7168 3.58203 82.0605 3.58203C81.4238 3.58203 80.9238 3.83398 80.5605 4.33789C80.2012 4.83789 80.0176 5.54492 80.0098 6.45898V6.95703C80.0098 7.87891 80.1895 8.59961 80.5488 9.11914C80.9121 9.63867 81.4199 9.89844 82.0723 9.89844C82.7324 9.89844 83.2383 9.64844 83.5898 9.14844C83.9453 8.64844 84.123 7.91797 84.123 6.95703V6.51172ZM90.8203 10.3789C90.4023 10.8711 89.8086 11.1172 89.0391 11.1172C88.3516 11.1172 87.8301 10.916 87.4746 10.5137C87.123 10.1113 86.9473 9.5293 86.9473 8.76758V4.66016H88.3711V8.75C88.3711 9.55469 88.7051 9.95703 89.373 9.95703C90.0645 9.95703 90.5312 9.70898 90.7734 9.21289V4.66016H92.1973V11H90.8555L90.8203 10.3789ZM97.4355 11C97.373 10.8789 97.3184 10.6816 97.2715 10.4082C96.8184 10.8809 96.2637 11.1172 95.6074 11.1172C94.9707 11.1172 94.4512 10.9355 94.0488 10.5723C93.6465 10.209 93.4453 9.75977 93.4453 9.22461C93.4453 8.54883 93.6953 8.03125 94.1953 7.67188C94.6992 7.30859 95.418 7.12695 96.3516 7.12695H97.2246V6.71094C97.2246 6.38281 97.1328 6.12109 96.9492 5.92578C96.7656 5.72656 96.4863 5.62695 96.1113 5.62695C95.7871 5.62695 95.5215 5.70898 95.3145 5.87305C95.1074 6.0332 95.0039 6.23828 95.0039 6.48828H93.5801C93.5801 6.14062 93.6953 5.81641 93.9258 5.51562C94.1562 5.21094 94.4688 4.97266 94.8633 4.80078C95.2617 4.62891 95.7051 4.54297 96.1934 4.54297C96.9355 4.54297 97.5273 4.73047 97.9688 5.10547C98.4102 5.47656 98.6367 6 98.6484 6.67578V9.53516C98.6484 10.1055 98.7285 10.5605 98.8887 10.9004V11H97.4355ZM95.8711 9.97461C96.1523 9.97461 96.416 9.90625 96.6621 9.76953C96.9121 9.63281 97.0996 9.44922 97.2246 9.21875V8.02344H96.457C95.9297 8.02344 95.5332 8.11523 95.2676 8.29883C95.002 8.48242 94.8691 8.74219 94.8691 9.07812C94.8691 9.35156 94.959 9.57031 95.1387 9.73438C95.3223 9.89453 95.5664 9.97461 95.8711 9.97461ZM101.461 4.66016L101.502 5.39258C101.971 4.82617 102.586 4.54297 103.348 4.54297C104.668 4.54297 105.34 5.29883 105.363 6.81055V11H103.939V6.89258C103.939 6.49023 103.852 6.19336 103.676 6.00195C103.504 5.80664 103.221 5.70898 102.826 5.70898C102.252 5.70898 101.824 5.96875 101.543 6.48828V11H100.119V4.66016H101.461ZM108.604 3.11914V4.66016H109.723V5.71484H108.604V9.25391C108.604 9.49609 108.65 9.67188 108.744 9.78125C108.842 9.88672 109.014 9.93945 109.26 9.93945C109.424 9.93945 109.59 9.91992 109.758 9.88086V10.9824C109.434 11.0723 109.121 11.1172 108.82 11.1172C107.727 11.1172 107.18 10.5137 107.18 9.30664V5.71484H106.137V4.66016H107.18V3.11914H108.604ZM112.33 11H110.906V4.66016H112.33V11ZM110.818 3.01367C110.818 2.79492 110.887 2.61328 111.023 2.46875C111.164 2.32422 111.363 2.25195 111.621 2.25195C111.879 2.25195 112.078 2.32422 112.219 2.46875C112.359 2.61328 112.43 2.79492 112.43 3.01367C112.43 3.22852 112.359 3.4082 112.219 3.55273C112.078 3.69336 111.879 3.76367 111.621 3.76367C111.363 3.76367 111.164 3.69336 111.023 3.55273C110.887 3.4082 110.818 3.22852 110.818 3.01367ZM115.67 3.11914V4.66016H116.789V5.71484H115.67V9.25391C115.67 9.49609 115.717 9.67188 115.811 9.78125C115.908 9.88672 116.08 9.93945 116.326 9.93945C116.49 9.93945 116.656 9.91992 116.824 9.88086V10.9824C116.5 11.0723 116.188 11.1172 115.887 11.1172C114.793 11.1172 114.246 10.5137 114.246 9.30664V5.71484H113.203V4.66016H114.246V3.11914H115.67ZM120.1 8.96094L121.389 4.66016H122.906L120.387 11.9609C120 13.0273 119.344 13.5605 118.418 13.5605C118.211 13.5605 117.982 13.5254 117.732 13.4551V12.3535L118.002 12.3711C118.361 12.3711 118.631 12.3047 118.811 12.1719C118.994 12.043 119.139 11.8242 119.244 11.5156L119.449 10.9707L117.223 4.66016H118.758L120.1 8.96094Z" fill="#4D4D4D"/>
<path d="M251.113 2.46875L253.574 9.00781L256.029 2.46875H257.945V11H256.469V8.1875L256.615 4.42578L254.096 11H253.035L250.521 4.43164L250.668 8.1875V11H249.191V2.46875H251.113ZM262.838 7.71289H261.186V11H259.703V2.46875H262.703C263.688 2.46875 264.447 2.68945 264.982 3.13086C265.518 3.57227 265.785 4.21094 265.785 5.04688C265.785 5.61719 265.646 6.0957 265.369 6.48242C265.096 6.86523 264.713 7.16016 264.221 7.36719L266.137 10.9238V11H264.549L262.838 7.71289ZM261.186 6.52344H262.709C263.209 6.52344 263.6 6.39844 263.881 6.14844C264.162 5.89453 264.303 5.54883 264.303 5.11133C264.303 4.6543 264.172 4.30078 263.91 4.05078C263.652 3.80078 263.266 3.67187 262.75 3.66406H261.186V6.52344ZM268.674 7.83008V11H267.191V2.46875H270.455C271.408 2.46875 272.164 2.7168 272.723 3.21289C273.285 3.70898 273.566 4.36523 273.566 5.18164C273.566 6.01758 273.291 6.66797 272.74 7.13281C272.193 7.59766 271.426 7.83008 270.438 7.83008H268.674ZM268.674 6.64062H270.455C270.982 6.64062 271.385 6.51758 271.662 6.27148C271.939 6.02148 272.078 5.66211 272.078 5.19336C272.078 4.73242 271.938 4.36523 271.656 4.0918C271.375 3.81445 270.988 3.67187 270.496 3.66406H268.674V6.64062Z" fill="#4D4D4D"/>
<path d="M149.44 44H150.673V40.0227H152.9C152.99 40.0227 153.074 40.0227 153.159 40.0178L155.306 44H156.738L154.436 39.794C155.734 39.3516 156.341 38.2926 156.341 36.9403C156.341 35.1406 155.267 33.8182 152.88 33.8182H149.44V44ZM150.673 38.9091V34.9119H152.841C154.491 34.9119 155.127 35.7173 155.127 36.9403C155.127 38.1634 154.491 38.9091 152.86 38.9091H150.673ZM157.838 34.9119H161.04V44H162.273V34.9119H165.475V33.8182H157.838V34.9119ZM167.795 33.8182H166.502L170.241 44H171.514L175.252 33.8182H173.96L170.937 42.3892H170.818L167.795 33.8182ZM180.776 33.8182V44H181.929V36.2642H182.029L185.211 44H186.324L189.506 36.2642H189.605V44H190.759V33.8182H189.287L185.827 42.2699H185.708L182.248 33.8182H180.776ZM193.072 44H194.245V36.3636H193.072V44ZM193.669 35.0909C194.126 35.0909 194.504 34.733 194.504 34.2955C194.504 33.858 194.126 33.5 193.669 33.5C193.211 33.5 192.833 33.858 192.833 34.2955C192.833 34.733 193.211 35.0909 193.669 35.0909ZM201.803 38.0739C201.435 36.9901 200.61 36.2642 199.099 36.2642C197.488 36.2642 196.295 37.179 196.295 38.4716C196.295 39.5256 196.921 40.2315 198.323 40.5597L199.596 40.858C200.366 41.0369 200.729 41.4048 200.729 41.9318C200.729 42.5881 200.033 43.125 198.94 43.125C197.98 43.125 197.379 42.7124 197.17 41.892L196.056 42.1705C196.33 43.468 197.398 44.1591 198.96 44.1591C200.734 44.1591 201.942 43.1896 201.942 41.8722C201.942 40.8082 201.276 40.1371 199.914 39.804L198.781 39.5256C197.876 39.3018 197.468 38.9986 197.468 38.4119C197.468 37.7557 198.164 37.2784 199.099 37.2784C200.123 37.2784 200.545 37.8452 200.749 38.3722L201.803 38.0739ZM209.118 38.0739C208.75 36.9901 207.925 36.2642 206.413 36.2642C204.802 36.2642 203.609 37.179 203.609 38.4716C203.609 39.5256 204.236 40.2315 205.638 40.5597L206.91 40.858C207.681 41.0369 208.044 41.4048 208.044 41.9318C208.044 42.5881 207.348 43.125 206.254 43.125C205.295 43.125 204.693 42.7124 204.484 41.892L203.371 42.1705C203.644 43.468 204.713 44.1591 206.274 44.1591C208.049 44.1591 209.257 43.1896 209.257 41.8722C209.257 40.8082 208.591 40.1371 207.229 39.804L206.095 39.5256C205.19 39.3018 204.782 38.9986 204.782 38.4119C204.782 37.7557 205.479 37.2784 206.413 37.2784C207.437 37.2784 207.86 37.8452 208.064 38.3722L209.118 38.0739ZM214.225 44.1591C215.776 44.1591 216.909 43.3835 217.267 42.2301L216.134 41.9119C215.836 42.7074 215.145 43.1051 214.225 43.1051C212.848 43.1051 211.898 42.2152 211.843 40.5795H217.387V40.0824C217.387 37.2386 215.696 36.2642 214.105 36.2642C212.037 36.2642 210.665 37.8949 210.665 40.2415C210.665 42.5881 212.017 44.1591 214.225 44.1591ZM211.843 39.5653C211.923 38.3771 212.763 37.3182 214.105 37.3182C215.378 37.3182 216.194 38.2727 216.194 39.5653H211.843ZM222.055 44.1591C223.527 44.1591 224.024 43.2443 224.282 42.8267H224.422V44H225.555V33.8182H224.382V37.5767H224.282C224.024 37.179 223.566 36.2642 222.075 36.2642C220.146 36.2642 218.814 37.7955 218.814 40.2017C218.814 42.6278 220.146 44.1591 222.055 44.1591ZM222.214 43.1051C220.743 43.1051 219.987 41.8125 219.987 40.1818C219.987 38.571 220.723 37.3182 222.214 37.3182C223.646 37.3182 224.402 38.4716 224.402 40.1818C224.402 41.9119 223.626 43.1051 222.214 43.1051Z" fill="black"/>
<rect x="248" y="37" width="154" height="6" rx="3" fill="#33A8EF"/>
<path d="M356.985 23.4744H355.976C355.923 23.1477 355.802 22.853 355.617 22.6044L356.736 22.6115L356.988 21.7273H352.34L352.08 22.6719H353.43C354.208 22.6719 354.659 22.9737 354.822 23.4744H352.329L352.08 24.3516H354.85C354.705 24.9126 354.211 25.2216 353.43 25.2216H352.169L352.176 25.9141L354.719 29H356.015V28.9396L353.693 26.0952L353.725 26.0881C355.163 25.9993 355.838 25.3033 355.983 24.3516H356.736L356.985 23.4744ZM363.385 21.7273H362.316L360.501 22.9134V23.9645L362.241 22.8281H362.284V29H363.385V21.7273ZM366.337 28.0057H365.315L365.279 28.4034C365.197 29.3658 364.97 30.3352 364.874 30.7756H365.627C365.798 30.3104 366.174 29.245 366.284 28.3928L366.337 28.0057ZM370.106 29.0994C371.569 29.0994 372.613 28.0661 372.61 26.6491C372.613 25.2429 371.633 24.2202 370.308 24.2202C369.769 24.2202 369.268 24.4261 368.984 24.7031H368.941L369.172 22.6683H372.258V21.7273H368.259L367.851 25.392L368.856 25.5412C369.129 25.2962 369.619 25.1293 370.06 25.1293C370.923 25.1364 371.548 25.7827 371.548 26.6705C371.548 27.544 370.941 28.1761 370.106 28.1761C369.403 28.1761 368.845 27.7287 368.789 27.1037H367.723C367.766 28.2614 368.771 29.0994 370.106 29.0994ZM376.439 29.1207C378.118 29.1207 379.102 27.75 379.102 25.3672C379.102 23.0021 378.104 21.6278 376.439 21.6278C374.77 21.6278 373.775 22.9986 373.772 25.3672C373.772 27.7464 374.755 29.1172 376.439 29.1207ZM376.439 28.1726C375.455 28.1726 374.862 27.1854 374.862 25.3672C374.865 23.5561 375.458 22.5582 376.439 22.5582C377.415 22.5582 378.012 23.5561 378.012 25.3672C378.012 27.1854 377.419 28.1726 376.439 28.1726ZM381.484 28.0057H380.461L380.426 28.4034C380.344 29.3658 380.117 30.3352 380.021 30.7756H380.774C380.944 30.3104 381.32 29.245 381.431 28.3928L381.484 28.0057ZM385.182 29.0994C386.695 29.0994 387.764 28.2401 387.771 27.0611C387.764 26.1449 387.121 25.3743 386.308 25.2287V25.1861C387.015 25.0156 387.494 24.3516 387.501 23.5668C387.494 22.4553 386.514 21.6278 385.182 21.6278C383.836 21.6278 382.856 22.4553 382.863 23.5668C382.856 24.348 383.336 25.0156 384.057 25.1861V25.2287C383.229 25.3743 382.586 26.1449 382.594 27.0611C382.586 28.2401 383.655 29.0994 385.182 29.0994ZM385.182 28.201C384.273 28.201 383.698 27.718 383.705 26.9901C383.698 26.2337 384.323 25.6939 385.182 25.6939C386.028 25.6939 386.653 26.2337 386.66 26.9901C386.653 27.718 386.081 28.201 385.182 28.201ZM385.182 24.8168C384.447 24.8168 383.925 24.3516 383.932 23.6591C383.925 22.9773 384.43 22.5263 385.182 22.5263C385.921 22.5263 386.425 22.9773 386.432 23.6591C386.425 24.3516 385.907 24.8168 385.182 24.8168ZM391.444 29.0994C392.907 29.0994 393.951 28.0661 393.947 26.6491C393.951 25.2429 392.971 24.2202 391.646 24.2202C391.107 24.2202 390.606 24.4261 390.322 24.7031H390.279L390.51 22.6683H393.596V21.7273H389.597L389.189 25.392L390.194 25.5412C390.467 25.2962 390.957 25.1293 391.398 25.1293C392.261 25.1364 392.886 25.7827 392.886 26.6705C392.886 27.544 392.278 28.1761 391.444 28.1761C390.741 28.1761 390.183 27.7287 390.126 27.1037H389.061C389.104 28.2614 390.109 29.0994 391.444 29.0994ZM397.776 29.1207C399.456 29.1207 400.44 27.75 400.44 25.3672C400.44 23.0021 399.442 21.6278 397.776 21.6278C396.107 21.6278 395.113 22.9986 395.11 25.3672C395.11 27.7464 396.093 29.1172 397.776 29.1207ZM397.776 28.1726C396.793 28.1726 396.2 27.1854 396.2 25.3672C396.203 23.5561 396.796 22.5582 397.776 22.5582C398.753 22.5582 399.35 23.5561 399.35 25.3672C399.35 27.1854 398.757 28.1726 397.776 28.1726Z" fill="#676767"/>
<rect y="37" width="126" height="6" rx="3" fill="#F1828F"/>
<path d="M3.45881 21.7273H2.38991L0.575284 22.9134V23.9645L2.31534 22.8281H2.35795V29H3.45881V21.7273ZM5.42614 29H10.2131V28.0589H6.93892V28.0057L8.38423 26.4929C9.71591 25.147 10.0959 24.5043 10.0959 23.6911C10.0959 22.5227 9.14418 21.6278 7.77344 21.6278C6.41335 21.6278 5.41903 22.5085 5.41903 23.8366H6.46662C6.46307 23.0554 6.96733 22.544 7.75213 22.544C8.49077 22.544 9.05185 22.9986 9.05185 23.723C9.05185 24.3658 8.66832 24.8274 7.88707 25.6548L5.42614 28.2045V29ZM13.9595 29.0994C15.4226 29.0994 16.4666 28.0661 16.4631 26.6491C16.4666 25.2429 15.4865 24.2202 14.1619 24.2202C13.6222 24.2202 13.1214 24.4261 12.8374 24.7031H12.7947L13.0256 22.6683H16.1115V21.7273H12.1129L11.7045 25.392L12.7095 25.5412C12.983 25.2962 13.473 25.1293 13.9134 25.1293C14.7763 25.1364 15.4013 25.7827 15.4013 26.6705C15.4013 27.544 14.794 28.1761 13.9595 28.1761C13.2564 28.1761 12.6989 27.7287 12.642 27.1037H11.5767C11.6193 28.2614 12.6243 29.0994 13.9595 29.0994ZM25.1829 21.7273V26.4219C25.1829 27.4091 24.5011 28.1193 23.3931 28.1193C22.2887 28.1193 21.6033 27.4091 21.6033 26.4219V21.7273H20.506V26.5107C20.506 28.0376 21.6495 29.1207 23.3931 29.1207C25.1367 29.1207 26.2837 28.0376 26.2837 26.5107V21.7273H25.1829ZM28.8556 25.7614C28.8556 24.8913 29.3883 24.3942 30.127 24.3942C30.8478 24.3942 31.2846 24.8665 31.2846 25.6584V29H32.3464V25.5305C32.3464 24.1811 31.6042 23.4744 30.4892 23.4744C29.6689 23.4744 29.1326 23.8544 28.8805 24.4332H28.813V23.5455H27.7939V29H28.8556V25.7614ZM33.7704 29H34.8322V23.5455H33.7704V29ZM34.3066 22.7038C34.6724 22.7038 34.9778 22.4197 34.9778 22.0717C34.9778 21.7237 34.6724 21.4361 34.3066 21.4361C33.9373 21.4361 33.6355 21.7237 33.6355 22.0717C33.6355 22.4197 33.9373 22.7038 34.3066 22.7038ZM38.8068 23.5455H37.6882V22.2386H36.6264V23.5455H35.8274V24.3977H36.6264V27.6186C36.6229 28.6094 37.3793 29.0888 38.2173 29.071C38.5547 29.0675 38.782 29.0036 38.9062 28.9574L38.7145 28.0803C38.6435 28.0945 38.5121 28.1264 38.3416 28.1264C37.9972 28.1264 37.6882 28.0128 37.6882 27.3984V24.3977H38.8068V23.5455ZM40.2903 25.9815C40.2903 27.7642 40.7662 29.2486 41.6681 30.5128H42.6412C41.9416 29.5753 41.3912 27.6719 41.3912 25.9815C41.3912 24.2947 41.9416 22.3913 42.6412 21.4538H41.6681C40.7662 22.718 40.2903 24.2024 40.2903 25.9815ZM47.848 24.8771C47.6278 24.0284 46.9638 23.4744 45.7848 23.4744C44.5526 23.4744 43.679 24.1243 43.679 25.0902C43.679 25.8643 44.1477 26.3793 45.1705 26.6065L46.0938 26.8089C46.6193 26.9261 46.8643 27.1605 46.8643 27.5014C46.8643 27.924 46.4134 28.2543 45.7173 28.2543C45.0817 28.2543 44.6733 27.9808 44.5455 27.4446L43.5192 27.6009C43.6967 28.5668 44.4993 29.1101 45.7244 29.1101C47.0419 29.1101 47.9545 28.4105 47.9545 27.4233C47.9545 26.6527 47.4645 26.1768 46.4631 25.946L45.5966 25.7472C44.9964 25.6051 44.7372 25.4027 44.7408 25.0334C44.7372 24.6143 45.1918 24.3161 45.7955 24.3161C46.456 24.3161 46.7614 24.6818 46.8857 25.0476L47.848 24.8771ZM51.1639 25.9851C51.1639 24.2024 50.688 22.718 49.786 21.4538H48.813C49.5126 22.3913 50.063 24.2947 50.063 25.9851C50.063 27.6719 49.5126 29.5753 48.813 30.5128H49.786C50.688 29.2486 51.1639 27.7642 51.1639 25.9851Z" fill="#676767"/>
</svg>
