<svg width="608" height="195" viewBox="0 0 608 195" fill="none" xmlns="http://www.w3.org/2000/svg">
<g filter="url(#filter0_d)">
<rect x="4" y="4" width="600" height="187" rx="8" fill="white"/>
</g>
<g filter="url(#filter1_d)">
<path d="M4 12C4 7.58172 7.58172 4 12 4H214V191H12C7.58172 191 4 187.418 4 183V12Z" fill="#0357D0"/>
</g>
<path d="M242.797 23.127H244.256C245.234 23.127 245.943 22.9453 246.383 22.582C246.822 22.2188 247.042 21.6797 247.042 20.9648C247.042 20.2383 246.805 19.7168 246.33 19.4004C245.855 19.084 245.141 18.9258 244.186 18.9258H242.797V23.127ZM242.797 24.8672V30H240.696V17.1504H244.326C245.984 17.1504 247.212 17.4609 248.009 18.082C248.806 18.7031 249.204 19.6406 249.204 20.8945C249.204 22.4941 248.372 23.6338 246.708 24.3135L250.338 30H247.947L244.871 24.8672H242.797ZM258.846 30L258.556 28.7256H258.45C258.163 29.1768 257.753 29.5312 257.22 29.7891C256.692 30.0469 256.089 30.1758 255.409 30.1758C254.231 30.1758 253.353 29.8828 252.772 29.2969C252.192 28.7109 251.902 27.8232 251.902 26.6338V20.2793H253.985V26.2734C253.985 27.0176 254.138 27.5771 254.442 27.9521C254.747 28.3213 255.225 28.5059 255.875 28.5059C256.742 28.5059 257.378 28.248 257.782 27.7324C258.192 27.2109 258.397 26.3408 258.397 25.1221V20.2793H260.472V30H258.846ZM265.481 30H263.416V16.3242H265.481V30ZM272.688 30.1758C271.177 30.1758 269.993 29.7363 269.138 28.8574C268.288 27.9727 267.863 26.7568 267.863 25.21C267.863 23.6221 268.259 22.374 269.05 21.4658C269.841 20.5576 270.928 20.1035 272.311 20.1035C273.594 20.1035 274.607 20.4932 275.352 21.2725C276.096 22.0518 276.468 23.124 276.468 24.4893V25.6055H269.99C270.02 26.5488 270.274 27.2754 270.755 27.7852C271.235 28.2891 271.912 28.541 272.785 28.541C273.359 28.541 273.893 28.4883 274.385 28.3828C274.883 28.2715 275.416 28.0898 275.984 27.8379V29.5166C275.48 29.7568 274.971 29.9268 274.455 30.0264C273.939 30.126 273.351 30.1758 272.688 30.1758ZM272.311 21.668C271.654 21.668 271.127 21.876 270.729 22.292C270.336 22.708 270.102 23.3145 270.025 24.1113H274.438C274.426 23.3086 274.232 22.7021 273.857 22.292C273.482 21.876 272.967 21.668 272.311 21.668ZM283.71 17.1504H287.524C289.294 17.1504 290.571 17.4082 291.356 17.9238C292.147 18.4395 292.543 19.2539 292.543 20.3672C292.543 21.1172 292.35 21.7412 291.963 22.2393C291.576 22.7373 291.02 23.0508 290.293 23.1797V23.2676C291.195 23.4375 291.857 23.7744 292.279 24.2783C292.707 24.7764 292.921 25.4531 292.921 26.3086C292.921 27.4629 292.517 28.3682 291.708 29.0244C290.905 29.6748 289.786 30 288.351 30H283.71V17.1504ZM285.811 22.459H287.832C288.711 22.459 289.353 22.3213 289.757 22.0459C290.161 21.7646 290.363 21.29 290.363 20.6221C290.363 20.0186 290.144 19.582 289.704 19.3125C289.271 19.043 288.579 18.9082 287.63 18.9082H285.811V22.459ZM285.811 24.1641V28.2334H288.043C288.922 28.2334 289.584 28.0664 290.029 27.7324C290.48 27.3926 290.706 26.8594 290.706 26.1328C290.706 25.4648 290.478 24.9697 290.021 24.6475C289.563 24.3252 288.869 24.1641 287.938 24.1641H285.811ZM301.455 30L301.042 28.6465H300.972C300.503 29.2383 300.031 29.6426 299.557 29.8594C299.082 30.0703 298.473 30.1758 297.729 30.1758C296.773 30.1758 296.026 29.918 295.487 29.4023C294.954 28.8867 294.688 28.1572 294.688 27.2139C294.688 26.2119 295.06 25.4561 295.804 24.9463C296.548 24.4365 297.682 24.1582 299.205 24.1113L300.884 24.0586V23.54C300.884 22.9189 300.737 22.4561 300.444 22.1514C300.157 21.8408 299.709 21.6855 299.1 21.6855C298.602 21.6855 298.124 21.7588 297.667 21.9053C297.21 22.0518 296.771 22.2246 296.349 22.4238L295.681 20.9473C296.208 20.6719 296.785 20.4639 297.412 20.3232C298.039 20.1768 298.631 20.1035 299.188 20.1035C300.424 20.1035 301.355 20.373 301.982 20.9121C302.615 21.4512 302.932 22.2979 302.932 23.4521V30H301.455ZM298.379 28.5938C299.129 28.5938 299.729 28.3857 300.181 27.9697C300.638 27.5479 300.866 26.959 300.866 26.2031V25.3594L299.618 25.4121C298.646 25.4473 297.937 25.6113 297.491 25.9043C297.052 26.1914 296.832 26.6338 296.832 27.2314C296.832 27.665 296.961 28.002 297.219 28.2422C297.477 28.4766 297.863 28.5938 298.379 28.5938ZM312.345 27.2314C312.345 28.1807 311.999 28.9102 311.308 29.4199C310.616 29.9238 309.626 30.1758 308.337 30.1758C307.042 30.1758 306.002 29.9795 305.217 29.5869V27.8027C306.359 28.3301 307.423 28.5938 308.407 28.5938C309.679 28.5938 310.314 28.21 310.314 27.4424C310.314 27.1963 310.244 26.9912 310.104 26.8271C309.963 26.6631 309.731 26.4932 309.409 26.3174C309.087 26.1416 308.639 25.9424 308.064 25.7197C306.945 25.2861 306.187 24.8525 305.788 24.4189C305.396 23.9854 305.199 23.4229 305.199 22.7314C305.199 21.8994 305.533 21.2549 306.201 20.7979C306.875 20.335 307.789 20.1035 308.943 20.1035C310.086 20.1035 311.167 20.335 312.187 20.7979L311.519 22.3535C310.47 21.9199 309.588 21.7031 308.873 21.7031C307.783 21.7031 307.238 22.0137 307.238 22.6348C307.238 22.9395 307.379 23.1973 307.66 23.4082C307.947 23.6191 308.568 23.9092 309.523 24.2783C310.326 24.5889 310.909 24.873 311.272 25.1309C311.636 25.3887 311.905 25.6875 312.081 26.0273C312.257 26.3613 312.345 26.7627 312.345 27.2314ZM318.831 30.1758C317.319 30.1758 316.136 29.7363 315.28 28.8574C314.431 27.9727 314.006 26.7568 314.006 25.21C314.006 23.6221 314.401 22.374 315.192 21.4658C315.983 20.5576 317.07 20.1035 318.453 20.1035C319.736 20.1035 320.75 20.4932 321.494 21.2725C322.238 22.0518 322.61 23.124 322.61 24.4893V25.6055H316.133C316.162 26.5488 316.417 27.2754 316.897 27.7852C317.378 28.2891 318.055 28.541 318.928 28.541C319.502 28.541 320.035 28.4883 320.527 28.3828C321.025 28.2715 321.559 28.0898 322.127 27.8379V29.5166C321.623 29.7568 321.113 29.9268 320.598 30.0264C320.082 30.126 319.493 30.1758 318.831 30.1758ZM318.453 21.668C317.797 21.668 317.27 21.876 316.871 22.292C316.479 22.708 316.244 23.3145 316.168 24.1113H320.58C320.568 23.3086 320.375 22.7021 320 22.292C319.625 21.876 319.109 21.668 318.453 21.668ZM328.235 30.1758C327.022 30.1758 326.076 29.7363 325.396 28.8574C324.717 27.9785 324.377 26.7451 324.377 25.1572C324.377 23.5635 324.72 22.3242 325.405 21.4395C326.097 20.5488 327.052 20.1035 328.271 20.1035C329.548 20.1035 330.521 20.5752 331.188 21.5186H331.294C331.194 20.8213 331.145 20.2705 331.145 19.8662V16.3242H333.219V30H331.602L331.241 28.7256H331.145C330.482 29.6924 329.513 30.1758 328.235 30.1758ZM328.789 28.5059C329.639 28.5059 330.257 28.2686 330.644 27.7939C331.03 27.3135 331.229 26.5371 331.241 25.4648V25.1748C331.241 23.9502 331.042 23.0801 330.644 22.5645C330.245 22.0488 329.621 21.791 328.771 21.791C328.045 21.791 327.485 22.0869 327.093 22.6787C326.7 23.2646 326.504 24.1025 326.504 25.1924C326.504 26.2705 326.694 27.0938 327.075 27.6621C327.456 28.2246 328.027 28.5059 328.789 28.5059ZM345.506 30H343.405V18.9521H339.626V17.1504H349.285V18.9521H345.506V30ZM355.974 20.1035C356.39 20.1035 356.732 20.1328 357.002 20.1914L356.8 22.1162C356.507 22.0459 356.202 22.0107 355.886 22.0107C355.06 22.0107 354.389 22.2803 353.873 22.8193C353.363 23.3584 353.108 24.0586 353.108 24.9199V30H351.043V20.2793H352.66L352.933 21.9932H353.038C353.36 21.4131 353.779 20.9531 354.295 20.6133C354.816 20.2734 355.376 20.1035 355.974 20.1035ZM360.878 30H358.812V20.2793H360.878V30ZM358.689 17.7041C358.689 17.335 358.789 17.0508 358.988 16.8516C359.193 16.6523 359.483 16.5527 359.858 16.5527C360.222 16.5527 360.503 16.6523 360.702 16.8516C360.907 17.0508 361.01 17.335 361.01 17.7041C361.01 18.0557 360.907 18.334 360.702 18.5391C360.503 18.7383 360.222 18.8379 359.858 18.8379C359.483 18.8379 359.193 18.7383 358.988 18.5391C358.789 18.334 358.689 18.0557 358.689 17.7041ZM369.922 30L369.509 28.6465H369.438C368.97 29.2383 368.498 29.6426 368.023 29.8594C367.549 30.0703 366.939 30.1758 366.195 30.1758C365.24 30.1758 364.493 29.918 363.954 29.4023C363.421 28.8867 363.154 28.1572 363.154 27.2139C363.154 26.2119 363.526 25.4561 364.271 24.9463C365.015 24.4365 366.148 24.1582 367.672 24.1113L369.351 24.0586V23.54C369.351 22.9189 369.204 22.4561 368.911 22.1514C368.624 21.8408 368.176 21.6855 367.566 21.6855C367.068 21.6855 366.591 21.7588 366.134 21.9053C365.677 22.0518 365.237 22.2246 364.815 22.4238L364.147 20.9473C364.675 20.6719 365.252 20.4639 365.879 20.3232C366.506 20.1768 367.098 20.1035 367.654 20.1035C368.891 20.1035 369.822 20.373 370.449 20.9121C371.082 21.4512 371.398 22.2979 371.398 23.4521V30H369.922ZM366.846 28.5938C367.596 28.5938 368.196 28.3857 368.647 27.9697C369.104 27.5479 369.333 26.959 369.333 26.2031V25.3594L368.085 25.4121C367.112 25.4473 366.403 25.6113 365.958 25.9043C365.519 26.1914 365.299 26.6338 365.299 27.2314C365.299 27.665 365.428 28.002 365.686 28.2422C365.943 28.4766 366.33 28.5938 366.846 28.5938ZM382.49 20.2793V21.4131L380.829 21.7207C380.981 21.9258 381.107 22.1777 381.207 22.4766C381.307 22.7754 381.356 23.0918 381.356 23.4258C381.356 24.4277 381.011 25.2158 380.319 25.79C379.628 26.3643 378.676 26.6514 377.463 26.6514C377.152 26.6514 376.871 26.6279 376.619 26.5811C376.174 26.8564 375.951 27.1787 375.951 27.5479C375.951 27.7705 376.054 27.9375 376.259 28.0488C376.47 28.1602 376.854 28.2158 377.41 28.2158H379.106C380.179 28.2158 380.993 28.4443 381.55 28.9014C382.106 29.3584 382.385 30.0176 382.385 30.8789C382.385 31.9805 381.931 32.8301 381.022 33.4277C380.114 34.0254 378.802 34.3242 377.085 34.3242C375.761 34.3242 374.75 34.0898 374.053 33.6211C373.355 33.1523 373.007 32.4844 373.007 31.6172C373.007 31.0195 373.194 30.5156 373.569 30.1055C373.95 29.7012 374.48 29.4199 375.16 29.2617C374.885 29.1445 374.656 28.957 374.475 28.6992C374.299 28.4355 374.211 28.1602 374.211 27.873C374.211 27.5098 374.313 27.2021 374.519 26.9502C374.724 26.6982 375.028 26.4492 375.433 26.2031C374.929 25.9863 374.519 25.6348 374.202 25.1484C373.892 24.6562 373.736 24.082 373.736 23.4258C373.736 22.3711 374.067 21.5537 374.729 20.9736C375.397 20.3936 376.347 20.1035 377.577 20.1035C377.853 20.1035 378.14 20.124 378.438 20.165C378.743 20.2002 378.972 20.2383 379.124 20.2793H382.49ZM374.853 31.5117C374.853 31.957 375.052 32.2998 375.45 32.54C375.854 32.7803 376.42 32.9004 377.146 32.9004C378.271 32.9004 379.109 32.7393 379.66 32.417C380.211 32.0947 380.486 31.667 380.486 31.1338C380.486 30.7119 380.334 30.4102 380.029 30.2285C379.73 30.0527 379.171 29.9648 378.351 29.9648H376.786C376.194 29.9648 375.723 30.1025 375.371 30.3779C375.025 30.6592 374.853 31.0371 374.853 31.5117ZM375.74 23.4258C375.74 24.0352 375.896 24.5039 376.206 24.832C376.522 25.1602 376.974 25.3242 377.56 25.3242C378.755 25.3242 379.353 24.6855 379.353 23.4082C379.353 22.7754 379.203 22.2891 378.904 21.9492C378.611 21.6035 378.163 21.4307 377.56 21.4307C376.962 21.4307 376.508 21.6006 376.197 21.9404C375.893 22.2803 375.74 22.7754 375.74 23.4258ZM388.546 30.1758C387.034 30.1758 385.851 29.7363 384.995 28.8574C384.146 27.9727 383.721 26.7568 383.721 25.21C383.721 23.6221 384.116 22.374 384.907 21.4658C385.698 20.5576 386.785 20.1035 388.168 20.1035C389.451 20.1035 390.465 20.4932 391.209 21.2725C391.953 22.0518 392.325 23.124 392.325 24.4893V25.6055H385.848C385.877 26.5488 386.132 27.2754 386.612 27.7852C387.093 28.2891 387.77 28.541 388.643 28.541C389.217 28.541 389.75 28.4883 390.242 28.3828C390.74 28.2715 391.273 28.0898 391.842 27.8379V29.5166C391.338 29.7568 390.828 29.9268 390.312 30.0264C389.797 30.126 389.208 30.1758 388.546 30.1758ZM388.168 21.668C387.512 21.668 386.984 21.876 386.586 22.292C386.193 22.708 385.959 23.3145 385.883 24.1113H390.295C390.283 23.3086 390.09 22.7021 389.715 22.292C389.34 21.876 388.824 21.668 388.168 21.668Z" fill="black"/>
<path d="M460.098 165.635C460.098 167.049 459.705 168.131 458.92 168.881C458.135 169.627 457.004 170 455.527 170H453.131V161.434H455.779C457.143 161.434 458.203 161.801 458.961 162.535C459.719 163.27 460.098 164.303 460.098 165.635ZM458.621 165.682C458.621 163.631 457.662 162.605 455.744 162.605H454.531V168.822H455.527C457.59 168.822 458.621 167.775 458.621 165.682ZM467.545 166.748C467.545 167.807 467.273 168.633 466.73 169.227C466.188 169.82 465.432 170.117 464.463 170.117C463.857 170.117 463.322 169.98 462.857 169.707C462.393 169.434 462.035 169.041 461.785 168.529C461.535 168.018 461.41 167.424 461.41 166.748C461.41 165.697 461.68 164.877 462.219 164.287C462.758 163.697 463.518 163.402 464.498 163.402C465.436 163.402 466.178 163.705 466.725 164.311C467.271 164.912 467.545 165.725 467.545 166.748ZM462.828 166.748C462.828 168.244 463.381 168.992 464.486 168.992C465.58 168.992 466.127 168.244 466.127 166.748C466.127 165.268 465.576 164.527 464.475 164.527C463.896 164.527 463.477 164.719 463.215 165.102C462.957 165.484 462.828 166.033 462.828 166.748ZM474.447 170L473.609 166.977C473.508 166.656 473.324 165.912 473.059 164.744H473.006C472.779 165.799 472.6 166.547 472.467 166.988L471.605 170H470.082L468.266 163.52H469.672L470.498 166.713C470.686 167.502 470.818 168.178 470.896 168.74H470.932C470.971 168.455 471.029 168.129 471.107 167.762C471.189 167.391 471.26 167.113 471.318 166.93L472.303 163.52H473.814L474.77 166.93C474.828 167.121 474.9 167.414 474.986 167.809C475.076 168.203 475.129 168.51 475.145 168.729H475.191C475.25 168.248 475.387 167.576 475.602 166.713L476.439 163.52H477.822L475.994 170H474.447ZM484.643 170H483.26V166.016C483.26 165.516 483.158 165.143 482.955 164.896C482.756 164.65 482.438 164.527 482 164.527C481.418 164.527 480.992 164.699 480.723 165.043C480.453 165.387 480.318 165.963 480.318 166.771V170H478.941V163.52H480.02L480.213 164.369H480.283C480.479 164.061 480.756 163.822 481.115 163.654C481.475 163.486 481.873 163.402 482.311 163.402C483.865 163.402 484.643 164.193 484.643 165.775V170ZM487.936 170H486.559V160.883H487.936V170ZM495.658 166.748C495.658 167.807 495.387 168.633 494.844 169.227C494.301 169.82 493.545 170.117 492.576 170.117C491.971 170.117 491.436 169.98 490.971 169.707C490.506 169.434 490.148 169.041 489.898 168.529C489.648 168.018 489.523 167.424 489.523 166.748C489.523 165.697 489.793 164.877 490.332 164.287C490.871 163.697 491.631 163.402 492.611 163.402C493.549 163.402 494.291 163.705 494.838 164.311C495.385 164.912 495.658 165.725 495.658 166.748ZM490.941 166.748C490.941 168.244 491.494 168.992 492.6 168.992C493.693 168.992 494.24 168.244 494.24 166.748C494.24 165.268 493.689 164.527 492.588 164.527C492.01 164.527 491.59 164.719 491.328 165.102C491.07 165.484 490.941 166.033 490.941 166.748ZM501.301 170L501.025 169.098H500.979C500.666 169.492 500.352 169.762 500.035 169.906C499.719 170.047 499.312 170.117 498.816 170.117C498.18 170.117 497.682 169.945 497.322 169.602C496.967 169.258 496.789 168.771 496.789 168.143C496.789 167.475 497.037 166.971 497.533 166.631C498.029 166.291 498.785 166.105 499.801 166.074L500.92 166.039V165.693C500.92 165.279 500.822 164.971 500.627 164.768C500.436 164.561 500.137 164.457 499.73 164.457C499.398 164.457 499.08 164.506 498.775 164.604C498.471 164.701 498.178 164.816 497.896 164.949L497.451 163.965C497.803 163.781 498.188 163.643 498.605 163.549C499.023 163.451 499.418 163.402 499.789 163.402C500.613 163.402 501.234 163.582 501.652 163.941C502.074 164.301 502.285 164.865 502.285 165.635V170H501.301ZM499.25 169.062C499.75 169.062 500.15 168.924 500.451 168.646C500.756 168.365 500.908 167.973 500.908 167.469V166.906L500.076 166.941C499.428 166.965 498.955 167.074 498.658 167.27C498.365 167.461 498.219 167.756 498.219 168.154C498.219 168.443 498.305 168.668 498.477 168.828C498.648 168.984 498.906 169.062 499.25 169.062ZM506.393 170.117C505.584 170.117 504.953 169.824 504.5 169.238C504.047 168.652 503.82 167.83 503.82 166.771C503.82 165.709 504.049 164.883 504.506 164.293C504.967 163.699 505.604 163.402 506.416 163.402C507.268 163.402 507.916 163.717 508.361 164.346H508.432C508.365 163.881 508.332 163.514 508.332 163.244V160.883H509.715V170H508.637L508.396 169.15H508.332C507.891 169.795 507.244 170.117 506.393 170.117ZM506.762 169.004C507.328 169.004 507.74 168.846 507.998 168.529C508.256 168.209 508.389 167.691 508.396 166.977V166.783C508.396 165.967 508.264 165.387 507.998 165.043C507.732 164.699 507.316 164.527 506.75 164.527C506.266 164.527 505.893 164.725 505.631 165.119C505.369 165.51 505.238 166.068 505.238 166.795C505.238 167.514 505.365 168.062 505.619 168.441C505.873 168.816 506.254 169.004 506.762 169.004ZM519.887 167.674C519.887 168.436 519.611 169.033 519.061 169.467C518.51 169.9 517.75 170.117 516.781 170.117C515.812 170.117 515.02 169.967 514.402 169.666V168.342C514.793 168.525 515.207 168.67 515.645 168.775C516.086 168.881 516.496 168.934 516.875 168.934C517.43 168.934 517.838 168.828 518.1 168.617C518.365 168.406 518.498 168.123 518.498 167.768C518.498 167.447 518.377 167.176 518.135 166.953C517.893 166.73 517.393 166.467 516.635 166.162C515.854 165.846 515.303 165.484 514.982 165.078C514.662 164.672 514.502 164.184 514.502 163.613C514.502 162.898 514.756 162.336 515.264 161.926C515.771 161.516 516.453 161.311 517.309 161.311C518.129 161.311 518.945 161.49 519.758 161.85L519.312 162.992C518.551 162.672 517.871 162.512 517.273 162.512C516.82 162.512 516.477 162.611 516.242 162.811C516.008 163.006 515.891 163.266 515.891 163.59C515.891 163.812 515.938 164.004 516.031 164.164C516.125 164.32 516.279 164.469 516.494 164.609C516.709 164.75 517.096 164.936 517.654 165.166C518.283 165.428 518.744 165.672 519.037 165.898C519.33 166.125 519.545 166.381 519.682 166.666C519.818 166.951 519.887 167.287 519.887 167.674ZM525.453 170L525.178 169.098H525.131C524.818 169.492 524.504 169.762 524.188 169.906C523.871 170.047 523.465 170.117 522.969 170.117C522.332 170.117 521.834 169.945 521.475 169.602C521.119 169.258 520.941 168.771 520.941 168.143C520.941 167.475 521.189 166.971 521.686 166.631C522.182 166.291 522.938 166.105 523.953 166.074L525.072 166.039V165.693C525.072 165.279 524.975 164.971 524.779 164.768C524.588 164.561 524.289 164.457 523.883 164.457C523.551 164.457 523.232 164.506 522.928 164.604C522.623 164.701 522.33 164.816 522.049 164.949L521.604 163.965C521.955 163.781 522.34 163.643 522.758 163.549C523.176 163.451 523.57 163.402 523.941 163.402C524.766 163.402 525.387 163.582 525.805 163.941C526.227 164.301 526.438 164.865 526.438 165.635V170H525.453ZM523.402 169.062C523.902 169.062 524.303 168.924 524.604 168.646C524.908 168.365 525.061 167.973 525.061 167.469V166.906L524.229 166.941C523.58 166.965 523.107 167.074 522.811 167.27C522.518 167.461 522.371 167.756 522.371 168.154C522.371 168.443 522.457 168.668 522.629 168.828C522.801 168.984 523.059 169.062 523.402 169.062ZM533.82 170H532.438V166.004C532.438 165.508 532.344 165.139 532.156 164.896C531.969 164.65 531.676 164.527 531.277 164.527C530.746 164.527 530.355 164.701 530.105 165.049C529.859 165.393 529.736 165.967 529.736 166.771V170H528.359V163.52H529.438L529.631 164.369H529.701C529.881 164.061 530.141 163.822 530.48 163.654C530.824 163.486 531.201 163.402 531.611 163.402C532.607 163.402 533.268 163.742 533.592 164.422H533.686C533.877 164.102 534.146 163.852 534.494 163.672C534.842 163.492 535.24 163.402 535.689 163.402C536.463 163.402 537.025 163.598 537.377 163.988C537.732 164.379 537.91 164.975 537.91 165.775V170H536.533V166.004C536.533 165.508 536.438 165.139 536.246 164.896C536.059 164.65 535.766 164.527 535.367 164.527C534.832 164.527 534.439 164.695 534.189 165.031C533.943 165.363 533.82 165.875 533.82 166.566V170ZM543.119 170.117C542.299 170.117 541.662 169.822 541.209 169.232H541.127C541.182 169.779 541.209 170.111 541.209 170.229V172.883H539.832V163.52H540.945C540.977 163.641 541.041 163.93 541.139 164.387H541.209C541.639 163.73 542.283 163.402 543.143 163.402C543.951 163.402 544.58 163.695 545.029 164.281C545.482 164.867 545.709 165.689 545.709 166.748C545.709 167.807 545.479 168.633 545.018 169.227C544.561 169.82 543.928 170.117 543.119 170.117ZM542.785 164.527C542.238 164.527 541.838 164.688 541.584 165.008C541.334 165.328 541.209 165.84 541.209 166.543V166.748C541.209 167.537 541.334 168.109 541.584 168.465C541.834 168.816 542.242 168.992 542.809 168.992C543.285 168.992 543.652 168.797 543.91 168.406C544.168 168.016 544.297 167.459 544.297 166.736C544.297 166.01 544.168 165.461 543.91 165.09C543.656 164.715 543.281 164.527 542.785 164.527ZM548.686 170H547.309V160.883H548.686V170ZM553.49 170.117C552.482 170.117 551.693 169.824 551.123 169.238C550.557 168.648 550.273 167.838 550.273 166.807C550.273 165.748 550.537 164.916 551.064 164.311C551.592 163.705 552.316 163.402 553.238 163.402C554.094 163.402 554.77 163.662 555.266 164.182C555.762 164.701 556.01 165.416 556.01 166.326V167.07H551.691C551.711 167.699 551.881 168.184 552.201 168.523C552.521 168.859 552.973 169.027 553.555 169.027C553.938 169.027 554.293 168.992 554.621 168.922C554.953 168.848 555.309 168.727 555.688 168.559V169.678C555.352 169.838 555.012 169.951 554.668 170.018C554.324 170.084 553.932 170.117 553.49 170.117ZM553.238 164.445C552.801 164.445 552.449 164.584 552.184 164.861C551.922 165.139 551.766 165.543 551.715 166.074H554.656C554.648 165.539 554.52 165.135 554.27 164.861C554.02 164.584 553.676 164.445 553.238 164.445ZM562.227 170H560.838V161.434H565.672V162.617H562.227V165.295H565.455V166.484H562.227V170ZM568.455 170H567.078V163.52H568.455V170ZM566.996 161.803C566.996 161.557 567.062 161.367 567.195 161.234C567.332 161.102 567.525 161.035 567.775 161.035C568.018 161.035 568.205 161.102 568.338 161.234C568.475 161.367 568.543 161.557 568.543 161.803C568.543 162.037 568.475 162.223 568.338 162.359C568.205 162.492 568.018 162.559 567.775 162.559C567.525 162.559 567.332 162.492 567.195 162.359C567.062 162.223 566.996 162.037 566.996 161.803ZM571.807 170H570.43V160.883H571.807V170ZM576.611 170.117C575.604 170.117 574.814 169.824 574.244 169.238C573.678 168.648 573.395 167.838 573.395 166.807C573.395 165.748 573.658 164.916 574.186 164.311C574.713 163.705 575.438 163.402 576.359 163.402C577.215 163.402 577.891 163.662 578.387 164.182C578.883 164.701 579.131 165.416 579.131 166.326V167.07H574.812C574.832 167.699 575.002 168.184 575.322 168.523C575.643 168.859 576.094 169.027 576.676 169.027C577.059 169.027 577.414 168.992 577.742 168.922C578.074 168.848 578.43 168.727 578.809 168.559V169.678C578.473 169.838 578.133 169.951 577.789 170.018C577.445 170.084 577.053 170.117 576.611 170.117ZM576.359 164.445C575.922 164.445 575.57 164.584 575.305 164.861C575.043 165.139 574.887 165.543 574.836 166.074H577.777C577.77 165.539 577.641 165.135 577.391 164.861C577.141 164.584 576.797 164.445 576.359 164.445Z" fill="#0357D0" fill-opacity="0.9"/>
<path d="M154.905 74.7641C150.793 70.6518 144.102 70.652 139.988 74.7651C138.723 76.0314 130.645 84.1157 129.411 85.3509V57.4905C129.411 54.6733 128.314 52.0248 126.322 50.0329L116.379 40.0891C114.387 38.0969 111.738 37 108.921 37H48.5521C42.7365 37 38.0052 41.7313 38.0052 47.5469V146.453C38.0052 152.269 42.7365 157 48.5521 157H118.865C124.68 157 129.411 152.269 129.411 146.453V115.195L154.905 89.6798C159.027 85.558 159.028 78.8863 154.905 74.7641ZM108.318 44.0312C108.982 44.0312 110.262 43.9162 111.407 45.0609L121.351 55.0047C122.466 56.1205 122.38 57.3433 122.38 58.0938H108.318V44.0312ZM122.38 146.453C122.38 148.392 120.803 149.969 118.865 149.969H48.5521C46.6136 149.969 45.0365 148.392 45.0365 146.453V47.5469C45.0365 45.6084 46.6136 44.0312 48.5521 44.0312H101.286V61.6094C101.286 63.5509 102.861 65.125 104.802 65.125H122.38V92.3882C122.38 92.3882 112.008 102.769 112.008 102.769L107.038 107.739C106.652 108.125 106.361 108.595 106.189 109.113L101.217 124.029C100.796 125.292 101.125 126.685 102.066 127.626C103.009 128.569 104.402 128.897 105.664 128.476L120.579 123.504C121.097 123.332 121.568 123.041 121.954 122.655L122.38 122.228V146.453ZM114.496 110.225L119.468 115.197L117.568 117.096L110.111 119.582L112.597 112.124L114.496 110.225ZM124.438 110.224L119.467 105.252C122.114 102.603 133.873 90.8341 136.366 88.3382L141.338 93.31L124.438 110.224ZM149.932 84.7089L146.308 88.3361L141.336 83.3643L144.962 79.7359C146.333 78.3651 148.563 78.3653 149.934 79.7359C151.304 81.107 151.311 83.3296 149.932 84.7089Z" fill="white"/>
<path d="M104.801 72.1562H55.5823C53.6408 72.1562 52.0667 73.7303 52.0667 75.6719C52.0667 77.6134 53.6408 79.1875 55.5823 79.1875H104.801C106.743 79.1875 108.317 77.6134 108.317 75.6719C108.317 73.7303 106.743 72.1562 104.801 72.1562Z" fill="white"/>
<path d="M90.7386 86.2188H55.5823C53.6408 86.2188 52.0667 87.7928 52.0667 89.7344C52.0667 91.6759 53.6408 93.25 55.5823 93.25H90.7386C92.6801 93.25 94.2542 91.6759 94.2542 89.7344C94.2542 87.7928 92.6801 86.2188 90.7386 86.2188Z" fill="white"/>
<path d="M90.7386 100.281H55.5823C53.6408 100.281 52.0667 101.855 52.0667 103.797C52.0667 105.738 53.6408 107.312 55.5823 107.312H90.7386C92.6801 107.312 94.2542 105.738 94.2542 103.797C94.2542 101.855 92.6801 100.281 90.7386 100.281Z" fill="white"/>
<path d="M90.7386 114.344H55.5823C53.6408 114.344 52.0667 115.918 52.0667 117.859C52.0667 119.801 53.6408 121.375 55.5823 121.375H90.7386C92.6801 121.375 94.2542 119.801 94.2542 117.859C94.2542 115.918 92.6801 114.344 90.7386 114.344Z" fill="white"/>
<path d="M104.801 135.906H83.7073C81.7658 135.906 80.1917 137.48 80.1917 139.422C80.1917 141.363 81.7658 142.938 83.7073 142.938H104.801C106.743 142.938 108.317 141.363 108.317 139.422C108.317 137.48 106.743 135.906 104.801 135.906Z" fill="white"/>
<defs>
<filter id="filter0_d" x="0" y="0" width="608" height="195" filterUnits="userSpaceOnUse" color-interpolation-filters="sRGB">
<feFlood flood-opacity="0" result="BackgroundImageFix"/>
<feColorMatrix in="SourceAlpha" type="matrix" values="0 0 0 0 0 0 0 0 0 0 0 0 0 0 0 0 0 0 127 0"/>
<feOffset/>
<feGaussianBlur stdDeviation="2"/>
<feColorMatrix type="matrix" values="0 0 0 0 0 0 0 0 0 0 0 0 0 0 0 0 0 0 0.25 0"/>
<feBlend mode="normal" in2="BackgroundImageFix" result="effect1_dropShadow"/>
<feBlend mode="normal" in="SourceGraphic" in2="effect1_dropShadow" result="shape"/>
</filter>
<filter id="filter1_d" x="0" y="0" width="218" height="195" filterUnits="userSpaceOnUse" color-interpolation-filters="sRGB">
<feFlood flood-opacity="0" result="BackgroundImageFix"/>
<feColorMatrix in="SourceAlpha" type="matrix" values="0 0 0 0 0 0 0 0 0 0 0 0 0 0 0 0 0 0 127 0"/>
<feOffset/>
<feGaussianBlur stdDeviation="2"/>
<feColorMatrix type="matrix" values="0 0 0 0 0 0 0 0 0 0 0 0 0 0 0 0 0 0 0.25 0"/>
<feBlend mode="normal" in2="BackgroundImageFix" result="effect1_dropShadow"/>
<feBlend mode="normal" in="SourceGraphic" in2="effect1_dropShadow" result="shape"/>
</filter>
</defs>
</svg>
