<svg width="35" height="28" viewBox="0 0 35 28" fill="none" xmlns="http://www.w3.org/2000/svg">
<rect x="0.00390625" width="34" height="28" rx="4" fill="#1867C0"/>
<rect x="0.00390625" width="34" height="28" rx="4" fill="#1867C0"/>
<path d="M22.0039 5H10.0039C8.89391 5 8.00391 5.9 8.00391 7V21C8.00391 22.1 8.89391 23 10.0039 23H24.0039C25.1039 23 26.0039 22.1 26.0039 21V9L22.0039 5ZM17.0039 21C15.3439 21 14.0039 19.66 14.0039 18C14.0039 16.34 15.3439 15 17.0039 15C18.6639 15 20.0039 16.34 20.0039 18C20.0039 19.66 18.6639 21 17.0039 21ZM20.0039 11H10.0039V7H20.0039V11Z" fill="white"/>
</svg>
