<svg width="24" height="24" viewBox="0 0 24 24" fill="none" xmlns="http://www.w3.org/2000/svg">
<path fill-rule="evenodd" clip-rule="evenodd" d="M12 24C18.6274 24 24 18.6274 24 12C24 5.37258 18.6274 0 12 0C5.37258 0 0 5.37258 0 12C0 18.6274 5.37258 24 12 24ZM6.99791 16.5702L12.9572 8.10828L15.8157 10.1213L9.85635 18.5832L7.02731 19.5576L6.99791 16.5702ZM16.2666 9.47725L13.4082 7.46418L14.8001 5.48774C15.3757 4.67036 16.4778 4.44424 17.2545 4.99122C18.0566 5.55613 18.2247 6.69682 17.6302 7.541L16.2666 9.47725Z" fill="#F2994A"/>
</svg>
