<?xml version="1.0" encoding="UTF-8"?>
<svg xmlns="http://www.w3.org/2000/svg" xmlns:xlink="http://www.w3.org/1999/xlink" width="108px" height="108px" viewBox="0 0 108 108" version="1.1">
<g id="surface1">
<path style=" stroke:none;fill-rule:nonzero;fill:rgb(20%,20%,20%);fill-opacity:1;" d="M 108 11.027344 C 108 11.777344 108 12.527344 108 13.273438 C 107.363281 14.183594 106.492188 14.445312 105.390625 14.421875 C 102.503906 14.363281 99.621094 14.398438 96.734375 14.398438 C 96.304688 14.398438 95.871094 14.398438 95.398438 14.398438 C 95.398438 15.058594 95.398438 15.539062 95.398438 16.027344 C 95.398438 45.816406 95.390625 75.601562 95.421875 105.390625 C 95.421875 106.484375 95.191406 107.363281 94.273438 108 C 66.527344 108 38.777344 108 11.027344 108 C 10.855469 107.933594 10.695312 107.835938 10.515625 107.804688 C 5.523438 106.824219 2.234375 103.90625 0.578125 99.117188 C 0.335938 98.421875 0.1875 97.691406 0 96.972656 C 0 96.222656 0 95.472656 0 94.726562 C 0.628906 93.804688 1.507812 93.539062 2.609375 93.578125 C 4.667969 93.644531 6.730469 93.601562 8.792969 93.601562 C 9.453125 93.601562 10.105469 93.601562 10.800781 93.601562 C 10.800781 92.941406 10.800781 92.453125 10.800781 91.972656 C 10.800781 68.0625 10.800781 44.152344 10.800781 20.238281 C 10.800781 16.492188 10.777344 12.742188 10.808594 8.996094 C 10.847656 4.722656 13.6875 1.214844 17.832031 0.226562 C 18.042969 0.171875 18.246094 0.0742188 18.445312 0 C 44.621094 0 70.796875 0 96.972656 0 C 97.144531 0.0664062 97.304688 0.164062 97.484375 0.195312 C 102.339844 1.125 105.59375 3.949219 107.308594 8.566406 C 107.601562 9.363281 107.769531 10.203125 108 11.027344 Z M 91.71875 104.5 C 91.71875 70.722656 91.71875 37.195312 91.71875 3.597656 C 91.382812 3.597656 91.125 3.597656 90.863281 3.597656 C 67.019531 3.597656 43.175781 3.597656 19.332031 3.597656 C 16.691406 3.597656 14.398438 5.972656 14.398438 8.671875 C 14.398438 36.566406 14.398438 64.457031 14.398438 92.355469 C 14.398438 92.753906 14.398438 93.144531 14.398438 93.59375 C 15.007812 93.59375 15.457031 93.59375 15.90625 93.59375 C 35.925781 93.59375 55.949219 93.59375 75.96875 93.59375 C 76.269531 93.59375 76.570312 93.578125 76.871094 93.59375 C 78.382812 93.667969 79 94.296875 79.222656 95.765625 C 79.34375 96.554688 79.5 97.421875 79.9375 98.066406 C 82.710938 102.214844 86.773438 104.058594 91.71875 104.5 Z M 80.953125 104.394531 C 78.839844 102.746094 77.230469 100.804688 76.316406 98.367188 C 75.96875 97.445312 75.582031 97.167969 74.589844 97.167969 C 51.421875 97.207031 28.246094 97.199219 5.074219 97.199219 C 4.667969 97.199219 4.257812 97.199219 3.816406 97.199219 C 3.832031 97.460938 3.816406 97.648438 3.859375 97.828125 C 4.683594 101.382812 8.410156 104.394531 12.023438 104.394531 C 34.707031 104.402344 57.394531 104.394531 80.078125 104.394531 C 80.363281 104.394531 80.65625 104.394531 80.953125 104.394531 Z M 104.183594 10.773438 C 103.75 6.769531 98.960938 2.960938 95.480469 3.746094 C 95.480469 6.085938 95.480469 8.425781 95.480469 10.773438 C 98.414062 10.773438 101.253906 10.773438 104.183594 10.773438 Z M 104.183594 10.773438 "/>
<path style=" stroke:none;fill-rule:nonzero;fill:rgb(20%,20%,20%);fill-opacity:1;" d="M 36.027344 46.796875 C 31.980469 46.796875 27.933594 46.820312 23.882812 46.789062 C 21.90625 46.773438 20.007812 46.316406 18.980469 44.457031 C 18.425781 43.460938 18.050781 42.21875 18.046875 41.078125 C 17.96875 32.90625 17.984375 24.738281 18.007812 16.566406 C 18.015625 12.9375 20.1875 10.808594 23.832031 10.808594 C 31.964844 10.792969 40.097656 10.792969 48.230469 10.808594 C 50.9375 10.816406 52.847656 12.023438 53.582031 14.226562 C 53.824219 14.953125 53.980469 15.757812 53.980469 16.523438 C 54.011719 24.691406 54.011719 32.863281 53.996094 41.03125 C 53.988281 43.746094 52.773438 45.65625 50.578125 46.378906 C 49.78125 46.640625 48.90625 46.773438 48.066406 46.78125 C 44.046875 46.820312 40.039062 46.796875 36.027344 46.796875 Z M 30.601562 14.519531 C 30.390625 14.460938 30.324219 14.421875 30.25 14.421875 C 28 14.414062 25.75 14.40625 23.5 14.40625 C 21.898438 14.40625 21.597656 14.699219 21.597656 16.28125 C 21.597656 24.601562 21.597656 32.921875 21.597656 41.242188 C 21.597656 42.921875 21.875 43.207031 23.515625 43.207031 C 31.835938 43.207031 40.15625 43.207031 48.476562 43.207031 C 50.121094 43.207031 50.390625 42.921875 50.390625 41.234375 C 50.390625 33.402344 50.375 25.570312 50.398438 17.734375 C 50.40625 14.25 50.539062 14.371094 47.015625 14.40625 C 45.15625 14.429688 43.296875 14.40625 41.394531 14.40625 C 41.394531 19.550781 41.394531 24.535156 41.386719 29.511719 C 41.386719 29.953125 41.347656 30.410156 41.246094 30.839844 C 40.839844 32.375 39.421875 32.773438 38.269531 31.671875 C 37.519531 30.949219 36.816406 30.179688 35.984375 29.308594 C 35.316406 30.023438 34.738281 30.597656 34.199219 31.214844 C 33.515625 31.984375 32.746094 32.621094 31.671875 32.136719 C 30.683594 31.683594 30.585938 30.703125 30.59375 29.738281 C 30.601562 28.875 30.59375 28.011719 30.59375 27.152344 C 30.601562 22.945312 30.601562 18.746094 30.601562 14.519531 Z M 37.722656 26.191406 C 37.722656 22.210938 37.722656 18.335938 37.722656 14.496094 C 36.507812 14.496094 35.367188 14.496094 34.257812 14.496094 C 34.257812 18.433594 34.257812 22.269531 34.257812 26.144531 C 35.863281 25.042969 36.253906 25.042969 37.722656 26.191406 Z M 37.722656 26.191406 "/>
<path style=" stroke:none;fill-rule:nonzero;fill:rgb(20%,20%,20%);fill-opacity:1;" d="M 81 48.574219 C 79.75 48.574219 78.671875 48.574219 77.402344 48.574219 C 77.402344 47.546875 77.457031 46.503906 77.375 45.484375 C 77.34375 45.15625 77.015625 44.660156 76.722656 44.578125 C 73.304688 43.574219 70.28125 40.175781 70.359375 36.085938 C 71.453125 36.085938 72.546875 36.085938 73.730469 36.085938 C 73.789062 37.988281 74.578125 39.554688 76.25 40.605469 C 78.046875 41.734375 79.96875 41.78125 81.789062 40.820312 C 83.625 39.855469 84.644531 38.28125 84.613281 36.09375 C 84.578125 32.90625 82.710938 30.859375 79.511719 30.597656 C 74.839844 30.207031 71.820312 27.972656 70.648438 24.007812 C 69.308594 19.453125 71.925781 14.707031 76.144531 13.304688 C 77.207031 12.953125 77.539062 12.457031 77.417969 11.414062 C 77.335938 10.679688 77.402344 9.925781 77.402344 9.09375 C 78.589844 9.09375 79.71875 9.09375 81 9.09375 C 81 10 81.046875 10.929688 80.988281 11.851562 C 80.933594 12.609375 81.152344 12.9375 81.9375 13.167969 C 85.535156 14.242188 88.234375 17.929688 88.011719 21.550781 C 86.910156 21.550781 85.800781 21.550781 84.675781 21.550781 C 84.539062 18.859375 83.214844 16.976562 80.671875 16.347656 C 77.652344 15.597656 74.800781 16.820312 73.949219 20.140625 C 73.144531 23.238281 74.519531 25.957031 77.839844 26.925781 C 79 27.261719 80.28125 27.171875 81.464844 27.457031 C 85.347656 28.402344 88.070312 31.667969 88.121094 35.949219 C 88.167969 39.523438 86.285156 42.964844 81.910156 44.464844 C 81.195312 44.710938 80.949219 44.980469 80.992188 45.695312 C 81.039062 46.601562 81 47.539062 81 48.574219 Z M 81 48.574219 "/>
<path style=" stroke:none;fill-rule:nonzero;fill:rgb(20%,20%,20%);fill-opacity:1;" d="M 43.253906 62.921875 C 43.253906 61.734375 43.253906 60.625 43.253906 59.457031 C 58.207031 59.457031 73.109375 59.457031 88.109375 59.457031 C 88.109375 60.566406 88.109375 61.707031 88.109375 62.921875 C 73.207031 62.921875 58.273438 62.921875 43.253906 62.921875 Z M 43.253906 62.921875 "/>
<path style=" stroke:none;fill-rule:nonzero;fill:rgb(20%,20%,20%);fill-opacity:1;" d="M 88.152344 77.476562 C 88.152344 78.652344 88.152344 79.761719 88.152344 80.933594 C 73.175781 80.933594 58.242188 80.933594 43.257812 80.933594 C 43.257812 79.777344 43.257812 78.667969 43.257812 77.476562 C 58.183594 77.476562 73.113281 77.476562 88.152344 77.476562 Z M 88.152344 77.476562 "/>
<path style=" stroke:none;fill-rule:nonzero;fill:rgb(20%,20%,20%);fill-opacity:1;" d="M 32.316406 61.257812 C 32.113281 65.320312 29.308594 68.28125 25.253906 68.304688 C 21.035156 68.316406 18.074219 65.28125 18.101562 61.152344 C 18.132812 57.082031 21.027344 54.144531 25.125 54.105469 C 29.277344 54.0625 32.164062 57.105469 32.316406 61.257812 Z M 25.238281 57.628906 C 23.050781 57.628906 21.632812 59 21.625 61.128906 C 21.617188 63.324219 22.996094 64.765625 25.097656 64.773438 C 27.34375 64.78125 28.769531 63.410156 28.769531 61.21875 C 28.769531 59.046875 27.375 57.628906 25.238281 57.628906 Z M 25.238281 57.628906 "/>
<path style=" stroke:none;fill-rule:nonzero;fill:rgb(20%,20%,20%);fill-opacity:1;" d="M 32.316406 79.238281 C 32.128906 83.242188 29.390625 86.261719 25.269531 86.292969 C 21.109375 86.328125 18.09375 83.347656 18.101562 79.15625 C 18.117188 75.152344 20.949219 72.15625 25.113281 72.09375 C 29.21875 72.050781 32.15625 75.046875 32.316406 79.238281 Z M 28.769531 79.238281 C 28.769531 77.058594 27.390625 75.632812 25.261719 75.625 C 23.074219 75.617188 21.632812 76.996094 21.625 79.105469 C 21.617188 81.359375 22.988281 82.769531 25.1875 82.769531 C 27.351562 82.769531 28.769531 81.375 28.769531 79.238281 Z M 28.769531 79.238281 "/>
<path style=" stroke:none;fill-rule:nonzero;fill:rgb(20%,20%,20%);fill-opacity:1;" d="M 62.675781 26.054688 C 61.730469 25.425781 60.832031 24.824219 59.863281 24.179688 C 60.375 23.386719 60.882812 22.582031 61.488281 21.648438 C 60.148438 21.648438 58.949219 21.648438 57.667969 21.648438 C 57.667969 20.394531 57.667969 19.253906 57.667969 18.011719 C 58.894531 18.011719 60.109375 18.011719 61.519531 18.011719 C 60.898438 17.050781 60.386719 16.25 59.855469 15.425781 C 60.808594 14.796875 61.730469 14.171875 62.667969 13.550781 C 63.714844 15.109375 64.75 16.664062 65.785156 18.207031 C 66.675781 19.53125 66.660156 20.058594 65.746094 21.4375 C 64.734375 22.957031 63.730469 24.472656 62.675781 26.054688 Z M 62.675781 26.054688 "/>
<path style=" stroke:none;fill-rule:nonzero;fill:rgb(20%,20%,20%);fill-opacity:1;" d="M 59.71875 44.046875 C 58.601562 42.367188 57.539062 40.703125 56.421875 39.085938 C 55.808594 38.199219 55.828125 37.390625 56.421875 36.511719 C 57.53125 34.878906 58.609375 33.230469 59.726562 31.542969 C 60.664062 32.164062 61.585938 32.78125 62.546875 33.417969 C 62.019531 34.234375 61.503906 35.027344 60.890625 35.988281 C 62.269531 35.988281 63.480469 35.988281 64.742188 35.988281 C 64.742188 37.210938 64.742188 38.3125 64.742188 39.535156 C 63.542969 39.535156 62.328125 39.535156 60.875 39.535156 C 61.503906 40.539062 62.011719 41.355469 62.539062 42.1875 C 61.578125 42.816406 60.65625 43.433594 59.71875 44.046875 Z M 59.71875 44.046875 "/>
<path style=" stroke:none;fill-rule:nonzero;fill:rgb(20%,20%,20%);fill-opacity:1;" d="M 39.539062 62.949219 C 38.378906 62.949219 37.269531 62.949219 36.074219 62.949219 C 36.074219 61.808594 36.074219 60.675781 36.074219 59.472656 C 37.207031 59.472656 38.339844 59.472656 39.539062 59.472656 C 39.539062 60.601562 39.539062 61.703125 39.539062 62.949219 Z M 39.539062 62.949219 "/>
<path style=" stroke:none;fill-rule:nonzero;fill:rgb(20%,20%,20%);fill-opacity:1;" d="M 39.523438 80.976562 C 38.339844 80.976562 37.261719 80.976562 36.09375 80.976562 C 36.09375 79.839844 36.09375 78.699219 36.09375 77.484375 C 37.1875 77.484375 38.316406 77.484375 39.523438 77.484375 C 39.523438 78.601562 39.523438 79.742188 39.523438 80.976562 Z M 39.523438 80.976562 "/>
</g>
</svg>
