<svg width="108" height="108" viewBox="0 0 108 108" fill="none" xmlns="http://www.w3.org/2000/svg">
<path d="M52.3125 87.75H16.875C16.4274 87.75 15.9982 87.9278 15.6818 88.2443C15.3653 88.5607 15.1875 88.9899 15.1875 89.4375C15.1875 89.8851 15.3653 90.3143 15.6818 90.6307C15.9982 90.9472 16.4274 91.125 16.875 91.125H52.3125C52.7601 91.125 53.1893 90.9472 53.5057 90.6307C53.8222 90.3143 54 89.8851 54 89.4375C54 88.9899 53.8222 88.5607 53.5057 88.2443C53.1893 87.9278 52.7601 87.75 52.3125 87.75Z" fill="black"/>
<path d="M60.75 87.75H57.375C56.9274 87.75 56.4982 87.9278 56.1818 88.2443C55.8653 88.5607 55.6875 88.9899 55.6875 89.4375C55.6875 89.8851 55.8653 90.3143 56.1818 90.6307C56.4982 90.9472 56.9274 91.125 57.375 91.125H60.75C61.1976 91.125 61.6268 90.9472 61.9432 90.6307C62.2597 90.3143 62.4375 89.8851 62.4375 89.4375C62.4375 88.9899 62.2597 88.5607 61.9432 88.2443C61.6268 87.9278 61.1976 87.75 60.75 87.75Z" fill="black"/>
<path d="M72.5625 37.125H79.3125C79.7601 37.125 80.1893 36.9472 80.5057 36.6307C80.8222 36.3143 81 35.8851 81 35.4375V16.875C81 16.4274 80.8222 15.9982 80.5057 15.6818C80.1893 15.3653 79.7601 15.1875 79.3125 15.1875H72.5625C72.1149 15.1875 71.6857 15.3653 71.3693 15.6818C71.0528 15.9982 70.875 16.4274 70.875 16.875V35.4375C70.875 35.8851 71.0528 36.3143 71.3693 36.6307C71.6857 36.9472 72.1149 37.125 72.5625 37.125ZM74.25 18.5625H77.625V33.75H74.25V18.5625Z" fill="black"/>
<path d="M72.5625 48.9375H79.3125C79.7601 48.9375 80.1893 48.7597 80.5057 48.4432C80.8222 48.1268 81 47.6976 81 47.25V40.5C81 40.0524 80.8222 39.6232 80.5057 39.3068C80.1893 38.9903 79.7601 38.8125 79.3125 38.8125H72.5625C72.1149 38.8125 71.6857 38.9903 71.3693 39.3068C71.0528 39.6232 70.875 40.0524 70.875 40.5V47.25C70.875 47.6976 71.0528 48.1268 71.3693 48.4432C71.6857 48.7597 72.1149 48.9375 72.5625 48.9375ZM74.25 42.1875H77.625V45.5625H74.25V42.1875Z" fill="black"/>
<path d="M99.5625 32.0626C99.5652 27.7018 98.3601 23.4254 96.0809 19.7077C93.8016 15.9899 90.5373 12.976 86.6498 11.0002C82.7623 9.02432 78.4036 8.1637 74.0569 8.51373C69.7101 8.86377 65.5453 10.4108 62.0241 12.9833C59.5123 11.4781 56.8051 10.3261 53.9789 9.55975C53.8362 7.42373 52.8866 5.4219 51.3226 3.96007C49.7586 2.49823 47.6973 1.68577 45.5566 1.68738C43.4158 1.68899 41.3557 2.50455 39.7939 3.96874C38.2322 5.43292 37.2856 7.43617 37.1461 9.5724C23.5364 13.3123 13.5 25.8926 13.5 40.7912V79.5488C13.5 80.1813 13.3224 80.8011 12.9874 81.3376L10.1608 85.8601C9.52165 86.8816 9.16767 88.0557 9.13568 89.2603C9.10369 90.4649 9.39485 91.6561 9.97892 92.7102C10.563 93.7642 11.4187 94.6426 12.457 95.2541C13.4954 95.8656 14.6785 96.188 15.8836 96.1876H33.8723C34.278 98.9987 35.683 101.57 37.83 103.429C39.9771 105.288 42.7222 106.312 45.5625 106.312C48.4028 106.312 51.1479 105.288 53.2949 103.429C55.4419 101.57 56.847 98.9987 57.2526 96.1876H75.2414C76.4464 96.188 77.6296 95.8656 78.668 95.2541C79.7063 94.6426 80.562 93.7642 81.146 92.7102C81.7301 91.6561 82.0213 90.4649 81.9893 89.2603C81.9573 88.0557 81.6033 86.8816 80.9641 85.8601L78.1376 81.3376C77.8025 80.8011 77.6249 80.1813 77.625 79.5488V55.6264C83.5807 55.1929 89.152 52.5229 93.221 48.1524C97.2899 43.7818 99.5553 38.034 99.5625 32.0626ZM45.5625 5.06256C46.6762 5.06412 47.7585 5.43223 48.6422 6.11006C49.5259 6.7879 50.1619 7.73776 50.452 8.81303C48.8327 8.56385 47.1967 8.43833 45.5583 8.43756H45.5477C43.9156 8.43727 42.2858 8.56279 40.673 8.81303C40.9631 7.73776 41.5991 6.7879 42.4828 6.11006C43.3665 5.43223 44.4488 5.06412 45.5625 5.06256ZM45.5625 102.938C43.6181 102.935 41.734 102.263 40.2278 101.033C38.7215 99.8034 37.6853 98.0921 37.2937 96.1876H53.8312C53.4397 98.0921 52.4035 99.8034 50.8972 101.033C49.391 102.263 47.5069 102.935 45.5625 102.938ZM78.1038 87.6488C78.4231 88.1597 78.5999 88.7468 78.6157 89.3491C78.6315 89.9514 78.4857 90.5469 78.1936 91.0738C77.9015 91.6008 77.4737 92.0399 76.9546 92.3457C76.4354 92.6514 75.8439 92.8126 75.2414 92.8126H15.8836C15.2811 92.8126 14.6896 92.6514 14.1704 92.3457C13.6513 92.0399 13.2234 91.6008 12.9313 91.0738C12.6392 90.5469 12.4935 89.9514 12.5093 89.3491C12.5251 88.7468 12.7018 88.1597 13.0212 87.6488L15.8477 83.1263C16.5199 82.0542 16.8759 80.8142 16.875 79.5488V40.7912C16.875 24.8211 29.738 11.821 45.5477 11.8126H45.5583C50.358 11.8065 55.0821 13.0093 59.2945 15.3099C56.0749 18.5043 53.8434 22.5583 52.8667 26.9873C51.89 31.4163 52.2094 36.0329 53.7868 40.2851C55.3642 44.5374 58.1328 48.2454 61.7616 50.966C65.3905 53.6865 69.726 55.3045 74.25 55.6264V79.5488C74.249 80.8142 74.6051 82.0542 75.2773 83.1263L78.1038 87.6488ZM75.9375 52.3126C71.9324 52.3126 68.0173 51.1249 64.6872 48.8998C61.3571 46.6747 58.7616 43.5121 57.2289 39.8119C55.6963 36.1117 55.2952 32.0401 56.0766 28.112C56.8579 24.1839 58.7866 20.5757 61.6186 17.7436C64.4506 14.9116 68.0588 12.983 71.9869 12.2017C75.915 11.4203 79.9866 11.8213 83.6868 13.354C87.387 14.8867 90.5496 17.4822 92.7747 20.8123C94.9998 24.1424 96.1875 28.0575 96.1875 32.0626C96.1811 37.4312 94.0455 42.5782 90.2493 46.3744C86.4531 50.1706 81.3062 52.3061 75.9375 52.3126Z" fill="black"/>
</svg>
