<svg width="24" height="24" viewBox="0 0 24 24" fill="none" xmlns="http://www.w3.org/2000/svg">
<g clip-path="url(#clip0)">
<path d="M6.66666 22V24H24V17.794C23.9977 14.6926 21.9861 11.8829 18.8638 10.6194C21.8027 8.85066 22.6046 5.25612 20.6547 2.59044C18.7047 -0.0752436 14.7417 -0.802214 11.8028 0.966534C8.86392 2.73528 8.06203 6.32977 10.012 8.99546C10.4832 9.64007 11.0921 10.192 11.8028 10.6198C9.95476 11.3674 8.88348 12.4289 8 14" stroke="#192A3E" stroke-width="1.33333"/>
<path d="M21.0528 5.79521C21.0528 8.56632 18.5549 10.9208 15.3335 10.9208C12.1122 10.9208 9.61426 8.56627 9.61426 5.79521C9.61426 3.02414 12.1121 0.669596 15.3335 0.669596C18.5549 0.669596 21.0528 3.0241 21.0528 5.79521Z" stroke="#192A3E" stroke-width="1.33333"/>
<path d="M10.3889 17.2381H11.0556V16.5714V16.0313L13.582 18L11.0556 19.9687V19.4286V18.7619H10.3889H4.27778H3.61111V19.4286V19.9687L1.08463 18L3.61111 16.0313V16.5714V17.2381H4.27778H10.3889Z" fill="#192A3E" stroke="#192A3E" stroke-width="1.33333"/>
</g>
<defs>
<clipPath id="clip0">
<rect width="24" height="24" fill="white"/>
</clipPath>
</defs>
</svg>
