<?xml version="1.0" encoding="UTF-8"?>
<svg xmlns="http://www.w3.org/2000/svg" xmlns:xlink="http://www.w3.org/1999/xlink" width="117px" height="108px" viewBox="0 0 117 108" version="1.1">
<defs>
<clipPath id="clip1">
  <path d="M 0 0 L 117 0 L 117 107.09375 L 0 107.09375 Z M 0 0 "/>
</clipPath>
</defs>
<g id="surface1">
<g clip-path="url(#clip1)" clip-rule="nonzero">
<path style=" stroke:none;fill-rule:nonzero;fill:rgb(20%,20%,20%);fill-opacity:1;" d="M 0.03125 48.453125 C 0.03125 38.789062 0.046875 29.121094 0 19.441406 C 0 18.351562 0.335938 17.855469 1.347656 17.4375 C 15.5 11.699219 29.632812 5.898438 43.804688 0.160156 C 44.445312 -0.09375 45.40625 -0.046875 46.046875 0.242188 C 60.117188 6.605469 74.144531 13.046875 88.214844 19.425781 C 89.320312 19.921875 89.671875 20.515625 89.671875 21.703125 C 89.625 29.988281 89.671875 38.289062 89.609375 46.578125 C 89.59375 48.164062 89.882812 48.773438 91.691406 48.996094 C 104.273438 50.550781 114.355469 60.230469 116.535156 72.652344 C 119.164062 87.605469 110.445312 101.679688 95.890625 105.941406 C 83.292969 109.628906 69.511719 104.210938 62.859375 92.847656 C 62.042969 91.453125 61.351562 91.355469 60.007812 91.886719 C 55.472656 93.648438 50.886719 95.347656 46.289062 96.949219 C 45.46875 97.238281 44.347656 97.222656 43.546875 96.902344 C 29.492188 91.214844 15.449219 85.441406 1.378906 79.738281 C 0.289062 79.289062 0 78.726562 0 77.605469 C 0.046875 67.894531 0.03125 58.179688 0.03125 48.453125 Z M 3.863281 22.039062 C 3.796875 22.648438 3.71875 22.984375 3.71875 23.335938 C 3.71875 40.582031 3.71875 57.828125 3.671875 75.074219 C 3.671875 76.195312 4.007812 76.789062 5.082031 77.222656 C 16.316406 81.789062 27.550781 86.40625 38.769531 91.003906 C 40.117188 91.550781 41.480469 92.0625 43.066406 92.6875 C 43.066406 91.871094 43.066406 91.324219 43.066406 90.78125 C 43.066406 73.792969 43.050781 56.785156 43.097656 39.796875 C 43.097656 38.449219 42.648438 37.859375 41.429688 37.375 C 33.191406 34.074219 24.96875 30.675781 16.75 27.3125 C 12.535156 25.582031 8.300781 23.851562 3.863281 22.039062 Z M 113.363281 78.007812 C 113.425781 64.046875 102.207031 52.652344 88.503906 52.363281 C 74.191406 52.058594 62.316406 63.710938 62.363281 77.8125 C 62.425781 91.949219 73.613281 103.488281 87.703125 103.457031 C 103.25 103.441406 113.554688 90.84375 113.363281 78.007812 Z M 86.097656 23.816406 C 85.347656 24.042969 84.914062 24.152344 84.496094 24.296875 C 72.394531 28.722656 60.296875 33.179688 48.164062 37.570312 C 46.914062 38.019531 46.609375 38.691406 46.625 39.925781 C 46.65625 56.867188 46.65625 73.808594 46.65625 90.765625 C 46.65625 91.355469 46.65625 91.933594 46.65625 92.863281 C 51.433594 91.148438 55.871094 89.546875 60.328125 87.941406 C 60.214844 87.382812 60.167969 87.046875 60.054688 86.710938 C 58.582031 81.964844 58.355469 77.15625 59.238281 72.253906 C 61.367188 60.265625 72.25 50.054688 84.304688 48.980469 C 85.792969 48.851562 86.132812 48.355469 86.132812 46.960938 C 86.066406 39.84375 86.097656 32.714844 86.097656 25.597656 C 86.097656 25.082031 86.097656 24.585938 86.097656 23.816406 Z M 29.007812 10.371094 C 29.585938 10.691406 29.957031 10.933594 30.339844 11.09375 C 41.992188 16.269531 53.644531 21.445312 65.3125 26.558594 C 66.015625 26.863281 67.027344 26.863281 67.765625 26.605469 C 72.378906 25.035156 76.949219 23.351562 81.53125 21.6875 C 81.933594 21.542969 82.316406 21.316406 82.910156 21.027344 C 82.378906 20.722656 82.058594 20.5 81.707031 20.339844 C 69.785156 14.953125 57.859375 9.539062 45.902344 4.183594 C 45.308594 3.910156 44.394531 3.945312 43.769531 4.183594 C 39.234375 5.964844 34.730469 7.839844 30.226562 9.699219 C 29.875 9.839844 29.554688 10.066406 29.007812 10.371094 Z M 6.941406 19.265625 C 7.550781 19.570312 7.773438 19.699219 7.996094 19.792969 C 19.96875 24.699219 31.941406 29.605469 43.929688 34.460938 C 44.554688 34.714844 45.4375 34.699219 46.078125 34.476562 C 50.726562 32.855469 55.34375 31.15625 59.957031 29.460938 C 60.34375 29.316406 60.710938 29.105469 61.222656 28.867188 C 60.902344 28.65625 60.792969 28.5625 60.648438 28.511719 C 48.722656 23.226562 36.816406 17.9375 24.875 12.695312 C 24.3125 12.453125 23.464844 12.484375 22.871094 12.726562 C 18.671875 14.378906 14.503906 16.125 10.320312 17.839844 C 9.3125 18.273438 8.300781 18.703125 6.941406 19.265625 Z M 6.941406 19.265625 "/>
</g>
<path style=" stroke:none;fill-rule:nonzero;fill:rgb(20%,20%,20%);fill-opacity:1;" d="M 89.636719 85.570312 C 88.691406 85.570312 87.957031 85.554688 87.203125 85.570312 C 86.335938 85.601562 86.160156 85.15625 86.0625 84.351562 C 85.550781 79.945312 86.546875 76.082031 89.941406 73.039062 C 90.167969 72.828125 90.375 72.605469 90.550781 72.347656 C 91.242188 71.339844 92.730469 70.570312 92.105469 69.128906 C 91.402344 67.539062 89.992188 66.515625 88.242188 66.179688 C 86.242188 65.808594 84.269531 66.179688 82.957031 67.796875 C 81.882812 69.109375 81.03125 68.902344 79.941406 68.054688 C 79.589844 67.78125 79.203125 67.554688 78.753906 67.253906 C 80.855469 64.144531 83.644531 62.316406 87.316406 62.429688 C 91.210938 62.539062 93.949219 64.75 95.695312 68.148438 C 96.546875 69.800781 96.082031 71.46875 95.007812 72.878906 C 93.964844 74.257812 92.828125 75.554688 91.609375 76.789062 C 90.136719 78.292969 89.367188 79.976562 89.605469 82.125 C 89.734375 83.183594 89.636719 84.257812 89.636719 85.570312 Z M 89.636719 85.570312 "/>
<path style=" stroke:none;fill-rule:nonzero;fill:rgb(20%,20%,20%);fill-opacity:1;" d="M 86.195312 89.898438 C 87.335938 89.898438 88.378906 89.898438 89.53125 89.898438 C 89.53125 91.003906 89.53125 92.046875 89.53125 93.230469 C 88.457031 93.230469 87.382812 93.230469 86.195312 93.230469 C 86.195312 92.171875 86.195312 91.132812 86.195312 89.898438 Z M 86.195312 89.898438 "/>
</g>
</svg>
