<svg width="21" height="21" viewBox="0 0 21 21" fill="none" xmlns="http://www.w3.org/2000/svg">
<path fill-rule="evenodd" clip-rule="evenodd" d="M0.610188 0.610188C1.42379 -0.203396 2.74288 -0.203396 3.55648 0.610188L10.4167 7.47042L17.2769 0.610188C18.0904 -0.203396 19.4096 -0.203396 20.2231 0.610188C21.0367 1.42379 21.0367 2.74288 20.2231 3.55648L13.3629 10.4167L20.2231 17.2769C21.0367 18.0904 21.0367 19.4096 20.2231 20.2231C19.4096 21.0367 18.0904 21.0367 17.2769 20.2231L10.4167 13.3629L3.55648 20.2231C2.74288 21.0367 1.42379 21.0367 0.610188 20.2231C-0.203396 19.4096 -0.203396 18.0904 0.610188 17.2769L7.47042 10.4167L0.610188 3.55648C-0.203396 2.74288 -0.203396 1.42379 0.610188 0.610188Z" fill="black" fill-opacity="0.6"/>
</svg>
