<svg width="108" height="108" viewBox="0 0 108 108" fill="none" xmlns="http://www.w3.org/2000/svg">
<g clip-path="url(#clip0)">
<path d="M86.0477 47.971V0.501221H54.1172C53.9999 0.752384 53.9999 1.00355 53.9999 1.25471V16.9524H32.6346V1.25471C32.6346 1.00355 32.6346 0.752384 32.5172 0.501221H0.234619V89.5384H53.0607C53.0607 90.7942 54.1172 91.9245 55.2912 91.9245H55.7607C57.8738 96.1942 61.0433 99.8361 64.7999 102.599C68.5564 105.362 73.0173 106.994 77.4781 107.497C82.0564 107.999 86.6346 107.245 90.8607 105.487C95.0868 103.604 98.8433 100.715 101.778 96.9477C104.713 93.1803 106.709 88.7849 107.648 83.8873C108.587 79.1152 108.469 74.0919 107.178 69.4454C105.887 64.7989 103.656 60.4035 100.487 56.8873C97.3173 53.371 93.326 50.7338 89.0999 49.2268L86.0477 47.971ZM27.939 84.3896H4.69549V5.02215H27.939V84.3896ZM53.9999 67.6873C52.1216 73.0873 51.8868 78.864 53.0607 84.3896H32.6346V22.6035H53.9999V67.6873ZM58.8129 5.02215H81.939V47.971H80.2955C73.1346 47.971 63.9781 52.3663 58.8129 57.7663V5.02215ZM100.839 82.1291C100.017 86.5245 98.0216 90.4175 95.0868 93.557C92.152 96.6966 88.3955 98.8315 84.4042 99.7105C80.2955 100.59 76.1868 100.087 72.3129 98.4547C68.5564 96.8222 65.2694 93.9338 62.9216 90.2919C60.5738 86.6501 59.3998 82.2547 59.3998 77.8594C59.3998 71.957 61.6303 66.1803 65.5042 62.0361C69.3781 57.8919 74.7781 55.5059 80.2955 55.5059C84.4042 55.5059 88.5129 56.7617 91.9173 59.2733C95.3216 61.7849 98.0216 65.1756 99.5477 69.3198C101.191 73.3384 101.661 77.7338 100.839 82.1291Z" fill="#192A3E"/>
<path d="M22.5392 68.0645H7.86523V75.5993H22.5392V68.0645Z" fill="#192A3E"/>
<path d="M22.5392 13.8126H7.86523V21.3475H22.5392V13.8126Z" fill="#192A3E"/>
<path d="M50.713 68.0645H36.0391V75.5993H50.713V68.0645Z" fill="#192A3E"/>
<path d="M50.713 31.3947H36.0391V38.9296H50.713V31.3947Z" fill="#192A3E"/>
<path d="M78.887 13.8126H64.2131V21.3475H78.887V13.8126Z" fill="#192A3E"/>
<path d="M96.1436 70.5758L91.2132 65.3014L76.6567 80.8735L68.5567 72.2084L63.6262 77.4828L76.6567 91.4223L96.1436 70.5758Z" fill="#192A3E"/>
</g>
<defs>
<clipPath id="clip0">
<rect width="108" height="108" fill="white"/>
</clipPath>
</defs>
</svg>
