<svg width="14" height="14" viewBox="0 0 14 14" fill="none" xmlns="http://www.w3.org/2000/svg">
<path fill-rule="evenodd" clip-rule="evenodd" d="M7 14C10.866 14 14 10.866 14 7C14 3.13401 10.866 0 7 0C3.13401 0 0 3.13401 0 7C0 10.866 3.13401 14 7 14ZM4.08134 9.66591L7.55761 4.72981L9.22502 5.9041L5.74876 10.8402L4.09849 11.4086L4.08134 9.66591ZM9.48935 5.52799L7.82193 4.35371L8.63389 3.20078C8.96968 2.72398 9.61257 2.59207 10.0656 2.91114C10.5335 3.24068 10.6316 3.90608 10.2848 4.39852L9.48935 5.52799Z" fill="#F2994A"/>
</svg>
