<svg width="72" height="72" viewBox="0 0 72 72" fill="none" xmlns="http://www.w3.org/2000/svg">
<g clip-path="url(#clip0)">
<path d="M26.1597 62.7092C26.9361 62.7092 27.5655 62.0798 27.5655 61.3035C27.5655 60.5271 26.9361 59.8977 26.1597 59.8977C25.3833 59.8977 24.754 60.5271 24.754 61.3035C24.754 62.0798 25.3833 62.7092 26.1597 62.7092Z" fill="black"/>
<path d="M12.5139 62.2975C12.7776 62.5611 13.1351 62.7092 13.5079 62.7092H19.8338C20.6101 62.7092 21.2396 62.0797 21.2396 61.3035C21.2396 60.5272 20.6101 59.8977 19.8338 59.8977H14.0903L12.4251 58.2325L17.1449 50.0574H36.8969L32.2887 53.8975C31.9682 54.1646 31.7827 54.5603 31.7827 54.9776C31.7827 55.3948 31.968 55.7904 32.2887 56.0576L36.8969 59.8977H32.4856C31.7094 59.8977 31.0799 60.5272 31.0799 61.3035C31.0799 62.0797 31.7094 62.7092 32.4856 62.7092H40.2705L44.9403 66.6008C45.356 66.9473 45.9391 67.0269 46.4365 66.7938C46.9306 66.5624 47.2461 66.0662 47.2461 65.5207V62.7092H58.4921C58.8649 62.7092 59.2224 62.5611 59.4861 62.2975L71.5883 50.1953C72.0383 49.7452 72.1299 49.0489 71.8114 48.4979C55.3443 19.9802 60.8137 29.452 59.3862 26.9797L60.4214 20.9895C60.5143 20.4519 60.288 19.9092 59.8405 19.5972C59.3932 19.2852 58.8059 19.26 58.3333 19.5327L55.8985 20.9385L47.1448 5.77612C46.8938 5.34118 46.4296 5.07324 45.9275 5.07324C43.8973 5.07324 29.7607 5.07324 26.0726 5.07324C25.5704 5.07324 25.1062 5.34118 24.8552 5.77612L13.966 24.6367L8.25994 26.7352C7.74796 26.9235 7.39118 27.3909 7.34451 27.9343C7.29798 28.4777 7.56999 28.9991 8.04233 29.2719L10.477 30.6777L0.188367 48.4984C-0.129755 49.0495 -0.0381001 49.7455 0.411742 50.1953C1.45116 51.2349 11.0937 60.8772 12.5139 62.2975ZM18.7681 47.2459L23.8697 38.4095L26.3045 39.8152C26.777 40.0878 27.3644 40.0629 27.8118 39.7507C28.2592 39.4386 28.4855 38.8959 28.3926 38.3584L27.3574 32.3682L36 17.3989L42.5073 28.6703L40.0725 30.076C39.6001 30.3487 39.3281 30.87 39.3747 31.4136C39.4213 31.9569 39.7781 32.4243 40.29 32.6127L45.9946 34.7109L53.2319 47.2461H47.2462V44.4345C47.2462 43.8891 46.9307 43.3929 46.4366 43.1615C45.9425 42.9301 45.3592 43.0056 44.9405 43.3545L40.2707 47.2461H18.7681V47.2459ZM57.9097 59.8977H45.8403C45.064 59.8977 44.4345 60.5272 44.4345 61.3035V62.5193L35.3843 54.9776L44.4345 47.4358V48.6517C44.4345 49.4279 45.064 50.0574 45.8403 50.0574H67.75L57.9097 59.8977ZM67.8416 47.2459H56.4782L50.1163 36.2269L55.7465 38.2977C56.1344 38.4404 56.5699 38.4062 56.9345 38.1957C57.2958 37.987 57.5459 37.6287 57.6169 37.2177L58.6383 31.307L67.8416 47.2459ZM45.1159 7.88475L54.1666 23.5617C54.5558 24.2358 55.4173 24.4634 56.0869 24.0763L57.1399 23.4683C56.942 24.614 55.3713 33.7015 55.1338 35.0767L44.0773 31.0103L45.1305 30.4021C45.8029 30.0139 46.0333 29.1543 45.645 28.4819L33.7536 7.88475H45.1159ZM26.8841 7.88475H30.5072L34.3768 14.5873L26.6094 28.0405L25.588 22.1301C25.517 21.7191 25.2671 21.3608 24.9056 21.1521C24.5444 20.9434 24.109 20.9063 23.7176 21.0501L18.0874 23.1208L26.8841 7.88475ZM13.6147 30.8661C14.003 30.1937 13.7726 29.3341 13.1002 28.9458L12.0473 28.3378L23.105 24.2712C23.3045 25.4251 24.8629 34.4427 25.1112 35.8797L24.0581 35.2717C23.3848 34.8829 22.5253 35.1152 22.1378 35.7862L10.3669 56.1744L3.16253 48.9701L13.6147 30.8661Z" fill="black"/>
</g>
<defs>
<clipPath id="clip0">
<rect width="72" height="72" fill="white"/>
</clipPath>
</defs>
</svg>
