<svg width="56" height="56" viewBox="0 0 56 56" fill="none" xmlns="http://www.w3.org/2000/svg">
<g clip-path="url(#clip0_1710_37835)">
<path d="M40.3795 46.2712C40.3795 48.3149 40.3795 50.3098 40.3795 52.3023C40.3795 53.2893 40.0886 54.1691 39.3838 54.893C38.6814 55.6146 37.8206 55.9941 36.8084 55.9941C28.1526 55.9987 19.4968 56.001 10.8411 55.9917C8.92545 55.9894 7.40477 54.516 7.32673 52.6259C7.30071 52.03 7.322 51.4317 7.322 50.7567C6.69765 50.7567 6.13479 50.7427 5.57429 50.759C2.21131 50.8545 -0.0141223 48.1706 6.74628e-05 45.2936C0.0615565 32.0093 0.0260821 18.7274 0.0260821 5.44322C0.0260821 2.23098 2.28462 0.00568995 5.54828 0.00568995C16.7819 0.00103454 28.0154 0.00336224 39.249 0.00103454C39.3082 0.00103454 39.3673 -0.00129317 39.4264 0.00103454C40.0957 0.0173285 40.4362 0.31062 40.441 0.871597C40.4457 1.4349 40.1099 1.74216 39.4406 1.74449C36.7256 1.75147 34.0106 1.75147 31.2956 1.75147C22.6801 1.75147 14.0621 1.74914 5.44658 1.74914C3.32521 1.74914 1.79744 3.25517 1.79981 5.33149C1.79981 6.91898 1.79981 8.50648 1.79981 10.094C1.79981 10.3011 1.79981 10.5083 1.79981 10.7481C19.2887 10.7481 36.7091 10.7481 54.1247 10.7481C54.1554 10.7108 54.198 10.6829 54.198 10.6526C54.2051 8.69735 54.2807 6.73975 54.1885 4.78913C54.1081 3.07826 52.5378 1.76544 50.7522 1.75147C48.9028 1.7375 47.0534 1.74914 45.204 1.74682C44.4827 1.74682 44.1114 1.46051 44.0948 0.908841C44.0783 0.324586 44.4614 0.00568995 45.2016 0.00568995C47.0108 0.00103454 48.8224 -0.00129317 50.6316 0.00568995C53.6848 0.0150008 55.993 2.28917 55.9953 5.30821C56.0001 16.3462 55.9977 27.3819 55.9977 38.4199C55.9977 40.7825 55.9977 43.1451 55.9977 45.5077C55.9977 48.4104 53.7605 50.7032 50.8255 50.7521C48.5835 50.7893 46.3392 50.766 44.0972 50.759C43.3593 50.7567 42.9384 50.347 43.0401 49.7511C43.137 49.1925 43.5154 49.0086 44.0617 49.0133C46.1665 49.0226 48.2737 48.9714 50.3762 49.0272C52.7884 49.0901 54.2595 47.3047 54.2476 45.2354C54.1956 34.6047 54.224 23.9741 54.224 13.3435C54.224 13.0967 54.224 12.8477 54.224 12.566C36.7351 12.566 19.2982 12.566 1.79508 12.566C1.79508 13.3947 1.79508 14.2024 1.79508 15.0101C1.79508 25.117 1.79508 35.2262 1.79508 45.3331C1.79508 47.591 3.25899 49.0179 5.5672 49.0133C6.11587 49.0133 6.66454 49.0133 7.31017 49.0133C7.31017 48.6711 7.31017 48.3685 7.31017 48.0659C7.31017 38.5199 7.31254 28.974 7.30781 19.4281C7.30781 17.0608 8.70787 15.6735 11.1036 15.6758C16.8481 15.6805 22.5926 15.6828 28.3371 15.6665C28.8763 15.6642 29.2618 15.8341 29.6331 16.2065C32.9913 19.584 36.3567 22.9522 39.7315 26.3134C40.0626 26.644 40.2021 26.9931 40.1879 27.4517C40.1619 28.278 40.1808 29.1044 40.1808 29.8888C41.1859 29.9563 42.1366 29.9377 43.0543 30.0983C48.2312 30.9968 51.282 36.6787 49.1488 41.397C48.8886 41.9743 48.4369 42.1977 47.9379 41.9952C47.4696 41.8043 47.3088 41.3411 47.5169 40.7708C47.543 40.6987 47.5808 40.6288 47.6092 40.5567C49.1488 36.7672 46.8737 32.6192 42.8059 31.8045C39.3365 31.1085 35.8458 33.3245 35.1056 36.6927C34.337 40.1819 36.4584 43.5431 39.9632 44.3765C41.8599 44.828 43.6289 44.5254 45.2537 43.457C45.6415 43.201 46.0247 43.045 46.4314 43.3942C46.9541 43.8411 46.9139 44.4672 46.3274 44.849C44.7925 45.8499 43.1134 46.362 41.2616 46.2735C40.992 46.2619 40.72 46.2712 40.3795 46.2712ZM38.6672 27.9009C36.2668 27.9009 33.9681 27.894 31.6693 27.9033C29.3777 27.9103 27.9161 26.4834 27.9137 24.2115C27.9114 22.1212 27.9137 20.031 27.9114 17.9384C27.9114 17.7498 27.8948 17.5636 27.8854 17.3564C27.7742 17.3401 27.6985 17.3215 27.6252 17.3215C22.0392 17.3192 16.4531 17.3145 10.8671 17.3238C9.75555 17.3262 9.09809 18.0105 9.09572 19.1325C9.09099 30.2077 9.09099 41.2806 9.09572 52.3558C9.09572 53.5593 9.82886 54.2529 11.0539 54.2529C19.5702 54.2529 28.0888 54.2553 36.605 54.2529C37.9861 54.2529 38.6649 53.5872 38.6672 52.2255C38.672 50.2306 38.6554 48.2358 38.6791 46.2433C38.6838 45.808 38.5348 45.6101 38.1422 45.4239C34.583 43.734 32.7099 39.9934 33.5518 36.2202C34.1431 33.5736 35.7512 31.6974 38.1895 30.4777C38.374 30.3869 38.6318 30.2054 38.6436 30.0517C38.6933 29.3604 38.6672 28.6644 38.6672 27.9009ZM29.6354 18.7484C29.6354 20.7805 29.6071 22.7707 29.6496 24.7609C29.6686 25.6407 30.4135 26.2436 31.3642 26.2506C33.2326 26.2622 35.1009 26.2553 36.9668 26.2506C37.0472 26.2506 37.13 26.211 37.2104 26.1901C34.6823 23.7087 32.1825 21.2507 29.6354 18.7484Z" fill="#2D2D2D"/>
<path d="M10.5712 6.25775C10.5405 7.78007 9.40291 8.85548 7.84676 8.8322C6.43251 8.81125 5.24294 7.61015 5.25003 6.20654C5.25713 4.75638 6.48927 3.58089 7.98866 3.60184C9.47859 3.62279 10.6019 4.775 10.5712 6.25775ZM7.80656 7.08875C8.30084 7.09806 8.71707 6.707 8.72417 6.23215C8.7289 5.79687 8.27955 5.36857 7.80419 5.35227C7.32647 5.33831 6.97646 5.68514 6.96463 6.19025C6.95044 6.72562 7.28154 7.07943 7.80656 7.08875Z" fill="#2D2D2D"/>
<path d="M12.6492 6.14481C12.6847 4.68069 13.9145 3.5564 15.4304 3.60296C16.8754 3.64718 17.9917 4.81569 17.968 6.26353C17.9444 7.74628 16.7454 8.87056 15.22 8.83797C13.7679 8.80538 12.6138 7.59963 12.6492 6.14481ZM15.1561 5.35339C14.6855 5.35572 14.3236 5.73048 14.3213 6.21465C14.3189 6.71976 14.6949 7.09219 15.2058 7.08986C15.7024 7.08754 16.0974 6.69183 16.0903 6.20533C16.0808 5.75143 15.6409 5.35107 15.1561 5.35339Z" fill="#2D2D2D"/>
<path d="M25.3314 6.17396C25.3432 7.64508 24.2009 8.81591 22.7323 8.83221C21.2424 8.85083 19.9984 7.65672 20.0079 6.21586C20.0173 4.85881 21.2991 3.6228 22.7205 3.60185C24.1655 3.5809 25.3196 4.71915 25.3314 6.17396ZM23.5529 6.21819C23.5459 5.78058 23.0776 5.34763 22.6117 5.34996C22.1529 5.35228 21.7769 5.75731 21.7863 6.23681C21.7981 6.74193 22.1955 7.10738 22.7087 7.08643C23.1887 7.06548 23.5624 6.68141 23.5529 6.21819Z" fill="#2D2D2D"/>
<path d="M40.4172 39.0583C41.7251 37.8037 42.9454 36.6305 44.1728 35.4597C44.7569 34.9033 45.1188 34.8614 45.5279 35.2828C45.9181 35.6831 45.8685 36.1463 45.36 36.6491C43.9883 38.0062 42.6143 39.3609 41.2355 40.711C40.6608 41.2743 40.2588 41.272 39.6794 40.7063C38.9935 40.0406 38.3124 39.3725 37.6384 38.6975C37.1678 38.2273 37.137 37.7641 37.5272 37.3754C37.9198 36.9843 38.3976 37.0053 38.8705 37.4685C39.3814 37.9736 39.8733 38.4973 40.4172 39.0583Z" fill="#2D2D2D"/>
<path d="M23.001 50.8366C19.8154 50.8366 16.6298 50.8389 13.4418 50.8366C12.3113 50.8366 12.0961 50.6201 12.0961 49.5145C12.0961 47.6756 12.0938 45.8367 12.0938 43.9978C12.0938 43.0551 12.3728 42.7734 13.3117 42.7734C19.742 42.7734 26.1748 42.7734 32.6051 42.7758C33.5227 42.7758 33.7947 43.0504 33.7947 43.9559C33.7947 45.8134 33.7947 47.6733 33.7947 49.5308C33.7947 50.6295 33.5818 50.8366 32.4395 50.8389C29.2965 50.8389 26.1487 50.8366 23.001 50.8366ZM31.9926 44.5565C25.9477 44.5565 19.9431 44.5565 13.9053 44.5565C13.9053 46.0695 13.9053 47.5476 13.9053 49.0489C19.9478 49.0489 25.9548 49.0489 31.9926 49.0489C31.9926 47.5499 31.9926 46.0858 31.9926 44.5565Z" fill="#2D2D2D"/>
<path d="M13.8676 26.8928C13.8676 27.6889 13.8747 28.4408 13.8653 29.1903C13.8558 29.8164 13.5626 30.1633 13.047 30.1912C12.548 30.2191 12.0395 29.8141 12.0348 29.2578C12.023 27.228 11.9733 25.1913 12.1034 23.1662C12.2003 21.6764 13.7447 20.601 15.3576 20.6755C16.8002 20.7407 18.1671 22.0163 18.2026 23.4455C18.2546 25.3984 18.2263 27.3537 18.2168 29.309C18.2144 29.8513 17.8455 30.1982 17.3394 30.1958C16.8262 30.1935 16.4738 29.8607 16.4573 29.3043C16.436 28.5152 16.4525 27.7238 16.4525 26.8928C15.5941 26.8928 14.7781 26.8928 13.8676 26.8928ZM16.5495 25.0772C16.5495 24.5907 16.585 24.1298 16.54 23.6759C16.4786 23.0312 15.9204 22.5423 15.2819 22.5051C14.6339 22.4679 14.0639 22.8054 14.0001 23.3617C13.9362 23.925 13.9859 24.5023 13.9859 25.0772C14.8657 25.0772 15.6792 25.0772 16.5495 25.0772Z" fill="#2D2D2D"/>
<path d="M25.7751 35.432C27.4447 35.432 29.1168 35.4343 30.7864 35.4297C31.2854 35.4297 31.6899 35.5624 31.7986 36.1047C31.9334 36.7704 31.5527 37.1755 30.7888 37.1778C28.4901 37.1824 26.1913 37.1778 23.8902 37.1778C22.8283 37.1778 21.7688 37.1848 20.707 37.1778C20.0235 37.1731 19.638 36.831 19.6569 36.277C19.6758 35.7416 20.0471 35.4343 20.707 35.432C22.3932 35.4297 24.0841 35.432 25.7751 35.432Z" fill="#2D2D2D"/>
<path d="M22.3387 25.1027C22.3387 24.558 22.3245 24.0971 22.3411 23.6362C22.3623 23.0566 22.6651 22.7656 23.2114 22.7656C23.7364 22.7633 24.0651 23.0776 24.103 23.6339C24.1195 23.8643 24.1101 24.0971 24.1101 24.3299C24.1101 24.537 24.1101 24.7465 24.1101 25.0189C24.5925 25.0189 25.0182 25.0072 25.4439 25.0212C26.1652 25.0421 26.4916 25.3331 26.4845 25.922C26.475 26.49 26.1676 26.746 25.4628 26.767C25.0702 26.7786 24.6776 26.7786 24.2874 26.7856C24.252 26.7856 24.2165 26.8135 24.1077 26.8554C24.1077 27.2814 24.1195 27.7399 24.1053 28.1962C24.0864 28.7944 23.7482 29.1412 23.2161 29.1412C22.6911 29.1412 22.3529 28.7851 22.3387 28.1962C22.3292 27.7539 22.3363 27.3093 22.3363 26.767C22.0383 26.767 21.7735 26.767 21.5062 26.767C20.2504 26.767 19.9193 26.597 19.9383 25.9616C19.9572 25.2935 20.3166 25.1027 21.5559 25.1027C21.7924 25.1027 22.0242 25.1027 22.3387 25.1027Z" fill="#2D2D2D"/>
<path d="M14.9825 37.1844C14.3345 37.1844 13.6865 37.1961 13.0385 37.1821C12.4449 37.1682 12.0878 36.8143 12.102 36.2929C12.1162 35.7901 12.4591 35.455 13.0267 35.448C14.344 35.434 15.6589 35.434 16.9762 35.448C17.5438 35.455 17.8678 35.7901 17.8701 36.3092C17.8725 36.833 17.5556 37.1658 16.988 37.1798C16.3187 37.1961 15.6494 37.1821 14.9825 37.1844Z" fill="#2D2D2D"/>
</g>
<defs>
<clipPath id="clip0_1710_37835">
<rect width="56" height="56" fill="white"/>
</clipPath>
</defs>
</svg>
