<svg width="24" height="24" viewBox="0 0 24 24" fill="none" xmlns="http://www.w3.org/2000/svg">
<path d="M19.1218 10.6602V0.111328H12.0262C12.0001 0.167142 12.0001 0.222956 12.0001 0.27877V3.76714H7.25225V0.27877C7.25225 0.222956 7.25225 0.167142 7.22616 0.111328H0.0522461V19.8974H11.7914C11.7914 20.1764 12.0262 20.4276 12.287 20.4276H12.3914C12.8609 21.3764 13.5653 22.1857 14.4001 22.7997C15.2349 23.4137 16.2262 23.7764 17.2175 23.8881C18.2349 23.9997 19.2523 23.8323 20.1914 23.4416C21.1305 23.023 21.9653 22.3811 22.6175 21.5439C23.2696 20.7067 23.7131 19.7299 23.9218 18.6416C24.1305 17.5811 24.1044 16.4648 23.8175 15.4323C23.5305 14.3997 23.0349 13.423 22.3305 12.6416C21.6262 11.8602 20.7392 11.2741 19.8001 10.9392L19.1218 10.6602ZM6.20877 18.7532H1.04355V1.11598H6.20877V18.7532ZM12.0001 15.0416C11.5827 16.2416 11.5305 17.5253 11.7914 18.7532H7.25225V5.02296H12.0001V15.0416ZM13.0696 1.11598H18.2088V10.6602H17.8436C16.2523 10.6602 14.2175 11.6369 13.0696 12.8369V1.11598V1.11598ZM22.4088 18.2509C22.2262 19.2276 21.7827 20.0927 21.1305 20.7904C20.4783 21.4881 19.6436 21.9625 18.7566 22.1578C17.8436 22.3532 16.9305 22.2416 16.0696 21.8788C15.2349 21.516 14.5044 20.8741 13.9827 20.0648C13.4609 19.2555 13.2001 18.2788 13.2001 17.302C13.2001 15.9904 13.6957 14.7067 14.5566 13.7857C15.4175 12.8648 16.6175 12.3346 17.8436 12.3346C18.7566 12.3346 19.6696 12.6137 20.4262 13.1718C21.1827 13.7299 21.7827 14.4834 22.1218 15.4044C22.487 16.2974 22.5914 17.2741 22.4088 18.2509Z" fill="#192A3E"/>
<path d="M5.00867 15.125H1.7478V16.7994H5.00867V15.125Z" fill="#192A3E"/>
<path d="M5.00867 3.06836H1.7478V4.74278H5.00867V3.06836Z" fill="#192A3E"/>
<path d="M11.2697 15.125H8.00879V16.7994H11.2697V15.125Z" fill="#192A3E"/>
<path d="M11.2697 6.97656H8.00879V8.65098H11.2697V6.97656Z" fill="#192A3E"/>
<path d="M17.5304 3.06836H14.2695V4.74278H17.5304V3.06836Z" fill="#192A3E"/>
<path d="M21.3652 15.6838L20.2696 14.5117L17.0348 17.9722L15.2348 16.0466L14.1392 17.2187L17.0348 20.3164L21.3652 15.6838Z" fill="#192A3E"/>
</svg>
