<svg width="33" height="33" viewBox="0 0 33 33" fill="none" xmlns="http://www.w3.org/2000/svg">
<path d="M25.4375 27.5C25.4375 27.6823 25.3651 27.8572 25.2361 27.9861C25.1072 28.1151 24.9323 28.1875 24.75 28.1875H16.8685C16.4748 28.9419 15.9757 29.6364 15.3862 30.25H24.75C25.4793 30.25 26.1788 29.9603 26.6945 29.4445C27.2103 28.9288 27.5 28.2293 27.5 27.5V13.5135C27.4998 12.7842 27.21 12.0849 26.6942 11.5693L18.6794 3.55575C18.6581 3.53599 18.6356 3.51762 18.612 3.50075C18.595 3.48762 18.5785 3.47386 18.5625 3.4595C18.4679 3.37022 18.3673 3.28753 18.2614 3.212C18.2262 3.18929 18.1894 3.16907 18.1514 3.1515L18.0854 3.1185L18.0166 3.07863C17.9424 3.036 17.8668 2.992 17.7884 2.959C17.5146 2.84964 17.2248 2.78555 16.9304 2.76925C16.9032 2.76748 16.8761 2.76427 16.8492 2.75962C16.8119 2.75386 16.7743 2.75065 16.7365 2.75H8.25C7.52065 2.75 6.82118 3.03973 6.30546 3.55546C5.78973 4.07118 5.5 4.77065 5.5 5.5V15.8098C6.16153 15.5337 6.85408 15.3389 7.5625 15.2295V5.5C7.5625 5.31766 7.63493 5.1428 7.76386 5.01386C7.8928 4.88493 8.06766 4.8125 8.25 4.8125H16.5V11C16.5 11.7293 16.7897 12.4288 17.3055 12.9445C17.8212 13.4603 18.5207 13.75 19.25 13.75H25.4375V27.5ZM18.5625 6.35388L23.8948 11.6875H19.25C19.0677 11.6875 18.8928 11.6151 18.7639 11.4861C18.6349 11.3572 18.5625 11.1823 18.5625 11V6.35388Z" fill="black"/>
<path d="M16.5 24.0625C16.5 25.0556 16.3044 26.039 15.9243 26.9565C15.5443 27.8741 14.9872 28.7078 14.285 29.41C13.5828 30.1122 12.7491 30.6693 11.8315 31.0493C10.914 31.4294 9.93062 31.625 8.9375 31.625C7.94438 31.625 6.96098 31.4294 6.04346 31.0493C5.12593 30.6693 4.29225 30.1122 3.59001 29.41C2.88776 28.7078 2.33071 27.8741 1.95066 26.9565C1.57061 26.039 1.375 25.0556 1.375 24.0625C1.375 22.0568 2.17176 20.1332 3.59001 18.715C5.00825 17.2968 6.9318 16.5 8.9375 16.5C10.9432 16.5 12.8668 17.2968 14.285 18.715C15.7032 20.1332 16.5 22.0568 16.5 24.0625V24.0625ZM4.8125 23.375C4.63016 23.375 4.4553 23.4474 4.32636 23.5764C4.19743 23.7053 4.125 23.8802 4.125 24.0625C4.125 24.2448 4.19743 24.4197 4.32636 24.5486C4.4553 24.6776 4.63016 24.75 4.8125 24.75H11.4029L9.13825 27.0132C9.00916 27.1423 8.93663 27.3174 8.93663 27.5C8.93663 27.6826 9.00916 27.8577 9.13825 27.9868C9.26735 28.1158 9.44244 28.1884 9.625 28.1884C9.80757 28.1884 9.98266 28.1158 10.1118 27.9868L13.5493 24.5493C13.6133 24.4854 13.6641 24.4095 13.6987 24.326C13.7334 24.2425 13.7512 24.1529 13.7512 24.0625C13.7512 23.9721 13.7334 23.8825 13.6987 23.799C13.6641 23.7155 13.6133 23.6396 13.5493 23.5757L10.1118 20.1382C9.98266 20.0092 9.80757 19.9366 9.625 19.9366C9.44244 19.9366 9.26735 20.0092 9.13825 20.1382C9.00916 20.2673 8.93663 20.4424 8.93663 20.625C8.93663 20.8076 9.00916 20.9827 9.13825 21.1118L11.4029 23.375H4.8125Z" fill="black"/>
</svg>
