<svg width="108" height="108" viewBox="0 0 108 108" fill="none" xmlns="http://www.w3.org/2000/svg">
<path d="M83.25 90C83.25 90.5968 83.0129 91.1691 82.591 91.591C82.169 92.013 81.5967 92.25 81 92.25H55.206C53.9176 94.7189 52.2842 96.9917 50.355 99H81C83.3869 99 85.6761 98.0518 87.3639 96.364C89.0518 94.6762 90 92.387 90 90V44.226C89.9995 41.8393 89.0509 39.5504 87.363 37.863L61.1325 11.637C61.0629 11.5723 60.9893 11.5122 60.912 11.457C60.8563 11.414 60.8023 11.369 60.75 11.322C60.4404 11.0298 60.1111 10.7592 59.7645 10.512C59.6493 10.4377 59.529 10.3715 59.4045 10.314L59.1885 10.206L58.9635 10.0755C58.7205 9.936 58.473 9.792 58.2165 9.684C57.3204 9.32608 56.372 9.11634 55.4085 9.063C55.3195 9.05721 55.2309 9.04669 55.143 9.0315C55.0208 9.01264 54.8976 9.00211 54.774 9H27C24.6131 9 22.3239 9.94821 20.636 11.636C18.9482 13.3239 18 15.6131 18 18V51.741C20.165 50.8376 22.4315 50.1999 24.75 49.842V18C24.75 17.4033 24.9871 16.831 25.409 16.409C25.831 15.9871 26.4033 15.75 27 15.75H54V36C54 38.387 54.9482 40.6761 56.636 42.364C58.3239 44.0518 60.613 45 63 45H83.25V90ZM60.75 20.7945L78.201 38.25H63C62.4033 38.25 61.831 38.013 61.409 37.591C60.987 37.169 60.75 36.5967 60.75 36V20.7945Z" fill="black"/>
<path d="M54 78.75C54 82.0002 53.3598 85.2186 52.116 88.2214C50.8722 91.2242 49.0492 93.9526 46.7509 96.2509C44.4527 98.5491 41.7242 100.372 38.7214 101.616C35.7186 102.86 32.5002 103.5 29.25 103.5C25.9998 103.5 22.7814 102.86 19.7786 101.616C16.7758 100.372 14.0474 98.5491 11.7491 96.2509C9.45086 93.9526 7.62779 91.2242 6.38398 88.2214C5.14018 85.2186 4.5 82.0002 4.5 78.75C4.5 72.1859 7.10758 65.8906 11.7491 61.2491C16.3906 56.6076 22.6859 54 29.25 54C35.8141 54 42.1094 56.6076 46.7509 61.2491C51.3924 65.8906 54 72.1859 54 78.75V78.75ZM15.75 76.5C15.1533 76.5 14.581 76.7371 14.159 77.159C13.7371 77.581 13.5 78.1533 13.5 78.75C13.5 79.3467 13.7371 79.919 14.159 80.341C14.581 80.7629 15.1533 81 15.75 81H37.3185L29.907 88.407C29.4845 88.8295 29.2472 89.4025 29.2472 90C29.2472 90.5975 29.4845 91.1705 29.907 91.593C30.3295 92.0155 30.9025 92.2528 31.5 92.2528C32.0975 92.2528 32.6705 92.0155 33.093 91.593L44.343 80.343C44.5525 80.134 44.7188 79.8857 44.8322 79.6123C44.9456 79.339 45.004 79.046 45.004 78.75C45.004 78.454 44.9456 78.161 44.8322 77.8877C44.7188 77.6143 44.5525 77.366 44.343 77.157L33.093 65.907C32.6705 65.4845 32.0975 65.2472 31.5 65.2472C30.9025 65.2472 30.3295 65.4845 29.907 65.907C29.4845 66.3295 29.2472 66.9025 29.2472 67.5C29.2472 68.0975 29.4845 68.6705 29.907 69.093L37.3185 76.5H15.75Z" fill="black"/>
</svg>
