<svg width="56" height="56" viewBox="0 0 56 56" fill="none" xmlns="http://www.w3.org/2000/svg">
<g clip-path="url(#clip0_1710_37834)">
<path d="M53.0991 56.0019H2.97177C2.35305 56.0019 1.85156 55.5009 1.85156 54.8817V15.753C1.85156 15.1338 2.35305 14.6328 2.97177 14.6328H53.0991C53.7179 14.6328 54.2193 15.1338 54.2193 15.753V54.8817C54.2193 55.5009 53.7179 56.0019 53.0991 56.0019V56.0019ZM4.09149 53.7615H51.9794V16.8727H4.09149V53.7615Z" fill="#2D2D2D"/>
<path d="M53.099 16.871H2.9716C2.62707 16.871 2.30168 16.7126 2.08922 16.4413C1.87724 16.17 1.80163 15.8154 1.88442 15.4809L5.51683 0.849844C5.64076 0.35123 6.08913 0 6.60402 0H49.467C49.9814 0 50.4298 0.35123 50.5542 0.849844L54.1862 15.4809C54.2689 15.8154 54.1933 16.17 53.9814 16.4413C53.7689 16.7126 53.4435 16.871 53.099 16.871ZM4.4038 14.6311H51.6668L48.5909 2.23993H7.48018L4.4038 14.6311Z" fill="#2D2D2D"/>
<path d="M41.3594 49.235C41.0733 49.235 40.7867 49.1259 40.5685 48.9082L36.548 44.8972C36.1101 44.4608 36.1087 43.7512 36.5456 43.3138C36.982 42.875 37.6921 42.875 38.1295 43.3114L41.3585 46.5323L44.5784 43.3124C45.0158 42.875 45.7245 42.875 46.1618 43.3124C46.5997 43.7502 46.5997 44.4589 46.1618 44.8963L42.1514 48.9072C41.9327 49.1259 41.6461 49.235 41.3594 49.235Z" fill="#2D2D2D"/>
<path d="M41.3624 49.2346C40.7437 49.2346 40.2422 48.7341 40.2422 48.1149V31.5104C40.2422 30.8916 40.7437 30.3906 41.3624 30.3906C41.9806 30.3906 42.4821 30.8916 42.4821 31.5104V48.1149C42.4821 48.7341 41.9806 49.2346 41.3624 49.2346Z" fill="#2D2D2D"/>
<path d="M27.1638 49.235C26.8782 49.235 26.5915 49.1259 26.3733 48.9082L22.3528 44.8972C21.9145 44.4608 21.9136 43.7512 22.3504 43.3138C22.7869 42.875 23.4965 42.875 23.9343 43.3114L27.1629 46.5323L30.3828 43.3124C30.8207 42.875 31.5293 42.875 31.9667 43.3124C32.4041 43.7502 32.4041 44.4589 31.9667 44.8963L27.9558 48.9072C27.7371 49.1259 27.4505 49.235 27.1638 49.235Z" fill="#2D2D2D"/>
<path d="M27.1666 49.2346C26.5484 49.2346 26.0469 48.7341 26.0469 48.1149V31.5104C26.0469 30.8916 26.5484 30.3906 27.1666 30.3906C27.7853 30.3906 28.2868 30.8916 28.2868 31.5104V48.1149C28.2868 48.7341 27.7853 49.2346 27.1666 49.2346Z" fill="#2D2D2D"/>
</g>
<defs>
<clipPath id="clip0_1710_37834">
<rect width="56" height="56" fill="white"/>
</clipPath>
</defs>
</svg>
