<svg width="78" height="79" viewBox="0 0 78 79" fill="none" xmlns="http://www.w3.org/2000/svg">
<g clip-path="url(#clip0_833_12590)">
<path d="M78.0002 57.8455C77.6102 58.1608 77.2559 58.5426 76.8253 58.7831C65.5608 65.0573 54.2849 71.3103 43.0237 77.5925C42.1835 78.0605 41.4263 78.132 40.4951 77.885C31.6113 75.5353 22.716 73.2294 13.824 70.9138C13.6193 70.8601 13.4097 70.8309 13.1594 70.7805C13.1432 71.0421 13.1253 71.255 13.1172 71.4663C13.0814 72.4819 12.6378 72.9223 11.601 72.9239C8.2779 72.9288 4.95315 72.9304 1.63003 72.9239C0.609527 72.9223 0.151277 72.4608 0.149652 71.4354C0.144777 65.5188 0.144777 59.6005 0.149652 53.6839C0.149652 52.6179 0.604652 52.1775 1.69015 52.1759C4.90603 52.171 8.1219 52.1743 11.3378 52.1759C12.745 52.1759 13.1107 52.5399 13.1172 53.9374C13.1172 54.1779 13.1172 54.4184 13.1172 54.771C13.7948 54.771 14.435 54.8133 15.0688 54.7645C19.2207 54.446 23.2003 55.161 27.1458 56.4513C30.8297 57.6554 34.5931 58.6158 38.3323 59.646C38.7011 59.7484 39.1968 59.7078 39.538 59.5388C43.412 57.6375 47.3169 55.7915 51.1113 53.7424C54.761 51.7713 58.7845 53.1151 60.4079 56.2546C60.4453 56.3261 60.4957 56.3928 60.5574 56.4903C63.3849 55.0229 66.1685 53.5978 68.931 52.1353C70.3009 51.4105 71.7293 51.1343 73.234 51.4723C75.5692 51.9971 77.0593 53.4661 77.797 55.7249C77.8523 55.8955 77.9319 56.0596 78.0002 56.227V57.8488V57.8455ZM75.2685 56.6495C75.2425 56.4756 75.2441 56.3635 75.21 56.2644C74.4706 54.1828 72.246 53.3719 70.1612 54.4525C63.6969 57.8049 57.2408 61.1703 50.7814 64.5308C48.8444 65.5383 46.9107 66.5571 44.9639 67.5468C44.1758 67.9481 43.4494 67.7125 43.1 67.0105C42.7685 66.3426 43.0107 65.6666 43.7354 65.2376C43.8508 65.1694 43.9727 65.1109 44.0929 65.0475C48.0189 63.0098 51.9449 60.972 55.8709 58.9326C56.6298 58.5378 57.3838 58.1331 58.1687 57.7188C58.0874 57.5335 58.0468 57.4084 57.9818 57.2963C56.945 55.525 54.7692 54.8896 52.8338 55.8468C48.5812 57.9528 44.3383 60.0799 40.1003 62.2168C39.4828 62.5288 38.9075 62.5808 38.2397 62.3858C34.5444 61.3035 30.7972 60.374 27.1458 59.1601C22.8135 57.7188 18.4244 57.0135 13.8712 57.3548C13.6372 57.3726 13.4032 57.3856 13.1659 57.4003V68.0229C22.3634 70.423 31.5138 72.8069 40.6593 75.2119C41.254 75.3679 41.7253 75.3061 42.2567 75.0088C51.212 70.0184 60.1772 65.0443 69.139 60.0653C71.1865 58.9278 73.2292 57.7838 75.2653 56.6479L75.2685 56.6495ZM10.47 70.2979V54.8263H2.7789V70.2979H10.4717H10.47Z" fill="black"/>
<path d="M39.5589 0.275391C42.1622 1.74114 44.7589 3.21664 47.3687 4.67102C52.4111 7.48227 57.4502 10.3 62.5153 13.0706C63.4188 13.5646 63.7568 14.1675 63.7422 15.1945C63.6284 22.3949 62.5186 29.3873 59.3368 35.9181C55.3052 44.1926 49.1123 50.1271 40.3146 53.1805C39.4793 53.4698 38.7042 53.46 37.8673 53.2374C31.2292 51.4645 26.0991 47.6116 22.2787 41.9599C18.7784 36.7794 16.7066 31.0106 15.6016 24.9104C15.0166 21.6815 14.8086 18.3844 14.4202 15.1198C14.3064 14.161 14.7111 13.5858 15.5577 13.1194C23.0002 9.01789 30.4264 4.88227 37.8559 0.753141C38.1094 0.611766 38.3434 0.434641 38.5856 0.275391C38.9106 0.275391 39.2339 0.275391 39.5589 0.275391ZM61.0951 16.3369C61.1016 15.8201 61.2299 15.3505 60.5669 14.9849C53.5908 11.1499 46.6374 7.27264 39.6857 3.39539C39.2648 3.16139 38.9333 3.13864 38.4962 3.38077C31.5461 7.25964 24.5894 11.1271 17.6231 14.9735C17.1307 15.2449 17.0104 15.5406 17.0754 16.0655C17.3419 18.2333 17.4914 20.4189 17.8343 22.5753C18.7573 28.3716 20.4587 33.9161 23.4958 38.9878C26.7149 44.3633 31.1236 48.2958 37.1572 50.3059C38.4962 50.7511 39.6694 50.7203 40.9629 50.1775C48.9319 46.8284 54.3741 41.0044 57.7248 33.1394C60.0079 27.7801 60.8984 22.1235 61.0983 16.3369H61.0951Z" fill="black"/>
<path d="M57.0763 18.9072C56.4621 26.2457 54.5689 33.1292 49.7963 38.9613C47.0972 42.2601 43.7919 44.7788 39.8497 46.4087C39.3134 46.6313 38.5594 46.6395 38.0021 46.4558C32.5372 44.6472 28.8501 40.7992 26.1623 35.8803C23.7297 31.4295 22.3858 26.6146 21.5733 21.6356C21.4076 20.6248 21.3133 19.6027 21.1622 18.5887C21.0566 17.8883 21.2906 17.37 21.9048 17.0287C27.3778 13.9883 32.8443 10.9366 38.3417 7.94008C38.7366 7.72558 39.4564 7.73696 39.8546 7.95471C45.3714 10.9691 50.8558 14.0403 56.3532 17.0872C57.1104 17.5065 57.1673 18.1613 57.0779 18.904L57.0763 18.9072ZM23.8256 18.9673C23.9946 20.0756 24.1246 21.0912 24.3098 22.0971C25.1841 26.8421 26.5263 31.4295 29.0272 35.6041C31.2339 39.2863 34.1151 42.2341 38.2328 43.7535C38.6049 43.8916 39.1428 43.8688 39.5052 43.7031C43.6684 41.8002 46.9477 38.8541 49.4291 35.0321C52.4028 30.4512 53.8003 25.3438 54.3333 19.9618C54.3821 19.4776 54.5364 19.0437 53.8816 18.6878C49.0976 16.083 44.3493 13.4115 39.5718 10.792C39.3134 10.6506 38.8438 10.6587 38.5789 10.7985C36.8613 11.702 35.1713 12.6591 33.4748 13.6016C30.2719 15.381 27.0691 17.1636 23.8256 18.9673Z" fill="black"/>
<path d="M37.729 25.6757C38.0231 25.3962 38.2393 25.2012 38.4456 24.9948C40.4525 22.9912 42.4513 20.9811 44.463 18.9823C45.2284 18.2218 45.8768 18.2153 46.6389 18.9644C47.8528 20.1572 49.0569 21.3597 50.2464 22.5736C50.9614 23.3032 50.963 23.9613 50.235 24.6909C46.4406 28.4967 42.6414 32.2976 38.834 36.0887C38.1044 36.8167 37.4463 36.8151 36.7183 36.0919C34.6285 34.0201 32.5469 31.9384 30.475 29.8471C29.786 29.1516 29.786 28.4869 30.4653 27.7931C31.6743 26.5581 32.8963 25.3361 34.1296 24.1254C34.8576 23.4121 35.5044 23.4234 36.2454 24.1433C36.7443 24.6276 37.2139 25.1411 37.7274 25.6741L37.729 25.6757ZM37.6981 33.1913C40.9368 29.9576 44.1754 26.7222 47.2954 23.6054C46.7656 23.0123 46.1611 22.3347 45.5258 21.6213C43.5238 23.6249 41.5591 25.5912 39.5945 27.5558C37.8444 29.3059 37.6981 29.3141 35.9903 27.5688C35.7335 27.3056 35.597 26.9253 35.5028 26.7644C34.5651 27.6078 33.8891 28.2139 33.2765 28.7632C34.8056 30.2939 36.3071 31.7971 37.6981 33.1897V33.1913Z" fill="black"/>
</g>
<defs>
<clipPath id="clip0_833_12590">
<rect width="78" height="78" fill="white" transform="translate(0 0.275391)"/>
</clipPath>
</defs>
</svg>
