<svg width="24" height="24" viewBox="0 0 24 24" fill="none" xmlns="http://www.w3.org/2000/svg">
<path d="M23.2458 0.509033L23.4909 0.509034V23.491H23.2458V0.509033Z" fill="#192A3E" stroke="#192A3E" stroke-width="1.01807"/>
<path d="M0.509034 0.509033L0.754124 0.509034V23.491H0.509034V0.509033Z" fill="#192A3E" stroke="#192A3E" stroke-width="1.01807"/>
<mask id="path-4-outside-1" maskUnits="userSpaceOnUse" x="-0.25" y="6.5" width="24" height="3" fill="black">
<rect fill="white" x="-0.25" y="6.5" width="24" height="3"/>
<path d="M23.25 7.5L0.75 7.5V9H23.25V7.5Z"/>
</mask>
<path d="M23.25 7.5L0.75 7.5V9H23.25V7.5Z" fill="#192A3E"/>
<path d="M0.75 7.5L0.75 7.48737L0.737368 7.48737V7.5H0.75ZM23.25 7.5H23.2626V7.48737L23.25 7.48737L23.25 7.5ZM23.25 9V9.01264H23.2626V9H23.25ZM0.75 9H0.737368V9.01264H0.75V9ZM0.75 7.51264L23.25 7.51263L23.25 7.48737L0.75 7.48737L0.75 7.51264ZM23.2374 7.5V9H23.2626V7.5H23.2374ZM23.25 8.98737H0.75V9.01264H23.25V8.98737ZM0.762632 9V7.5H0.737368V9H0.762632Z" fill="#192A3E" mask="url(#path-4-outside-1)"/>
<mask id="path-6-outside-2" maskUnits="userSpaceOnUse" x="-0.25" y="18.5" width="24" height="3" fill="black">
<rect fill="white" x="-0.25" y="18.5" width="24" height="3"/>
<path d="M23.25 19.5L0.75 19.5V21H23.25V19.5Z"/>
</mask>
<path d="M23.25 19.5L0.75 19.5V21H23.25V19.5Z" fill="#192A3E"/>
<path d="M0.75 19.5L0.75 19.4874L0.737368 19.4874V19.5H0.75ZM23.25 19.5H23.2626V19.4874L23.25 19.4874L23.25 19.5ZM23.25 21V21.0126H23.2626V21H23.25ZM0.75 21H0.737368V21.0126H0.75V21ZM0.75 19.5126L23.25 19.5126L23.25 19.4874L0.75 19.4874L0.75 19.5126ZM23.2374 19.5V21H23.2626V19.5H23.2374ZM23.25 20.9874H0.75V21.0126H23.25V20.9874ZM0.762632 21V19.5H0.737368V21H0.762632Z" fill="#192A3E" mask="url(#path-6-outside-2)"/>
<path d="M18.1184 19.8706H5.96489V14.0717H11.5009H12.3254H13.1499H18.1184V19.8706Z" stroke="#192A3E" stroke-width="1.26316"/>
<path d="M18.1184 7.93053H5.96488V2.13158H11.5009H12.3254H13.1499H18.1184V7.93053Z" stroke="#192A3E" stroke-width="1.26316"/>
<path d="M12.1576 4.37338H11.1757C11.0351 4.37338 10.9211 4.25943 10.9211 4.11886V2.40376C10.9211 2.2632 11.0351 2.14925 11.1757 2.14925H12.1576C12.2982 2.14925 12.4121 2.2632 12.4121 2.40376V4.11886C12.4121 4.25943 12.2982 4.37338 12.1576 4.37338Z" fill="#192A3E" stroke="#192A3E" stroke-width="0.509034"/>
<path d="M12.1576 16.3734H11.1757C11.0351 16.3734 10.9211 16.2594 10.9211 16.1189V14.4038C10.9211 14.2632 11.0351 14.1492 11.1757 14.1492H12.1576C12.2982 14.1492 12.4121 14.2632 12.4121 14.4038V16.1189C12.4121 16.2594 12.2982 16.3734 12.1576 16.3734Z" fill="#192A3E" stroke="#192A3E" stroke-width="0.509034"/>
</svg>
