<svg width="100" height="100" viewBox="0 0 100 100" fill="none" xmlns="http://www.w3.org/2000/svg">
<g clip-path="url(#clip0_8391_894)">
<path d="M20.3005 14.314H33.4405C34.3782 14.314 35.1384 15.0741 35.1385 16.0118C35.1385 16.9497 34.3782 17.7099 33.4405 17.7099H21.9985V81.437V87.2069H18.6024V81.437V16.012C18.6024 15.0741 19.3628 14.314 20.3005 14.314Z" fill="black"/>
<path d="M79.6997 14.314H66.5575C65.6198 14.314 64.8594 15.0741 64.8594 16.012C64.8594 16.9497 65.6196 17.7101 66.5575 17.7101H78.0018V96.6042H21.9985V87.097C21.9985 86.1593 21.2384 85.399 20.3005 85.399C19.3628 85.399 18.6024 86.1591 18.6024 87.097V98.3023C18.6024 99.24 19.3626 100 20.3005 100H79.6997C80.6374 100 81.3977 99.2402 81.3977 98.3023V16.012C81.3977 15.0741 80.6374 14.314 79.6997 14.314Z" fill="black"/>
<path d="M63.1006 21.2145L51.3273 35.9814C51.0052 36.3855 50.5164 36.6211 49.9998 36.6211C49.4832 36.6211 48.9943 36.3855 48.6722 35.9814L36.8988 21.2141C36.4922 20.7043 36.4137 20.0064 36.6967 19.4187C36.9795 18.8312 37.574 18.4576 38.2262 18.4576H42.5023V2.83711C42.5023 1.89941 43.2625 1.13906 44.2004 1.13906H55.799C56.7367 1.13906 57.497 1.89922 57.497 2.83711V7.36445C57.497 8.30215 56.7367 16.6664 55.7988 16.6664C54.8611 16.6664 54.101 8.30234 54.101 7.36445V4.53496H45.8982V20.1559C45.8982 21.0936 45.1381 21.8539 44.2002 21.8539H41.7513L49.9996 32.1994L58.2478 21.8539H55.7988C54.8611 21.8539 54.1008 21.0937 54.1008 20.1559V12.4836C54.1008 2.83711 54.8609 4.10156 55.7988 4.10156C56.7365 4.10156 57.497 4.10156 57.4968 12.4836V18.4578H61.773C62.4252 18.4578 63.0197 18.8314 63.3027 19.4191C63.5857 20.0066 63.5072 20.7045 63.1006 21.2145Z" fill="black"/>
<path d="M34.4921 40.5752H31.3235C30.3858 40.5752 29.6255 41.3354 29.6255 42.2732C29.6255 43.2109 30.3856 43.9713 31.3235 43.9713H34.4921C35.4298 43.9713 36.1901 43.2111 36.1901 42.2732C36.1901 41.3354 35.4298 40.5752 34.4921 40.5752Z" fill="black"/>
<path d="M68.6763 40.5752H40.1519C39.2142 40.5752 38.4539 41.3354 38.4539 42.2732C38.4539 43.2109 39.214 43.9713 40.1519 43.9713H68.6763C69.614 43.9713 70.3744 43.2111 70.3744 42.2732C70.3744 41.3354 69.6142 40.5752 68.6763 40.5752Z" fill="black"/>
<path d="M48.4147 49.4709H31.3235C30.3858 49.4709 29.6255 50.2311 29.6255 51.169C29.6255 52.1067 30.3856 52.867 31.3235 52.867H48.4147C49.3524 52.867 50.1128 52.1069 50.1128 51.169C50.1126 50.2311 49.3524 49.4709 48.4147 49.4709Z" fill="black"/>
<path d="M68.6763 49.4709H54.0744C53.1367 49.4709 52.3763 50.2311 52.3763 51.169C52.3763 52.1067 53.1365 52.867 54.0744 52.867H68.6763C69.614 52.867 70.3744 52.1069 70.3744 51.169C70.3744 50.2311 69.6142 49.4709 68.6763 49.4709Z" fill="black"/>
<path d="M68.6763 58.3672H31.3235C30.3858 58.3672 29.6255 59.1273 29.6255 60.0652C29.6255 61.0031 30.3856 61.7633 31.3235 61.7633H68.6765C69.6141 61.7633 70.3745 61.0031 70.3745 60.0652C70.3745 59.1273 69.6141 58.3672 68.6763 58.3672Z" fill="black"/>
<path d="M41.1708 67.2632H31.3235C30.3858 67.2632 29.6255 68.0233 29.6255 68.9612C29.6255 69.8989 30.3856 70.6593 31.3235 70.6593H41.1708C42.1085 70.6593 42.8688 69.8991 42.8688 68.9612C42.8687 68.0233 42.1085 67.2632 41.1708 67.2632Z" fill="black"/>
<path d="M68.6763 67.2632H46.8306C45.8929 67.2632 45.1326 68.0233 45.1326 68.9612C45.1326 69.8989 45.8927 70.6593 46.8306 70.6593H68.6763C69.614 70.6593 70.3744 69.8991 70.3744 68.9612C70.3744 68.0233 69.6142 67.2632 68.6763 67.2632Z" fill="black"/>
<path d="M68.6764 85.0554H54.4141C53.4764 85.0554 52.7161 85.8156 52.7161 86.7535C52.7161 87.6914 53.4762 88.4515 54.4141 88.4515H68.6766C69.6143 88.4515 70.3747 87.6914 70.3747 86.7535C70.3747 85.8156 69.6143 85.0554 68.6764 85.0554Z" fill="black"/>
</g>
<defs>
<clipPath id="clip0_8391_894">
<rect width="100" height="100" fill="white"/>
</clipPath>
</defs>
</svg>
