<svg width="512" height="512" viewBox="0 0 512 512" fill="none" xmlns="http://www.w3.org/2000/svg">
<g clip-path="url(#clip0)">
<path d="M103.938 73.2881H171.215C176.016 73.2881 179.908 77.1801 179.909 81.9811C179.909 86.7831 176.016 90.6751 171.215 90.6751H112.632V416.958V446.5H95.2439V416.958V81.9821C95.2439 77.1801 99.1369 73.2881 103.938 73.2881Z" fill="black"/>
<path d="M408.062 73.2881H340.774C335.973 73.2881 332.08 77.1801 332.08 81.9821C332.08 86.7831 335.972 90.6761 340.774 90.6761H399.369V494.614H112.632V445.937C112.632 441.136 108.74 437.243 103.938 437.243C99.1369 437.243 95.2439 441.135 95.2439 445.937V503.308C95.2439 508.109 99.1359 512.002 103.938 512.002H408.062C412.863 512.002 416.756 508.11 416.756 503.308V81.9821C416.756 77.1801 412.863 73.2881 408.062 73.2881Z" fill="black"/>
<path d="M323.075 108.618L262.796 184.225C261.147 186.294 258.644 187.5 255.999 187.5C253.354 187.5 250.851 186.294 249.202 184.225L188.922 108.616C186.84 106.006 186.438 102.433 187.887 99.4238C189.335 96.4158 192.379 94.5028 195.718 94.5028H217.612V14.5258C217.612 9.72476 221.504 5.83176 226.306 5.83176H285.691C290.492 5.83176 294.385 9.72375 294.385 14.5258V37.7057C294.385 42.5067 290.492 85.3318 285.69 85.3318C280.889 85.3318 276.997 42.5078 276.997 37.7057V23.2188H234.999V103.198C234.999 107.999 231.107 111.892 226.305 111.892H213.767L255.998 164.861L298.229 111.892H285.69C280.889 111.892 276.996 108 276.996 103.198V63.9158C276.996 14.5258 280.888 20.9998 285.69 20.9998C290.491 20.9998 294.385 20.9998 294.384 63.9158V94.5038H316.278C319.617 94.5038 322.661 96.4168 324.11 99.4258C325.559 102.434 325.157 106.007 323.075 108.618Z" fill="black"/>
<path d="M176.6 207.744H160.377C155.576 207.744 151.683 211.636 151.683 216.438C151.683 221.239 155.575 225.132 160.377 225.132H176.6C181.401 225.132 185.294 221.24 185.294 216.438C185.294 211.636 181.401 207.744 176.6 207.744Z" fill="black"/>
<path d="M351.623 207.744H205.578C200.777 207.744 196.884 211.636 196.884 216.438C196.884 221.239 200.776 225.132 205.578 225.132H351.623C356.424 225.132 360.317 221.24 360.317 216.438C360.317 211.636 356.425 207.744 351.623 207.744Z" fill="black"/>
<path d="M247.884 253.291H160.377C155.576 253.291 151.683 257.183 151.683 261.985C151.683 266.786 155.575 270.679 160.377 270.679H247.884C252.685 270.679 256.578 266.787 256.578 261.985C256.577 257.183 252.685 253.291 247.884 253.291Z" fill="black"/>
<path d="M351.623 253.291H276.861C272.06 253.291 268.167 257.183 268.167 261.985C268.167 266.786 272.059 270.679 276.861 270.679H351.623C356.424 270.679 360.317 266.787 360.317 261.985C360.317 257.183 356.425 253.291 351.623 253.291Z" fill="black"/>
<path d="M351.623 298.84H160.377C155.576 298.84 151.683 302.732 151.683 307.534C151.683 312.336 155.575 316.228 160.377 316.228H351.624C356.425 316.228 360.318 312.336 360.318 307.534C360.318 302.732 356.425 298.84 351.623 298.84Z" fill="black"/>
<path d="M210.795 344.387H160.377C155.576 344.387 151.683 348.279 151.683 353.081C151.683 357.882 155.575 361.775 160.377 361.775H210.795C215.596 361.775 219.489 357.883 219.489 353.081C219.488 348.279 215.596 344.387 210.795 344.387Z" fill="black"/>
<path d="M351.623 344.387H239.773C234.972 344.387 231.079 348.279 231.079 353.081C231.079 357.882 234.971 361.775 239.773 361.775H351.623C356.424 361.775 360.317 357.883 360.317 353.081C360.317 348.279 356.425 344.387 351.623 344.387Z" fill="black"/>
<path d="M351.623 435.483H278.6C273.799 435.483 269.906 439.375 269.906 444.177C269.906 448.979 273.798 452.871 278.6 452.871H351.624C356.425 452.871 360.318 448.979 360.318 444.177C360.318 439.375 356.425 435.483 351.623 435.483Z" fill="black"/>
</g>
<defs>
<clipPath id="clip0">
<rect width="512" height="512" fill="white"/>
</clipPath>
</defs>
</svg>
