<svg xmlns="http://www.w3.org/2000/svg" xmlns:xlink="http://www.w3.org/1999/xlink" width="108px" height="108px" viewBox="0 0 108 108" version="1.1">
<g id="surface1">
<path style=" stroke:none;fill-rule:nonzero;fill:#000505;fill-opacity:1;" d="M 0 50.011719 C 0 48.9375 0 47.867188 0 46.792969 C 0 44.335938 0.046875 41.878906 0.046875 39.425781 C 0.046875 36.632812 0.0234375 33.820312 0 31.027344 C 0 28.726562 0.046875 26.425781 0 24.148438 C -0.0234375 23.300781 0.648438 23.277344 1.140625 23.054688 C 3.015625 22.25 4.890625 21.492188 6.789062 20.730469 C 8.800781 19.90625 10.808594 19.101562 12.820312 18.273438 C 14.894531 17.425781 16.949219 16.578125 19.027344 15.730469 C 20.636719 15.058594 22.265625 14.433594 23.894531 13.765625 C 25.527344 13.09375 27.15625 12.402344 28.789062 11.730469 C 30.597656 10.996094 32.40625 10.28125 34.214844 9.542969 C 35.621094 8.960938 37.050781 8.402344 38.433594 7.800781 C 38.96875 7.554688 39.328125 7.890625 39.730469 8.070312 C 42.386719 9.253906 45.046875 10.480469 47.703125 11.710938 C 49.890625 12.714844 52.078125 13.71875 54.269531 14.722656 C 56.703125 15.839844 59.160156 16.933594 61.59375 18.050781 C 63.425781 18.878906 65.234375 19.726562 67.066406 20.554688 C 69.65625 21.738281 72.222656 22.898438 74.8125 24.058594 C 75.550781 24.394531 76.289062 24.773438 77.023438 25.085938 C 77.425781 25.242188 77.539062 25.511719 77.539062 25.914062 C 77.539062 27.921875 77.539062 29.933594 77.539062 31.964844 C 77.539062 35.402344 77.539062 38.867188 77.539062 42.304688 C 77.539062 42.996094 77.539062 43.019531 76.824219 43.019531 C 76.222656 43.019531 75.617188 42.996094 75.039062 43.019531 C 74.589844 43.042969 74.457031 42.863281 74.457031 42.417969 C 74.480469 38.085938 74.457031 33.75 74.457031 29.398438 C 74.457031 28.503906 74.324219 28.414062 73.472656 28.75 C 71.867188 29.351562 70.234375 29.953125 68.605469 30.558594 C 66.796875 31.226562 64.988281 31.921875 63.15625 32.589844 C 61.617188 33.148438 60.050781 33.707031 58.511719 34.265625 C 56.703125 34.933594 54.917969 35.605469 53.128906 36.253906 C 51.789062 36.742188 50.449219 37.214844 49.109375 37.703125 C 47.546875 38.285156 46.003906 38.867188 44.441406 39.445312 C 43.371094 39.847656 42.296875 40.226562 41.226562 40.585938 C 40.488281 40.832031 40.421875 40.921875 40.421875 41.679688 C 40.421875 57.691406 40.421875 73.683594 40.421875 89.695312 C 40.421875 90.386719 40.378906 90.453125 39.664062 90.453125 C 38.726562 90.453125 38.726562 90.453125 38.367188 91.347656 C 38.210938 91.726562 38.101562 91.949219 37.542969 91.703125 C 35.933594 90.988281 34.28125 90.386719 32.628906 89.714844 C 31.265625 89.160156 29.902344 88.578125 28.542969 88.019531 C 26.890625 87.351562 25.234375 86.703125 23.582031 86.03125 C 21.976562 85.363281 20.367188 84.691406 18.738281 84.023438 C 17.375 83.464844 15.992188 82.929688 14.628906 82.371094 C 12.753906 81.609375 10.898438 80.828125 9.023438 80.070312 C 7.191406 79.332031 5.339844 78.59375 3.507812 77.835938 C 2.5 77.433594 1.519531 76.988281 0.492188 76.609375 C 0.132812 76.472656 0.046875 76.25 0.046875 75.914062 C 0.046875 74.800781 0 73.703125 0 72.589844 C 0 69.929688 0.046875 67.273438 0.046875 64.59375 C 0.046875 62.136719 0.0234375 59.679688 0 57.222656 C 0 54.8125 0 52.398438 0 50.011719 Z M 37.207031 64.480469 C 37.230469 62.179688 37.230469 59.878906 37.230469 57.558594 C 37.230469 55.035156 37.230469 52.511719 37.230469 49.988281 C 37.230469 47.128906 37.207031 44.246094 37.230469 41.390625 C 37.230469 41.03125 37.09375 40.808594 36.804688 40.652344 C 36.582031 40.539062 36.335938 40.453125 36.113281 40.339844 C 34.257812 39.601562 32.40625 38.867188 30.550781 38.105469 C 28.519531 37.28125 26.507812 36.410156 24.5 35.582031 C 22.445312 34.734375 20.367188 33.929688 18.3125 33.105469 C 16.683594 32.433594 15.050781 31.742188 13.421875 31.070312 C 12.058594 30.511719 10.675781 29.976562 9.3125 29.417969 C 7.59375 28.75 5.894531 28.035156 4.199219 27.363281 C 3.238281 26.984375 3.238281 27.007812 3.238281 28.035156 C 3.238281 41.433594 3.238281 54.832031 3.238281 68.253906 C 3.238281 70.042969 3.261719 71.804688 3.214844 73.59375 C 3.195312 74.152344 3.441406 74.398438 3.910156 74.574219 C 4.242188 74.6875 4.578125 74.820312 4.914062 74.957031 C 7.214844 75.894531 9.492188 76.832031 11.792969 77.792969 C 13.398438 78.460938 14.984375 79.132812 16.59375 79.777344 C 18.203125 80.425781 19.808594 81.097656 21.394531 81.742188 C 22.757812 82.300781 24.140625 82.859375 25.503906 83.417969 C 27.535156 84.269531 29.570312 85.117188 31.625 85.964844 C 33.253906 86.636719 34.882812 87.304688 36.515625 87.976562 C 37.074219 88.21875 37.230469 88.152344 37.230469 87.550781 C 37.230469 85.964844 37.230469 84.378906 37.230469 82.792969 C 37.207031 76.652344 37.207031 70.578125 37.207031 64.480469 Z M 57.574219 31.339844 C 57.574219 31.316406 57.597656 31.296875 57.597656 31.273438 C 57.707031 31.25 57.796875 31.273438 57.910156 31.226562 C 58.644531 30.980469 59.382812 30.714844 60.121094 30.445312 C 61.949219 29.796875 63.804688 29.152344 65.636719 28.480469 C 67.511719 27.8125 69.367188 27.117188 71.21875 26.449219 C 71.375 26.382812 71.488281 26.226562 71.621094 26.113281 C 71.488281 26.003906 71.398438 25.847656 71.242188 25.777344 C 68.875 24.707031 66.507812 23.636719 64.160156 22.5625 C 61.683594 21.425781 59.183594 20.308594 56.703125 19.167969 C 54.714844 18.273438 52.707031 17.382812 50.71875 16.464844 C 48.664062 15.527344 46.609375 14.589844 44.554688 13.652344 C 42.855469 12.871094 41.160156 12.089844 39.441406 11.375 C 39.128906 11.242188 38.679688 11.195312 38.367188 11.308594 C 37.40625 11.640625 36.46875 12.066406 35.53125 12.445312 C 33.945312 13.117188 32.382812 13.765625 30.820312 14.410156 C 29.03125 15.148438 27.222656 15.863281 25.4375 16.601562 C 25.324219 16.644531 25.214844 16.800781 25.214844 16.890625 C 25.214844 16.980469 25.324219 17.136719 25.4375 17.179688 C 25.863281 17.382812 26.308594 17.558594 26.734375 17.761719 C 28.40625 18.5 30.082031 19.234375 31.757812 19.972656 C 33.632812 20.796875 35.507812 21.648438 37.386719 22.496094 C 39.261719 23.320312 41.160156 24.148438 43.035156 24.976562 C 45.15625 25.914062 47.257812 26.851562 49.355469 27.789062 C 51.453125 28.726562 53.574219 29.664062 55.675781 30.601562 C 56.300781 30.871094 56.949219 31.09375 57.574219 31.339844 Z M 52.996094 32.878906 C 52.839844 32.769531 52.773438 32.722656 52.683594 32.679688 C 51.609375 32.210938 50.539062 31.742188 49.46875 31.273438 C 47.210938 30.269531 44.957031 29.21875 42.679688 28.214844 C 40.199219 27.117188 37.652344 26.023438 35.152344 24.929688 C 32.875 23.925781 30.597656 22.898438 28.316406 21.871094 C 26.175781 20.910156 24.007812 19.949219 21.839844 19.011719 C 21.304688 18.765625 20.792969 18.453125 20.144531 18.742188 C 18.9375 19.257812 17.710938 19.75 16.480469 20.261719 C 15.121094 20.820312 13.734375 21.355469 12.371094 21.914062 C 10.519531 22.675781 8.664062 23.433594 6.835938 24.214844 C 6.609375 24.304688 6.410156 24.484375 6.140625 24.664062 C 6.296875 24.773438 6.34375 24.820312 6.410156 24.863281 C 8.128906 25.578125 9.828125 26.292969 11.546875 26.984375 C 14.023438 27.988281 16.480469 28.972656 18.960938 29.976562 C 21.285156 30.914062 23.605469 31.898438 25.929688 32.835938 C 28.117188 33.730469 30.328125 34.621094 32.539062 35.515625 C 34.371094 36.273438 36.179688 37.035156 37.988281 37.792969 C 38.570312 38.039062 39.105469 38.195312 39.730469 37.859375 C 40.15625 37.613281 40.667969 37.503906 41.160156 37.324219 C 42.296875 36.921875 43.4375 36.519531 44.554688 36.117188 C 45.601562 35.738281 46.652344 35.335938 47.703125 34.957031 C 49.289062 34.398438 50.875 33.839844 52.460938 33.28125 C 52.617188 33.191406 52.75 33.058594 52.996094 32.878906 Z M 52.996094 32.878906 "/>
<path style=" stroke:none;fill-rule:nonzero;fill:#000505;fill-opacity:1;" d="M 75.640625 98.746094 C 66.148438 98.746094 56.660156 98.746094 47.167969 98.746094 C 46.230469 98.746094 45.382812 98.476562 44.6875 97.875 C 43.484375 96.824219 43.28125 95.21875 44.019531 93.878906 C 44.824219 92.359375 45.828125 90.953125 46.765625 89.523438 C 48.375 87.042969 50.003906 84.566406 51.632812 82.085938 C 54.292969 78.023438 56.949219 73.980469 59.605469 69.914062 C 62.53125 65.449219 65.4375 61.003906 68.359375 56.539062 C 69.769531 54.371094 71.175781 52.183594 72.625 50.0625 C 74.101562 47.894531 77.117188 47.871094 78.589844 50.039062 C 80.777344 53.234375 82.921875 56.46875 85.089844 59.707031 C 87.476562 63.28125 89.84375 66.832031 92.234375 70.40625 C 94.691406 74.089844 97.148438 77.777344 99.582031 81.460938 C 102.195312 85.390625 104.832031 89.320312 107.445312 93.273438 C 108.695312 95.195312 107.914062 97.761719 105.5 98.546875 C 105.054688 98.679688 104.5625 98.769531 104.09375 98.769531 C 94.601562 98.722656 85.109375 98.722656 75.640625 98.746094 C 75.640625 98.722656 75.640625 98.722656 75.640625 98.746094 Z M 75.753906 95.597656 C 81.984375 95.597656 88.214844 95.597656 94.445312 95.597656 C 97.640625 95.597656 100.832031 95.597656 104.027344 95.574219 C 104.292969 95.574219 104.675781 95.464844 104.785156 95.285156 C 104.875 95.105469 104.761719 94.726562 104.605469 94.503906 C 103.980469 93.519531 103.335938 92.558594 102.707031 91.597656 C 100.386719 88.09375 98.042969 84.585938 95.71875 81.101562 C 93.820312 78.246094 91.921875 75.410156 90.023438 72.570312 C 87.433594 68.6875 84.84375 64.824219 82.253906 60.9375 C 81.113281 59.238281 79.996094 57.519531 78.859375 55.824219 C 78.007812 54.527344 77.136719 53.253906 76.265625 51.960938 C 75.886719 51.421875 75.464844 51.421875 75.105469 51.980469 C 73.542969 54.371094 71.957031 56.761719 70.394531 59.152344 C 68.652344 61.785156 66.910156 64.441406 65.167969 67.078125 C 63.382812 69.78125 61.617188 72.484375 59.832031 75.183594 C 57.21875 79.160156 54.628906 83.136719 52.015625 87.089844 C 50.40625 89.546875 48.777344 91.980469 47.191406 94.4375 C 47.011719 94.703125 46.988281 95.082031 46.898438 95.417969 C 47.210938 95.484375 47.503906 95.597656 47.816406 95.597656 C 57.128906 95.597656 66.441406 95.597656 75.753906 95.597656 Z M 75.753906 95.597656 "/>
<path style=" stroke:none;fill-rule:nonzero;fill:#000505;fill-opacity:1;" d="M 80.929688 73.613281 C 80.929688 75.402344 80.949219 77.1875 80.929688 78.996094 C 80.90625 80.359375 79.722656 81.699219 78.382812 81.832031 C 76.796875 82.011719 75.1875 82.125 73.605469 81.832031 C 72.597656 81.65625 71.480469 80.695312 71.28125 79.6875 C 71.167969 79.085938 71.078125 78.4375 71.058594 77.8125 C 71.035156 74.796875 71.035156 71.785156 71.058594 68.746094 C 71.058594 67.40625 71.570312 66.3125 72.820312 65.6875 C 73.222656 65.484375 73.714844 65.328125 74.160156 65.308594 C 75.414062 65.261719 76.664062 65.261719 77.890625 65.285156 C 79.433594 65.328125 80.90625 66.714844 80.90625 68.300781 C 80.929688 70.109375 80.929688 71.871094 80.929688 73.613281 Z M 77.867188 73.636719 C 77.867188 72.140625 77.867188 70.644531 77.867188 69.125 C 77.867188 68.523438 77.734375 68.410156 77.15625 68.390625 C 76.394531 68.390625 75.65625 68.410156 74.898438 68.390625 C 74.40625 68.367188 74.230469 68.613281 74.230469 69.082031 C 74.230469 72.140625 74.230469 75.179688 74.230469 78.238281 C 74.230469 78.660156 74.40625 78.796875 74.808594 78.796875 C 75.613281 78.773438 76.417969 78.773438 77.222656 78.796875 C 77.710938 78.820312 77.890625 78.617188 77.867188 78.125 C 77.847656 76.628906 77.867188 75.132812 77.867188 73.636719 Z M 77.867188 73.636719 "/>
<path style=" stroke:none;fill-rule:nonzero;fill:#000505;fill-opacity:1;" d="M 76.042969 92.109375 C 75.507812 92.109375 74.996094 92.109375 74.457031 92.109375 C 72.714844 92.132812 71.242188 90.925781 71.109375 89.070312 C 71.042969 88.113281 71.128906 87.128906 71.285156 86.191406 C 71.464844 85.140625 72.582031 84.09375 73.632812 84.046875 C 75.195312 83.957031 76.757812 83.9375 78.320312 84.023438 C 79.773438 84.113281 80.914062 85.5 80.957031 86.949219 C 80.980469 87.644531 80.957031 88.3125 80.957031 89.003906 C 80.980469 90.570312 79.460938 92.109375 77.851562 92.109375 C 77.226562 92.109375 76.648438 92.109375 76.042969 92.109375 Z M 76.066406 87.085938 C 75.886719 87.085938 75.6875 87.085938 75.507812 87.085938 C 74.125 87.105469 74.234375 86.859375 74.234375 88.425781 C 74.234375 88.847656 74.457031 89.027344 74.882812 89.027344 C 75.417969 89.003906 75.976562 89.027344 76.511719 89.027344 C 77.917969 89.027344 77.964844 88.960938 77.875 87.554688 C 77.851562 87.21875 77.71875 87.085938 77.40625 87.085938 C 76.960938 87.085938 76.511719 87.085938 76.066406 87.085938 Z M 76.066406 87.085938 "/>
</g>
</svg>