<svg width="28" height="28" viewBox="0 0 28 28" fill="none" xmlns="http://www.w3.org/2000/svg">
<path d="M25.8626 12.2505H24.5004C24.4228 11.9696 24.2558 11.7216 24.0248 11.544C23.7938 11.3664 23.5112 11.2689 23.2198 11.2661H21.7656V7.71012C21.7673 7.6436 21.7512 7.57784 21.719 7.51958C21.6869 7.46132 21.6398 7.41267 21.5826 7.3786L11.3245 1.45365C11.2667 1.42005 11.201 1.40234 11.1342 1.40234C11.0673 1.40234 11.0016 1.42005 10.9438 1.45365L0.682502 7.3786C0.624441 7.41226 0.576278 7.46063 0.542866 7.51883C0.509454 7.57703 0.491975 7.64301 0.492189 7.71012V19.5601C0.492191 19.6273 0.50988 19.6933 0.543479 19.7515C0.577078 19.8097 0.625402 19.858 0.683596 19.8916L10.9459 25.8165C11.0041 25.8502 11.0701 25.8678 11.1373 25.8678C11.2063 25.8679 11.2741 25.8502 11.3342 25.8165L16.7344 22.7017V24.9534C16.7338 25.1678 16.7758 25.3802 16.8579 25.5782C16.9399 25.7763 17.0605 25.9561 17.2125 26.1072C17.3645 26.2584 17.545 26.3778 17.7435 26.4588C17.9421 26.5397 18.1547 26.5804 18.369 26.5786H25.8626C26.0775 26.5806 26.2907 26.5401 26.4899 26.4594C26.6891 26.3787 26.8704 26.2593 27.0233 26.1083C27.1762 25.9572 27.2977 25.7774 27.3809 25.5792C27.464 25.381 27.5072 25.1684 27.5078 24.9534V13.9011C27.5076 13.4643 27.3343 13.0454 27.026 12.7361C26.7176 12.4268 26.2993 12.2522 25.8626 12.2505V12.2505ZM23.2334 12.0317C23.3808 12.0317 23.5221 12.0903 23.6263 12.1945C23.7305 12.2987 23.7891 12.44 23.7891 12.5874V12.6245C23.7891 12.7719 23.7305 12.9132 23.6263 13.0174C23.5221 13.1216 23.3808 13.1802 23.2334 13.1802H21.0088C20.8614 13.1802 20.7201 13.1216 20.6159 13.0174C20.5117 12.9132 20.4531 12.7719 20.4531 12.6245V12.5874C20.4531 12.44 20.5117 12.2987 20.6159 12.1945C20.7201 12.0903 20.8614 12.0317 21.0088 12.0317H23.2334ZM11.1373 2.22721L15.4015 4.68913L5.90549 10.1717L1.64134 7.70974L11.1373 2.22721ZM10.7734 24.8219L1.25781 19.339V8.37233L10.7734 13.8552V24.8219ZM11.1373 13.1922L6.67111 10.6136L16.1672 5.13117L20.6336 7.70974L11.1373 13.1922ZM16.7344 13.9011V21.8177L11.5391 24.8219V13.8552L21 8.37233V11.2661H21.0119C20.7205 11.2689 20.4379 11.3664 20.2068 11.544C19.9758 11.7216 19.8088 11.9696 19.7312 12.2505H18.369C17.9334 12.2526 17.5164 12.4277 17.2099 12.7372C16.9033 13.0468 16.7323 13.4654 16.7344 13.9011V13.9011ZM26.7422 24.9534C26.7417 25.0678 26.7184 25.181 26.6738 25.2864C26.6291 25.3917 26.564 25.4872 26.4822 25.5672C26.4003 25.6471 26.3034 25.7101 26.197 25.7523C26.0907 25.7945 25.977 25.8151 25.8626 25.813H18.369C18.2552 25.8149 18.1421 25.7941 18.0364 25.7517C17.9307 25.7093 17.8346 25.6462 17.7536 25.5661C17.6727 25.486 17.6085 25.3906 17.565 25.2854C17.5214 25.1801 17.4993 25.0673 17.5 24.9534V13.9011C17.4988 13.7859 17.5204 13.6716 17.5635 13.5647C17.6066 13.4579 17.6703 13.3606 17.751 13.2784C17.8317 13.1962 17.9279 13.1307 18.0339 13.0857C18.14 13.0407 18.2538 13.0171 18.369 13.0161H19.7462C19.8283 13.2871 19.996 13.5241 20.2242 13.6918C20.4524 13.8594 20.7287 13.9485 21.0119 13.9458H23.2198C23.5029 13.9485 23.7792 13.8594 24.0074 13.6918C24.2356 13.5242 24.4033 13.2871 24.4854 13.0161H25.8626C26.0963 13.0176 26.32 13.1115 26.4848 13.2773C26.6496 13.4431 26.7421 13.6673 26.7422 13.9011V24.9534Z" fill="#192A3E"/>
<path d="M18.8097 17.7734H19.2104C19.3119 17.7734 19.4093 17.7331 19.4811 17.6613C19.5529 17.5895 19.5932 17.4922 19.5932 17.3906C19.5932 17.2891 19.5529 17.1917 19.4811 17.1199C19.4093 17.0481 19.3119 17.0078 19.2104 17.0078H19.1953V15.9688H20.2512C20.2752 16.0457 20.3238 16.1127 20.3896 16.1594C20.4553 16.2061 20.5345 16.2299 20.6151 16.2273C20.7168 16.2275 20.8144 16.1875 20.8865 16.1159C20.9587 16.0443 20.9995 15.947 21 15.8453V15.5877C20.9992 15.4856 20.958 15.3879 20.8856 15.3159C20.8131 15.2439 20.7152 15.2034 20.613 15.2031H18.8097C18.7595 15.2034 18.7098 15.2135 18.6635 15.233C18.6172 15.2525 18.5753 15.2809 18.54 15.3166C18.5047 15.3524 18.4767 15.3947 18.4578 15.4412C18.4389 15.4877 18.4294 15.5375 18.4297 15.5877V17.3911C18.4294 17.4412 18.439 17.4908 18.458 17.5372C18.4769 17.5836 18.5049 17.6257 18.5402 17.6613C18.5755 17.6968 18.6175 17.725 18.6638 17.7443C18.71 17.7635 18.7596 17.7734 18.8097 17.7734Z" fill="#192A3E"/>
<path d="M18.8125 21.2734H20.6172C20.7187 21.2734 20.8161 21.2331 20.8879 21.1613C20.9597 21.0895 21 20.9922 21 20.8906V19.0859C21 18.9844 20.9597 18.887 20.8879 18.8152C20.8161 18.7435 20.7187 18.7031 20.6172 18.7031H18.8125C18.711 18.7031 18.6136 18.7435 18.5418 18.8152C18.47 18.887 18.4297 18.9844 18.4297 19.0859V20.8906C18.4297 20.9922 18.47 21.0895 18.5418 21.1613C18.6136 21.2331 18.711 21.2734 18.8125 21.2734V21.2734ZM19.1953 19.4688H20.2344V20.5078H19.1953V19.4688Z" fill="#192A3E"/>
<path d="M19.2105 24.0078H19.1953V22.9688H20.2305C20.2325 23.0694 20.2739 23.1653 20.3457 23.2358C20.4176 23.3064 20.5142 23.3459 20.6149 23.346C20.7156 23.3461 20.8123 23.3068 20.8843 23.2364C20.9563 23.166 20.9979 23.0702 21 22.9695V22.6007C20.9996 22.4972 20.9591 22.3979 20.8869 22.3237C20.8147 22.2495 20.7165 22.2063 20.6131 22.2031H18.8097C18.707 22.2066 18.6097 22.2501 18.5387 22.3244C18.4677 22.3987 18.4285 22.4979 18.4297 22.6007V24.404C18.4297 24.4534 18.4395 24.5023 18.4588 24.5479C18.478 24.5934 18.5061 24.6346 18.5416 24.6691C18.577 24.7036 18.619 24.7305 18.6651 24.7485C18.7111 24.7664 18.7603 24.7749 18.8097 24.7734H19.2105C19.312 24.7734 19.4094 24.7331 19.4812 24.6613C19.553 24.5895 19.5933 24.4922 19.5933 24.3906C19.5933 24.2891 19.553 24.1917 19.4812 24.1199C19.4094 24.0481 19.312 24.0078 19.2105 24.0078Z" fill="#192A3E"/>
<path d="M21.4936 15.6728L20.3725 16.7939L20.0315 16.4528C19.9959 16.4173 19.9537 16.3891 19.9073 16.3699C19.8608 16.3506 19.811 16.3407 19.7608 16.3407C19.7105 16.3407 19.6607 16.3506 19.6143 16.3699C19.5678 16.3891 19.5256 16.4173 19.4901 16.4528C19.4545 16.4884 19.4263 16.5306 19.4071 16.577C19.3878 16.6235 19.3779 16.6733 19.3779 16.7236C19.3779 16.7738 19.3878 16.8236 19.4071 16.8701C19.4263 16.9165 19.4545 16.9587 19.4901 16.9943L20.1018 17.606C20.1374 17.6415 20.1796 17.6697 20.226 17.689C20.2725 17.7082 20.3223 17.7181 20.3726 17.7181C20.4228 17.7181 20.4726 17.7082 20.5191 17.689C20.5655 17.6697 20.6077 17.6415 20.6433 17.606L22.0352 16.2141C22.107 16.1423 22.1473 16.0449 22.1473 15.9434C22.1473 15.8418 22.107 15.7445 22.0352 15.6727C21.9634 15.6009 21.866 15.5605 21.7645 15.5605C21.6629 15.5605 21.5655 15.6009 21.4938 15.6727L21.4936 15.6728Z" fill="#192A3E"/>
<path d="M21.4936 22.7412L20.3725 23.8623L20.0315 23.5212C19.9959 23.4857 19.9537 23.4575 19.9073 23.4382C19.8608 23.419 19.811 23.4091 19.7608 23.4091C19.7105 23.4091 19.6607 23.419 19.6143 23.4382C19.5678 23.4575 19.5256 23.4857 19.4901 23.5212C19.4545 23.5568 19.4263 23.599 19.4071 23.6454C19.3878 23.6919 19.3779 23.7416 19.3779 23.7919C19.3779 23.8422 19.3878 23.892 19.4071 23.9384C19.4263 23.9849 19.4545 24.0271 19.4901 24.0626L20.1018 24.6743C20.1374 24.7099 20.1796 24.7381 20.226 24.7573C20.2725 24.7766 20.3223 24.7865 20.3726 24.7865C20.4228 24.7865 20.4726 24.7766 20.5191 24.7573C20.5655 24.7381 20.6077 24.7099 20.6433 24.6743L22.0352 23.2824C22.107 23.2106 22.1473 23.1133 22.1473 23.0117C22.1473 22.9102 22.107 22.8128 22.0352 22.741C21.9634 22.6692 21.866 22.6289 21.7645 22.6289C21.6629 22.6289 21.5655 22.6692 21.4938 22.741L21.4936 22.7412Z" fill="#192A3E"/>
<path d="M25.422 16.1328H23.0176C22.916 16.1328 22.8187 16.1731 22.7469 16.2449C22.6751 16.3167 22.6348 16.4141 22.6348 16.5156C22.6348 16.6172 22.6751 16.7145 22.7469 16.7863C22.8187 16.8581 22.916 16.8984 23.0176 16.8984H25.422C25.5235 16.8984 25.6209 16.8581 25.6927 16.7863C25.7645 16.7145 25.8048 16.6172 25.8048 16.5156C25.8048 16.4141 25.7645 16.3167 25.6927 16.2449C25.6209 16.1731 25.5235 16.1328 25.422 16.1328V16.1328Z" fill="#192A3E"/>
<path d="M25.422 19.6328H23.0176C22.916 19.6328 22.8187 19.6731 22.7469 19.7449C22.6751 19.8167 22.6348 19.9141 22.6348 20.0156C22.6348 20.1172 22.6751 20.2145 22.7469 20.2863C22.8187 20.3581 22.916 20.3984 23.0176 20.3984H25.422C25.5235 20.3984 25.6209 20.3581 25.6927 20.2863C25.7645 20.2145 25.8048 20.1172 25.8048 20.0156C25.8048 19.9141 25.7645 19.8167 25.6927 19.7449C25.6209 19.6731 25.5235 19.6328 25.422 19.6328V19.6328Z" fill="#192A3E"/>
<path d="M25.422 23.1328H23.0176C22.916 23.1328 22.8187 23.1731 22.7469 23.2449C22.6751 23.3167 22.6348 23.4141 22.6348 23.5156C22.6348 23.6172 22.6751 23.7145 22.7469 23.7863C22.8187 23.8581 22.916 23.8984 23.0176 23.8984H25.422C25.5235 23.8984 25.6209 23.8581 25.6927 23.7863C25.7645 23.7145 25.8048 23.6172 25.8048 23.5156C25.8048 23.4141 25.7645 23.3167 25.6927 23.2449C25.6209 23.1731 25.5235 23.1328 25.422 23.1328Z" fill="#192A3E"/>
</svg>
