<svg width="155" height="121" viewBox="0 0 155 121" fill="none" xmlns="http://www.w3.org/2000/svg">
<path d="M146.404 106.052H141.087V61.0263C141.087 56.6351 137.327 53.0625 132.706 53.0625H108.32L108.327 36.6388C108.328 35.4438 107.31 34.4756 106.054 34.4745C104.798 34.4745 103.779 35.4427 103.779 36.6366L103.772 53.0625H83.2814C80.875 53.0625 78.7049 54.0318 77.1743 55.5808C75.6449 54.0318 73.4736 53.0625 71.0684 53.0625H46.681V7.96389C46.681 5.95812 48.3997 4.32648 50.5134 4.32648H60.8197V12.2479C60.8197 14.9618 63.1403 17.1697 65.9934 17.1697H83.707C86.5554 17.1697 88.8737 14.9618 88.8737 12.2479V4.32648H99.9382C102.051 4.32648 103.771 5.95812 103.771 7.96501V26.4793C103.771 27.6743 104.789 28.6425 106.045 28.6425C107.301 28.6425 108.319 27.6743 108.319 26.4793V7.96389C108.319 3.57264 104.559 0 99.9382 0H50.5134C45.8922 0 42.1327 3.57264 42.1327 7.96389V53.0625H21.6424C17.0224 53.0625 13.2617 56.6351 13.2617 61.0263V106.052H7.673C3.44209 106.052 0 109.327 0 113.352C0 117.376 3.44209 120.65 7.673 120.65H146.404C150.64 120.65 154.085 117.376 154.085 113.352C154.085 109.327 150.64 106.052 146.404 106.052ZM84.3242 12.2479C84.3242 12.5707 84.042 12.8443 83.707 12.8443H65.9934C65.6537 12.8443 65.368 12.5707 65.368 12.2479V4.32648H84.3242V12.2479ZM98.136 57.3889H117.092V65.3104C117.092 65.6287 116.807 65.8978 116.468 65.8978H98.7615C98.4217 65.8978 98.136 65.6287 98.136 65.3104V57.3889ZM83.2814 57.3889H93.5866V65.3104C93.5866 68.0197 95.9083 70.2243 98.7615 70.2243H116.467C119.32 70.2243 121.641 68.0197 121.641 65.3104V57.3889H132.706C134.819 57.3889 136.539 59.0206 136.539 61.0263V106.052H79.4491V61.0263C79.4491 59.0206 81.1689 57.3889 83.2814 57.3889ZM36.5064 57.3889H55.4543V65.3104C55.4543 65.6287 55.1722 65.8978 54.8372 65.8978H37.1236C36.7826 65.8978 36.5064 65.6343 36.5064 65.3104V57.3889ZM146.404 116.324H7.673C5.9496 116.324 4.54831 114.99 4.54831 113.352C4.54831 111.712 5.9496 110.379 7.673 110.379H39.6981C40.9548 110.379 41.9728 109.411 41.9728 108.216C41.9728 107.021 40.9548 106.052 39.6981 106.052H17.8112V61.0263C17.8112 59.0206 19.5299 57.3889 21.6424 57.3889H31.9569V65.3104C31.9569 68.0197 34.274 70.2243 37.1224 70.2243H54.8372C57.6856 70.2243 60.0027 68.0197 60.0027 65.3104V57.3889H71.0684C73.1809 57.3889 74.9008 59.0206 74.9008 61.0263V106.052H50.1208C48.8652 106.052 47.8472 107.021 47.8472 108.216C47.8472 109.411 48.8652 110.379 50.1208 110.379H146.403C148.131 110.379 149.537 111.712 149.537 113.351C149.537 114.99 148.131 116.324 146.404 116.324Z" fill="black"/>
</svg>
