<svg width="85" height="90" viewBox="0 0 85 90" fill="none" xmlns="http://www.w3.org/2000/svg">
<path d="M26.949 37.9791H58.824C59.1762 37.9791 59.514 37.8396 59.7631 37.5914C60.0122 37.3432 60.1521 37.0066 60.1521 36.6556C60.1521 36.3045 60.0122 35.9679 59.7631 35.7197C59.514 35.4715 59.1762 35.332 58.824 35.332H26.949C26.5967 35.332 26.2589 35.4715 26.0098 35.7197C25.7608 35.9679 25.6208 36.3045 25.6208 36.6556C25.6208 37.0066 25.7608 37.3432 26.0098 37.5914C26.2589 37.8396 26.5967 37.9791 26.949 37.9791V37.9791Z" fill="black"/>
<path d="M58.9421 45.8867H27.0671C26.7149 45.8867 26.3771 46.0262 26.128 46.2744C25.8789 46.5226 25.739 46.8592 25.739 47.2102C25.739 47.5613 25.8789 47.8979 26.128 48.1461C26.3771 48.3943 26.7149 48.5338 27.0671 48.5338H58.9421C59.2944 48.5338 59.6322 48.3943 59.8813 48.1461C60.1303 47.8979 60.2703 47.5613 60.2703 47.2102C60.2703 46.8592 60.1303 46.5226 59.8813 46.2744C59.6322 46.0262 59.2944 45.8867 58.9421 45.8867Z" fill="black"/>
<path d="M67.5166 53.9735V28.7587C67.537 28.5647 67.5122 28.3686 67.4443 28.1856C67.3763 28.0026 67.267 27.8377 67.1248 27.7036L45.8775 9.17418C45.8554 9.15512 45.8243 9.15671 45.8015 9.13924C45.649 9.02342 45.4726 8.94269 45.2851 8.90286C45.1907 8.88403 45.0963 8.86506 45.002 8.84595H20.9594C19.9394 8.84686 18.9613 9.25099 18.2399 9.96967C17.5185 10.6884 17.1126 11.6629 17.1113 12.6794V65.8922C17.1125 66.909 17.5182 67.8839 18.2396 68.603C18.961 69.3221 19.9391 69.7268 20.9594 69.7283H55.0317C55.7389 71.7351 56.9738 73.516 58.6074 74.8849C60.241 76.2538 62.2134 77.1607 64.3187 77.5108C66.4239 77.8608 68.5849 77.6413 70.576 76.875C72.5671 76.1088 74.3153 74.824 75.638 73.1547C76.9608 71.4854 77.8097 69.4929 78.096 67.3851C78.3823 65.2773 78.0956 63.1316 77.2658 61.1719C76.4361 59.2123 75.0936 57.5105 73.3786 56.2443C71.6636 54.9781 69.639 54.1939 67.5161 53.9735H67.5166ZM46.3314 13.0855L62.7152 27.3754H47.5214C47.2054 27.3747 46.9025 27.2492 46.6793 27.0262C46.4561 26.8033 46.3308 26.5012 46.3309 26.1863L46.3314 13.0855ZM20.9594 67.0812C20.6432 67.0809 20.3401 66.9555 20.1166 66.7325C19.8931 66.5095 19.7676 66.2073 19.7676 65.8922V12.6794C19.7681 12.3647 19.8939 12.0631 20.1174 11.8406C20.3408 11.6182 20.6436 11.4932 20.9594 11.493H43.6738V26.1863C43.675 27.2031 44.0807 28.178 44.8021 28.8971C45.5235 29.6163 46.5016 30.0209 47.5219 30.0224H64.9847V53.9735C62.5996 54.2231 60.347 55.1892 58.5255 56.7437H26.9828C26.6305 56.7437 26.2927 56.8831 26.0436 57.1313C25.7946 57.3795 25.6546 57.7162 25.6546 58.0672C25.6546 58.4182 25.7946 58.7549 26.0436 59.0031C26.2927 59.2513 26.6305 59.3907 26.9828 59.3907H56.1842C54.9576 61.2897 54.3031 63.4993 54.2983 65.7577C54.3173 66.201 54.3616 66.6429 54.4311 67.0812H20.9594ZM66.2506 75.0224C64.4119 75.0224 62.6144 74.479 61.0856 73.461C59.5567 72.443 58.3651 70.9961 57.6614 69.3032C56.9578 67.6102 56.7737 65.7474 57.1324 63.9502C57.4911 62.1531 58.3766 60.5023 59.6767 59.2066C60.9769 57.9109 62.6335 57.0285 64.4369 56.671C66.2403 56.3135 68.1096 56.497 69.8084 57.1982C71.5072 57.8995 72.9591 59.0869 73.9807 60.6105C75.0023 62.1341 75.5475 63.9253 75.5475 65.7577C75.5446 68.214 74.5641 70.5688 72.8213 72.3056C71.0784 74.0424 68.7154 75.0195 66.2506 75.0224V75.0224Z" fill="black"/>
<path d="M72.6549 64.0437L67.5397 58.9669C67.4247 58.8572 67.2907 58.7691 67.1442 58.7069C67.132 58.7014 67.1267 58.6876 67.1142 58.6823H67.1051C66.8911 58.6019 66.6597 58.5787 66.4339 58.6148C66.3781 58.6217 66.3229 58.6325 66.2687 58.6471C66.0516 58.6977 65.8514 58.8038 65.688 58.955L65.6694 58.965L60.4138 64.1403C60.2875 64.262 60.1866 64.4074 60.1171 64.5682C60.0476 64.729 60.0108 64.902 60.0089 65.0771C60.0069 65.2521 60.0398 65.4259 60.1057 65.5882C60.1716 65.7505 60.2691 65.8981 60.3927 66.0226C60.5162 66.1471 60.6634 66.2459 60.8255 66.3133C60.9876 66.3807 61.1616 66.4154 61.3373 66.4154C61.513 66.4153 61.6869 66.3805 61.849 66.313C62.0111 66.2455 62.1582 66.1466 62.2817 66.0221L65.2803 63.0701L65.2957 71.6108C65.2963 71.9614 65.4365 72.2975 65.6855 72.5452C65.9346 72.7928 66.272 72.932 66.6238 72.932H66.6265C66.8009 72.9316 66.9735 72.897 67.1345 72.8302C67.2955 72.7634 67.4418 72.6656 67.5648 72.5424C67.6879 72.4193 67.7855 72.2732 67.8519 72.1125C67.9183 71.9518 67.9523 71.7796 67.952 71.6058L67.9371 63.0974L70.7822 65.9212C70.9051 66.0473 71.0519 66.1476 71.2141 66.2165C71.3764 66.2854 71.5507 66.3214 71.727 66.3224C71.9034 66.3234 72.0781 66.2894 72.2411 66.2224C72.4041 66.1554 72.5521 66.0567 72.6765 65.9321C72.8008 65.8075 72.899 65.6594 72.9653 65.4966C73.0316 65.3338 73.0647 65.1595 73.0627 64.9838C73.0607 64.8081 73.0236 64.6345 72.9536 64.4732C72.8835 64.312 72.782 64.1662 72.6549 64.0445V64.0437Z" fill="black"/>
</svg>
