<svg width="100" height="100" viewBox="0 0 100 100" fill="none" xmlns="http://www.w3.org/2000/svg">
<g clip-path="url(#clip0_8390_565)">
<path d="M33.2031 40.625H44.1406C44.555 40.625 44.9525 40.4604 45.2455 40.1674C45.5385 39.8743 45.7031 39.4769 45.7031 39.0625V33.8672C45.7031 33.4528 45.5385 33.0554 45.2455 32.7623C44.9525 32.4693 44.555 32.3047 44.1406 32.3047H33.2031C32.7887 32.3047 32.3913 32.4693 32.0983 32.7623C31.8052 33.0554 31.6406 33.4528 31.6406 33.8672V39.0625C31.6406 39.4769 31.8052 39.8743 32.0983 40.1674C32.3913 40.4604 32.7887 40.625 33.2031 40.625ZM34.7656 35.4297H42.5781V37.5H34.7656V35.4297Z" fill="black"/>
<path d="M76.9531 32.3047C76.5387 32.3047 76.1413 32.4693 75.8483 32.7623C75.5552 33.0554 75.3906 33.4528 75.3906 33.8672V39.0625C75.3906 39.4769 75.5552 39.8743 75.8483 40.1674C76.1413 40.4604 76.5387 40.625 76.9531 40.625H87.8906C88.305 40.625 88.7025 40.4604 88.9955 40.1674C89.2885 39.8743 89.4531 39.4769 89.4531 39.0625V33.8672C89.4531 33.4528 89.2885 33.0554 88.9955 32.7623C88.7025 32.4693 88.305 32.3047 87.8906 32.3047H76.9531ZM86.3281 37.5H78.5156V35.4297H86.3281V37.5Z" fill="black"/>
<path d="M44.1406 76.0547H33.2031C32.7887 76.0547 32.3913 76.2193 32.0983 76.5123C31.8052 76.8054 31.6406 77.2028 31.6406 77.6172V82.8125C31.6406 83.2269 31.8052 83.6243 32.0983 83.9174C32.3913 84.2104 32.7887 84.375 33.2031 84.375H44.1406C44.555 84.375 44.9525 84.2104 45.2455 83.9174C45.5385 83.6243 45.7031 83.2269 45.7031 82.8125V77.6172C45.7031 77.2028 45.5385 76.8054 45.2455 76.5123C44.9525 76.2193 44.555 76.0547 44.1406 76.0547ZM42.5781 81.25H34.7656V79.1797H42.5781V81.25Z" fill="black"/>
<path d="M87.8906 76.0547H76.9531C76.5387 76.0547 76.1413 76.2193 75.8483 76.5123C75.5552 76.8054 75.3906 77.2028 75.3906 77.6172V82.8125C75.3906 83.2269 75.5552 83.6243 75.8483 83.9174C76.1413 84.2104 76.5387 84.375 76.9531 84.375H87.8906C88.305 84.375 88.7025 84.2104 88.9955 83.9174C89.2885 83.6243 89.4531 83.2269 89.4531 82.8125V77.6172C89.4531 77.2028 89.2885 76.8054 88.9955 76.5123C88.7025 76.2193 88.305 76.0547 87.8906 76.0547ZM86.3281 81.25H78.5156V79.1797H86.3281V81.25Z" fill="black"/>
<path d="M98.4375 87.5H95.7031V1.5625C95.7031 1.1481 95.5385 0.750671 95.2455 0.457646C94.9525 0.16462 94.555 0 94.1406 0L66.0156 0H65.8906H65.7656H22.2656H22.1406H22.0156H6.64062C6.22622 0 5.8288 0.16462 5.53577 0.457646C5.24274 0.750671 5.07812 1.1481 5.07812 1.5625V87.5H1.5625C1.1481 87.5 0.750671 87.6646 0.457646 87.9576C0.16462 88.2507 0 88.6481 0 89.0625L0 95.3125C0 95.7269 0.16462 96.1243 0.457646 96.4174C0.750671 96.7104 1.1481 96.875 1.5625 96.875H5.07812V98.4375C5.07812 98.8519 5.24274 99.2493 5.53577 99.5424C5.8288 99.8354 6.22622 100 6.64062 100H16.0156C16.43 100 16.8275 99.8354 17.1205 99.5424C17.4135 99.2493 17.5781 98.8519 17.5781 98.4375V96.875H44.1406V98.4375C44.1406 98.8519 44.3052 99.2493 44.5983 99.5424C44.8913 99.8354 45.2887 100 45.7031 100H55.0781C55.4925 100 55.89 99.8354 56.183 99.5424C56.476 99.2493 56.6406 98.8519 56.6406 98.4375V96.875H82.4219V98.4375C82.4219 98.8519 82.5865 99.2493 82.8795 99.5424C83.1725 99.8354 83.57 100 83.9844 100H93.3594C93.7738 100 94.1712 99.8354 94.4642 99.5424C94.7573 99.2493 94.9219 98.8519 94.9219 98.4375V96.875H98.4375C98.8519 96.875 99.2493 96.7104 99.5424 96.4174C99.8354 96.1243 100 95.7269 100 95.3125V89.0625C100 88.6481 99.8354 88.2507 99.5424 87.9576C99.2493 87.6646 98.8519 87.5 98.4375 87.5ZM51.9531 46.875H64.4531V68.75C64.4533 69.0437 64.5361 69.3314 64.6923 69.5801C64.8484 69.8288 65.0715 70.0285 65.3359 70.1562C65.6008 70.2856 65.8969 70.3373 66.19 70.3056C66.4831 70.2738 66.7612 70.1597 66.9922 69.9766L72.2656 65.7734L77.5391 69.9766C77.8194 70.1917 78.1622 70.3097 78.5156 70.3125C78.7511 70.3123 78.9834 70.2589 79.1953 70.1562C79.4597 70.0285 79.6828 69.8288 79.839 69.5801C79.9951 69.3314 80.078 69.0437 80.0781 68.75V46.875H92.5781V87.5H51.9531V46.875ZM67.5781 46.875H76.9531V65.5078L73.2422 62.5547C72.9651 62.3328 72.6206 62.2119 72.2656 62.2119C71.9106 62.2119 71.5662 62.3328 71.2891 62.5547L67.5781 65.5078V46.875ZM92.5781 43.75H51.9531V3.125H64.4531V25C64.4533 25.2937 64.5361 25.5814 64.6923 25.8301C64.8484 26.0788 65.0715 26.2785 65.3359 26.4062C65.6008 26.5356 65.8969 26.5874 66.19 26.5556C66.4831 26.5238 66.7612 26.4097 66.9922 26.2266L72.2656 22.0234L77.5391 26.2266C77.8194 26.4418 78.1622 26.5597 78.5156 26.5625C78.7511 26.5623 78.9834 26.5089 79.1953 26.4062C79.4597 26.2785 79.6828 26.0788 79.839 25.8301C79.9951 25.5814 80.078 25.2937 80.0781 25V3.125H92.5781V43.75ZM67.5781 3.125H76.9531V21.7578L73.2422 18.8047C72.9651 18.5828 72.6206 18.4619 72.2656 18.4619C71.9106 18.4619 71.5662 18.5828 71.2891 18.8047L67.5781 21.7578V3.125ZM23.8281 3.125H33.2031V21.7578L29.4922 18.8047C29.2151 18.5828 28.8706 18.4619 28.5156 18.4619C28.1606 18.4619 27.8162 18.5828 27.5391 18.8047L23.8281 21.7578V3.125ZM8.20312 3.125H20.7031V25C20.7033 25.2937 20.7861 25.5814 20.9423 25.8301C21.0984 26.0788 21.3215 26.2785 21.5859 26.4062C21.8508 26.5356 22.1469 26.5874 22.44 26.5556C22.7331 26.5238 23.0112 26.4097 23.2422 26.2266L28.5156 22.0234L33.7891 26.2266C34.0694 26.4418 34.4122 26.5597 34.7656 26.5625C35.0011 26.5623 35.2334 26.5089 35.4453 26.4062C35.7097 26.2785 35.9328 26.0788 36.089 25.8301C36.2451 25.5814 36.328 25.2937 36.3281 25V3.125H48.8281V43.75H8.20312V3.125ZM23.8281 46.875H33.2031V65.5078L29.4922 62.5547C29.2151 62.3328 28.8706 62.2119 28.5156 62.2119C28.1606 62.2119 27.8162 62.3328 27.5391 62.5547L23.8281 65.5078V46.875ZM8.20312 46.875H20.7031V68.75C20.7033 69.0437 20.7861 69.3314 20.9423 69.5801C21.0984 69.8288 21.3215 70.0285 21.5859 70.1562C21.8508 70.2856 22.1469 70.3373 22.44 70.3056C22.7331 70.2738 23.0112 70.1597 23.2422 69.9766L28.5156 65.7734L33.7891 69.9766C34.0694 70.1917 34.4122 70.3097 34.7656 70.3125C35.0011 70.3123 35.2334 70.2589 35.4453 70.1562C35.7097 70.0285 35.9328 69.8288 36.089 69.5801C36.2451 69.3314 36.328 69.0437 36.3281 68.75V46.875H48.8281V87.5H8.20312V46.875ZM96.875 93.75H93.3594C92.945 93.75 92.5475 93.9146 92.2545 94.2076C91.9615 94.5007 91.7969 94.8981 91.7969 95.3125V96.875H85.5469V95.3125C85.5469 94.8981 85.3823 94.5007 85.0892 94.2076C84.7962 93.9146 84.3988 93.75 83.9844 93.75H55.0781C54.6637 93.75 54.2663 93.9146 53.9733 94.2076C53.6802 94.5007 53.5156 94.8981 53.5156 95.3125V96.875H47.2656V95.3125C47.2656 94.8981 47.101 94.5007 46.808 94.2076C46.515 93.9146 46.1175 93.75 45.7031 93.75H16.0156C15.6012 93.75 15.2038 93.9146 14.9108 94.2076C14.6177 94.5007 14.4531 94.8981 14.4531 95.3125V96.875H8.20312V95.3125C8.20312 94.8981 8.0385 94.5007 7.74548 94.2076C7.45245 93.9146 7.05503 93.75 6.64062 93.75H3.125V90.625H96.875V93.75Z" fill="black"/>
</g>
<defs>
<clipPath id="clip0_8390_565">
<rect width="100" height="100" fill="white"/>
</clipPath>
</defs>
</svg>
