<svg width="512" height="512" viewBox="0 0 512 512" fill="none" xmlns="http://www.w3.org/2000/svg">
<g clip-path="url(#clip0)">
<path d="M103.938 73.2881H171.215C176.016 73.2881 179.908 77.1801 179.909 81.9811C179.909 86.7831 176.016 90.6751 171.215 90.6751H112.632V416.958V446.5H95.2439V416.958V81.9821C95.2439 77.1801 99.1369 73.2881 103.938 73.2881Z" fill="black"/>
<path d="M408.062 73.2881H340.774C335.973 73.2881 332.08 77.1801 332.08 81.9821C332.08 86.7831 335.972 90.6761 340.774 90.6761H399.369V494.614H112.632V445.937C112.632 441.136 108.74 437.243 103.938 437.243C99.1369 437.243 95.2439 441.135 95.2439 445.937V503.308C95.2439 508.109 99.1359 512.002 103.938 512.002H408.062C412.863 512.002 416.756 508.11 416.756 503.308V81.9821C416.756 77.1801 412.863 73.2881 408.062 73.2881Z" fill="black"/>
<path d="M323.075 84.7138L262.796 9.10679C261.147 7.03779 258.644 5.83179 255.999 5.83179C253.354 5.83179 250.851 7.03779 249.202 9.10679L188.922 84.7158C186.84 87.3258 186.438 90.8988 187.887 93.9078C189.335 96.9158 192.379 98.8288 195.718 98.8288H217.612V178.806C217.612 183.607 221.504 187.5 226.306 187.5H285.691C290.492 187.5 294.385 183.608 294.385 178.806V155.626C294.385 150.825 290.492 108 285.69 108C280.889 108 276.997 150.824 276.997 155.626V170.113H234.999V90.1338C234.999 85.3328 231.107 81.4398 226.305 81.4398H213.767L255.998 28.4708L298.229 81.4398H285.69C280.889 81.4398 276.996 85.3318 276.996 90.1338V129.416C276.996 178.806 280.888 172.332 285.69 172.332C290.491 172.332 294.385 172.332 294.384 129.416V98.8278H316.278C319.617 98.8278 322.661 96.9148 324.11 93.9058C325.559 90.8978 325.157 87.3248 323.075 84.7138Z" fill="black"/>
<path d="M176.6 207.744H160.377C155.576 207.744 151.683 211.636 151.683 216.438C151.683 221.239 155.575 225.132 160.377 225.132H176.6C181.401 225.132 185.294 221.24 185.294 216.438C185.294 211.636 181.401 207.744 176.6 207.744Z" fill="black"/>
<path d="M351.623 207.744H205.578C200.777 207.744 196.884 211.636 196.884 216.438C196.884 221.239 200.776 225.132 205.578 225.132H351.623C356.424 225.132 360.317 221.24 360.317 216.438C360.317 211.636 356.425 207.744 351.623 207.744Z" fill="black"/>
<path d="M247.884 253.291H160.377C155.576 253.291 151.683 257.183 151.683 261.985C151.683 266.786 155.575 270.679 160.377 270.679H247.884C252.685 270.679 256.578 266.787 256.578 261.985C256.577 257.183 252.685 253.291 247.884 253.291Z" fill="black"/>
<path d="M351.623 253.291H276.861C272.06 253.291 268.167 257.183 268.167 261.985C268.167 266.786 272.059 270.679 276.861 270.679H351.623C356.424 270.679 360.317 266.787 360.317 261.985C360.317 257.183 356.425 253.291 351.623 253.291Z" fill="black"/>
<path d="M351.623 298.84H160.377C155.576 298.84 151.683 302.732 151.683 307.534C151.683 312.336 155.575 316.228 160.377 316.228H351.624C356.425 316.228 360.318 312.336 360.318 307.534C360.318 302.732 356.425 298.84 351.623 298.84Z" fill="black"/>
<path d="M210.795 344.387H160.377C155.576 344.387 151.683 348.279 151.683 353.081C151.683 357.882 155.575 361.775 160.377 361.775H210.795C215.596 361.775 219.489 357.883 219.489 353.081C219.488 348.279 215.596 344.387 210.795 344.387Z" fill="black"/>
<path d="M351.623 344.387H239.773C234.972 344.387 231.079 348.279 231.079 353.081C231.079 357.882 234.971 361.775 239.773 361.775H351.623C356.424 361.775 360.317 357.883 360.317 353.081C360.317 348.279 356.425 344.387 351.623 344.387Z" fill="black"/>
<path d="M351.623 435.483H278.6C273.799 435.483 269.906 439.375 269.906 444.177C269.906 448.979 273.798 452.871 278.6 452.871H351.624C356.425 452.871 360.318 448.979 360.318 444.177C360.318 439.375 356.425 435.483 351.623 435.483Z" fill="black"/>
</g>
<defs>
<clipPath id="clip0">
<rect width="512" height="512" fill="white"/>
</clipPath>
</defs>
</svg>
