<svg width="100" height="100" viewBox="0 0 100 100" fill="none" xmlns="http://www.w3.org/2000/svg">
<path d="M20.4103 0.351562C18.5744 0.976562 17.2463 2.38281 16.6798 4.21875C16.5236 4.78516 16.4064 5.99609 16.4064 7.34375V9.55078L14.7853 10.3125C6.91422 14.0039 1.28922 21.7773 0.195473 30.5078C-0.195152 33.6719 0.0196918 34.8242 1.07438 35.3125C1.44547 35.4883 4.76579 35.5469 13.8869 35.5469C27.2463 35.5469 27.0119 35.5664 27.5002 34.4727C27.6759 34.1016 27.7345 30.7812 27.7345 21.6602C27.7345 8.125 27.7736 8.51562 26.5431 8.00781C26.0353 7.79297 25.4689 7.79297 23.5548 7.96875C22.2658 8.10547 20.9767 8.26172 20.7228 8.32031L20.2736 8.45703L20.3322 6.77734C20.4103 5.23438 20.4494 5.03906 20.9572 4.55078L21.4845 4.00391L49.9025 3.94531L78.3009 3.90625L78.3595 10.5859C78.4181 18.1836 78.4377 18.2812 80.0783 19.9219C81.7189 21.5625 81.8166 21.582 89.4142 21.6406L96.0939 21.6992L96.0548 58.3008L95.9963 94.9219L95.4494 95.4492L94.922 95.9961H58.2033H21.4845L20.9572 95.4492L20.4103 94.9219L20.3127 85.7617C20.215 75.7227 20.2736 76.1914 18.9845 75.6445C18.3986 75.4102 18.2423 75.4102 17.6173 75.7227C17.2267 75.918 16.7775 76.2891 16.6603 76.5625C16.465 76.9336 16.4064 79.1602 16.4455 86.3281C16.5041 95.3516 16.5236 95.625 16.9142 96.5039C17.4611 97.6758 18.7306 98.9453 19.9025 99.4922L20.8009 99.9023H58.2033H95.6056L96.5041 99.4922C97.6759 98.9453 98.9455 97.6758 99.4923 96.5039L99.9025 95.6055L99.9611 57.6172C99.9806 36.7188 99.9611 19.4141 99.9025 19.1406C99.7658 18.6328 82.9689 1.60156 81.5627 0.566406L80.8009 0H51.0939C23.4377 0.0195312 21.3283 0.0390625 20.4103 0.351562ZM88.8283 17.7344C86.4259 17.7734 84.1994 17.7344 83.8673 17.6758C83.5353 17.6172 83.047 17.3438 82.7931 17.0703C82.3244 16.582 82.3244 16.543 82.2658 11.6602L82.2072 6.73828L87.6955 12.207L93.1642 17.6758L88.8283 17.7344ZM23.8283 21.7773V31.6406H13.9455H4.04313L4.16032 30.5078C4.3361 28.9258 5.17594 26.1523 6.05485 24.2773C8.37907 19.3359 12.6564 15.3125 17.8322 13.2617C19.258 12.6758 22.2267 11.9336 23.1056 11.9141H23.8283V21.7773Z" fill="black"/>
<path d="M31.719 15.1953C31.4847 15.3711 31.1917 15.7227 31.0745 15.9571C30.9182 16.25 30.8597 19.7071 30.8597 27.5196V38.6719H19.7073C11.8948 38.6719 8.43778 38.7305 8.14481 38.8867C6.97294 39.4922 6.75809 40.9375 7.3245 44.4336C9.06278 55.2539 16.9534 63.5742 27.5979 65.8594C30.2151 66.4063 35.0003 66.4649 37.5393 65.9571C48.0862 63.8477 56.0354 55.8985 58.1448 45.3516C58.6526 42.8125 58.594 38.0274 58.0472 35.4102C55.762 24.7657 47.4417 16.875 36.6214 15.1367C34.18 14.7266 32.2464 14.7657 31.719 15.1953ZM37.5003 19.2774C40.2347 19.8242 44.1604 21.6407 46.094 23.2422L46.7776 23.8086L40.7815 29.8242L34.7659 35.8399V27.3047V18.75L35.4104 18.8672C35.7425 18.9258 36.6995 19.1016 37.5003 19.2774ZM50.8597 28.3008C54.6878 34.1016 55.6448 40.7617 53.594 47.3047C51.5237 53.8477 46.0354 59.336 39.4925 61.4063C29.7854 64.4727 19.3557 60.586 14.1018 51.9532C12.637 49.5117 11.4261 46.1133 11.0745 43.418L10.9768 42.5782L22.2854 42.5391L33.594 42.4805L41.5432 34.5313C47.6956 28.3789 49.5511 26.6211 49.7464 26.7969C49.8831 26.9141 50.3909 27.5782 50.8597 28.3008Z" fill="black"/>
<path d="M64.7461 27.3243C63.5352 27.8321 63.2031 29.5118 64.1406 30.4297L64.6485 30.9571L77.1094 31.0157C90.1563 31.0743 90.332 31.0547 90.918 30.1954C91.25 29.7266 91.3086 28.6524 91.0156 28.1055C90.4883 27.1485 90.5469 27.1485 77.4024 27.168C70.6641 27.168 64.961 27.2461 64.7461 27.3243Z" fill="black"/>
<path d="M64.7461 36.6993C63.5352 37.2071 63.2031 38.8868 64.1406 39.8047L64.6485 40.3321L77.1094 40.3907C90.1563 40.4493 90.332 40.4297 90.918 39.5704C91.25 39.1016 91.3086 38.0274 91.0156 37.4805C90.4883 36.5235 90.5469 36.5235 77.4024 36.543C70.6641 36.543 64.961 36.6212 64.7461 36.6993Z" fill="black"/>
<path d="M64.7461 46.0742C63.5352 46.582 63.2031 48.2617 64.1406 49.1796L64.6485 49.707L70.3516 49.7656C76.543 49.8242 76.9531 49.7656 77.4414 48.8085C77.793 48.1445 77.8125 47.6367 77.5 46.9726C77.0313 45.957 76.6602 45.8984 70.6641 45.9179C67.6172 45.9179 64.961 45.996 64.7461 46.0742Z" fill="black"/>
<path d="M83.8868 46.1132C82.4415 46.9531 82.461 48.8476 83.9649 49.6093C85.3712 50.332 87.0704 48.6914 86.4454 47.207C86.3087 46.8554 86.0548 46.4648 85.879 46.3281C85.4493 45.9765 84.3555 45.8593 83.8868 46.1132Z" fill="black"/>
<path d="M83.6916 61.9726C80.7814 63.1249 79.1994 65.9179 79.883 68.7499L80.1369 69.7655L74.5119 75.3905L68.9064 80.996L68.008 80.7421C66.8752 80.3905 65.6838 80.3905 64.7072 80.7421L63.926 81.0155L60.176 77.2655L56.4455 73.5155L56.6408 72.4608C57.3049 68.9647 54.5705 65.6444 51.0354 65.6249C47.1096 65.6249 44.2775 69.2577 45.3127 72.9686L45.5666 73.8671L41.9924 77.4413L38.4377 80.996L37.5393 80.7421C35.508 80.1171 33.3596 80.6835 31.8361 82.2265C29.551 84.4921 29.5314 88.0468 31.758 90.3319C34.3557 93.0077 38.5158 92.6561 40.7229 89.5702C41.7971 88.0468 41.9924 86.2694 41.3088 84.0819C41.2111 83.7694 41.8752 83.0077 44.7072 80.1952L48.2229 76.6796L49.0627 76.9335C50.1955 77.285 52.09 77.246 53.008 76.8554L53.7697 76.5233L57.383 80.1366L60.9963 83.7499L60.7424 84.6483C60.0002 87.3436 61.3088 90.3124 63.8283 91.5429C66.7385 92.9686 70.3713 91.6014 71.6994 88.5741C72.1877 87.4804 72.2658 85.4686 71.8947 84.4921C71.6604 83.9061 71.6604 83.9061 77.2658 78.3007L82.8908 72.6757L83.5744 72.9686C83.965 73.1444 84.8635 73.2811 85.5861 73.2811C87.8518 73.2811 89.8439 72.0116 90.8596 69.9413C91.5236 68.5936 91.4846 66.289 90.7814 64.9218C90.1174 63.6718 88.7307 62.4218 87.5588 62.0311C86.5041 61.6796 84.5314 61.6405 83.6916 61.9726ZM86.8166 66.0936C87.715 66.9921 87.6564 68.2811 86.6604 69.0038C85.6838 69.746 84.2775 69.3358 83.7893 68.1835C83.0471 66.3866 85.4494 64.7265 86.8166 66.0936ZM52.2072 70.0194C52.8127 70.6444 52.9689 71.4061 52.6369 72.2069C52.3244 72.9491 51.758 73.2811 50.8205 73.2811C49.883 73.2811 49.0236 72.3632 49.0236 71.3671C49.0236 69.785 51.0744 68.9061 52.2072 70.0194ZM37.1486 84.9413C38.4768 86.1327 37.6955 88.1835 35.9182 88.1835C35.2541 88.1835 35.0197 88.0663 34.551 87.539C32.9299 85.7225 35.3322 83.3202 37.1486 84.9413ZM67.5979 84.9218C69.1213 86.289 67.7541 88.6913 65.801 88.1054C64.1408 87.6171 63.9846 85.4491 65.5275 84.6093C66.2111 84.2382 66.9533 84.3358 67.5979 84.9218Z" fill="black"/>
<path d="M17.6759 68.5351C16.4259 69.0625 16.0939 70.6836 17.0509 71.6211C18.2228 72.8125 20.215 71.9922 20.215 70.3125C20.215 69.0234 18.8087 68.0469 17.6759 68.5351Z" fill="black"/>
</svg>
