<svg width="72" height="72" viewBox="0 0 72 72" fill="none" xmlns="http://www.w3.org/2000/svg">
<path d="M58.667 30.9265V7.98596C58.667 5.05591 56.283 2.67188 53.3529 2.67188H5.31409C2.38403 2.67188 0 5.05591 0 7.98596V56.0248C0 58.9554 2.38403 61.3389 5.31409 61.3389H36.2505C39.8568 66.2432 45.6652 69.4319 52.2054 69.4319C63.1203 69.4319 72 60.5522 72 49.6373C72 40.9839 66.4184 33.611 58.667 30.9265ZM24.115 6.99774H34.552V18.9382L30.136 17.1738C29.6208 16.9684 29.0462 16.9684 28.5309 17.1738L24.115 18.9382V6.99774ZM5.31409 57.013C4.76917 57.013 4.32587 56.5697 4.32587 56.0248V7.98596C4.32587 7.44104 4.76917 6.99774 5.31409 6.99774H19.7897V22.132C19.7897 22.8494 20.1456 23.5201 20.7394 23.9227C21.3338 24.3248 22.0886 24.4067 22.7549 24.1403L29.3335 21.5118L35.9127 24.1403C36.1714 24.2435 36.4438 24.2946 36.7147 24.2946C37.1409 24.2946 37.5645 24.1683 37.9281 23.9227C38.5219 23.5201 38.8779 22.8494 38.8779 22.132V6.99774H53.3529C53.8978 6.99774 54.3411 7.44104 54.3411 7.98596V29.9581C53.6396 29.8823 52.9272 29.8427 52.2054 29.8427C41.2905 29.8427 32.4108 38.7224 32.4108 49.6373C32.4108 52.2433 32.9178 54.7322 33.8368 57.013H5.31409ZM52.2054 65.1061C43.6756 65.1061 36.7366 58.1666 36.7366 49.6373C36.7366 41.1075 43.6756 34.1686 52.2054 34.1686C60.7346 34.1686 67.6741 41.1075 67.6741 49.6373C67.6741 58.1666 60.7346 65.1061 52.2054 65.1061Z" fill="black"/>
<path d="M60.0809 47.6187H54.2241V41.7618C54.2241 40.5671 53.2557 39.5986 52.0609 39.5986C50.8667 39.5986 49.8983 40.5671 49.8983 41.7618V49.7819C49.8983 50.9761 50.8667 51.9445 52.0609 51.9445H60.0809C61.2757 51.9445 62.2441 50.9761 62.2441 49.7819C62.2441 48.5871 61.2757 47.6187 60.0809 47.6187Z" fill="black"/>
</svg>
