<?xml version="1.0" encoding="UTF-8"?>
<svg xmlns="http://www.w3.org/2000/svg" xmlns:xlink="http://www.w3.org/1999/xlink" width="108px" height="108px" viewBox="0 0 108 108" version="1.1">
<defs>
<clipPath id="clip1">
  <path d="M 0 0 L 107.894531 0 L 107.894531 108 L 0 108 Z M 0 0 "/>
</clipPath>
</defs>
<g id="surface1">
<g clip-path="url(#clip1)" clip-rule="nonzero">
<path style=" stroke:none;fill-rule:nonzero;fill:rgb(20%,20%,20%);fill-opacity:1;" d="M 75.628906 36.519531 C 75.886719 36.09375 76.15625 35.671875 76.414062 35.246094 C 78.988281 30.917969 83.683594 30.945312 86.210938 35.324219 C 89.316406 40.699219 92.402344 46.101562 95.492188 51.492188 C 99.292969 58.109375 103.109375 64.710938 106.894531 71.328125 C 108.816406 74.675781 107.863281 78.171875 104.621094 79.414062 C 103.730469 79.761719 102.683594 79.820312 101.714844 79.820312 C 93.613281 79.851562 85.515625 79.835938 77.414062 79.835938 C 76.792969 79.835938 76.171875 79.835938 75.308594 79.835938 C 75.308594 80.578125 75.308594 81.183594 75.308594 81.773438 C 75.308594 89.617188 75.308594 97.460938 75.308594 105.304688 C 75.308594 107.53125 74.871094 107.96875 72.644531 107.96875 C 49.328125 107.96875 26.027344 107.96875 2.710938 107.96875 C 0.421875 107.96875 -0.015625 107.515625 -0.015625 105.199219 C -0.015625 76.492188 -0.015625 47.800781 -0.015625 19.09375 C -0.015625 16.820312 0.453125 16.335938 2.738281 16.335938 C 8.175781 16.335938 13.609375 16.304688 19.046875 16.351562 C 19.984375 16.351562 20.53125 16.09375 21.058594 15.277344 C 22.742188 12.613281 25.300781 11.355469 28.613281 11.097656 C 28.492188 7.359375 29.191406 3.90625 32.523438 1.605469 C 34.308594 0.378906 36.277344 -0.167969 38.441406 -0.015625 C 43.332031 0.347656 45.785156 3.558594 46.84375 11.082031 C 50.25 11.371094 52.945312 12.882812 54.71875 15.925781 C 54.898438 16.230469 55.640625 16.289062 56.109375 16.289062 C 61.546875 16.320312 66.980469 16.304688 72.417969 16.304688 C 74.855469 16.304688 75.28125 16.714844 75.28125 19.09375 C 75.28125 24.84375 75.28125 30.582031 75.28125 36.335938 C 75.429688 36.441406 75.535156 36.472656 75.628906 36.519531 Z M 64.53125 79.898438 C 63.210938 79.898438 61.957031 79.761719 60.746094 79.929688 C 56.292969 80.503906 52.796875 75.734375 55.671875 71.160156 C 58.609375 66.484375 61.242188 61.609375 63.953125 56.792969 C 64.332031 56.113281 64.589844 55.25 64.589844 54.460938 C 64.636719 45.679688 64.621094 36.898438 64.621094 28.117188 C 64.621094 27.617188 64.574219 27.101562 64.53125 26.433594 C 61.257812 26.433594 58.078125 26.375 54.914062 26.464844 C 54.113281 26.496094 53.203125 26.8125 52.539062 27.28125 C 50.871094 28.449219 49.132812 29.265625 47.042969 29.265625 C 40.773438 29.25 34.488281 29.386719 28.238281 29.175781 C 26.527344 29.117188 24.738281 28.28125 23.195312 27.417969 C 22.164062 26.84375 21.273438 26.375 20.0625 26.421875 C 17.546875 26.496094 15.050781 26.449219 12.535156 26.449219 C 11.992188 26.449219 11.429688 26.449219 10.886719 26.449219 C 10.886719 50.386719 10.886719 74.082031 10.886719 97.792969 C 23.421875 97.792969 35.820312 97.792969 48.359375 97.792969 C 48.359375 93.675781 48.359375 89.648438 48.359375 85.636719 C 48.359375 83.5625 48.890625 83.015625 50.949219 83 C 54.914062 82.988281 58.898438 83 62.863281 82.988281 C 63.410156 82.988281 63.96875 82.925781 64.53125 82.894531 C 64.53125 81.835938 64.53125 80.972656 64.53125 79.898438 Z M 3.601562 19.925781 C 3.601562 48.101562 3.601562 76.203125 3.601562 104.394531 C 26.359375 104.394531 49.011719 104.394531 71.75 104.394531 C 71.75 96.25 71.75 88.164062 71.75 80.019531 C 70.511719 80.019531 69.359375 80.019531 68.074219 80.019531 C 68.074219 81.277344 67.964844 82.441406 68.101562 83.5625 C 68.269531 85.03125 67.664062 86 66.617188 86.953125 C 61.699219 91.40625 56.851562 95.945312 51.917969 100.367188 C 51.28125 100.929688 50.28125 101.351562 49.433594 101.351562 C 36.367188 101.414062 23.300781 101.398438 10.234375 101.398438 C 7.691406 101.398438 7.28125 101.003906 7.28125 98.535156 C 7.28125 74.28125 7.28125 50.007812 7.28125 25.753906 C 7.28125 23.4375 7.734375 22.984375 10.007812 22.96875 C 13.230469 22.96875 16.472656 22.96875 19.832031 22.96875 C 19.695312 21.847656 19.574219 20.894531 19.441406 19.910156 C 14.109375 19.925781 8.902344 19.925781 3.601562 19.925781 Z M 81.304688 76.292969 C 88.089844 76.308594 94.886719 76.308594 101.671875 76.308594 C 104.457031 76.308594 105.09375 75.21875 103.730469 72.84375 C 99.460938 65.421875 95.203125 57.988281 90.933594 50.570312 C 88.316406 45.996094 85.695312 41.425781 83.03125 36.867188 C 82.015625 35.125 80.625 35.140625 79.5625 36.820312 C 79.429688 37.050781 79.292969 37.261719 79.15625 37.488281 C 72.386719 49.3125 65.632812 61.121094 58.867188 72.949219 C 57.59375 75.171875 58.214844 76.277344 60.773438 76.292969 C 67.617188 76.292969 74.460938 76.292969 81.304688 76.292969 Z M 37.640625 25.753906 C 40.621094 25.753906 43.605469 25.816406 46.574219 25.738281 C 49.84375 25.664062 52.21875 23.269531 52.203125 20.226562 C 52.191406 16.988281 49.886719 14.792969 46.453125 14.761719 C 46.238281 14.761719 46.027344 14.761719 45.832031 14.761719 C 43.742188 14.746094 43.210938 14.230469 43.179688 12.1875 C 43.164062 11.1875 43.195312 10.203125 43.164062 9.203125 C 43.058594 5.902344 40.789062 3.542969 37.714844 3.527344 C 34.640625 3.511719 32.324219 5.828125 32.15625 9.128906 C 32.113281 10.175781 32.15625 11.21875 32.144531 12.261719 C 32.113281 14.230469 31.582031 14.671875 29.597656 14.777344 C 28.417969 14.835938 27.148438 14.898438 26.101562 15.367188 C 23.769531 16.410156 22.742188 18.925781 23.300781 21.574219 C 23.816406 23.953125 26.085938 25.707031 28.871094 25.753906 C 31.792969 25.785156 34.71875 25.753906 37.640625 25.753906 Z M 55.460938 22.96875 C 57.640625 22.96875 59.625 22.96875 61.59375 22.96875 C 68.828125 23 68.058594 22.179688 68.074219 29.371094 C 68.085938 35.429688 68.074219 41.484375 68.074219 47.542969 C 68.074219 48.027344 68.117188 48.527344 68.164062 49.496094 C 69.148438 47.800781 69.8125 46.453125 70.644531 45.226562 C 71.601562 43.816406 71.886719 42.347656 71.859375 40.667969 C 71.78125 34.292969 71.828125 27.917969 71.828125 21.558594 C 71.828125 21.015625 71.828125 20.46875 71.828125 19.910156 C 66.375 19.910156 61.167969 19.910156 55.929688 19.910156 C 55.792969 20.894531 55.640625 21.816406 55.460938 22.96875 Z M 51.902344 95.554688 C 55.21875 92.511719 58.292969 89.679688 61.605469 86.621094 C 58.140625 86.621094 55.066406 86.621094 51.902344 86.621094 C 51.902344 89.527344 51.902344 92.328125 51.902344 95.554688 Z M 51.902344 95.554688 "/>
</g>
<path style=" stroke:none;fill-rule:nonzero;fill:rgb(20%,20%,20%);fill-opacity:1;" d="M 40.789062 44.195312 C 37.183594 44.195312 33.582031 44.195312 29.992188 44.195312 C 29.476562 44.195312 28.8125 44.332031 28.460938 44.058594 C 27.902344 43.648438 27.191406 42.9375 27.207031 42.378906 C 27.222656 41.816406 27.976562 41.199219 28.554688 40.773438 C 28.871094 40.546875 29.460938 40.667969 29.929688 40.667969 C 37.183594 40.667969 44.4375 40.667969 51.6875 40.667969 C 51.902344 40.667969 52.113281 40.667969 52.308594 40.667969 C 53.492188 40.667969 54.445312 41.0625 54.460938 42.394531 C 54.472656 43.710938 53.566406 44.164062 52.371094 44.179688 C 50.808594 44.195312 49.234375 44.179688 47.675781 44.179688 C 45.390625 44.195312 43.089844 44.195312 40.789062 44.195312 Z M 40.789062 44.195312 "/>
<path style=" stroke:none;fill-rule:nonzero;fill:rgb(20%,20%,20%);fill-opacity:1;" d="M 40.878906 56.382812 C 44.585938 56.382812 48.296875 56.398438 51.992188 56.367188 C 53.246094 56.367188 54.351562 56.535156 54.488281 58.078125 C 54.582031 59.246094 53.625 59.910156 51.929688 59.925781 C 44.511719 59.925781 37.109375 59.925781 29.6875 59.925781 C 29.476562 59.925781 29.265625 59.941406 29.066406 59.910156 C 27.949219 59.820312 27.113281 59.304688 27.128906 58.09375 C 27.144531 56.882812 27.960938 56.382812 29.128906 56.382812 C 33.050781 56.382812 36.957031 56.382812 40.878906 56.382812 Z M 40.878906 56.382812 "/>
<path style=" stroke:none;fill-rule:nonzero;fill:rgb(20%,20%,20%);fill-opacity:1;" d="M 36.503906 75.613281 C 34.15625 75.613281 31.808594 75.613281 29.445312 75.613281 C 28.234375 75.613281 27.160156 75.308594 27.128906 73.886719 C 27.101562 72.449219 28.128906 72.128906 29.371094 72.128906 C 34.066406 72.144531 38.773438 72.144531 43.46875 72.128906 C 44.679688 72.128906 45.707031 72.355469 45.8125 73.808594 C 45.890625 74.945312 45.011719 75.597656 43.390625 75.597656 C 41.105469 75.628906 38.804688 75.613281 36.503906 75.613281 Z M 36.503906 75.613281 "/>
<path style=" stroke:none;fill-rule:nonzero;fill:rgb(20%,20%,20%);fill-opacity:1;" d="M 21.0625 73.8125 C 21.816406 75.066406 24 76.066406 22.257812 77.734375 C 20.636719 79.277344 19.636719 77.25 18.503906 76.476562 C 17.140625 77.15625 16.199219 79.777344 14.367188 77.839844 C 12.671875 76.050781 15.171875 75.144531 15.835938 73.855469 C 15.171875 72.523438 12.550781 71.570312 14.460938 69.753906 C 16.1875 68.101562 17.199219 70.417969 18.425781 71.238281 C 19.636719 70.511719 20.578125 68.359375 22.226562 69.933594 C 23.984375 71.601562 21.863281 72.628906 21.0625 73.8125 Z M 21.0625 73.8125 "/>
<path style=" stroke:none;fill-rule:nonzero;fill:rgb(20%,20%,20%);fill-opacity:1;" d="M 17.230469 57.808594 C 18.957031 56.144531 20.453125 54.765625 21.878906 53.3125 C 22.757812 52.417969 23.726562 51.917969 24.738281 52.855469 C 25.769531 53.8125 25.34375 54.8125 24.46875 55.703125 C 22.710938 57.492188 20.984375 59.308594 19.230469 61.09375 C 17.988281 62.351562 17.214844 62.335938 15.914062 61.09375 C 14.972656 60.1875 14.035156 59.277344 13.125 58.339844 C 12.324219 57.492188 12.203125 56.535156 13.082031 55.71875 C 13.914062 54.945312 14.824219 55.128906 15.578125 55.902344 C 16.171875 56.492188 16.667969 57.15625 17.230469 57.808594 Z M 17.230469 57.808594 "/>
<path style=" stroke:none;fill-rule:nonzero;fill:rgb(20%,20%,20%);fill-opacity:1;" d="M 17.320312 42.058594 C 18.910156 40.53125 20.425781 39.105469 21.910156 37.636719 C 22.773438 36.777344 23.710938 36.230469 24.738281 37.230469 C 25.738281 38.214844 25.316406 39.199219 24.4375 40.078125 C 22.726562 41.816406 21.03125 43.605469 19.320312 45.34375 C 17.972656 46.707031 17.277344 46.722656 15.882812 45.480469 C 15.035156 44.710938 14.171875 43.953125 13.355469 43.148438 C 12.582031 42.394531 12.429688 41.46875 13.171875 40.652344 C 13.929688 39.835938 14.851562 39.925781 15.6875 40.589844 C 16.261719 41.046875 16.777344 41.558594 17.320312 42.058594 Z M 17.320312 42.058594 "/>
<path style=" stroke:none;fill-rule:nonzero;fill:rgb(20%,20%,20%);fill-opacity:1;" d="M 81.835938 70.449219 C 81.835938 69.769531 81.941406 69.074219 81.804688 68.421875 C 81.714844 67.996094 81.261719 67.664062 80.988281 67.285156 C 80.746094 67.664062 80.324219 68.027344 80.292969 68.421875 C 80.203125 69.664062 80.277344 70.933594 80.230469 72.175781 C 80.15625 74.265625 78.734375 75.097656 76.945312 74.023438 C 72.132812 71.085938 70.421875 63.804688 75.234375 59.730469 C 76.066406 59.035156 76.296875 58.351562 76.28125 57.339844 C 76.203125 53.839844 76.1875 50.328125 76.1875 46.832031 C 76.1875 44.03125 77.761719 42.441406 80.519531 42.410156 C 83.804688 42.378906 85.546875 43.832031 85.605469 46.785156 C 85.667969 50.390625 85.699219 53.992188 85.667969 57.609375 C 85.652344 58.640625 85.984375 59.308594 86.757812 60.003906 C 91.222656 63.984375 90.695312 70.449219 85.636719 73.570312 C 84.851562 74.054688 83.546875 74.402344 82.804688 74.085938 C 82.230469 73.84375 82.125 72.449219 81.882812 71.554688 C 81.792969 71.222656 81.867188 70.828125 81.867188 70.464844 C 81.851562 70.449219 81.851562 70.449219 81.835938 70.449219 Z M 85.710938 68.347656 C 87.152344 66.648438 85.96875 63.351562 83.820312 62.125 C 82.546875 61.394531 82.183594 60.414062 82.199219 59.035156 C 82.230469 55.28125 82.15625 51.523438 82.125 47.769531 C 82.125 46.800781 82.246094 45.863281 80.746094 45.921875 C 79.292969 45.96875 79.71875 46.96875 79.71875 47.710938 C 79.71875 51.207031 79.6875 54.703125 79.808594 58.203125 C 79.867188 59.941406 79.65625 61.289062 77.839844 62.152344 C 75.808594 63.121094 75.21875 66.832031 76.492188 67.984375 C 76.855469 67.042969 76.992188 65.789062 77.6875 65.074219 C 78.476562 64.273438 79.777344 63.484375 80.808594 63.5625 C 82.046875 63.636719 83.441406 64.394531 84.378906 65.273438 C 85.136719 65.953125 85.289062 67.285156 85.710938 68.347656 Z M 85.710938 68.347656 "/>
</g>
</svg>
