<?xml version="1.0" encoding="UTF-8"?>
<svg xmlns="http://www.w3.org/2000/svg" xmlns:xlink="http://www.w3.org/1999/xlink" width="108px" height="108px" viewBox="0 0 108 108" version="1.1">
<g id="surface1">
<path style=" stroke:none;fill-rule:nonzero;fill:rgb(17.647059%,17.647059%,17.647059%);fill-opacity:1;" d="M 14.019531 19.390625 C 11.460938 20.058594 8.996094 20.710938 6.515625 21.347656 C 4.578125 21.839844 2.84375 21.410156 1.476562 19.964844 C 0.144531 18.582031 -0.335938 16.847656 0.238281 14.988281 C 0.792969 13.144531 2.019531 11.808594 3.957031 11.269531 C 8.089844 10.140625 12.238281 8.996094 16.386719 7.898438 C 19.136719 7.167969 21.804688 8.648438 22.554688 11.398438 C 24.175781 17.339844 25.75 23.285156 27.335938 29.230469 C 31.3125 44.121094 35.285156 59.015625 39.242188 73.910156 C 39.351562 74.320312 39.542969 74.449219 39.957031 74.480469 C 45.328125 74.941406 49.589844 77.339844 52.65625 81.777344 C 52.878906 82.09375 53.085938 82.03125 53.355469 81.949219 C 61.828125 79.679688 70.300781 77.421875 78.769531 75.164062 C 86.320312 73.144531 93.871094 71.125 101.417969 69.109375 C 104.328125 68.328125 106.964844 69.792969 107.792969 72.621094 C 108.621094 75.464844 107.109375 78.261719 104.265625 79.105469 C 102.882812 79.519531 101.5 79.851562 100.101562 80.234375 C 85.605469 84.097656 71.125 87.992188 56.613281 91.804688 C 55.675781 92.058594 55.4375 92.457031 55.296875 93.378906 C 54.132812 100.433594 50.097656 104.949219 43.292969 107.253906 C 37 109.382812 28.070312 106.730469 24.046875 99.257812 C 20.183594 92.074219 22.09375 82.1875 29.230469 77.421875 C 29.339844 77.355469 29.433594 77.277344 29.5625 77.183594 C 24.398438 57.949219 19.214844 38.6875 14.019531 19.390625 Z M 36 74.609375 C 35.953125 74.449219 35.921875 74.273438 35.886719 74.113281 C 33.980469 66.960938 32.058594 59.808594 30.136719 52.65625 C 26.574219 39.355469 23.015625 26.066406 19.453125 12.765625 C 19.152344 11.652344 18.199219 11.046875 17.117188 11.332031 C 13.015625 12.445312 8.898438 13.558594 4.816406 14.71875 C 4.339844 14.847656 3.8125 15.242188 3.589844 15.65625 C 3.242188 16.355469 3.335938 17.167969 3.925781 17.738281 C 4.417969 18.230469 5.132812 18.230469 5.769531 18.054688 C 8.882812 17.214844 11.984375 16.339844 15.097656 15.511719 C 15.371094 15.433594 15.6875 15.480469 15.972656 15.546875 C 16.703125 15.75 16.816406 16.386719 16.972656 17.023438 C 22.140625 36.398438 27.320312 55.757812 32.503906 75.132812 C 32.550781 75.292969 32.613281 75.433594 32.660156 75.5625 C 33.789062 75.242188 34.855469 74.941406 36 74.609375 Z M 38.8125 104.726562 C 45.933594 104.773438 52.101562 98.863281 52.148438 91.867188 C 52.195312 83.414062 45.457031 78.167969 39.210938 78.105469 C 35.601562 78.074219 32.25 79.167969 29.609375 81.839844 C 27.050781 84.429688 25.605469 87.53125 25.558594 91.199219 C 25.492188 98.625 31.4375 104.679688 38.8125 104.726562 Z M 55.34375 88.609375 C 55.660156 88.53125 55.976562 88.453125 56.28125 88.371094 C 71.316406 84.398438 86.351562 80.410156 101.386719 76.417969 C 102.183594 76.214844 102.976562 76.007812 103.738281 75.703125 C 104.535156 75.386719 104.882812 74.589844 104.613281 73.890625 C 104.21875 72.859375 103.535156 72.429688 102.613281 72.667969 C 88.753906 76.324219 74.875 79.996094 61.015625 83.652344 C 58.855469 84.222656 56.695312 84.796875 54.53125 85.367188 C 54.785156 86.449219 55.054688 87.496094 55.34375 88.609375 Z M 55.34375 88.609375 "/>
<path style=" stroke:none;fill-rule:nonzero;fill:rgb(17.647059%,17.647059%,17.647059%);fill-opacity:1;" d="M 52.625 75.714844 C 51.574219 75.699219 51.195312 75.332031 50.925781 74.332031 C 49.988281 70.820312 49.050781 67.308594 48.09375 63.792969 C 44.773438 51.382812 41.453125 38.96875 38.128906 26.539062 C 37.78125 25.25 38.351562 24.3125 39.65625 23.964844 C 55.105469 19.800781 70.554688 15.636719 85.988281 11.488281 C 87.371094 11.105469 88.769531 10.742188 90.152344 10.359375 C 91.597656 9.960938 92.519531 10.484375 92.902344 11.917969 C 96.316406 24.679688 99.734375 37.441406 103.136719 50.191406 C 103.945312 53.242188 104.773438 56.277344 105.585938 59.328125 C 105.964844 60.757812 105.585938 61.410156 104.167969 61.792969 C 99.75 62.96875 95.347656 64.175781 90.929688 65.351562 C 78.46875 68.707031 65.992188 72.058594 53.53125 75.429688 C 53.179688 75.523438 52.832031 75.652344 52.625 75.714844 Z M 53.847656 71.949219 C 69.917969 67.625 85.90625 63.332031 101.929688 59.027344 C 97.90625 44.039062 93.917969 29.113281 89.914062 14.171875 C 85.890625 15.238281 81.949219 16.289062 78.007812 17.335938 C 78.054688 17.527344 78.070312 17.605469 78.085938 17.703125 C 79.359375 22.519531 80.582031 27.351562 81.902344 32.148438 C 82.300781 33.582031 81.550781 34.628906 80.296875 34.945312 C 73.699219 36.679688 67.105469 38.460938 60.507812 40.222656 C 59.046875 40.621094 58.25 40.160156 57.871094 38.714844 C 56.933594 35.265625 55.980469 31.800781 55.042969 28.351562 C 54.628906 26.824219 54.199219 25.300781 53.769531 23.742188 C 49.765625 24.808594 45.808594 25.855469 41.832031 26.90625 C 45.839844 41.957031 49.828125 56.914062 53.847656 71.949219 Z M 74.511719 18.257812 C 68.679688 19.800781 62.910156 21.34375 57.089844 22.867188 C 58.300781 27.429688 59.476562 31.910156 60.652344 36.425781 C 66.46875 34.867188 72.222656 33.324219 78.054688 31.753906 C 76.878906 27.253906 75.703125 22.789062 74.511719 18.257812 Z M 74.511719 18.257812 "/>
<path style=" stroke:none;fill-rule:nonzero;fill:rgb(17.647059%,17.647059%,17.647059%);fill-opacity:1;" d="M 38.816406 81.46875 C 44.21875 81.484375 48.671875 85.996094 48.640625 91.417969 C 48.605469 96.742188 44.078125 101.222656 38.753906 101.207031 C 33.347656 101.191406 28.882812 96.679688 28.898438 91.273438 C 28.929688 85.886719 33.429688 81.453125 38.816406 81.46875 Z M 32.316406 91.640625 C 32.476562 95.328125 35.414062 98.125 38.992188 97.964844 C 42.679688 97.789062 45.269531 94.867188 45.207031 91.527344 C 45.140625 87.824219 42.027344 84.917969 38.433594 85.074219 C 34.96875 85.21875 32.171875 88.207031 32.316406 91.640625 Z M 32.316406 91.640625 "/>
<path style=" stroke:none;fill-rule:nonzero;fill:rgb(17.647059%,17.647059%,17.647059%);fill-opacity:1;" d="M 74.371094 54.132812 C 74.65625 55.214844 74.910156 56.167969 75.164062 57.105469 C 75.402344 57.996094 75.65625 58.871094 75.878906 59.761719 C 76.101562 60.683594 75.6875 61.574219 74.878906 61.984375 C 74.304688 62.273438 73.351562 62.066406 72.890625 61.492188 C 72.667969 61.207031 72.527344 60.84375 72.429688 60.492188 C 71.953125 58.792969 71.507812 57.074219 71.046875 55.359375 C 71 55.183594 70.9375 55.023438 70.839844 54.738281 C 70.476562 55.359375 70.171875 55.882812 69.871094 56.40625 C 69.457031 57.15625 68.503906 57.457031 67.648438 57.136719 C 66.898438 56.851562 66.421875 55.914062 66.628906 55.105469 C 66.675781 54.898438 66.789062 54.675781 66.898438 54.484375 C 67.820312 52.894531 68.757812 51.289062 69.695312 49.699219 C 70.414062 48.476562 71.507812 48.300781 72.683594 49.0625 C 74.097656 49.96875 75.5625 50.796875 77.007812 51.640625 C 77.515625 51.941406 77.976562 52.273438 78.136719 52.878906 C 78.328125 53.546875 78.214844 54.152344 77.675781 54.613281 C 77.070312 55.121094 76.386719 55.199219 75.6875 54.867188 C 75.277344 54.691406 74.894531 54.4375 74.371094 54.132812 Z M 74.371094 54.132812 "/>
<path style=" stroke:none;fill-rule:nonzero;fill:rgb(17.647059%,17.647059%,17.647059%);fill-opacity:1;" d="M 57.851562 58.261719 C 57.484375 58.898438 57.199219 59.40625 56.914062 59.898438 C 56.4375 60.722656 55.417969 61.058594 54.609375 60.644531 C 53.78125 60.214844 53.433594 59.121094 53.878906 58.277344 C 54.308594 57.464844 54.800781 56.6875 55.261719 55.910156 C 55.800781 54.988281 56.324219 54.066406 56.867188 53.160156 C 57.5 52.0625 58.613281 51.917969 59.617188 52.699219 C 60.378906 53.285156 61.253906 53.746094 62.078125 54.238281 C 62.828125 54.699219 63.605469 55.113281 64.351562 55.574219 C 65.273438 56.132812 65.609375 57.226562 65.113281 58.023438 C 64.589844 58.878906 63.445312 59.070312 62.507812 58.46875 C 62.144531 58.230469 61.761719 57.976562 61.269531 57.65625 C 61.363281 58.023438 61.410156 58.277344 61.476562 58.515625 C 61.886719 60.089844 62.316406 61.644531 62.730469 63.21875 C 62.808594 63.507812 62.84375 63.808594 62.828125 64.09375 C 62.761719 64.761719 62.144531 65.539062 61.667969 65.621094 C 61.015625 65.730469 59.933594 65.109375 59.664062 64.445312 C 59.519531 64.0625 59.425781 63.664062 59.296875 63.265625 C 58.820312 61.644531 58.359375 60.042969 57.851562 58.261719 Z M 57.851562 58.261719 "/>
</g>
</svg>
