<?xml version="1.0" encoding="UTF-8"?>
<svg xmlns="http://www.w3.org/2000/svg" xmlns:xlink="http://www.w3.org/1999/xlink" width="108px" height="108px" viewBox="0 0 108 108" version="1.1">
<g id="surface1">
<path style=" stroke:none;fill-rule:nonzero;fill:rgb(17.647059%,17.647059%,17.647059%);fill-opacity:1;" d="M 73.691406 0 C 75.300781 1.660156 76.933594 3.296875 78.515625 4.980469 C 83.972656 10.796875 89.402344 16.636719 94.863281 22.445312 C 95.539062 23.160156 95.820312 23.902344 95.820312 24.890625 C 95.800781 45.246094 95.8125 65.597656 95.78125 85.953125 C 95.777344 86.75 95.53125 87.628906 95.148438 88.328125 C 93.179688 91.933594 91.128906 95.488281 89.121094 99.074219 C 88.722656 99.78125 88.273438 100.394531 87.378906 100.390625 C 86.480469 100.390625 86.035156 99.777344 85.640625 99.070312 C 83.601562 95.421875 81.519531 91.800781 79.503906 88.140625 C 79.183594 87.558594 78.980469 86.828125 78.976562 86.160156 C 78.949219 71.960938 78.953125 57.757812 78.953125 43.554688 C 78.953125 43.308594 78.933594 43.054688 78.980469 42.816406 C 79.160156 41.910156 79.714844 41.363281 80.644531 41.367188 C 81.578125 41.371094 82.132812 41.921875 82.296875 42.832031 C 82.359375 43.171875 82.324219 43.53125 82.324219 43.882812 C 82.324219 57.207031 82.324219 70.53125 82.324219 83.855469 C 82.324219 84.269531 82.324219 84.683594 82.324219 85.160156 C 83.445312 85.160156 84.484375 85.160156 85.695312 85.160156 C 85.695312 84.820312 85.695312 84.453125 85.695312 84.085938 C 85.695312 78.496094 85.699219 72.90625 85.6875 67.316406 C 85.683594 66.445312 85.851562 65.703125 86.730469 65.320312 C 87.886719 64.820312 89.042969 65.644531 89.054688 67.035156 C 89.078125 70.164062 89.0625 73.289062 89.0625 76.421875 C 89.0625 79.300781 89.0625 82.179688 89.0625 85.144531 C 90.167969 85.144531 91.234375 85.144531 92.363281 85.144531 C 92.363281 65.519531 92.363281 45.894531 92.363281 26.164062 C 91.957031 26.164062 91.582031 26.164062 91.203125 26.164062 C 86.113281 26.164062 81.023438 26.167969 75.9375 26.160156 C 72.625 26.152344 70.535156 24.070312 70.53125 20.769531 C 70.523438 15.390625 70.53125 10.011719 70.53125 4.632812 C 70.53125 4.253906 70.53125 3.878906 70.53125 3.429688 C 70.109375 3.410156 69.765625 3.382812 69.429688 3.382812 C 55.425781 3.375 41.421875 3.375 27.417969 3.375 C 25.550781 3.375 25.042969 3.878906 25.042969 5.742188 C 25.042969 18.328125 25.03125 30.914062 25.066406 43.496094 C 25.066406 44.347656 24.832031 44.867188 24.074219 45.222656 C 23.316406 45.574219 22.597656 46 21.730469 46.46875 C 21.707031 45.976562 21.675781 45.617188 21.675781 45.253906 C 21.671875 32.28125 21.726562 19.308594 21.636719 6.335938 C 21.617188 3.203125 22.671875 1.054688 25.675781 0 C 41.683594 0 57.6875 0 73.691406 0 Z M 73.902344 4.988281 C 73.902344 10.382812 73.902344 15.472656 73.902344 20.558594 C 73.902344 22.234375 74.4375 22.777344 76.09375 22.777344 C 80.585938 22.78125 85.074219 22.777344 89.566406 22.773438 C 89.820312 22.773438 90.070312 22.726562 90.457031 22.6875 C 84.933594 16.785156 79.523438 10.996094 73.902344 4.988281 Z M 83.625 88.628906 C 84.917969 90.910156 86.113281 93.023438 87.386719 95.28125 C 88.691406 92.960938 89.882812 90.839844 91.128906 88.628906 C 88.566406 88.628906 86.191406 88.628906 83.625 88.628906 Z M 83.625 88.628906 "/>
<path style=" stroke:none;fill-rule:nonzero;fill:rgb(17.647059%,17.647059%,17.647059%);fill-opacity:1;" d="M 25.667969 107.996094 C 23.789062 107.273438 22.28125 106.183594 21.816406 104.074219 C 21.734375 103.699219 21.675781 103.3125 21.675781 102.929688 C 21.664062 98.890625 21.664062 94.851562 21.667969 90.808594 C 21.667969 90.640625 21.691406 90.476562 21.710938 90.207031 C 22.792969 91.074219 23.816406 91.847656 24.773438 92.695312 C 24.980469 92.875 25.023438 93.320312 25.023438 93.644531 C 25.042969 96.59375 25.03125 99.546875 25.039062 102.496094 C 25.042969 104.019531 25.625 104.621094 27.125 104.621094 C 48.203125 104.625 69.28125 104.625 90.363281 104.621094 C 91.636719 104.621094 92.535156 104.042969 92.375 103.007812 C 91.929688 100.121094 93.449219 97.964844 94.753906 95.703125 C 95.03125 95.222656 95.308594 94.742188 95.714844 94.03125 C 95.753906 94.558594 95.792969 94.847656 95.792969 95.132812 C 95.800781 97.277344 95.699219 99.425781 95.820312 101.558594 C 96.003906 104.714844 94.863281 106.933594 91.796875 108 C 69.753906 107.996094 47.710938 107.996094 25.667969 107.996094 Z M 25.667969 107.996094 "/>
<path style=" stroke:none;fill-rule:nonzero;fill:rgb(17.647059%,17.647059%,17.647059%);fill-opacity:1;" d="M 57.011719 55.6875 C 56.421875 64.683594 54.476562 74.023438 49.042969 82.324219 C 45.742188 87.363281 41.359375 91.117188 35.695312 93.3125 C 34.753906 93.675781 33.914062 93.691406 32.960938 93.324219 C 25.996094 90.644531 21.144531 85.675781 17.699219 79.210938 C 14.144531 72.535156 12.46875 65.324219 11.777344 57.847656 C 11.667969 56.695312 11.605469 55.535156 11.574219 54.378906 C 11.53125 52.859375 12.050781 52.292969 13.585938 52.132812 C 17.429688 51.730469 21.058594 50.636719 24.476562 48.828125 C 27.644531 47.15625 30.441406 45.015625 32.765625 42.273438 C 33.8125 41.039062 34.761719 41.011719 35.828125 42.214844 C 40.96875 48.003906 47.363281 51.339844 55.070312 52.140625 C 56.699219 52.3125 57.078125 52.878906 57.011719 55.6875 Z M 34.238281 45.730469 C 29.023438 50.9375 22.855469 54.160156 15.613281 55.304688 C 15.386719 55.339844 15.046875 55.789062 15.058594 56.035156 C 15.097656 57.15625 15.214844 58.277344 15.359375 59.394531 C 16.191406 65.8125 17.734375 72.019531 20.832031 77.753906 C 23.746094 83.15625 27.71875 87.480469 33.515625 89.851562 C 33.992188 90.050781 34.695312 90.03125 35.175781 89.835938 C 40.40625 87.664062 44.214844 83.878906 47.042969 79.0625 C 51.210938 71.96875 52.910156 64.164062 53.589844 56.070312 C 53.644531 55.410156 53.339844 55.335938 52.820312 55.253906 C 47.527344 54.417969 42.707031 52.433594 38.417969 49.21875 C 36.992188 48.148438 35.675781 46.9375 34.238281 45.730469 Z M 34.238281 45.730469 "/>
<path style=" stroke:none;fill-rule:nonzero;fill:rgb(17.647059%,17.647059%,17.647059%);fill-opacity:1;" d="M 33.035156 25.734375 C 33.203125 24.710938 33.382812 23.496094 33.621094 22.289062 C 33.761719 21.578125 33.667969 21.03125 33.09375 20.511719 C 32.261719 19.757812 31.445312 18.96875 30.765625 18.082031 C 30.40625 17.609375 30.070312 16.792969 30.238281 16.320312 C 30.429688 15.792969 31.148438 15.277344 31.742188 15.105469 C 32.84375 14.785156 34.027344 14.765625 35.152344 14.519531 C 35.527344 14.4375 35.96875 14.125 36.148438 13.792969 C 36.730469 12.714844 37.125 11.527344 37.765625 10.492188 C 38.089844 9.96875 38.738281 9.476562 39.332031 9.332031 C 40.128906 9.136719 40.671875 9.761719 41.003906 10.488281 C 41.507812 11.570312 41.957031 12.679688 42.542969 13.710938 C 42.757812 14.085938 43.261719 14.421875 43.695312 14.527344 C 44.710938 14.773438 45.796875 14.761719 46.792969 15.0625 C 47.425781 15.253906 48.125 15.707031 48.476562 16.246094 C 48.929688 16.9375 48.449219 17.640625 47.898438 18.199219 C 47.109375 18.996094 46.28125 19.765625 45.578125 20.636719 C 45.273438 21.011719 45.078125 21.617188 45.113281 22.097656 C 45.199219 23.210938 45.460938 24.3125 45.644531 25.421875 C 45.773438 26.214844 45.765625 26.984375 45.019531 27.507812 C 44.289062 28.027344 43.574219 27.847656 42.859375 27.425781 C 41.949219 26.898438 40.992188 26.449219 40.109375 25.886719 C 39.554688 25.53125 39.128906 25.566406 38.589844 25.902344 C 37.605469 26.507812 36.589844 27.0625 35.558594 27.582031 C 34.195312 28.269531 32.964844 27.445312 33.035156 25.734375 Z M 41.84375 22.8125 C 40.996094 20.761719 41.714844 19.234375 43.445312 18.027344 C 40.875 17.375 40.875 17.375 39.234375 15.046875 C 38.824219 17.210938 37.359375 17.910156 35.320312 18.023438 C 37.199219 19.210938 37.601562 20.820312 36.902344 22.800781 C 39.445312 22.027344 39.445312 22.027344 41.84375 22.8125 Z M 41.84375 22.8125 "/>
<path style=" stroke:none;fill-rule:nonzero;fill:rgb(17.647059%,17.647059%,17.647059%);fill-opacity:1;" d="M 79.628906 95.308594 C 66.277344 95.308594 53.066406 95.308594 39.792969 95.308594 C 41.445312 94.203125 43.046875 93.117188 44.671875 92.074219 C 44.90625 91.925781 45.28125 91.976562 45.59375 91.976562 C 56.011719 91.96875 66.429688 91.976562 76.847656 91.953125 C 77.527344 91.953125 77.9375 92.117188 78.234375 92.761719 C 78.628906 93.609375 79.128906 94.402344 79.628906 95.308594 Z M 79.628906 95.308594 "/>
<path style=" stroke:none;fill-rule:nonzero;fill:rgb(17.647059%,17.647059%,17.647059%);fill-opacity:1;" d="M 39.839844 41.390625 C 51.8125 41.390625 63.785156 41.390625 75.726562 41.390625 C 75.660156 42.480469 75.589844 43.527344 75.515625 44.714844 C 75.125 44.714844 74.71875 44.714844 74.3125 44.714844 C 64.566406 44.714844 54.820312 44.703125 45.074219 44.738281 C 44.109375 44.742188 43.304688 44.53125 42.574219 43.917969 C 41.636719 43.132812 40.679688 42.371094 39.730469 41.597656 C 39.769531 41.527344 39.804688 41.457031 39.839844 41.390625 Z M 39.839844 41.390625 "/>
<path style=" stroke:none;fill-rule:nonzero;fill:rgb(17.647059%,17.647059%,17.647059%);fill-opacity:1;" d="M 49.960938 86.835938 C 50.683594 85.800781 51.324219 84.84375 52.015625 83.929688 C 52.175781 83.722656 52.523438 83.550781 52.789062 83.546875 C 60.328125 83.527344 67.871094 83.53125 75.496094 83.53125 C 75.496094 84.625 75.496094 85.695312 75.496094 86.835938 C 67.046875 86.835938 58.578125 86.835938 49.960938 86.835938 Z M 49.960938 86.835938 "/>
<path style=" stroke:none;fill-rule:nonzero;fill:rgb(17.647059%,17.647059%,17.647059%);fill-opacity:1;" d="M 75.542969 75.09375 C 75.542969 76.257812 75.542969 77.292969 75.542969 78.402344 C 68.742188 78.402344 61.972656 78.402344 55.085938 78.402344 C 55.496094 77.378906 55.863281 76.40625 56.292969 75.460938 C 56.375 75.277344 56.71875 75.109375 56.945312 75.109375 C 63.105469 75.089844 69.265625 75.09375 75.542969 75.09375 Z M 75.542969 75.09375 "/>
<path style=" stroke:none;fill-rule:nonzero;fill:rgb(17.647059%,17.647059%,17.647059%);fill-opacity:1;" d="M 58.15625 69.964844 C 58.140625 69.859375 58.121094 69.820312 58.128906 69.789062 C 58.398438 68.78125 58.371094 67.425781 59.027344 66.859375 C 59.621094 66.347656 60.953125 66.664062 61.964844 66.660156 C 66.449219 66.648438 70.933594 66.65625 75.5 66.65625 C 75.5 67.765625 75.5 68.832031 75.5 69.964844 C 69.734375 69.964844 63.96875 69.964844 58.15625 69.964844 Z M 58.15625 69.964844 "/>
<path style=" stroke:none;fill-rule:nonzero;fill:rgb(17.647059%,17.647059%,17.647059%);fill-opacity:1;" d="M 58.714844 49.828125 C 64.28125 49.828125 69.875 49.828125 75.523438 49.828125 C 75.523438 50.917969 75.523438 51.957031 75.523438 53.105469 C 75.195312 53.117188 74.855469 53.148438 74.523438 53.152344 C 70.136719 53.152344 65.75 53.140625 61.363281 53.164062 C 60.699219 53.167969 60.34375 53.070312 60.105469 52.308594 C 59.828125 51.441406 59.210938 50.679688 58.714844 49.828125 Z M 58.714844 49.828125 "/>
<path style=" stroke:none;fill-rule:nonzero;fill:rgb(17.647059%,17.647059%,17.647059%);fill-opacity:1;" d="M 75.527344 58.277344 C 75.527344 59.359375 75.527344 60.402344 75.527344 61.515625 C 70.292969 61.515625 65.066406 61.515625 59.800781 61.515625 C 59.929688 60.421875 60.054688 59.382812 60.1875 58.277344 C 65.28125 58.277344 70.34375 58.277344 75.527344 58.277344 Z M 75.527344 58.277344 "/>
<path style=" stroke:none;fill-rule:nonzero;fill:rgb(17.647059%,17.647059%,17.647059%);fill-opacity:1;" d="M 41.324219 65.773438 L 35.972656 65.773438 L 35.972656 60.414062 C 35.972656 59.484375 35.222656 58.730469 34.292969 58.730469 C 33.363281 58.730469 32.613281 59.484375 32.613281 60.414062 L 32.613281 65.773438 L 27.265625 65.773438 C 26.335938 65.773438 25.582031 66.523438 25.582031 67.457031 C 25.582031 68.386719 26.335938 69.136719 27.265625 69.136719 L 32.613281 69.136719 L 32.613281 74.496094 C 32.613281 75.425781 33.363281 76.179688 34.292969 76.179688 C 35.222656 76.179688 35.972656 75.425781 35.972656 74.496094 L 35.972656 69.136719 L 41.324219 69.136719 C 42.25 69.136719 43.003906 68.386719 43.003906 67.457031 C 43.003906 66.523438 42.25 65.773438 41.324219 65.773438 Z M 41.324219 65.773438 "/>
</g>
</svg>
