<svg width="108" height="108" viewBox="0 0 108 108" fill="none" xmlns="http://www.w3.org/2000/svg">
<path d="M15.8203 51.5469H54.2109C55.6822 51.5469 56.875 52.7397 56.875 54.2109C56.875 55.6822 55.6822 56.875 54.2109 56.875H15.8203C14.349 56.875 13.1562 55.6822 13.1562 54.2109C13.1562 52.7397 14.349 51.5469 15.8203 51.5469Z" fill="black"/>
<path d="M15.8203 76.8594H41.1329C42.6042 76.8594 43.7971 78.0522 43.7971 79.5234C43.7971 80.9947 42.6042 82.1875 41.1329 82.1875H15.8203C14.349 82.1875 13.1562 80.9947 13.1562 79.5234C13.1562 78.0522 14.349 76.8594 15.8203 76.8594Z" fill="black"/>
<path d="M15.8203 89.5156H41.1329C42.6042 89.5156 43.7971 90.7084 43.7971 92.1797C43.7971 93.651 42.6042 94.8438 41.1329 94.8438H15.8203C14.349 94.8438 13.1562 93.651 13.1562 92.1797C13.1562 90.7084 14.349 89.5156 15.8203 89.5156Z" fill="black"/>
<path d="M15.8203 64.2031H41.1329C42.6042 64.2031 43.7971 65.3959 43.7971 66.8672C43.7971 68.3385 42.6042 69.5312 41.1329 69.5312H15.8203C14.349 69.5312 13.1562 68.3385 13.1562 66.8672C13.1562 65.3959 14.349 64.2031 15.8203 64.2031Z" fill="black"/>
<path d="M54.2109 32.1406H66.8672C68.3385 32.1406 69.5312 33.3334 69.5312 34.8047C69.5312 36.276 68.3385 37.4688 66.8672 37.4688H54.2109C52.7397 37.4688 51.5469 36.276 51.5469 34.8047C51.5469 33.3334 52.7397 32.1406 54.2109 32.1406Z" fill="black"/>
<path d="M82.1875 51.2236V51.6712L82.6323 51.7206C96.6007 53.2719 107.5 65.1488 107.5 79.5234C107.5 94.9493 94.9493 107.5 79.5234 107.5H9.49219C4.53434 107.5 0.5 103.466 0.5 98.5078V9.49219C0.5 4.53434 4.53434 0.5 9.49219 0.5H64.2461C66.649 0.5 68.9056 1.43453 70.6045 3.13369L70.9581 2.78016L70.6046 3.1337L79.5536 12.0831L79.9071 11.7296L79.5536 12.0832C81.2528 13.7822 82.1875 16.0386 82.1875 18.4414V51.2236ZM63.7031 5.82812H63.2031V6.32812V18.9844V19.4844H63.7031H76.3594H76.8594V18.9844C76.8594 18.9411 76.8598 18.895 76.8602 18.8462C76.8665 18.1578 76.8775 16.9421 75.7863 15.8507L75.4351 16.2018L75.7863 15.8507L66.837 6.90122L66.4835 7.25477L66.837 6.90118C65.7332 5.79755 64.4828 5.8168 63.8502 5.82654C63.7966 5.82737 63.7474 5.82812 63.7031 5.82812ZM57.875 6.32812V5.82812H57.375H9.49219C7.47138 5.82812 5.82812 7.47138 5.82812 9.49219V98.5078C5.82812 100.529 7.47138 102.172 9.49219 102.172H61.6467H63.0601L61.9611 101.283C55.6124 96.1489 51.5469 88.3023 51.5469 79.5234C51.5469 65.1488 62.4462 53.2719 76.4146 51.7206L76.8594 51.6712V51.2236V25.3125V24.8125H76.3594H60.5391C59.0678 24.8125 57.875 23.6197 57.875 22.1484V6.32812ZM56.875 79.5234C56.875 92.0122 67.0346 102.172 79.5234 102.172C92.0122 102.172 102.172 92.0122 102.172 79.5234C102.172 67.0346 92.0122 56.875 79.5234 56.875C67.0346 56.875 56.875 67.0346 56.875 79.5234Z" fill="black"/>
<path d="M82.1875 76.3594V76.8594H82.6875H92.1797C93.651 76.8594 94.8438 78.0522 94.8438 79.5234C94.8438 80.9947 93.651 82.1875 92.1797 82.1875H79.5234C78.0522 82.1875 76.8594 80.9947 76.8594 79.5234V66.8672C76.8594 65.3959 78.0522 64.2031 79.5234 64.2031C80.9947 64.2031 82.1875 65.3959 82.1875 66.8672V76.3594Z" fill="black"/>
<path d="M37.9688 38.4688H38.4688V37.9688V18.9844V18.4844H37.9688H18.9844H18.4844V18.9844V37.9688V38.4688H18.9844H37.9688ZM15.8203 13.1562H41.1329C42.6042 13.1562 43.7971 14.349 43.7971 15.8203V41.1329C43.7971 42.6042 42.6042 43.7971 41.1329 43.7971H15.8203C14.349 43.7971 13.1562 42.6042 13.1562 41.1329V15.8203C13.1562 14.349 14.349 13.1562 15.8203 13.1562Z" fill="black"/>
</svg>
