<svg width="24" height="24" viewBox="0 0 24 24" fill="none" xmlns="http://www.w3.org/2000/svg">
<g clip-path="url(#clip0_7833_9060)">
<path d="M22.7582 24.0011H1.27501C1.00984 24.0011 0.794922 23.7864 0.794922 23.521V6.75157C0.794922 6.4862 1.00984 6.27148 1.27501 6.27148H22.7582C23.0233 6.27148 23.2383 6.4862 23.2383 6.75157V23.521C23.2383 23.7864 23.0233 24.0011 22.7582 24.0011ZM1.75489 23.0409H22.2783V7.23146H1.75489V23.0409Z" fill="#192A3E"/>
<path d="M22.7581 7.23044H1.27494C1.12728 7.23044 0.98783 7.16256 0.896776 7.04628C0.805926 6.93 0.773524 6.77804 0.809002 6.63469L2.36575 0.364219C2.41887 0.150527 2.61102 0 2.83169 0H21.2016C21.422 0 21.6142 0.150527 21.6675 0.364219L23.224 6.63469C23.2595 6.77804 23.2271 6.93 23.1363 7.04628C23.0452 7.16256 22.9058 7.23044 22.7581 7.23044ZM1.88874 6.27047H22.1443L20.8261 0.959971H3.20719L1.88874 6.27047Z" fill="#192A3E"/>
<path d="M17.7273 21.1007C17.6047 21.1007 17.4818 21.0539 17.3883 20.9606L15.6653 19.2417C15.4776 19.0546 15.477 18.7505 15.6642 18.5631C15.8513 18.375 16.1556 18.375 16.343 18.562L17.7269 19.9424L19.1069 18.5625C19.2943 18.375 19.598 18.375 19.7855 18.5625C19.9731 18.7501 19.9731 19.0538 19.7855 19.2413L18.0667 20.9602C17.973 21.0539 17.8502 21.1007 17.7273 21.1007Z" fill="#192A3E"/>
<path d="M17.7272 21.1014C17.462 21.1014 17.2471 20.8869 17.2471 20.6215V13.5053C17.2471 13.2401 17.462 13.0254 17.7272 13.0254C17.9921 13.0254 18.207 13.2401 18.207 13.5053V20.6215C18.207 20.8869 17.9921 21.1014 17.7272 21.1014Z" fill="#192A3E"/>
<path d="M11.6444 21.1007C11.522 21.1007 11.3992 21.0539 11.3056 20.9606L9.58258 19.2417C9.39473 19.0546 9.39432 18.7505 9.58155 18.5631C9.76858 18.375 10.0727 18.375 10.2604 18.562L11.644 19.9424L13.024 18.5625C13.2116 18.375 13.5154 18.375 13.7028 18.5625C13.8902 18.7501 13.8902 19.0538 13.7028 19.2413L11.9838 20.9602C11.8901 21.0539 11.7673 21.1007 11.6444 21.1007Z" fill="#192A3E"/>
<path d="M11.6444 21.1014C11.3795 21.1014 11.1646 20.8869 11.1646 20.6215V13.5053C11.1646 13.2401 11.3795 13.0254 11.6444 13.0254C11.9096 13.0254 12.1245 13.2401 12.1245 13.5053V20.6215C12.1245 20.8869 11.9096 21.1014 11.6444 21.1014Z" fill="#192A3E"/>
</g>
<defs>
<clipPath id="clip0_7833_9060">
<rect width="24" height="24" fill="white"/>
</clipPath>
</defs>
</svg>
