<?xml version="1.0" encoding="UTF-8"?>
<svg xmlns="http://www.w3.org/2000/svg" xmlns:xlink="http://www.w3.org/1999/xlink" width="109px" height="108px" viewBox="0 0 109 108" version="1.1">
<defs>
<clipPath id="clip1">
  <path d="M 0 0 L 107.71875 0 L 107.71875 108 L 0 108 Z M 0 0 "/>
</clipPath>
</defs>
<g id="surface1">
<g clip-path="url(#clip1)" clip-rule="nonzero">
<path style=" stroke:none;fill-rule:nonzero;fill:rgb(20%,20%,20%);fill-opacity:1;" d="M 70.492188 94.363281 C 63.945312 98.300781 57.449219 102.273438 50.882812 106.140625 C 46.367188 108.800781 47.488281 108.425781 43.660156 106.148438 C 29.808594 97.886719 16.011719 89.53125 2.160156 81.277344 C 0.605469 80.347656 -0.0117188 79.289062 0 77.453125 C 0.0664062 60.84375 0.0585938 44.234375 0 27.625 C 0 26.199219 0.492188 25.351562 1.660156 24.699219 C 7.667969 21.359375 13.648438 17.984375 19.65625 14.648438 C 28.078125 9.988281 36.542969 5.410156 44.921875 0.652344 C 46.503906 -0.246094 47.726562 -0.1875 49.1875 0.621094 C 56.796875 4.820312 64.429688 8.980469 72.046875 13.175781 C 78.964844 16.992188 85.878906 20.804688 92.75 24.699219 C 93.367188 25.046875 93.933594 25.890625 94.078125 26.597656 C 94.339844 27.867188 94.316406 29.207031 94.316406 30.519531 C 94.324219 41.167969 94.316406 51.824219 94.273438 62.472656 C 94.265625 63.558594 94.464844 64.152344 95.621094 64.640625 C 104.4375 68.386719 109.203125 77.816406 107.308594 87.511719 C 105.582031 96.363281 97.421875 103.148438 88.183594 103.414062 C 81.054688 103.621094 75.414062 100.792969 71.1875 95.058594 C 71.050781 94.871094 70.902344 94.683594 70.757812 94.503906 C 70.730469 94.484375 70.675781 94.472656 70.492188 94.363281 Z M 44.824219 101.632812 C 44.882812 101.1875 44.921875 101.007812 44.921875 100.832031 C 44.929688 85.917969 44.9375 71 44.882812 56.085938 C 44.882812 55.550781 44.332031 54.824219 43.832031 54.523438 C 31.203125 46.871094 18.542969 39.253906 5.894531 31.640625 C 5.515625 31.414062 5.101562 31.238281 4.625 30.992188 C 4.585938 31.351562 4.546875 31.527344 4.546875 31.707031 C 4.539062 46.628906 4.53125 61.546875 4.585938 76.460938 C 4.585938 76.980469 5.148438 77.695312 5.640625 77.996094 C 14.746094 83.535156 23.878906 89.023438 33.003906 94.523438 C 36.875 96.859375 40.757812 99.1875 44.824219 101.632812 Z M 49.433594 101.667969 C 53.007812 99.519531 56.273438 97.523438 59.582031 95.597656 C 60.410156 95.113281 60.722656 94.558594 60.703125 93.589844 C 60.636719 90.449219 60.691406 87.304688 60.65625 84.164062 C 60.644531 82.589844 61.121094 81.414062 62.589844 80.589844 C 64.292969 79.621094 65.898438 78.476562 67.488281 77.320312 C 68.011719 76.941406 68.484375 76.355469 68.738281 75.753906 C 71.535156 69.238281 76.257812 64.992188 83.1875 63.4375 C 85.300781 62.964844 87.5 62.917969 89.726562 62.671875 C 89.726562 52.238281 89.726562 41.6875 89.726562 30.925781 C 86.324219 32.964844 83.117188 34.941406 79.847656 36.828125 C 78.917969 37.367188 78.589844 37.972656 78.609375 39.054688 C 78.675781 43.136719 78.628906 47.214844 78.617188 51.296875 C 78.617188 52.277344 78.40625 53.125 77.402344 53.625 C 73.007812 55.8125 68.65625 58.078125 64.253906 60.21875 C 62.207031 61.210938 60.722656 60.210938 60.691406 57.9375 C 60.65625 55.21875 60.683594 52.496094 60.675781 49.777344 C 60.675781 49.394531 60.609375 49.007812 60.5625 48.488281 C 57.140625 50.542969 53.921875 52.515625 50.652344 54.410156 C 49.726562 54.945312 49.410156 55.558594 49.414062 56.636719 C 49.453125 71.085938 49.441406 85.53125 49.441406 99.980469 C 49.433594 100.4375 49.433594 100.894531 49.433594 101.667969 Z M 103.25 83.230469 C 103.273438 74.507812 96.316406 67.441406 87.667969 67.394531 C 78.988281 67.347656 71.914062 74.347656 71.867188 83.015625 C 71.820312 91.804688 78.824219 98.925781 87.519531 98.9375 C 96.179688 98.953125 103.222656 91.917969 103.25 83.230469 Z M 6.929688 26.757812 C 7.125 26.992188 7.144531 27.039062 7.183594 27.058594 C 20.253906 34.96875 33.320312 42.882812 46.417969 50.742188 C 46.832031 50.988281 47.6875 50.875 48.152344 50.609375 C 50.988281 48.988281 53.78125 47.28125 56.585938 45.589844 C 57.203125 45.214844 57.792969 44.816406 58.511719 44.355469 C 57.945312 43.96875 57.542969 43.667969 57.117188 43.390625 C 45.867188 36.167969 34.570312 29.03125 23.433594 21.636719 C 20.976562 20.003906 19.175781 19.699219 16.664062 21.359375 C 13.609375 23.378906 10.253906 24.945312 6.929688 26.757812 Z M 72.320312 36.035156 C 71.382812 35.433594 70.644531 34.945312 69.894531 34.472656 C 58.339844 27.125 46.777344 19.777344 35.203125 12.457031 C 34.785156 12.191406 34.066406 11.921875 33.722656 12.101562 C 30.703125 13.675781 27.742188 15.351562 24.605469 17.082031 C 25.136719 17.449219 25.5 17.71875 25.878906 17.964844 C 30.007812 20.625 34.140625 23.277344 38.265625 25.933594 C 46.171875 31.007812 54.066406 36.101562 61.992188 41.15625 C 62.386719 41.402344 63.117188 41.5625 63.460938 41.363281 C 66.363281 39.679688 69.222656 37.914062 72.320312 36.035156 Z M 38.710938 9.167969 C 38.921875 9.363281 38.984375 9.4375 39.054688 9.488281 C 51.375 17.285156 63.6875 25.09375 76.03125 32.847656 C 76.410156 33.085938 77.203125 33.039062 77.613281 32.800781 C 80.644531 31.046875 83.628906 29.207031 86.625 27.386719 C 86.875 27.230469 87.082031 27.011719 87.402344 26.757812 C 84.816406 25.332031 82.363281 23.984375 79.914062 22.636719 C 69.316406 16.808594 58.710938 10.976562 48.097656 5.167969 C 47.699219 4.949219 47.070312 4.734375 46.738281 4.902344 C 44.078125 6.25 41.460938 7.6875 38.710938 9.167969 Z M 65.128906 54.777344 C 68.097656 53.289062 70.816406 51.949219 73.507812 50.558594 C 73.773438 50.417969 74.058594 50.003906 74.066406 49.714844 C 74.105469 46.6875 74.09375 43.660156 74.09375 40.367188 C 71.109375 42.140625 68.34375 43.769531 65.609375 45.4375 C 65.355469 45.589844 65.15625 46.042969 65.15625 46.355469 C 65.117188 49.078125 65.128906 51.789062 65.128906 54.777344 Z M 67.0625 82.949219 C 66.453125 83.476562 65.300781 83.984375 65.25 84.589844 C 65.035156 87.011719 65.164062 89.464844 65.164062 92.109375 C 66.304688 91.464844 67.207031 90.984375 68.066406 90.4375 C 68.277344 90.296875 68.484375 89.898438 68.445312 89.65625 C 68.027344 87.484375 67.554688 85.308594 67.0625 82.949219 Z M 67.0625 82.949219 "/>
</g>
<path style=" stroke:none;fill-rule:nonzero;fill:rgb(20%,20%,20%);fill-opacity:1;" d="M 40.386719 82.980469 C 40.386719 85.136719 40.460938 87.296875 40.367188 89.449219 C 40.246094 92.128906 38.660156 92.910156 36.421875 91.429688 C 32.292969 88.695312 28.195312 85.921875 24.066406 83.1875 C 22.917969 82.429688 22.394531 81.5 22.433594 80.046875 C 22.535156 76.488281 22.460938 72.925781 22.46875 69.367188 C 22.46875 68.710938 22.46875 68.046875 22.554688 67.398438 C 22.824219 65.3125 24.253906 64.550781 26.046875 65.636719 C 28.128906 66.890625 30.128906 68.265625 32.148438 69.613281 C 34.402344 71.113281 36.621094 72.671875 38.890625 74.148438 C 39.996094 74.859375 40.445312 75.785156 40.414062 77.082031 C 40.359375 79.046875 40.398438 81.015625 40.398438 82.980469 C 40.394531 82.980469 40.394531 82.980469 40.386719 82.980469 Z M 35.929688 85.777344 C 35.929688 84.410156 35.777344 83.363281 35.957031 82.375 C 36.59375 78.820312 35.316406 76.460938 32.035156 74.933594 C 30.300781 74.125 28.785156 72.828125 26.972656 71.621094 C 26.972656 74.347656 26.953125 76.773438 26.992188 79.207031 C 27 79.515625 27.238281 79.933594 27.496094 80.113281 C 30.195312 81.949219 32.910156 83.753906 35.929688 85.777344 Z M 35.929688 85.777344 "/>
<path style=" stroke:none;fill-rule:nonzero;fill:rgb(20%,20%,20%);fill-opacity:1;" d="M 87.507812 86.316406 C 85.886719 87.976562 84.371094 89.558594 82.824219 91.109375 C 81.554688 92.382812 80.304688 92.515625 79.269531 91.53125 C 78.226562 90.542969 78.371094 89.171875 79.679688 87.863281 C 81.195312 86.34375 82.730469 84.835938 84.539062 83.046875 C 83.109375 81.714844 81.753906 80.453125 80.40625 79.179688 C 80.035156 78.828125 79.660156 78.46875 79.316406 78.085938 C 78.371094 77.046875 78.347656 75.6875 79.230469 74.8125 C 80.152344 73.90625 81.441406 73.898438 82.492188 74.902344 C 83.8125 76.160156 85.070312 77.488281 86.351562 78.78125 C 86.710938 79.140625 87.082031 79.488281 87.601562 79.980469 C 89.070312 78.480469 90.5 77.015625 91.933594 75.5625 C 92.257812 75.226562 92.578125 74.875 92.957031 74.605469 C 93.96875 73.878906 95.210938 74.039062 95.988281 74.949219 C 96.730469 75.8125 96.71875 77.085938 95.847656 78.007812 C 94.53125 79.402344 93.144531 80.734375 91.792969 82.09375 C 91.46875 82.421875 91.167969 82.769531 90.75 83.222656 C 92.453125 84.914062 94.132812 86.53125 95.746094 88.203125 C 97.015625 89.515625 96.671875 91.382812 95.097656 92.023438 C 94.035156 92.449219 93.191406 92.03125 92.445312 91.285156 C 90.863281 89.691406 89.28125 88.101562 87.507812 86.316406 Z M 87.507812 86.316406 "/>
</g>
</svg>
