<svg width="28" height="28" viewBox="0 0 28 28" fill="none" xmlns="http://www.w3.org/2000/svg">
<g clip-path="url(#clip0)">
<path d="M27.8851 20.7237C27.6811 19.6146 27.1506 18.6056 26.3507 17.8057C25.1486 16.6036 23.5948 16.1331 21.9753 16.4809C21.8287 16.5122 21.669 16.463 21.5582 16.3523L17.1974 11.9914L23.1389 6.04988L24.1821 7.0931L27.9703 3.305L24.6688 0.00338632L20.8806 3.79154L21.9766 4.88748L16.035 10.829L11.7126 6.5065C11.5996 6.39362 11.5509 6.2312 11.5853 6.08249C11.9667 4.43382 11.5023 2.8515 10.2778 1.62701C9.47796 0.827146 8.46893 0.296549 7.35984 0.0926503C6.27755 -0.106372 5.17279 0.0166471 4.16475 0.448172L3.04821 0.926164L6.11168 3.98969L4.78664 5.31473L1.72312 2.25126L1.24507 3.3678C0.813544 4.37584 0.69058 5.48071 0.889547 6.56289C1.0935 7.67198 1.62399 8.681 2.42391 9.48087C3.62604 10.6829 5.17986 11.1534 6.79943 10.8056C6.9458 10.7742 7.10553 10.8234 7.21638 10.9343L11.5731 15.291L10.084 16.7801L8.68603 15.3822L1.34124 21.3946L1.32419 21.409C0.538519 22.0885 0.0663896 23.0735 0.028799 24.1116C-0.00879161 25.1497 0.390896 26.1664 1.1255 26.9009C1.82833 27.6038 2.78941 28 3.78046 28C3.82512 28 3.87 27.9992 3.91477 27.9976C4.95284 27.96 5.93797 27.4879 6.61745 26.7022L12.6442 19.3405L11.2464 17.9425L12.7355 16.4534L17.0621 20.78C17.175 20.893 17.2238 21.0554 17.1894 21.204C16.808 22.8527 17.2723 24.435 18.4968 25.6596C19.2967 26.4594 20.3057 26.99 21.4148 27.1939C21.7514 27.2557 22.0901 27.2865 22.4275 27.2865C23.1749 27.2865 23.9153 27.1356 24.6099 26.8383L25.7264 26.3603L22.6629 23.2968L23.988 21.9717L27.0515 25.0353L27.5295 23.9187C27.9611 22.9107 28.084 21.8059 27.8851 20.7237V20.7237ZM24.6688 2.32825L25.6455 3.305L24.1822 4.76835L23.2054 3.7916L24.6688 2.32825ZM5.36738 25.6346C4.98035 26.0778 4.44383 26.3335 3.85531 26.3548C3.55168 26.3658 3.25732 26.3131 2.98591 26.2029L5.02539 24.1634C5.34639 23.8424 5.34639 23.322 5.02539 23.001C4.70444 22.68 4.18398 22.68 3.86298 23.001L1.8235 25.0405C1.71336 24.7692 1.66065 24.4749 1.67166 24.1711C1.69298 23.5826 1.94866 23.046 2.39186 22.6591L5.9451 19.7503L8.2761 22.0813L5.36738 25.6346ZM9.32255 20.803L7.22345 18.7039L8.57578 17.5968L10.4296 19.4507L9.32255 20.803ZM26.3282 21.9872L23.988 19.647L20.3382 23.2968L22.6783 25.637C21.5759 25.7111 20.4752 25.313 19.6593 24.4972C18.6226 23.4606 18.6149 22.3357 18.791 21.5746C18.9545 20.8675 18.7428 20.1359 18.2245 19.6177L8.37884 9.77195C7.9768 9.36991 7.44319 9.15171 6.89325 9.15171C6.74738 9.15171 6.60025 9.16705 6.45421 9.19845C5.38343 9.42816 4.39194 9.12404 3.58632 8.31852C2.77045 7.50265 2.37235 6.40201 2.44643 5.29944L4.78664 7.63965L8.43643 3.9898L6.09634 1.64965C7.19885 1.5754 8.2995 1.97371 9.11537 2.78953C10.152 3.82612 10.1597 4.95099 9.98367 5.712C9.82005 6.4191 10.0318 7.15075 10.5502 7.66902L20.3959 17.5148C20.9046 18.0235 21.6243 18.2379 22.3205 18.0883C23.391 17.8584 24.3828 18.1626 25.1884 18.9682C26.0042 19.784 26.4023 20.8846 26.3282 21.9872V21.9872Z" fill="#1D88FB"/>
</g>
<defs>
<clipPath id="clip0">
<rect width="28" height="28" fill="white"/>
</clipPath>
</defs>
</svg>
