<svg width="108" height="108" viewBox="0 0 108 108" fill="none" xmlns="http://www.w3.org/2000/svg">
<g clip-path="url(#clip0)">
<path d="M2.22804 77.3825L2.16083 2.30659L73.7662 2.29882L73.7584 77.4371L2.22804 77.3825Z" stroke="#192A3E" stroke-width="3"/>
<path d="M27.0001 2.71285C27 2.70573 27.0058 2.69993 27.0129 2.69991L49.7277 2.62247C49.7348 2.62244 49.7406 2.6282 49.7407 2.63533L49.8573 28.3084C49.8587 28.6323 49.4853 28.8143 49.2307 28.6136L38.536 20.183C38.4936 20.1496 38.4338 20.1498 38.3917 20.1834L27.7456 28.6883C27.4928 28.8903 27.1181 28.7109 27.1167 28.3871L27.0001 2.71285Z" fill="#192A3E"/>
<path d="M72.2156 37H79.5968V79.4516H72.2156V37Z" fill="white"/>
<rect x="75.9061" y="70.9613" width="8.49033" height="36.9062" transform="rotate(90 75.9061 70.9613)" fill="white"/>
<path d="M85.9973 43.3065C86.0939 43.3065 86.1913 43.345 86.2668 43.4206L99.5169 56.7026C99.598 56.7841 99.6482 56.9 99.6482 57.0272V100.764C99.6482 103.954 97.1102 106.5 94.0577 106.5H52.4967C49.4442 106.5 46.9062 103.954 46.9062 100.764V49.0414C46.9062 45.8516 49.444 43.3065 52.4967 43.3065H85.9973Z" stroke="#192A3E" stroke-width="3"/>
<path d="M86.8708 68.1329C86.8708 68.4037 86.6623 68.5721 86.4705 68.5721H59.6828C59.4906 68.5721 59.2825 68.4039 59.2825 68.1329C59.2825 67.8613 59.4901 67.6936 59.6828 67.6936H86.4705C86.6629 67.6936 86.8708 67.8616 86.8708 68.1329Z" stroke="#192A3E" stroke-width="3"/>
<path d="M81.9248 82.0683C81.9248 82.3391 81.7164 82.5076 81.5245 82.5076H59.682C59.4906 82.5076 59.2822 82.3396 59.2822 82.0683C59.2822 81.7965 59.4901 81.629 59.682 81.629H81.5245C81.7171 81.629 81.9248 81.7967 81.9248 82.0683Z" stroke="#192A3E" stroke-width="3"/>
<path d="M84.5595 96.004C84.5595 96.275 84.3513 96.4432 84.1592 96.4432H59.682C59.4906 96.4432 59.2822 96.2753 59.2822 96.004C59.2822 95.7321 59.4901 95.5647 59.682 95.5647H84.1592C84.3518 95.5647 84.5595 95.7324 84.5595 96.004Z" stroke="#192A3E" stroke-width="3"/>
<path d="M86.2666 43.4199L86.2671 43.4204L99.5174 56.7026C99.5175 56.7026 99.5175 56.7027 99.5175 56.7027C99.5986 56.7841 99.6487 56.9 99.6487 57.0272V57.4665H88.5024C86.931 57.4665 85.5975 56.1499 85.5975 54.4713V43.3065H85.9978C86.0951 43.3065 86.1924 43.3454 86.2666 43.4199Z" stroke="#192A3E" stroke-width="3"/>
</g>
<defs>
<clipPath id="clip0">
<rect width="108" height="108" fill="white"/>
</clipPath>
</defs>
</svg>
