<?xml version="1.0" encoding="UTF-8"?>
<svg xmlns="http://www.w3.org/2000/svg" xmlns:xlink="http://www.w3.org/1999/xlink" width="108px" height="108px" viewBox="0 0 108 108" version="1.1">
<g id="surface1">
<path style=" stroke:none;fill-rule:nonzero;fill:rgb(13.72549%,12.156863%,12.54902%);fill-opacity:1;" d="M 8.886719 9.472656 C 12.925781 10.628906 13.386719 14.511719 13.410156 14.695312 C 13.484375 15.464844 14.125 16.046875 14.898438 16.050781 C 14.902344 16.050781 14.90625 16.050781 14.910156 16.050781 C 15.679688 16.050781 16.328125 15.464844 16.40625 14.695312 C 16.421875 14.53125 16.875 10.628906 20.929688 9.472656 C 21.574219 9.285156 22.023438 8.695312 22.023438 8.023438 C 22.023438 7.351562 21.574219 6.761719 20.929688 6.574219 C 16.871094 5.421875 16.421875 1.519531 16.40625 1.363281 C 16.335938 0.59375 15.6875 0.0078125 14.914062 0 C 14.910156 0 14.910156 0 14.90625 0 C 14.136719 0 13.488281 0.585938 13.410156 1.355469 C 13.390625 1.519531 12.9375 5.421875 8.886719 6.578125 C 8.238281 6.761719 7.792969 7.355469 7.792969 8.027344 C 7.792969 8.699219 8.238281 9.289062 8.886719 9.472656 Z M 14.90625 5.710938 C 15.429688 6.519531 16.136719 7.332031 17.085938 8.027344 C 16.136719 8.722656 15.429688 9.535156 14.90625 10.34375 C 14.382812 9.535156 13.675781 8.722656 12.726562 8.027344 C 13.675781 7.332031 14.382812 6.519531 14.90625 5.710938 Z M 14.90625 5.710938 "/>
<path style=" stroke:none;fill-rule:nonzero;fill:rgb(13.72549%,12.156863%,12.54902%);fill-opacity:1;" d="M 8.886719 26.25 C 12.132812 27.175781 12.511719 30.300781 12.53125 30.449219 C 12.605469 31.222656 13.253906 31.808594 14.03125 31.808594 C 14.808594 31.808594 15.460938 31.214844 15.527344 30.4375 C 15.53125 30.40625 15.859375 27.191406 19.171875 26.246094 C 19.816406 26.0625 20.261719 25.46875 20.261719 24.796875 C 20.261719 24.128906 19.816406 23.535156 19.171875 23.351562 C 15.910156 22.417969 15.542969 19.28125 15.527344 19.160156 C 15.460938 18.386719 14.816406 17.800781 14.042969 17.792969 C 14.039062 17.792969 14.03125 17.792969 14.03125 17.792969 C 13.261719 17.792969 12.613281 18.382812 12.53125 19.144531 C 12.519531 19.277344 12.148438 22.417969 8.890625 23.351562 C 8.242188 23.535156 7.796875 24.128906 7.796875 24.796875 C 7.796875 25.46875 8.238281 26.066406 8.886719 26.25 Z M 14.027344 23.269531 C 14.40625 23.800781 14.882812 24.328125 15.476562 24.800781 C 14.882812 25.273438 14.40625 25.800781 14.027344 26.335938 C 13.648438 25.800781 13.171875 25.273438 12.574219 24.800781 C 13.171875 24.328125 13.648438 23.800781 14.027344 23.269531 Z M 14.027344 23.269531 "/>
<path style=" stroke:none;fill-rule:nonzero;fill:rgb(13.72549%,12.156863%,12.54902%);fill-opacity:1;" d="M 19.007812 16.597656 C 19.007812 17.269531 19.453125 17.859375 20.101562 18.046875 C 26.320312 19.820312 26.996094 25.789062 27.023438 26.058594 C 27.097656 26.828125 27.742188 27.417969 28.515625 27.417969 C 28.519531 27.417969 28.519531 27.417969 28.523438 27.417969 C 29.296875 27.417969 29.945312 26.828125 30.023438 26.0625 C 30.046875 25.808594 30.714844 19.824219 36.945312 18.046875 C 37.59375 17.859375 38.039062 17.269531 38.039062 16.597656 C 38.039062 15.925781 37.59375 15.335938 36.945312 15.148438 C 30.714844 13.367188 30.050781 7.382812 30.023438 7.136719 C 29.953125 6.363281 29.304688 5.777344 28.53125 5.769531 C 28.527344 5.769531 28.527344 5.769531 28.523438 5.769531 C 27.75 5.769531 27.101562 6.359375 27.023438 7.128906 C 27 7.382812 26.332031 13.367188 20.101562 15.144531 C 19.453125 15.335938 19.007812 15.925781 19.007812 16.597656 Z M 28.519531 12.039062 C 29.375 13.621094 30.710938 15.316406 32.792969 16.597656 C 30.710938 17.882812 29.378906 19.574219 28.519531 21.160156 C 27.664062 19.574219 26.328125 17.882812 24.25 16.597656 C 26.328125 15.3125 27.664062 13.621094 28.519531 12.039062 Z M 28.519531 12.039062 "/>
<path style=" stroke:none;fill-rule:nonzero;fill:rgb(13.72549%,12.156863%,12.54902%);fill-opacity:1;" d="M 106.632812 38.4375 C 106.632812 19.53125 91.25 4.148438 72.34375 4.148438 C 54.324219 4.148438 39.507812 18.121094 38.160156 35.800781 L 5.363281 35.800781 C 4.53125 35.800781 3.855469 36.476562 3.855469 37.308594 L 3.855469 49.449219 C 3.855469 50.28125 4.53125 50.953125 5.363281 50.953125 L 7.792969 50.953125 L 7.792969 106.492188 C 7.792969 107.324219 8.46875 108 9.296875 108 L 81.378906 108 C 82.210938 108 82.882812 107.324219 82.882812 106.492188 L 82.882812 71.0625 C 96.648438 66.605469 106.632812 53.664062 106.632812 38.4375 Z M 34.359375 50.953125 L 40.425781 50.953125 C 42.398438 55.976562 45.527344 60.417969 49.480469 63.960938 L 47.234375 66.046875 L 41.980469 61.011719 C 41.476562 60.523438 40.699219 60.453125 40.109375 60.839844 L 34.359375 64.636719 Z M 34.359375 47.945312 L 34.359375 38.8125 L 38.0625 38.8125 C 38.097656 41.976562 38.558594 45.039062 39.398438 47.945312 Z M 6.867188 38.8125 L 31.347656 38.8125 L 31.347656 47.945312 L 6.867188 47.945312 Z M 79.875 104.988281 L 10.804688 104.988281 L 10.804688 50.953125 L 31.34375 50.953125 L 31.34375 67.429688 C 31.34375 67.984375 31.648438 68.492188 32.136719 68.753906 C 32.625 69.015625 33.21875 68.988281 33.679688 68.6875 L 40.761719 64.011719 L 46.175781 69.203125 C 46.46875 69.484375 46.839844 69.621094 47.21875 69.621094 C 47.585938 69.621094 47.953125 69.488281 48.246094 69.21875 L 51.824219 65.886719 C 57.550781 70.175781 64.652344 72.722656 72.34375 72.722656 C 74.929688 72.722656 77.445312 72.433594 79.871094 71.886719 L 79.871094 104.988281 Z M 72.34375 69.710938 C 55.097656 69.710938 41.070312 55.679688 41.070312 38.433594 C 41.070312 21.1875 55.097656 7.160156 72.34375 7.160156 C 89.589844 7.160156 103.621094 21.191406 103.621094 38.4375 C 103.621094 55.683594 89.589844 69.710938 72.34375 69.710938 Z M 72.34375 69.710938 "/>
<path style=" stroke:none;fill-rule:nonzero;fill:rgb(13.72549%,12.156863%,12.54902%);fill-opacity:1;" d="M 90.949219 36.113281 C 86.207031 31.476562 79.046875 29.976562 76.046875 29.53125 L 76.046875 22.515625 C 76.046875 21.972656 75.753906 21.472656 75.28125 21.207031 C 74.808594 20.9375 74.226562 20.945312 73.761719 21.226562 L 49.242188 36.027344 C 48.789062 36.300781 48.511719 36.792969 48.511719 37.324219 C 48.515625 37.851562 48.792969 38.339844 49.246094 38.613281 L 73.769531 53.195312 C 74.234375 53.472656 74.8125 53.480469 75.285156 53.210938 C 75.753906 52.941406 76.046875 52.441406 76.046875 51.902344 L 76.046875 44.566406 C 77.683594 44.707031 80.542969 45.136719 83.816406 46.457031 C 88.71875 48.429688 92.6875 55.167969 92.726562 55.238281 C 93 55.707031 93.5 55.988281 94.027344 55.988281 C 94.125 55.988281 94.222656 55.976562 94.320312 55.957031 C 94.953125 55.832031 95.4375 55.316406 95.519531 54.675781 C 95.585938 54.167969 97.09375 42.121094 90.949219 36.113281 Z M 84.941406 43.664062 C 79.847656 41.613281 75.640625 41.492188 74.691406 41.492188 C 74.582031 41.492188 74.515625 41.492188 74.496094 41.492188 C 73.683594 41.519531 73.035156 42.183594 73.035156 43 L 73.035156 49.257812 L 52.949219 37.3125 L 73.035156 25.1875 L 73.035156 30.867188 C 73.035156 31.652344 73.636719 32.304688 74.417969 32.367188 C 74.511719 32.371094 83.617188 33.15625 88.84375 38.265625 C 91.875 41.226562 92.605469 46.332031 92.699219 49.984375 C 90.835938 47.683594 88.109375 44.9375 84.941406 43.664062 Z M 84.941406 43.664062 "/>
</g>
</svg>
