<svg width="108" height="108" viewBox="0 0 108 108" fill="none" xmlns="http://www.w3.org/2000/svg">
<g clip-path="url(#clip0)">
<path d="M54 37.125C44.6949 37.125 37.125 44.6951 37.125 54C37.125 63.3049 44.6951 70.875 54 70.875C63.3049 70.875 70.875 63.3049 70.875 54C70.875 44.6951 63.3051 37.125 54 37.125ZM54 62.4375C49.3476 62.4375 45.5625 58.6524 45.5625 54C45.5625 49.3476 49.3476 45.5625 54 45.5625C58.6524 45.5625 62.4375 49.3476 62.4375 54C62.4375 58.6524 58.6524 62.4375 54 62.4375Z" fill="black"/>
<path d="M105.925 66.5797L95.001 58.209C95.3082 55.3139 95.2894 52.5095 95.001 49.7912L105.925 41.4205C107.619 40.1228 108.077 37.765 106.992 35.9275L96.4133 18.0025C95.3594 16.2167 93.1638 15.4615 91.2341 16.2215L78.2731 21.3262C75.9059 19.6322 73.3724 18.1967 70.6996 17.0355L68.7539 3.61357C68.4531 1.539 66.6749 0 64.5788 0H43.4209C41.3248 0 39.5466 1.539 39.246 3.61378L37.3003 17.0357C34.6276 18.1972 32.094 19.6324 29.7268 21.3264L16.7658 16.2217C14.8357 15.4615 12.6405 16.2169 11.5866 18.0027L1.00749 35.9275C-0.0769362 37.765 0.38122 40.1228 2.07463 41.4205L12.9989 49.791C12.6917 52.6861 12.7105 55.4905 12.9989 58.2088L2.07484 66.5795C0.38122 67.8772 -0.0769363 70.235 1.0077 72.0725L11.5864 89.9975C12.6403 91.7833 14.8357 92.5385 16.7656 91.7785L29.7268 86.674C32.0936 88.3676 34.6273 89.8033 37.3001 90.9645L39.2458 104.386C39.5466 106.461 41.3248 108 43.4209 108H64.5788C66.6749 108 68.4531 106.461 68.7539 104.387L70.6996 90.9647C73.3724 89.8035 75.9061 88.368 78.2728 86.6742L91.2341 91.7787C93.164 92.5387 95.3594 91.7833 96.4133 89.9977L106.992 72.0727C108.077 70.2352 107.618 67.8774 105.925 66.5797ZM90.9766 82.6086L79.1541 77.9526C77.7375 77.3951 76.1318 77.6431 74.9502 78.6016C72.0976 80.9163 68.8958 82.7269 65.4339 83.9837C63.9725 84.5142 62.9217 85.8054 62.6985 87.3439L60.9275 99.5625H47.072L45.3012 87.3439C45.078 85.8054 44.0271 84.5142 42.5658 83.9837C39.1039 82.7267 35.902 80.916 33.0495 78.6016C31.8679 77.6431 30.2614 77.3951 28.8455 77.9526L17.0231 82.6086L10.1738 71.003L20.0794 63.4127C21.3244 62.4586 21.9376 60.8928 21.6709 59.3471C21.0499 55.7453 21.0704 52.1357 21.6709 48.6527C21.9376 47.107 21.3244 45.541 20.0794 44.5871L10.1738 36.9967L17.0231 25.3912L28.8455 30.0472C30.262 30.6051 31.8679 30.3566 33.0495 29.3981C35.9023 27.0837 39.1041 25.2731 42.5658 24.0163C44.0271 23.4858 45.078 22.1946 45.3012 20.6561L47.0722 8.4375H60.9277L62.6985 20.6561C62.9217 22.1946 63.9725 23.4858 65.4339 24.0163C68.8956 25.2731 72.0974 27.0837 74.9502 29.3981C76.1318 30.3569 77.7381 30.6049 79.1541 30.0472L90.9766 25.3912L97.8257 36.9967L87.9201 44.5871C86.6751 45.5412 86.0619 47.107 86.3285 48.6527C86.9495 52.2545 86.9291 55.8641 86.3285 59.3471C86.0619 60.8928 86.6751 62.4588 87.9201 63.4127L97.8257 71.003L90.9766 82.6086Z" fill="black" stroke="white"/>
</g>
<defs>
<clipPath id="clip0">
<rect width="108" height="108" fill="white"/>
</clipPath>
</defs>
</svg>
