<svg width="108" height="108" viewBox="0 0 108 108" fill="none" xmlns="http://www.w3.org/2000/svg">
<path d="M47.2506 13.5H24.7505V17.9999H47.2506V13.5Z" fill="black"/>
<path d="M29.2504 22.5001H24.7505V27.0001H29.2504V22.5001Z" fill="black"/>
<path d="M38.2499 22.5001H33.75V27.0001H38.2499V22.5001Z" fill="black"/>
<path d="M96.0912 18.6593L78.0913 0.65918C77.6694 0.237305 77.0972 0 76.5006 0H18.0005C14.2726 0 11.2505 3.0221 11.2505 6.75V101.25C11.2505 104.978 14.2726 108 18.0005 108H90.0004C93.7283 108 96.7504 104.978 96.7504 101.25V20.25C96.7504 19.6533 96.5133 19.0812 96.0912 18.6593ZM92.2505 101.25C92.2505 102.493 91.243 103.5 90.0004 103.5H18.0005C16.7579 103.5 15.7504 102.493 15.7504 101.25V6.75C15.7504 5.50737 16.7579 4.49993 18.0005 4.49993H75.5689L92.2505 21.1815V101.25V101.25Z" fill="black"/>
<path d="M81 17.9998C79.7574 17.9998 78.7499 16.9924 78.7499 15.7498V2.24976H74.25V15.7498C74.25 19.4777 77.2721 22.4998 81 22.4998H85.4999V17.9998H81Z" fill="black"/>
<path d="M74.2494 42.7501H49.4995V47.25H76.4995V45C76.4995 43.7573 75.4921 42.7501 74.2494 42.7501Z" fill="black"/>
<path d="M78.75 49.5002H51.75V42.7502C51.75 40.2649 49.7354 38.2502 47.2501 38.2502H29.2502C26.7649 38.2502 24.7502 40.2649 24.7502 42.7502V90.0002C24.7502 92.4854 26.7649 94.5001 29.2502 94.5001H45.0002V90.0002H29.2502V42.7502H47.2501V51.7502C47.2501 52.9929 48.2575 54.0003 49.5002 54.0003H78.7502V90.0004H63.0002V94.5001H78.7502C81.2355 94.5001 83.2502 92.4854 83.2502 90.0002V54.0001C83.2502 51.5148 81.2353 49.5002 78.75 49.5002Z" fill="black"/>
<path d="M49.5001 49.5001H40.5V54H49.5001V49.5001Z" fill="black"/>
<path d="M55.5906 63.6592C54.712 62.7809 53.2878 62.7809 52.409 63.6592L43.4089 72.6593L46.5905 75.8409L53.9999 68.4315L61.4091 75.8407L64.5907 72.6591L55.5906 63.6592Z" fill="black"/>
<path d="M56.2504 65.2499H51.7505V94.4999H56.2504V65.2499Z" fill="black"/>
</svg>
