<svg width="108" height="108" viewBox="0 0 108 108" fill="none" xmlns="http://www.w3.org/2000/svg">
<g clip-path="url(#clip0)">
<path d="M29.1915 4.88739C29.208 4.87893 29.225 4.87153 29.2424 4.86525L29.3027 4.85393C29.3316 4.84849 29.3609 4.84549 29.3903 4.84497H81.7967C81.9231 4.84497 82.0443 4.89518 82.1336 4.98455C82.223 5.07392 82.2732 5.19514 82.2732 5.32153V6.7981V56H81.3201V6.7981V5.7981H80.3201H30.8603H29.8603V6.7981V24.5466C29.8602 24.6732 29.81 24.7945 29.7205 24.884C29.631 24.9734 29.5097 25.0237 29.3832 25.0238H11.6313H10.6313V26.0238V101.202V102.202H11.6313H43V103.158H10.1572H10.1566C10.0942 103.158 10.0322 103.146 9.97446 103.122C9.91669 103.098 9.8642 103.063 9.81999 103.019C9.7758 102.975 9.74074 102.922 9.71682 102.865C9.69292 102.807 9.68063 102.745 9.68066 102.682V102.682V24.5551C9.68103 24.5257 9.68406 24.4964 9.68973 24.4676L9.69771 24.427C9.70575 24.4018 9.71584 24.3773 9.72789 24.3538L9.72793 24.3538L9.7319 24.3458C9.73194 24.3458 9.73202 24.3456 9.73216 24.3453C9.73268 24.3444 9.73399 24.3419 9.73655 24.3372L9.74454 24.3226L9.7549 24.3038C9.77439 24.2686 9.79831 24.236 9.82606 24.2068L29.0395 4.98919C29.069 4.96144 29.1017 4.93743 29.1371 4.91773L29.1532 4.9088L29.1688 4.89929L29.175 4.89563L29.1817 4.8924L29.1915 4.88739ZM10.1572 104.158C9.96329 104.159 9.77123 104.12 9.59204 104.046C9.41284 103.972 9.25003 103.863 9.11289 103.726C8.97576 103.589 8.867 103.426 8.79284 103.247C8.71867 103.068 8.68055 102.876 8.68066 102.682V24.5506C8.68132 24.458 8.69064 24.3656 8.70851 24.2747L10.1572 104.158Z" stroke="black" stroke-width="2"/>
<path d="M67.0481 43.7668H24.9028C24.5112 43.7668 24.1357 43.9224 23.8587 44.1993C23.5818 44.4762 23.4263 44.8518 23.4263 45.2434C23.4263 45.635 23.5818 46.0106 23.8587 46.2875C24.1357 46.5644 24.5112 46.72 24.9028 46.72H67.0481C67.4398 46.72 67.8153 46.5644 68.0922 46.2875C68.3691 46.0106 68.5247 45.635 68.5247 45.2434C68.5247 44.8518 68.3691 44.4762 68.0922 44.1993C67.8153 43.9224 67.4398 43.7668 67.0481 43.7668V43.7668Z" fill="black"/>
<path d="M67.0481 52.9874H24.9028C24.5112 52.9874 24.1357 53.143 23.8587 53.4199C23.5818 53.6968 23.4263 54.0724 23.4263 54.464C23.4263 54.8556 23.5818 55.2312 23.8587 55.5081C24.1357 55.785 24.5112 55.9406 24.9028 55.9406H67.0481C67.4398 55.9406 67.8153 55.785 68.0922 55.5081C68.3691 55.2312 68.5247 54.8556 68.5247 54.464C68.5247 54.0724 68.3691 53.6968 68.0922 53.4199C67.8153 53.143 67.4398 52.9874 67.0481 52.9874Z" fill="black"/>
<path d="M67.0481 34.5438H24.9028C24.5112 34.5438 24.1357 34.6994 23.8587 34.9763C23.5818 35.2532 23.4263 35.6288 23.4263 36.0204C23.4263 36.412 23.5818 36.7876 23.8587 37.0645C24.1357 37.3414 24.5112 37.4969 24.9028 37.4969H67.0481C67.4398 37.4969 67.8153 37.3414 68.0922 37.0645C68.3691 36.7876 68.5247 36.412 68.5247 36.0204C68.5247 35.6288 68.3691 35.2532 68.0922 34.9763C67.8153 34.6994 67.4398 34.5438 67.0481 34.5438Z" fill="black"/>
<path d="M44.6235 18.6782H67.0479C67.4395 18.6782 67.8151 18.5227 68.092 18.2457C68.3689 17.9688 68.5244 17.5933 68.5244 17.2017C68.5244 16.8101 68.3689 16.4345 68.092 16.1576C67.8151 15.8807 67.4395 15.7251 67.0479 15.7251H44.6235C44.2319 15.7251 43.8564 15.8807 43.5794 16.1576C43.3025 16.4345 43.147 16.8101 43.147 17.2017C43.147 17.5933 43.3025 17.9688 43.5794 18.2457C43.8564 18.5227 44.2319 18.6782 44.6235 18.6782Z" fill="black"/>
<path d="M30.5349 76.6277H24.9028C24.5112 76.6277 24.1357 76.7833 23.8587 77.0602C23.5818 77.3371 23.4263 77.7126 23.4263 78.1042V90.7985C23.4262 90.9924 23.4643 91.1845 23.5384 91.3637C23.6126 91.5428 23.7214 91.7057 23.8585 91.8428C23.9956 91.9799 24.1585 92.0887 24.3376 92.1629C24.5168 92.237 24.7089 92.2751 24.9028 92.275H30.5349C30.9265 92.275 31.302 92.1195 31.579 91.8425C31.8559 91.5656 32.0114 91.1901 32.0114 90.7985V78.1042C32.0112 77.7127 31.8556 77.3373 31.5787 77.0604C31.3018 76.7835 30.9264 76.6279 30.5349 76.6277V76.6277ZM29.0583 89.3219H26.3794V79.5808H29.0583V89.3219Z" fill="black"/>
<path d="M42.7058 67.7091H37.0737C36.8797 67.7092 36.6876 67.7475 36.5084 67.8219C36.3292 67.8962 36.1664 68.0052 36.0293 68.1424C35.8922 68.2797 35.7835 68.4426 35.7093 68.6219C35.6352 68.8012 35.5971 68.9933 35.5972 69.1874V90.8C35.5972 91.1916 35.7527 91.5672 36.0296 91.8441C36.3066 92.121 36.6821 92.2766 37.0737 92.2766H42.7058C42.8997 92.2767 43.0918 92.2386 43.271 92.1644C43.4501 92.0902 43.613 91.9815 43.7501 91.8444C43.8872 91.7072 43.996 91.5444 44.0702 91.3652C44.1443 91.186 44.1824 90.994 44.1823 90.8V69.1874C44.1825 68.9933 44.1445 68.8011 44.0704 68.6218C43.9963 68.4424 43.8876 68.2795 43.7505 68.1422C43.6133 68.0049 43.4505 67.896 43.2712 67.8217C43.092 67.7474 42.8998 67.7091 42.7058 67.7091V67.7091ZM41.2292 89.3218H38.5503V70.6622H41.2292V89.3218Z" fill="black"/>
<g clip-path="url(#clip1)">
<path d="M63.0668 91.2926C59.9784 91.2926 57.4668 93.8042 57.4668 96.8926C57.4668 99.981 59.9784 102.493 63.0668 102.493C66.1552 102.493 68.6668 99.981 68.6668 96.8926C68.6668 93.8042 66.1551 91.2926 63.0668 91.2926ZM63.0668 100.626C61.0078 100.626 59.3335 98.9515 59.3335 96.8926C59.3335 94.8336 61.0079 93.1593 63.0668 93.1593C65.1257 93.1593 66.8001 94.8337 66.8001 96.8926C66.8001 98.9515 65.1257 100.626 63.0668 100.626Z" fill="black" stroke="black" stroke-width="0.5"/>
<path d="M94.8 91.2926C91.7115 91.2926 89.2 93.8042 89.2 96.8926C89.2 99.981 91.7115 102.493 94.8 102.493C97.8884 102.493 100.4 99.981 100.4 96.8926C100.4 93.8042 97.8884 91.2926 94.8 91.2926ZM94.8 100.626C92.741 100.626 91.0667 98.9515 91.0667 96.8926C91.0667 94.8336 92.7411 93.1593 94.8 93.1593C96.8589 93.1593 98.5333 94.8337 98.5333 96.8926C98.5333 98.9515 96.8589 100.626 94.8 100.626Z" fill="black" stroke="black" stroke-width="0.5"/>
<path d="M105.852 86.1209L97.4517 73.0542C97.28 72.7872 96.9841 72.6257 96.6667 72.6257H86.4001C85.884 72.6257 85.4668 73.0439 85.4668 73.559V96.8923C85.4668 97.4085 85.884 97.8256 86.4001 97.8256H90.1334V95.9589H87.3334V74.4924H96.1571L104.133 86.9002V95.9591H99.4667V97.8257H105.067C105.583 97.8257 106 97.4086 106 96.8924V86.6257C106 86.4475 105.949 86.271 105.852 86.1209Z" fill="black" stroke="black" stroke-width="0.5"/>
<path d="M91.0665 84.7591V78.2258H98.5333V76.3591H90.1332C89.6171 76.3591 89.2 76.7773 89.2 77.2924V85.6924C89.2 86.2086 89.6171 86.6257 90.1332 86.6257H104.133V84.759H91.0665V84.7591Z" fill="black" stroke="black" stroke-width="0.5"/>
<path d="M86.4 66.0927H50.9333C50.4181 66.0927 50 66.5108 50 67.0259V96.8927C50 97.4088 50.4181 97.826 50.9333 97.826H58.4V95.9593H51.8667V67.9592H85.4667V95.9593H67.7333V97.826H86.4C86.9161 97.826 87.3333 97.4088 87.3333 96.8927V67.0259C87.3333 66.5108 86.9161 66.0927 86.4 66.0927Z" fill="black" stroke="black" stroke-width="0.5"/>
<path d="M56.5331 92.2258H50.9331V94.0925H56.5331V92.2258Z" fill="black" stroke="black" stroke-width="0.5"/>
<path d="M85.4668 92.2258H69.6001V94.0925H85.4668V92.2258Z" fill="black" stroke="black" stroke-width="0.5"/>
<path d="M105.067 92.2258H101.333V94.0925H105.067V92.2258Z" fill="black" stroke="black" stroke-width="0.5"/>
<path d="M86.4003 69.8256H53.7336V71.6923H86.4003V69.8256Z" fill="black" stroke="black" stroke-width="0.5"/>
<path d="M64 95.9589H62.1333V97.8256H64V95.9589Z" fill="black" stroke="black" stroke-width="0.5"/>
<path d="M95.7334 95.9589H93.8667V97.8256H95.7334V95.9589Z" fill="black" stroke="black" stroke-width="0.5"/>
<path d="M66.8004 62.3591H53.7336V64.2258H66.8004V62.3591Z" fill="black" stroke="black" stroke-width="0.5"/>
<path d="M51.8667 62.3591H50V64.2258H51.8667V62.3591Z" fill="black" stroke="black" stroke-width="0.5"/>
</g>
</g>
<defs>
<clipPath id="clip0">
<rect width="108" height="108" fill="white"/>
</clipPath>
<clipPath id="clip1">
<rect width="56" height="56" fill="white" transform="translate(50 54.4258)"/>
</clipPath>
</defs>
</svg>
