<svg width="108" height="108" viewBox="0 0 108 108" fill="none" xmlns="http://www.w3.org/2000/svg">
<path d="M96.1875 58.2694V25.1775C101.903 24.354 106.312 19.4383 106.312 13.5C106.312 6.98794 101.014 1.6875 94.5 1.6875C87.9863 1.6875 82.6875 6.98794 82.6875 13.5H1.6875V81H52.3986C53.2761 95.1007 64.9958 106.312 79.3125 106.312C94.1996 106.312 106.312 94.1996 106.312 79.3125C106.312 70.8092 102.352 63.2222 96.1875 58.2694ZM94.5 5.0625C99.1524 5.0625 102.938 8.84756 102.938 13.5C102.938 18.1524 99.1524 21.9375 94.5 21.9375C89.8476 21.9375 86.0625 18.1524 86.0625 13.5C86.0625 8.84756 89.8476 5.0625 94.5 5.0625ZM5.0625 16.875H83.1853C83.5886 18.2216 84.2299 19.4619 85.0534 20.5622L74.7326 30.8829C74.0711 30.5657 73.3421 30.375 72.5625 30.375C71.7829 30.375 71.0539 30.5657 70.3941 30.8829L66.9938 27.4826C67.3093 26.8211 67.5 26.0921 67.5 25.3125C67.5 22.5214 65.2286 20.25 62.4375 20.25C59.6464 20.25 57.375 22.5214 57.375 25.3125C57.375 26.0921 57.5657 26.8211 57.8829 27.4809L49.4201 35.9437C48.7586 35.6282 48.0296 35.4375 47.25 35.4375C44.4589 35.4375 42.1875 37.7089 42.1875 40.5C42.1875 43.2911 44.4589 45.5625 47.25 45.5625C50.0411 45.5625 52.3125 43.2911 52.3125 40.5C52.3125 39.7204 52.1218 38.9914 51.8046 38.3316L60.2674 29.8688C60.9289 30.1843 61.6579 30.375 62.4375 30.375C63.2171 30.375 63.9461 30.1843 64.6059 29.8671L68.0062 33.2674C67.6907 33.9289 67.5 34.6579 67.5 35.4375C67.5 38.2286 69.7714 40.5 72.5625 40.5C75.3536 40.5 77.625 38.2286 77.625 35.4375C77.625 34.6579 77.4343 33.9289 77.1171 33.2691L87.4395 22.9483C88.9836 24.1059 90.8162 24.8906 92.8125 25.1792V55.9676C88.8351 53.6574 84.2333 52.3125 79.3125 52.3125C71.2462 52.3125 64.0136 55.8866 59.0625 61.5144V54H48.9375V74.25H52.8052C52.596 75.3519 52.4694 76.4809 52.3986 77.625H5.0625V16.875ZM72.5625 33.75C73.4923 33.75 74.25 34.506 74.25 35.4375C74.25 36.369 73.4923 37.125 72.5625 37.125C71.6327 37.125 70.875 36.369 70.875 35.4375C70.875 34.506 71.6327 33.75 72.5625 33.75ZM60.75 25.3125C60.75 24.381 61.5077 23.625 62.4375 23.625C63.3673 23.625 64.125 24.381 64.125 25.3125C64.125 26.244 63.3673 27 62.4375 27C61.5077 27 60.75 26.244 60.75 25.3125ZM48.9375 40.5C48.9375 41.4315 48.1798 42.1875 47.25 42.1875C46.3202 42.1875 45.5625 41.4315 45.5625 40.5C45.5625 39.5685 46.3202 38.8125 47.25 38.8125C48.1798 38.8125 48.9375 39.5685 48.9375 40.5ZM79.3125 92.8125C71.8689 92.8125 65.8125 86.7561 65.8125 79.3125C65.8125 71.8689 71.8689 65.8125 79.3125 65.8125C86.7561 65.8125 92.8125 71.8689 92.8125 79.3125C92.8125 86.7561 86.7561 92.8125 79.3125 92.8125ZM55.6875 66.2698C54.8792 67.7278 54.2109 69.2685 53.6811 70.875H52.3125V57.375H55.6875V66.2698ZM77.625 55.7736V62.5236C69.1099 63.3741 62.4375 70.578 62.4375 79.3125C62.4375 81.7813 62.9842 84.1219 63.9411 86.238L58.0871 89.6181C56.565 86.4996 55.6875 83.0098 55.6875 79.3125C55.6875 66.8554 65.3856 56.6443 77.625 55.7736ZM79.3125 102.938C71.1889 102.938 64.0102 98.8149 59.7577 92.5509L65.6353 89.1574C68.7032 93.4065 73.683 96.1875 79.3125 96.1875C84.942 96.1875 89.9218 93.4065 92.9897 89.1574L98.8672 92.5509C94.6148 98.8149 87.4361 102.938 79.3125 102.938ZM100.538 89.6181L94.6839 86.238C95.6408 84.1219 96.1875 81.7813 96.1875 79.3125C96.1875 70.578 89.5151 63.3724 81 62.5236V55.7736C93.2394 56.6443 102.938 66.8554 102.938 79.3125C102.938 83.0098 102.06 86.4996 100.538 89.6181Z" fill="black"/>
<path d="M79.3125 69.1875C73.7286 69.1875 69.1875 73.7286 69.1875 79.3125C69.1875 84.8964 73.7286 89.4375 79.3125 89.4375C84.8964 89.4375 89.4375 84.8964 89.4375 79.3125C89.4375 73.7286 84.8964 69.1875 79.3125 69.1875ZM79.3125 86.0625C75.5899 86.0625 72.5625 83.0351 72.5625 79.3125C72.5625 75.5899 75.5899 72.5625 79.3125 72.5625C83.0351 72.5625 86.0625 75.5899 86.0625 79.3125C86.0625 83.0351 83.0351 86.0625 79.3125 86.0625Z" fill="black"/>
<path d="M8.4375 20.25H11.8125V23.625H8.4375V20.25Z" fill="black"/>
<path d="M15.1875 20.25H38.8125V23.625H15.1875V20.25Z" fill="black"/>
<path d="M8.4375 27H11.8125V30.375H8.4375V27Z" fill="black"/>
<path d="M15.1875 27H38.8125V30.375H15.1875V27Z" fill="black"/>
<path d="M8.4375 33.75H11.8125V37.125H8.4375V33.75Z" fill="black"/>
<path d="M15.1875 33.75H38.8125V37.125H15.1875V33.75Z" fill="black"/>
<path d="M8.4375 40.5H11.8125V43.875H8.4375V40.5Z" fill="black"/>
<path d="M15.1875 40.5H38.8125V43.875H15.1875V40.5Z" fill="black"/>
<path d="M8.4375 74.25H18.5625V57.375H8.4375V74.25ZM11.8125 60.75H15.1875V70.875H11.8125V60.75Z" fill="black"/>
<path d="M21.9375 74.25H32.0625V60.75H21.9375V74.25ZM25.3125 64.125H28.6875V70.875H25.3125V64.125Z" fill="black"/>
<path d="M35.4375 74.25H45.5625V47.25H35.4375V74.25ZM38.8125 50.625H42.1875V70.875H38.8125V50.625Z" fill="black"/>
</svg>
