<svg width="48" height="48" viewBox="0 0 48 48" fill="none" xmlns="http://www.w3.org/2000/svg">
<path d="M25.7275 47.937C21.4756 48.2461 17.2182 47.4144 13.3952 45.5277C13.2988 45.4238 6.67752 38.2772 8.00128 30.9987C9.33518 23.6645 20.6657 23.6645 20.6657 23.6645C20.6657 23.6645 5.33349 26.9994 10.0021 31.6657C14.6708 36.3321 24.6674 32.3327 24.6674 32.3327C24.6674 32.3327 33.9997 27.6638 36.665 20.3321C39.3302 13.0004 38.6657 9.66552 38.6657 9.66552C38.6657 9.66552 37.9987 14.3318 27.3327 13.6649C27.3327 13.6649 1.68427 11.6969 5.8432 39.6797C1.75827 34.9685 -0.323889 28.8473 0.040992 22.6222C0.710478 10.6064 10.418 0.812169 22.4281 0.0513569C25.8327 -0.171706 29.2455 0.333592 32.4393 1.53356C35.633 2.73352 38.5341 4.6006 40.9496 7.01028C43.3649 9.41994 45.2388 12.3169 46.4464 15.5079C47.6539 18.6989 48.1673 22.1107 47.9523 25.5158C47.2195 37.4123 37.6185 47.1001 25.7275 47.937Z" fill="#1D88FB"/>
</svg>
